<svg xmlns="http://www.w3.org/2000/svg" xmlns:xlink="http://www.w3.org/1999/xlink" width="300" zoomAndPan="magnify" viewBox="0 0 224.87999 36.000001" height="48" preserveAspectRatio="xMidYMid meet" version="1.0"><defs><clipPath id="535a8ecef7"><path d="M 102 22 L 163.507812 22 L 163.507812 23 L 102 23 Z M 102 22 " clip-rule="nonzero"/></clipPath><clipPath id="c78d47a5c1"><path d="M 127 11 L 163.507812 11 L 163.507812 19 L 127 19 Z M 127 11 " clip-rule="nonzero"/></clipPath><clipPath id="26d8a4bd8d"><path d="M 81 4.210938 L 100 4.210938 L 100 31.210938 L 81 31.210938 Z M 81 4.210938 " clip-rule="nonzero"/></clipPath><clipPath id="9c2cf47ea6"><path d="M 61.34375 4.210938 L 89 4.210938 L 89 30 L 61.34375 30 Z M 61.34375 4.210938 " clip-rule="nonzero"/></clipPath></defs><g clip-path="url(#535a8ecef7)"><path fill="#666666" d="M 102.84375 22.9375 L 112.605469 22.9375 L 112.605469 22.640625 L 102.84375 22.640625 Z M 153.3125 22.9375 L 163.074219 22.9375 L 163.074219 22.640625 L 153.3125 22.640625 Z M 153.3125 22.9375 " fill-opacity="1" fill-rule="evenodd"/></g><path fill="#666666" d="M 105.335938 15.640625 C 105.335938 16.441406 105.335938 17.125 105.289062 17.496094 C 105.261719 17.746094 105.207031 17.9375 105.035156 17.972656 C 104.953125 17.992188 104.847656 18.007812 104.714844 18.007812 C 104.609375 18.007812 104.574219 18.03125 104.574219 18.078125 C 104.574219 18.140625 104.636719 18.164062 104.75 18.164062 C 105.101562 18.164062 105.65625 18.140625 105.859375 18.140625 C 106.105469 18.140625 106.664062 18.164062 107.242188 18.164062 C 107.339844 18.164062 107.410156 18.140625 107.410156 18.078125 C 107.410156 18.03125 107.363281 18.007812 107.269531 18.007812 C 107.136719 18.007812 106.941406 17.992188 106.820312 17.972656 C 106.558594 17.941406 106.503906 17.746094 106.480469 17.503906 C 106.433594 17.125 106.433594 16.441406 106.433594 15.640625 L 106.433594 12.066406 L 107.542969 12.09375 C 108.332031 12.109375 108.566406 12.351562 108.585938 12.582031 L 108.59375 12.675781 C 108.601562 12.808594 108.617188 12.847656 108.691406 12.847656 C 108.746094 12.847656 108.761719 12.796875 108.769531 12.707031 C 108.769531 12.480469 108.792969 11.882812 108.792969 11.699219 C 108.792969 11.566406 108.785156 11.519531 108.722656 11.519531 C 108.691406 11.519531 108.617188 11.535156 108.484375 11.5625 C 108.351562 11.582031 108.160156 11.609375 107.878906 11.609375 L 104.394531 11.609375 C 104.101562 11.609375 103.765625 11.59375 103.511719 11.5625 C 103.289062 11.546875 103.203125 11.460938 103.132812 11.460938 C 103.078125 11.460938 103.050781 11.515625 103.027344 11.625 C 103.011719 11.695312 102.84375 12.488281 102.84375 12.625 C 102.84375 12.722656 102.859375 12.765625 102.921875 12.765625 C 102.976562 12.765625 103.003906 12.734375 103.019531 12.664062 C 103.035156 12.59375 103.082031 12.488281 103.167969 12.359375 C 103.304688 12.167969 103.511719 12.121094 104.023438 12.105469 L 105.335938 12.074219 L 105.335938 15.644531 Z M 112.34375 14.976562 C 112.316406 14.976562 112.289062 14.96875 112.289062 14.925781 L 112.289062 14.765625 C 112.289062 13.644531 112.289062 13.375 112.304688 13.140625 C 112.320312 12.878906 112.382812 12.773438 112.597656 12.738281 C 112.683594 12.722656 112.757812 12.714844 112.820312 12.714844 C 112.914062 12.714844 112.960938 12.6875 112.960938 12.632812 C 112.960938 12.582031 112.90625 12.5625 112.800781 12.5625 C 112.492188 12.5625 111.957031 12.582031 111.769531 12.582031 C 111.558594 12.582031 111.046875 12.5625 110.632812 12.5625 C 110.527344 12.5625 110.464844 12.582031 110.464844 12.632812 C 110.464844 12.6875 110.519531 12.714844 110.601562 12.714844 C 110.710938 12.714844 110.847656 12.722656 110.910156 12.738281 C 111.15625 12.808594 111.226562 12.886719 111.242188 13.140625 C 111.25 13.375 111.25 13.582031 111.25 14.703125 L 111.25 16.011719 C 111.25 16.6875 111.25 17.277344 111.21875 17.585938 C 111.191406 17.804688 111.148438 17.941406 110.988281 17.976562 C 110.917969 17.996094 110.828125 18.003906 110.714844 18.003906 C 110.621094 18.003906 110.589844 18.046875 110.589844 18.082031 C 110.589844 18.136719 110.644531 18.160156 110.742188 18.160156 C 111.050781 18.160156 111.5625 18.136719 111.738281 18.136719 C 111.957031 18.136719 112.492188 18.160156 112.996094 18.160156 C 113.089844 18.160156 113.152344 18.136719 113.152344 18.082031 C 113.152344 18.046875 113.121094 18.003906 113.03125 18.003906 C 112.917969 18.003906 112.738281 17.996094 112.636719 17.976562 C 112.40625 17.945312 112.363281 17.804688 112.335938 17.59375 C 112.300781 17.273438 112.289062 16.707031 112.289062 16.027344 L 112.289062 15.460938 C 112.289062 15.429688 112.3125 15.414062 112.34375 15.414062 L 115.269531 15.414062 C 115.269531 15.414062 115.3125 15.433594 115.3125 15.460938 L 115.3125 16.027344 C 115.3125 16.707031 115.3125 17.273438 115.28125 17.585938 C 115.253906 17.804688 115.210938 17.941406 115.050781 17.976562 C 114.980469 17.996094 114.890625 18.003906 114.769531 18.003906 C 114.683594 18.003906 114.648438 18.046875 114.648438 18.082031 C 114.648438 18.136719 114.710938 18.160156 114.816406 18.160156 C 115.117188 18.160156 115.660156 18.136719 115.835938 18.136719 C 116.050781 18.136719 116.558594 18.160156 117.0625 18.160156 C 117.15625 18.160156 117.21875 18.136719 117.21875 18.082031 C 117.21875 18.046875 117.171875 18.003906 117.09375 18.003906 C 116.96875 18.003906 116.800781 17.996094 116.695312 17.976562 C 116.457031 17.945312 116.417969 17.804688 116.386719 17.59375 C 116.355469 17.273438 116.355469 16.6875 116.355469 16.007812 L 116.355469 14.699219 C 116.355469 13.578125 116.355469 13.371094 116.371094 13.132812 C 116.386719 12.875 116.449219 12.769531 116.652344 12.734375 C 116.746094 12.71875 116.816406 12.707031 116.882812 12.707031 C 116.96875 12.707031 117.023438 12.683594 117.023438 12.628906 C 117.023438 12.578125 116.96875 12.558594 116.855469 12.558594 C 116.554688 12.558594 116.046875 12.578125 115.859375 12.578125 C 115.660156 12.578125 115.113281 12.558594 114.699219 12.558594 C 114.585938 12.558594 114.53125 12.578125 114.53125 12.628906 C 114.53125 12.683594 114.578125 12.707031 114.664062 12.707031 C 114.769531 12.707031 114.902344 12.71875 114.96875 12.734375 C 115.214844 12.804688 115.285156 12.882812 115.300781 13.132812 C 115.308594 13.371094 115.316406 13.640625 115.316406 14.761719 L 115.316406 14.921875 C 115.316406 14.964844 115.292969 14.972656 115.273438 14.972656 L 112.347656 14.972656 Z M 119.898438 16.015625 C 119.898438 16.691406 119.898438 17.28125 119.863281 17.589844 C 119.839844 17.808594 119.792969 17.945312 119.636719 17.980469 C 119.5625 18 119.476562 18.007812 119.363281 18.007812 C 119.265625 18.007812 119.238281 18.050781 119.238281 18.085938 C 119.238281 18.140625 119.292969 18.164062 119.386719 18.164062 C 119.546875 18.164062 119.738281 18.15625 119.925781 18.148438 C 120.109375 18.148438 120.277344 18.140625 120.367188 18.140625 C 120.597656 18.140625 120.882812 18.148438 121.265625 18.15625 C 121.644531 18.171875 122.109375 18.179688 122.691406 18.179688 C 122.980469 18.179688 123.050781 18.179688 123.101562 17.992188 C 123.148438 17.84375 123.207031 17.335938 123.207031 17.171875 C 123.207031 17.09375 123.199219 17 123.136719 17 C 123.082031 17 123.066406 17.03125 123.050781 17.109375 C 122.996094 17.417969 122.90625 17.574219 122.714844 17.660156 C 122.515625 17.746094 122.1875 17.753906 121.984375 17.753906 C 121.191406 17.753906 120.953125 17.644531 120.933594 17.136719 C 120.925781 16.917969 120.933594 16.292969 120.933594 16.039062 L 120.933594 15.449219 C 120.933594 15.402344 120.941406 15.371094 120.980469 15.371094 C 121.171875 15.371094 122.054688 15.386719 122.195312 15.402344 C 122.488281 15.429688 122.585938 15.542969 122.628906 15.691406 C 122.644531 15.789062 122.644531 15.882812 122.652344 15.960938 C 122.652344 15.996094 122.667969 16.023438 122.722656 16.023438 C 122.792969 16.023438 122.800781 15.921875 122.800781 15.859375 C 122.800781 15.804688 122.820312 15.511719 122.835938 15.363281 C 122.882812 14.984375 122.898438 14.867188 122.898438 14.820312 C 122.898438 14.773438 122.875 14.742188 122.835938 14.742188 C 122.796875 14.742188 122.773438 14.789062 122.710938 14.835938 C 122.632812 14.90625 122.527344 14.933594 122.34375 14.949219 C 122.167969 14.964844 121.164062 14.964844 120.988281 14.964844 C 120.941406 14.964844 120.933594 14.933594 120.933594 14.886719 L 120.933594 13.054688 C 120.933594 13.011719 120.953125 12.984375 120.988281 12.984375 C 121.148438 12.984375 122.070312 13.003906 122.203125 13.019531 C 122.59375 13.050781 122.652344 13.160156 122.714844 13.289062 C 122.761719 13.375 122.769531 13.507812 122.769531 13.554688 C 122.769531 13.617188 122.777344 13.652344 122.832031 13.652344 C 122.894531 13.652344 122.910156 13.5625 122.917969 13.527344 C 122.9375 13.441406 122.953125 13.117188 122.964844 13.039062 C 122.980469 12.699219 123.027344 12.613281 123.027344 12.558594 C 123.027344 12.527344 123.019531 12.488281 122.972656 12.488281 C 122.941406 12.488281 122.894531 12.515625 122.847656 12.523438 C 122.785156 12.53125 122.664062 12.554688 122.523438 12.566406 C 122.371094 12.578125 120.65625 12.566406 120.40625 12.566406 C 120.1875 12.566406 119.695312 12.550781 119.289062 12.550781 C 119.175781 12.550781 119.113281 12.566406 119.113281 12.621094 C 119.113281 12.675781 119.167969 12.699219 119.246094 12.699219 C 119.359375 12.699219 119.492188 12.707031 119.554688 12.726562 C 119.800781 12.796875 119.875 12.875 119.890625 13.125 C 119.898438 13.363281 119.898438 13.570312 119.898438 14.691406 Z M 119.898438 16.015625 " fill-opacity="1" fill-rule="nonzero"/><g clip-path="url(#c78d47a5c1)"><path fill="#d19f13" d="M 129.875 14.105469 C 129.875 12.785156 129.875 12.539062 129.890625 12.257812 C 129.90625 11.953125 129.976562 11.804688 130.214844 11.761719 C 130.320312 11.746094 130.375 11.738281 130.460938 11.738281 C 130.535156 11.738281 130.589844 11.722656 130.589844 11.660156 C 130.589844 11.597656 130.527344 11.582031 130.402344 11.582031 C 130.101562 11.582031 129.550781 11.605469 129.339844 11.605469 C 129.125 11.605469 128.574219 11.582031 128.105469 11.582031 C 127.972656 11.582031 127.914062 11.597656 127.914062 11.660156 C 127.914062 11.722656 127.96875 11.738281 128.0625 11.738281 C 128.1875 11.738281 128.335938 11.746094 128.40625 11.761719 C 128.699219 11.824219 128.765625 11.960938 128.785156 12.257812 C 128.804688 12.535156 128.804688 12.777344 128.804688 14.105469 L 128.804688 15.640625 C 128.804688 16.441406 128.804688 17.125 128.757812 17.496094 C 128.722656 17.746094 128.679688 17.9375 128.503906 17.972656 C 128.421875 17.992188 128.320312 18.007812 128.183594 18.007812 C 128.082031 18.007812 128.042969 18.03125 128.042969 18.078125 C 128.042969 18.140625 128.105469 18.164062 128.21875 18.164062 C 128.570312 18.164062 129.125 18.140625 129.332031 18.140625 C 129.550781 18.140625 130.101562 18.164062 130.597656 18.164062 C 130.691406 18.164062 130.765625 18.140625 130.765625 18.078125 C 130.765625 18.03125 130.71875 18.007812 130.652344 18.007812 C 130.539062 18.007812 130.339844 17.992188 130.21875 17.972656 C 130 17.941406 129.917969 17.746094 129.902344 17.503906 C 129.878906 17.125 129.878906 16.441406 129.878906 15.640625 L 129.878906 14.84375 L 129.921875 14.84375 L 130.019531 14.976562 C 130.203125 15.230469 131.9375 17.242188 132.328125 17.582031 C 132.707031 17.914062 132.945312 18.101562 133.417969 18.148438 C 133.601562 18.164062 133.761719 18.164062 134.023438 18.164062 L 134.789062 18.164062 C 134.957031 18.164062 135 18.140625 135 18.078125 C 135 18.023438 134.945312 18.007812 134.886719 18.007812 C 134.785156 18.007812 134.609375 17.980469 134.339844 17.875 C 133.863281 17.691406 133.46875 17.300781 133.082031 16.933594 C 132.742188 16.609375 131.015625 14.769531 130.695312 14.363281 C 130.996094 14.046875 132.328125 12.742188 132.597656 12.480469 C 132.980469 12.117188 133.273438 11.933594 133.550781 11.828125 C 133.71875 11.765625 133.941406 11.734375 134.0625 11.734375 C 134.148438 11.734375 134.195312 11.71875 134.195312 11.65625 C 134.195312 11.59375 134.132812 11.578125 134.042969 11.578125 C 133.773438 11.578125 133.289062 11.601562 133.011719 11.601562 C 132.773438 11.601562 132.289062 11.578125 132.105469 11.578125 C 132.007812 11.578125 131.964844 11.59375 131.964844 11.65625 C 131.964844 11.707031 131.996094 11.726562 132.074219 11.742188 C 132.164062 11.757812 132.203125 11.820312 132.203125 11.914062 C 132.203125 12.0625 132.007812 12.277344 131.761719 12.566406 C 131.507812 12.867188 130.21875 14.164062 129.921875 14.484375 L 129.878906 14.484375 L 129.878906 14.101562 Z M 161.003906 18.257812 C 161.417969 18.257812 161.925781 18.214844 162.300781 17.953125 C 162.863281 17.5625 163.070312 17.117188 163.070312 16.570312 C 163.070312 15.898438 162.753906 15.332031 161.734375 14.773438 L 161.417969 14.601562 C 160.722656 14.21875 160.597656 13.957031 160.597656 13.625 C 160.597656 13.121094 161.097656 12.832031 161.65625 12.832031 C 162.15625 12.832031 162.402344 13.042969 162.519531 13.179688 C 162.6875 13.371094 162.722656 13.597656 162.722656 13.667969 C 162.722656 13.753906 162.746094 13.800781 162.800781 13.800781 C 162.863281 13.800781 162.894531 13.722656 162.894531 13.5625 C 162.894531 12.980469 162.921875 12.769531 162.921875 12.675781 C 162.921875 12.621094 162.886719 12.597656 162.816406 12.582031 C 162.617188 12.527344 162.21875 12.457031 161.71875 12.457031 C 160.644531 12.457031 159.761719 13.039062 159.761719 13.945312 C 159.761719 14.597656 160.0625 15.09375 160.976562 15.625 L 161.425781 15.886719 C 162.109375 16.289062 162.191406 16.609375 162.191406 16.933594 C 162.191406 17.453125 161.785156 17.875 161.117188 17.875 C 160.632812 17.875 160.050781 17.691406 159.882812 17.144531 C 159.835938 17.011719 159.8125 16.855469 159.8125 16.757812 C 159.8125 16.707031 159.804688 16.636719 159.734375 16.636719 C 159.671875 16.636719 159.636719 16.714844 159.636719 16.824219 C 159.628906 16.945312 159.589844 17.40625 159.589844 17.808594 C 159.589844 17.972656 159.617188 18.007812 159.742188 18.0625 C 160.074219 18.210938 160.550781 18.25 161 18.25 Z M 156.925781 11.5625 C 156.652344 11.5625 156.476562 11.5625 156.476562 11.695312 C 156.476562 11.828125 156.699219 12.261719 156.804688 13.347656 C 156.835938 13.65625 156.875 13.785156 156.929688 13.785156 C 156.984375 13.785156 157.015625 13.652344 157.054688 13.347656 C 157.160156 12.261719 157.378906 11.824219 157.378906 11.695312 C 157.378906 11.566406 157.203125 11.5625 156.933594 11.5625 Z M 154.054688 16.851562 C 154.054688 16.484375 154.054688 16.1875 154.0625 15.960938 C 154.070312 15.699219 154.148438 15.597656 154.363281 15.558594 C 154.449219 15.542969 154.511719 15.535156 154.574219 15.535156 C 154.628906 15.535156 154.671875 15.503906 154.671875 15.457031 C 154.671875 15.394531 154.617188 15.386719 154.511719 15.386719 C 154.257812 15.386719 153.851562 15.402344 153.605469 15.402344 C 153.375 15.402344 152.820312 15.386719 152.414062 15.386719 C 152.3125 15.386719 152.25 15.394531 152.25 15.457031 C 152.25 15.503906 152.300781 15.535156 152.375 15.535156 C 152.476562 15.535156 152.613281 15.542969 152.675781 15.558594 C 152.921875 15.628906 153 15.710938 153.007812 15.960938 C 153.015625 16.1875 153.015625 16.464844 153.015625 16.832031 L 153.015625 17.511719 C 153.015625 17.644531 152.984375 17.722656 152.867188 17.773438 C 152.683594 17.851562 152.523438 17.851562 152.320312 17.851562 C 150.664062 17.851562 149.625 16.691406 149.625 15.097656 C 149.625 14.191406 149.902344 13.644531 150.339844 13.296875 C 150.875 12.871094 151.414062 12.863281 151.835938 12.863281 C 152.707031 12.863281 153.289062 13.191406 153.515625 13.429688 C 153.714844 13.640625 153.761719 13.871094 153.777344 14.039062 C 153.785156 14.101562 153.804688 14.132812 153.855469 14.132812 C 153.917969 14.132812 153.960938 14.082031 153.960938 13.96875 C 153.960938 13.039062 154.015625 12.835938 154.015625 12.75 C 154.015625 12.695312 154 12.671875 153.910156 12.664062 C 153.726562 12.65625 153.453125 12.609375 153.296875 12.585938 C 153.136719 12.550781 152.460938 12.460938 151.921875 12.460938 C 151.269531 12.460938 150.578125 12.515625 149.835938 12.941406 C 149.121094 13.347656 148.480469 14.175781 148.480469 15.363281 C 148.480469 17.40625 150.160156 18.261719 152.0625 18.261719 C 152.671875 18.261719 153.4375 18.183594 153.957031 17.933594 C 154.054688 17.878906 154.054688 17.871094 154.054688 17.671875 Z M 141.390625 14.132812 L 141.417969 14.132812 C 141.566406 14.265625 142.382812 15.164062 143.230469 15.964844 C 144.039062 16.742188 145.007812 17.65625 145.492188 18.097656 C 145.570312 18.175781 145.679688 18.253906 145.808594 18.253906 C 145.871094 18.253906 145.933594 18.183594 145.933594 18.019531 L 146.019531 13.355469 C 146.03125 12.9375 146.09375 12.804688 146.300781 12.742188 C 146.398438 12.71875 146.460938 12.71875 146.539062 12.71875 C 146.628906 12.71875 146.671875 12.683594 146.671875 12.636719 C 146.671875 12.578125 146.601562 12.566406 146.496094 12.566406 C 146.117188 12.566406 145.828125 12.585938 145.742188 12.585938 C 145.574219 12.585938 145.160156 12.566406 144.753906 12.566406 C 144.640625 12.566406 144.5625 12.578125 144.5625 12.636719 C 144.5625 12.683594 144.589844 12.71875 144.683594 12.71875 C 144.789062 12.71875 144.976562 12.71875 145.089844 12.761719 C 145.273438 12.832031 145.34375 12.960938 145.351562 13.414062 L 145.433594 16.710938 L 145.398438 16.710938 C 145.285156 16.605469 144.253906 15.558594 143.726562 15.046875 C 142.597656 13.960938 141.4375 12.785156 141.339844 12.6875 C 141.207031 12.554688 141.101562 12.445312 141.007812 12.445312 C 140.925781 12.445312 140.871094 12.546875 140.871094 12.695312 L 140.800781 17.085938 C 140.792969 17.730469 140.769531 17.929688 140.5625 17.980469 C 140.460938 18.007812 140.316406 18.015625 140.210938 18.015625 C 140.140625 18.015625 140.085938 18.046875 140.085938 18.09375 C 140.085938 18.164062 140.160156 18.171875 140.261719 18.171875 C 140.660156 18.171875 141.027344 18.148438 141.097656 18.148438 C 141.242188 18.148438 141.601562 18.171875 142.101562 18.171875 C 142.207031 18.171875 142.277344 18.15625 142.277344 18.09375 C 142.277344 18.046875 142.230469 18.015625 142.144531 18.015625 C 142.023438 18.015625 141.871094 18.007812 141.738281 17.960938 C 141.589844 17.90625 141.492188 17.734375 141.472656 17.160156 L 141.386719 14.140625 Z M 136.398438 16.015625 C 136.398438 16.730469 136.398438 17.320312 136.363281 17.628906 C 136.339844 17.847656 136.292969 17.949219 136.132812 17.980469 C 136.0625 18 135.976562 18.007812 135.863281 18.007812 C 135.765625 18.007812 135.738281 18.050781 135.738281 18.085938 C 135.738281 18.140625 135.792969 18.164062 135.886719 18.164062 C 136.195312 18.164062 136.722656 18.140625 136.898438 18.140625 C 137.113281 18.140625 137.636719 18.164062 138.148438 18.164062 C 138.234375 18.164062 138.296875 18.140625 138.296875 18.085938 C 138.296875 18.050781 138.265625 18.007812 138.171875 18.007812 C 138.058594 18.007812 137.878906 18 137.777344 17.980469 C 137.546875 17.949219 137.496094 17.832031 137.46875 17.636719 C 137.433594 17.320312 137.433594 16.730469 137.433594 16.015625 L 137.433594 14.710938 C 137.433594 13.585938 137.433594 13.378906 137.449219 13.144531 C 137.46875 12.882812 137.53125 12.777344 137.742188 12.742188 C 137.832031 12.726562 137.894531 12.71875 137.972656 12.71875 C 138.050781 12.71875 138.097656 12.699219 138.097656 12.628906 C 138.097656 12.585938 138.035156 12.566406 137.9375 12.566406 C 137.636719 12.566406 137.136719 12.585938 136.945312 12.585938 C 136.722656 12.585938 136.195312 12.566406 135.902344 12.566406 C 135.777344 12.566406 135.71875 12.585938 135.71875 12.628906 C 135.71875 12.699219 135.765625 12.71875 135.839844 12.71875 C 135.9375 12.71875 136.035156 12.726562 136.121094 12.75 C 136.289062 12.804688 136.367188 12.890625 136.382812 13.144531 C 136.394531 13.378906 136.394531 13.589844 136.394531 14.710938 L 136.394531 16.015625 Z M 136.398438 16.015625 " fill-opacity="1" fill-rule="nonzero"/></g><path fill="#666666" d="M 115.820312 21.640625 L 115.449219 21.640625 L 114.441406 23.925781 L 114.855469 23.925781 L 115.089844 23.378906 L 116.171875 23.378906 L 116.40625 23.925781 L 116.832031 23.925781 L 115.824219 21.640625 Z M 116.023438 23.023438 L 115.234375 23.023438 L 115.628906 22.121094 Z M 120.539062 23.5625 L 120.277344 23.300781 C 120.179688 23.390625 120.082031 23.460938 119.980469 23.515625 C 119.882812 23.570312 119.761719 23.59375 119.621094 23.59375 C 119.515625 23.59375 119.414062 23.574219 119.316406 23.53125 C 119.226562 23.492188 119.144531 23.433594 119.074219 23.359375 C 119.007812 23.285156 118.953125 23.199219 118.917969 23.101562 C 118.878906 23.003906 118.863281 22.902344 118.863281 22.789062 C 118.863281 22.675781 118.878906 22.570312 118.917969 22.476562 C 118.953125 22.378906 119.003906 22.292969 119.074219 22.21875 C 119.140625 22.144531 119.222656 22.089844 119.316406 22.046875 C 119.410156 22.003906 119.507812 21.984375 119.621094 21.984375 C 119.75 21.984375 119.867188 22.007812 119.972656 22.0625 C 120.078125 22.117188 120.175781 22.179688 120.265625 22.265625 L 120.523438 21.96875 C 120.46875 21.917969 120.414062 21.871094 120.347656 21.832031 C 120.285156 21.789062 120.21875 21.75 120.148438 21.71875 C 120.078125 21.683594 120 21.664062 119.910156 21.644531 C 119.824219 21.628906 119.726562 21.621094 119.621094 21.621094 C 119.445312 21.621094 119.289062 21.648438 119.144531 21.710938 C 119.003906 21.773438 118.878906 21.855469 118.773438 21.960938 C 118.667969 22.070312 118.585938 22.195312 118.53125 22.339844 C 118.472656 22.480469 118.445312 22.632812 118.445312 22.792969 C 118.445312 22.953125 118.472656 23.109375 118.53125 23.25 C 118.589844 23.390625 118.671875 23.515625 118.773438 23.625 C 118.878906 23.726562 119 23.808594 119.140625 23.871094 C 119.285156 23.933594 119.4375 23.960938 119.605469 23.960938 C 119.714844 23.960938 119.808594 23.953125 119.898438 23.933594 C 119.984375 23.917969 120.070312 23.886719 120.140625 23.851562 C 120.214844 23.8125 120.28125 23.773438 120.347656 23.722656 C 120.414062 23.671875 120.476562 23.621094 120.535156 23.558594 Z M 124.347656 23.5625 L 124.089844 23.300781 C 123.992188 23.390625 123.894531 23.460938 123.792969 23.515625 C 123.691406 23.570312 123.570312 23.59375 123.433594 23.59375 C 123.324219 23.59375 123.226562 23.574219 123.132812 23.53125 C 123.039062 23.492188 122.960938 23.433594 122.890625 23.359375 C 122.824219 23.285156 122.769531 23.199219 122.730469 23.101562 C 122.695312 23.003906 122.675781 22.902344 122.675781 22.789062 C 122.675781 22.675781 122.695312 22.570312 122.730469 22.476562 C 122.769531 22.378906 122.820312 22.292969 122.890625 22.21875 C 122.957031 22.144531 123.035156 22.089844 123.132812 22.046875 C 123.226562 22.003906 123.324219 21.984375 123.433594 21.984375 C 123.5625 21.984375 123.679688 22.007812 123.785156 22.0625 C 123.890625 22.117188 123.984375 22.179688 124.078125 22.265625 L 124.335938 21.96875 C 124.28125 21.917969 124.222656 21.871094 124.160156 21.832031 C 124.097656 21.789062 124.03125 21.75 123.960938 21.71875 C 123.890625 21.683594 123.808594 21.664062 123.722656 21.644531 C 123.632812 21.628906 123.539062 21.621094 123.433594 21.621094 C 123.257812 21.621094 123.097656 21.648438 122.957031 21.710938 C 122.816406 21.773438 122.691406 21.855469 122.585938 21.960938 C 122.480469 22.070312 122.398438 22.195312 122.34375 22.339844 C 122.285156 22.480469 122.253906 22.632812 122.253906 22.792969 C 122.253906 22.953125 122.285156 23.109375 122.34375 23.25 C 122.402344 23.390625 122.484375 23.515625 122.585938 23.625 C 122.691406 23.726562 122.8125 23.808594 122.953125 23.871094 C 123.09375 23.933594 123.25 23.960938 123.417969 23.960938 C 123.527344 23.960938 123.621094 23.953125 123.710938 23.933594 C 123.796875 23.917969 123.878906 23.886719 123.953125 23.851562 C 124.027344 23.8125 124.09375 23.773438 124.160156 23.722656 C 124.222656 23.671875 124.285156 23.621094 124.34375 23.558594 Z M 128.460938 22.789062 C 128.460938 22.628906 128.433594 22.480469 128.375 22.335938 C 128.316406 22.195312 128.230469 22.066406 128.125 21.960938 C 128.023438 21.855469 127.898438 21.773438 127.75 21.710938 C 127.605469 21.648438 127.441406 21.621094 127.265625 21.621094 C 127.089844 21.621094 126.925781 21.652344 126.78125 21.714844 C 126.636719 21.777344 126.507812 21.863281 126.402344 21.96875 C 126.292969 22.078125 126.210938 22.203125 126.148438 22.347656 C 126.089844 22.488281 126.0625 22.640625 126.0625 22.800781 C 126.0625 22.960938 126.089844 23.109375 126.148438 23.257812 C 126.207031 23.394531 126.292969 23.523438 126.398438 23.628906 C 126.5 23.734375 126.625 23.816406 126.773438 23.878906 C 126.917969 23.941406 127.082031 23.972656 127.257812 23.972656 C 127.433594 23.972656 127.597656 23.9375 127.742188 23.875 C 127.886719 23.8125 128.015625 23.726562 128.121094 23.621094 C 128.230469 23.511719 128.3125 23.386719 128.375 23.242188 C 128.433594 23.101562 128.460938 22.949219 128.460938 22.789062 Z M 128.039062 22.796875 C 128.039062 22.910156 128.019531 23.011719 127.980469 23.109375 C 127.941406 23.210938 127.886719 23.292969 127.820312 23.367188 C 127.753906 23.441406 127.671875 23.496094 127.578125 23.542969 C 127.484375 23.582031 127.378906 23.601562 127.265625 23.601562 C 127.152344 23.601562 127.046875 23.582031 126.953125 23.535156 C 126.855469 23.496094 126.773438 23.433594 126.707031 23.363281 C 126.640625 23.289062 126.585938 23.203125 126.546875 23.105469 C 126.507812 23.007812 126.488281 22.90625 126.488281 22.792969 C 126.488281 22.679688 126.507812 22.578125 126.546875 22.480469 C 126.585938 22.378906 126.640625 22.296875 126.707031 22.222656 C 126.773438 22.148438 126.855469 22.09375 126.949219 22.050781 C 127.042969 22.007812 127.148438 21.988281 127.261719 21.988281 C 127.375 21.988281 127.480469 22.007812 127.574219 22.054688 C 127.671875 22.09375 127.753906 22.15625 127.820312 22.226562 C 127.886719 22.300781 127.941406 22.386719 127.980469 22.484375 C 128.019531 22.582031 128.039062 22.6875 128.039062 22.796875 Z M 132.335938 21.660156 L 131.933594 21.660156 L 131.933594 22.964844 C 131.933594 23.175781 131.882812 23.335938 131.777344 23.4375 C 131.675781 23.546875 131.53125 23.59375 131.351562 23.59375 C 131.171875 23.59375 131.027344 23.542969 130.925781 23.429688 C 130.828125 23.316406 130.773438 23.15625 130.773438 22.945312 L 130.773438 21.65625 L 130.371094 21.65625 L 130.371094 22.960938 C 130.371094 23.128906 130.390625 23.273438 130.4375 23.394531 C 130.484375 23.519531 130.550781 23.625 130.632812 23.710938 C 130.71875 23.792969 130.820312 23.859375 130.945312 23.902344 C 131.066406 23.941406 131.199219 23.960938 131.34375 23.960938 C 131.492188 23.960938 131.632812 23.941406 131.753906 23.902344 C 131.875 23.859375 131.980469 23.792969 132.0625 23.710938 C 132.148438 23.625 132.214844 23.519531 132.261719 23.390625 C 132.304688 23.265625 132.332031 23.117188 132.332031 22.949219 L 132.332031 21.664062 Z M 135.945312 23.226562 L 134.722656 21.660156 L 134.347656 21.660156 L 134.347656 23.929688 L 134.75 23.929688 L 134.75 22.316406 L 136.011719 23.929688 L 136.351562 23.929688 L 136.351562 21.660156 L 135.949219 21.660156 L 135.949219 23.226562 Z M 139.363281 22.027344 L 140.089844 22.027344 L 140.089844 21.660156 L 138.230469 21.660156 L 138.230469 22.027344 L 138.957031 22.027344 L 138.957031 23.925781 L 139.363281 23.925781 Z M 142.871094 21.644531 L 142.5 21.644531 L 141.492188 23.929688 L 141.90625 23.929688 L 142.140625 23.382812 L 143.222656 23.382812 L 143.457031 23.929688 L 143.882812 23.929688 L 142.875 21.644531 Z M 143.074219 23.027344 L 142.285156 23.027344 L 142.679688 22.125 Z M 147.332031 23.230469 L 146.109375 21.664062 L 145.738281 21.664062 L 145.738281 23.933594 L 146.136719 23.933594 L 146.136719 22.320312 L 147.402344 23.933594 L 147.738281 23.933594 L 147.738281 21.664062 L 147.335938 21.664062 L 147.335938 23.230469 Z M 150.753906 22.03125 L 151.480469 22.03125 L 151.480469 21.664062 L 149.621094 21.664062 L 149.621094 22.03125 L 150.347656 22.03125 L 150.347656 23.929688 L 150.753906 23.929688 Z M 150.753906 22.03125 " fill-opacity="1" fill-rule="nonzero"/><g clip-path="url(#26d8a4bd8d)"><path fill="#666666" d="M 85.269531 7.203125 C 87.75 9.65625 89.28125 13.042969 89.28125 16.785156 C 89.28125 20.523438 87.75 23.914062 85.269531 26.363281 C 84.300781 27.324219 83.183594 28.140625 81.957031 28.777344 C 83.324219 29.273438 84.800781 29.546875 86.34375 29.546875 C 88.355469 29.546875 90.257812 29.082031 91.945312 28.261719 L 97.96875 31.207031 L 95.335938 25.855469 C 97.632812 23.582031 99.058594 20.441406 99.058594 16.972656 C 99.058594 13.507812 97.632812 10.355469 95.332031 8.085938 C 93.035156 5.8125 89.855469 4.402344 86.34375 4.402344 C 84.964844 4.402344 83.632812 4.621094 82.386719 5.023438 C 83.445312 5.621094 84.414062 6.355469 85.269531 7.203125 Z M 85.269531 7.203125 " fill-opacity="1" fill-rule="evenodd"/></g><g clip-path="url(#9c2cf47ea6)"><path fill="#d19f13" d="M 65.640625 23.523438 L 65.507812 23.34375 C 64.253906 21.457031 63.523438 19.207031 63.523438 16.785156 C 63.523438 13.488281 64.871094 10.507812 67.058594 8.347656 C 69.234375 6.191406 72.253906 4.851562 75.582031 4.851562 C 78.914062 4.851562 81.929688 6.1875 84.113281 8.34375 C 86.292969 10.5 87.644531 13.484375 87.644531 16.78125 C 87.644531 20.074219 86.292969 23.058594 84.113281 25.214844 C 81.929688 27.371094 78.914062 28.707031 75.582031 28.707031 C 72.253906 28.707031 69.234375 27.371094 67.054688 25.214844 C 66.757812 24.921875 66.476562 24.617188 66.214844 24.296875 C 66.191406 24.273438 66.175781 24.246094 66.160156 24.222656 C 69.09375 22.804688 72.6875 21.195312 73.769531 20.847656 C 75.308594 20.351562 76.980469 20.011719 78.316406 20.210938 C 79.210938 20.34375 79.863281 20.621094 80.171875 20.933594 C 80.300781 21.066406 80.363281 21.203125 80.355469 21.335938 C 80.347656 21.464844 80.265625 21.601562 80.101562 21.734375 C 79.132812 22.503906 75.167969 22.902344 72.75 22.425781 C 74.871094 22.960938 78.535156 23.347656 80.316406 21.929688 C 80.546875 21.746094 80.660156 21.550781 80.671875 21.347656 C 80.6875 21.144531 80.59375 20.945312 80.417969 20.757812 C 80.0625 20.394531 79.34375 20.085938 78.375 19.941406 C 76.207031 19.617188 73.445312 20.355469 71.054688 21.207031 L 68.308594 16.609375 C 69.855469 17.613281 71.210938 17.898438 72.371094 17.433594 C 72.753906 17.28125 73.109375 17.039062 73.445312 16.722656 C 73.578125 16.59375 73.707031 16.449219 73.832031 16.292969 C 74.542969 15.40625 75.125 14.09375 75.566406 12.324219 C 76.097656 14.0625 76.746094 15.355469 77.5 16.195312 C 77.636719 16.347656 77.773438 16.480469 77.914062 16.605469 C 78.261719 16.90625 78.632812 17.125 79.023438 17.261719 C 80.347656 17.722656 81.867188 17.226562 83.578125 15.824219 L 80.953125 21.476562 L 84.375 15.546875 C 84.765625 15.523438 85.066406 15.195312 85.058594 14.8125 C 85.050781 14.414062 84.710938 14.101562 84.308594 14.109375 C 83.90625 14.117188 83.589844 14.449219 83.597656 14.851562 L 83.628906 15.027344 C 82.917969 15.664062 82.25 16.136719 81.621094 16.441406 L 81.472656 16.511719 C 81.179688 16.035156 80.964844 15.558594 80.847656 15.058594 C 80.75 14.648438 80.710938 14.210938 80.742188 13.738281 C 81.074219 13.664062 81.320312 13.367188 81.3125 13.015625 C 81.304688 12.617188 80.964844 12.304688 80.566406 12.3125 C 80.164062 12.320312 79.847656 12.652344 79.855469 13.050781 C 79.855469 13.1875 79.902344 13.3125 79.96875 13.417969 C 79.523438 14.078125 79.039062 14.660156 78.53125 15.191406 L 77.917969 15.800781 C 77.132812 14.910156 76.464844 13.460938 75.917969 11.421875 C 76.210938 11.277344 76.410156 10.972656 76.402344 10.628906 C 76.390625 10.15625 75.988281 9.777344 75.507812 9.792969 C 75.027344 9.804688 74.648438 10.199219 74.660156 10.675781 C 74.667969 11.023438 74.882812 11.316406 75.183594 11.445312 C 74.742188 13.507812 74.148438 14.988281 73.410156 15.914062 L 72.765625 15.339844 C 72.230469 14.832031 71.71875 14.28125 71.242188 13.644531 C 71.304688 13.53125 71.339844 13.402344 71.335938 13.269531 C 71.324219 12.875 70.992188 12.554688 70.589844 12.566406 C 70.1875 12.578125 69.871094 12.90625 69.878906 13.308594 C 69.886719 13.660156 70.148438 13.945312 70.484375 14.003906 C 70.535156 14.472656 70.523438 14.910156 70.441406 15.328125 C 70.351562 15.832031 70.167969 16.316406 69.894531 16.808594 L 69.742188 16.746094 C 69.097656 16.472656 68.40625 16.035156 67.664062 15.4375 C 67.675781 15.378906 67.683594 15.316406 67.679688 15.253906 C 67.671875 14.859375 67.335938 14.542969 66.933594 14.550781 C 66.53125 14.558594 66.214844 14.894531 66.222656 15.292969 C 66.230469 15.679688 66.546875 15.984375 66.9375 15.996094 C 67.945312 17.546875 69.269531 19.699219 70.421875 21.445312 C 69.957031 21.621094 67.683594 22.625 65.648438 23.523438 Z M 65.03125 23.792969 C 63.675781 24.390625 62.535156 24.902344 62.277344 25.003906 L 61.777344 25.207031 L 62.460938 26.136719 C 63.0625 25.769531 64.210938 25.175781 65.5625 24.515625 C 65.882812 24.921875 66.226562 25.308594 66.59375 25.671875 C 68.894531 27.945312 72.074219 29.355469 75.582031 29.355469 C 79.09375 29.355469 82.273438 27.945312 84.574219 25.671875 C 86.871094 23.402344 88.296875 20.253906 88.296875 16.785156 C 88.296875 13.3125 86.871094 10.167969 84.574219 7.894531 C 82.273438 5.621094 79.09375 4.210938 75.582031 4.210938 C 72.074219 4.210938 68.894531 5.621094 66.59375 7.894531 C 64.296875 10.171875 62.871094 13.3125 62.871094 16.785156 C 62.871094 19.378906 63.667969 21.792969 65.03125 23.796875 Z M 71.003906 15.429688 C 71.066406 15.09375 71.089844 14.75 71.082031 14.394531 C 71.488281 14.890625 71.914062 15.339844 72.351562 15.757812 L 73.003906 16.347656 L 72.988281 16.363281 C 72.726562 16.605469 72.441406 16.789062 72.144531 16.90625 C 71.632812 17.113281 71.066406 17.140625 70.449219 16.988281 C 70.71875 16.476562 70.90625 15.964844 71.003906 15.433594 Z M 78.335938 16.222656 L 78.320312 16.207031 L 78.945312 15.589844 C 79.363281 15.152344 79.761719 14.679688 80.144531 14.164062 C 80.152344 14.523438 80.191406 14.863281 80.273438 15.191406 C 80.398438 15.722656 80.609375 16.222656 80.90625 16.71875 C 80.292969 16.898438 79.730469 16.902344 79.207031 16.722656 C 78.90625 16.617188 78.613281 16.449219 78.335938 16.222656 Z M 78.335938 16.222656 " fill-opacity="1" fill-rule="evenodd"/></g></svg>