<?xml version="1.0" encoding="UTF-8"?>
<svg id="Layer_1" data-name="Layer 1" xmlns="http://www.w3.org/2000/svg" viewBox="0 0 500 257">
  <defs>
    <style>
      .cls-1 {
        fill: #031d41;
      }

      .cls-2 {
        fill: #071733;
      }

      .cls-3 {
        fill: #869498;
      }

      .cls-4 {
        stroke: #818ea0;
      }

      .cls-4, .cls-5, .cls-6, .cls-7 {
        fill: none;
        stroke-width: 2px;
      }

      .cls-5 {
        stroke: #c3cacc;
      }

      .cls-6 {
        stroke: #475666;
      }

      .cls-7 {
        stroke: #45596d;
      }
    </style>
  </defs>
  <g>
    <path class="cls-4" d="m114.86,55.93c-7.52,1.8-14.67,4.56-21.46,8.27" vector-effect="non-scaling-stroke"/>
    <path class="cls-5" d="m93.4,64.2l-5.84-8.75c-.68-1.03-1.56-1.56-2.65-1.6l-28.61-1.16c-.32-.02-.6.21-.62.51,0,.02,0,.05,0,.07l2.43,28.14c.03.32.19.62.46.82l9.08,6.84" vector-effect="non-scaling-stroke"/>
    <path class="cls-4" d="m67.65,89.07c-4.03,6.67-7.05,13.76-9.07,21.28" vector-effect="non-scaling-stroke"/>
    <path class="cls-5" d="m58.58,110.35l-11.05-2.29c-.74-.16-1.51.04-2.05.54l-21.31,19.59c-.3.28-.37.71-.14.97.02.02.04.04.06.06l21.57,18.01c.28.24.65.35,1.01.3l11.28-1.66" vector-effect="non-scaling-stroke"/>
    <path class="cls-4" d="m57.93,145.87c1.76,7.89,4.57,15.08,8.43,21.56" vector-effect="non-scaling-stroke"/>
    <path class="cls-5" d="m66.36,167.43l-9.29,6.17c-.78.52-1.26,1.39-1.3,2.33l-1.2,28.4c-.02.49.35.91.82.93.04,0,.07,0,.11,0l27.87-2.4c.59-.05,1.11-.37,1.39-.86,1.86-3.16,4.03-6.11,6.51-8.85" vector-effect="non-scaling-stroke"/>
    <path class="cls-4" d="m91.27,193.13c6.49,4.17,13.47,7.28,20.93,9.33" vector-effect="non-scaling-stroke"/>
    <path class="cls-5" d="m112.2,202.47l-2.29,11.7c-.07.35.04.71.29.97l19.74,21.41c.39.42,1.04.46,1.44.09.03-.03.06-.06.09-.09l17.64-21.12c.26-.31.39-.66.36-.98-.3-3.57-.83-7.08-1.6-10.53-.16-.71.06-1.01.75-1.14" vector-effect="non-scaling-stroke"/>
    <path class="cls-4" d="m148.62,202.78c7.28-1.71,14.19-4.39,20.71-8.05" vector-effect="non-scaling-stroke"/>
    <path class="cls-5" d="m169.32,194.73c2.57,3.03,4.69,6.13,6.36,9.29.31.59.89.96,1.53.99l29.28,1.21c.38.02.69-.31.7-.72,0-.03,0-.06,0-.1l-2.46-27.9c-.03-.34-.2-.64-.46-.84l-9.07-6.75" vector-effect="non-scaling-stroke"/>
    <path class="cls-4" d="m195.2,169.91c3.97-6.62,7.05-13.73,9.24-21.32" vector-effect="non-scaling-stroke"/>
    <path class="cls-5" d="m204.44,148.59l11.34,2.22c.64.13,1.29-.05,1.76-.48l21.44-19.69c.25-.23.31-.58.13-.79-.01-.01-.03-.03-.04-.04l-21.73-18.12c-.3-.25-.67-.37-1-.32l-11.57,1.58" vector-effect="non-scaling-stroke"/>
    <path class="cls-4" d="m204.77,112.96c-1.56-7.79-4.27-14.95-8.14-21.46" vector-effect="non-scaling-stroke"/>
    <path class="cls-5" d="m196.62,91.5l9.82-6.69c.4-.27.64-.65.66-1.01l1.09-29.48c.02-.3-.24-.56-.58-.58-.03,0-.06,0-.08,0l-27.6,2.47c-.39.03-.71.18-.88.39l-7.25,9.19" vector-effect="non-scaling-stroke"/>
    <path class="cls-4" d="m171.81,65.8c-6.83-4.21-13.9-7.33-21.21-9.37" vector-effect="non-scaling-stroke"/>
    <path class="cls-5" d="m150.6,56.44l2.15-11.87c.06-.33-.05-.69-.3-.96l-19.85-21.58c-.23-.25-.6-.27-.84-.05-.02.02-.03.03-.05.05l-17.79,21.24c-.55.65-.77,1.64-.61,2.69l1.54,9.97" vector-effect="non-scaling-stroke"/>
    <path class="cls-7" d="m150.6,56.44l-10.7,52.06c-.3,1.44-.01,1.56.86.35l31.05-43.05" vector-effect="non-scaling-stroke"/>
    <path class="cls-7" d="m196.62,91.5l-43.98,28.93c-.13.08-.18.26-.1.39.02.04.05.07.09.09,1.95,1.24,46.31-6.96,52.14-7.94" vector-effect="non-scaling-stroke"/>
    <path class="cls-7" d="m204.44,148.59c-17.2-3.52-34.4-7.04-51.59-10.58-.3-.06-1.51-.05-.65.57,14.31,10.5,28.65,20.94,43,31.33" vector-effect="non-scaling-stroke"/>
    <path class="cls-7" d="m169.32,194.73l-29.19-44.58c-.1-.16-.22-.26-.28-.24l-.19.07c-.19.07-.29.36-.23.7l8.28,51.5c.05.31.23.55.44.56l.47.03" vector-effect="non-scaling-stroke"/>
    <path class="cls-7" d="m112.2,202.47l10.7-52.22c.05-.23.01-.5-.1-.74-.39-.88-.13-.93.76-.15.23.2.38.48.44.81l7.23,43.83c.2,1.22.4,1.21.59-.03l7.02-43.78c.11-.68.71-1.16,1.35-1.08.18.02.35.09.5.2,3.3,2.38,36.55,26.53,36.96,26.36.09-.03.11-.18.04-.32,0-.02-.02-.04-.03-.05l-26.27-36.43c-.39-.54-.3-1.28.19-1.65.14-.11.3-.18.47-.2l44.07-7.25c.25-.05.45-.17.49-.32.05-.18-.14-.31-.56-.37-14.94-2.29-29.85-4.72-44.75-7.31-.36-.06-.59-.41-.53-.77.02-.1.06-.19.11-.27l26.57-37.22c.21-.29.16-.33-.13-.12l-36.11,25.94c-1.32.95-2.11.59-2.38-1.08l-6.98-43.06c-.23-1.4-.46-1.36-.71.13l-7.2,43.79c-.08.52-.58.87-1.11.78-.15-.03-.29-.09-.41-.17-3.3-2.33-36.42-26.1-36.61-25.95-.14.12-.1.42.08.67,7.87,10.82,15.64,21.71,23.33,32.66,1.27,1.81,2.12,3.2,2.53,4.17.09.22-.02.47-.24.56-.03.01-.06.02-.09.03-14.74,2.45-29.49,4.85-44.24,7.19-.44.07-.63.21-.57.4.05.18.33.35.69.4l43.37,7.22c.65.11,1.08.74.95,1.41-.03.19-.11.37-.22.52l-25.95,36.14c-.58.81-.47.93.33.36l35.05-25.17c1.66-1.2,1.91-.97.73.67l-30.3,42.16" vector-effect="non-scaling-stroke"/>
    <path class="cls-7" d="m66.36,167.43l44.21-29.03c.73-.47.64-.68-.25-.63-1.66.11-3.32.29-4.96.55-15.79,2.52-31.6,5.04-47.42,7.55" vector-effect="non-scaling-stroke"/>
    <path class="cls-7" d="m58.58,110.35c4.54.95,52.22,10.97,52.46,10.4.07-.19-.08-.46-.35-.66l-43.04-31.02" vector-effect="non-scaling-stroke"/>
    <path class="cls-7" d="m93.4,64.2l29.27,44.51c.72,1.09.97.99.75-.3l-8.56-52.49" vector-effect="non-scaling-stroke"/>
    <path class="cls-4" d="m445.36,162.72c-19.71,5.28-33.86-4.51-37.02-23.52-3.68-22.2,3.65-51.46,33.42-44.25,6.44,1.56,9.43,5.64,8.97,12.21-.02.29.18.54.44.56.01,0,.03,0,.04,0l4.5-.03c.32,0,.57-.24.57-.53h0v-12.48c0-.22-.26-.46-.64-.58-24.21-8.02-53.77-4.97-58.58,25.83-4.18,26.84,9.39,51.15,39.66,48.41,6.51-.59,12.78-1.66,18.8-3.19.67-.17,1.13-.77,1.1-1.44-.25-7.36-.15-14.7.33-22.03.08-1.22.79-2.2,1.71-2.37l6.11-1.13c.43-.08.76-.28.84-.49.27-.76.34-1.56.21-2.39-.04-.22-.37-.38-.78-.38h-27.61c-.42,0-.77.17-.78.37,0,0,0,.01,0,.02l.14,2.45c.01.15.4.33.9.42l6.56,1.18c.26.05.53.34.69.76,2.09,5.52,1.01,15.86.92,21.92,0,.31-.22.59-.53.67" vector-effect="non-scaling-stroke"/>
    <path class="cls-4" d="m287.79,162.46c-2.39.76-4.8,1.09-7.22.98-.43-.02-.79.21-.81.52,0,0,0,.02,0,.02v2.12c0,.29.36.53.8.53h30.26c.29,0,.53-.24.53-.53v-2.12c0-.29-.35-.53-.78-.53,0,0-.01,0-.02,0-2.62.06-5.19-.29-7.71-1.05-.9-.28-1.53-1.12-1.58-2.11-1.15-20.97-.5-42.27-.46-63.31,0-.36.2-.66.45-.66,0,0,0,0,0,0l19.05.55c.71.02,1.3.69,1.36,1.54l.52,6.9c.04.46.3.82.58.8,0,0,0,0,0,0l4.23-.31c.31-.02.54-.35.54-.75v-12.21c0-.29-.24-.53-.53-.53h-62.92c-.29,0-.53.24-.53.53v12.48c0,.46.23.83.51.84.01,0,.02,0,.03,0l4.51-.34c.3-.03.54-.36.55-.78l.18-6.9c.02-.74.63-1.33,1.38-1.35l19.11-.47c.24,0,.44.29.45.65.11,7.66.13,15.32.04,22.97-.12,10.96.31,25.9-.32,38.97-.09,1.93-.84,3.11-2.23,3.56" vector-effect="non-scaling-stroke"/>
    <path class="cls-4" d="m380.04,161.59c-7.33.98-14.99,1.1-22.99.37-3.28-.3-3.07-2.09-3.12-4.75-.38-18.63-.96-41.3.27-58.87.06-.91.68-1.66,1.49-1.79l6.37-1.06c.42-.07.73-.29.78-.54l.32-2.11c.03-.26-.3-.5-.74-.53-.03,0-.06,0-.09,0h-27.87c-.29,0-.53.24-.53.53v2.13c-.01.3.35.54.79.54h0c2.57,0,5,.55,7.3,1.66.23.12.41.48.48.93.44,3.09.67,6.21.68,9.33.08,16.13.08,32.25-.02,48.38-.01,2.51-.56,4.56-1.65,6.15-.15.23-.49.4-.92.47l-6.12,1.03c-.31.06-.53.28-.53.52v2.12c0,.29.36.53.8.53h52.03c.44,0,.8-.24.8-.53v-13.54c0-.44-.24-.8-.54-.8h-4.24c-.32,0-.58.35-.59.79-.06,2.88-.49,5.7-1.28,8.45-.08.3-.42.53-.84.58" vector-effect="non-scaling-stroke"/>
    <path class="cls-7" d="m131.82,62.49l5.78-7.24c.35-.43.31-.65-.13-.65h-11.68c-.57-.01-.69.2-.35.62l5.86,7.15c.15.17.36.25.48.16.01,0,.03-.02.04-.04" vector-effect="non-scaling-stroke"/>
    <path class="cls-6" d="m83.25,72.54c-.02-.19-.19-.32-.38-.29-.07,0-.14.04-.19.09l-8.11,8.16c-.14.13-.14.35,0,.48.06.06.14.1.22.1l9.15.99c.19.02.35-.12.37-.3,0-.02,0-.04,0-.07l-1.05-9.15" vector-effect="non-scaling-stroke"/>
    <path class="cls-6" d="m188.21,81.36c.19-.02.33-.19.31-.39,0-.08-.04-.15-.1-.21l-8.02-8.08c-.13-.14-.35-.15-.5-.02-.06.06-.1.14-.11.23l-.97,8.98c-.02.19.12.36.31.38.03,0,.05,0,.08,0l8.98-.9" vector-effect="non-scaling-stroke"/>
    <path class="cls-7" d="m57.3,123.36c-.14-.11-.35-.09-.46.06-.04.06-.07.13-.07.2l-.02,11.39c0,.18.15.33.33.32.07,0,.14-.03.2-.07l7.01-5.68c.14-.12.16-.32.05-.46-.01-.02-.03-.03-.05-.05l-6.99-5.71" vector-effect="non-scaling-stroke"/>
    <path class="cls-7" d="m205.64,135.77c.14.12.35.1.46-.04.05-.06.08-.14.08-.22l.08-11.63c0-.18-.14-.33-.33-.33-.08,0-.16.03-.22.08l-7.18,5.77c-.14.11-.17.32-.06.46.01.02.03.03.05.05l7.1,5.86" vector-effect="non-scaling-stroke"/>
    <path class="cls-6" d="m74.51,177.62c-.18.02-.31.18-.29.37,0,.08.04.14.1.2l8.12,8.19c.13.13.34.13.47,0,.06-.05.09-.13.1-.21l1.07-9.2c.02-.18-.11-.34-.29-.36-.02,0-.04,0-.07,0l-9.21,1.01" vector-effect="non-scaling-stroke"/>
    <path class="cls-7" d="m179.55,186.37c.02.18.18.31.37.29.08,0,.14-.04.2-.1l8.12-8.24c.12-.13.12-.34-.01-.47-.05-.05-.12-.08-.19-.09l-9.14-.9c-.18-.02-.34.11-.36.29,0,.03,0,.05,0,.08l1.02,9.13" vector-effect="non-scaling-stroke"/>
    <path class="cls-7" d="m125.12,203.79c-.12.15-.09.36.05.48.06.05.14.07.21.07l11.76-.02c.19,0,.34-.15.34-.34,0-.08-.03-.15-.07-.21l-5.89-7.06c-.12-.14-.34-.16-.48-.04-.02.01-.03.03-.04.04l-5.87,7.08" vector-effect="non-scaling-stroke"/>
    <path class="cls-4" d="m150.34,129.46c0-10.44-8.46-18.9-18.9-18.9s-18.9,8.46-18.9,18.9h0c0,10.44,8.46,18.9,18.9,18.9h0c10.44,0,18.9-8.46,18.9-18.9" vector-effect="non-scaling-stroke"/>
  </g>
  <path class="cls-3" d="m150.6,56.44l-10.7,52.06c-.3,1.44-.01,1.56.86.35l31.05-43.05,7.25-9.19c.17-.21.49-.36.88-.39l27.6-2.47c.33-.03.63.19.66.5,0,.03,0,.05,0,.08l-1.09,29.48c-.01.36-.26.74-.66,1.01l-9.82,6.69-43.98,28.93c-.13.08-.18.26-.1.39.02.04.05.07.09.09,1.95,1.24,46.31-6.96,52.14-7.94l11.57-1.58c.33-.05.69.07,1,.32l21.73,18.12c.21.17.19.52-.03.78-.02.02-.03.04-.05.05l-21.44,19.69c-.47.43-1.12.6-1.76.48l-11.34-2.22c-17.2-3.52-34.4-7.04-51.59-10.58-.3-.06-1.51-.05-.65.57,14.31,10.5,28.65,20.94,43,31.33l9.07,6.75c.26.2.42.5.46.84l2.46,27.9c.03.41-.24.78-.61.82-.03,0-.06,0-.09,0l-29.28-1.21c-.64-.03-1.22-.4-1.53-.99-1.67-3.16-3.79-6.26-6.36-9.29l-29.19-44.58c-.1-.16-.22-.26-.28-.24l-.19.07c-.19.07-.29.36-.23.7l8.28,51.5c.05.31.23.55.44.56l.47.03c-.69.13-.91.42-.75,1.14.77,3.45,1.31,6.97,1.6,10.53.03.31-.1.66-.36.98l-17.64,21.12c-.35.42-1,.46-1.44.09-.03-.03-.06-.06-.09-.09l-19.74-21.41c-.25-.26-.35-.62-.29-.97l2.29-11.7,10.7-52.22c.05-.23.01-.5-.1-.74-.39-.88-.13-.93.76-.15.23.2.38.48.44.81l7.23,43.83c.2,1.22.4,1.21.59-.03l7.02-43.78c.11-.68.71-1.16,1.35-1.08.18.02.35.09.5.2,3.3,2.38,36.55,26.53,36.96,26.36.09-.03.11-.18.04-.32,0-.02-.02-.04-.03-.05l-26.27-36.43c-.39-.54-.3-1.28.19-1.65.14-.11.3-.18.47-.2l44.07-7.25c.25-.05.45-.17.49-.32.05-.18-.14-.31-.56-.37-14.94-2.29-29.85-4.72-44.75-7.31-.36-.06-.59-.41-.53-.77.02-.1.06-.19.11-.27l26.57-37.22c.21-.29.16-.33-.13-.12l-36.11,25.94c-1.32.95-2.11.59-2.38-1.08l-6.98-43.06c-.23-1.4-.46-1.36-.71.13l-7.2,43.79c-.08.52-.58.87-1.11.78-.15-.03-.29-.09-.41-.17-3.3-2.33-36.42-26.1-36.61-25.95-.14.12-.1.42.08.67,7.87,10.82,15.64,21.71,23.33,32.66,1.27,1.81,2.12,3.2,2.53,4.17.09.22-.02.47-.24.56-.03.01-.06.02-.09.03-14.74,2.45-29.49,4.85-44.24,7.19-.44.07-.63.21-.57.4.05.18.33.35.69.4l43.37,7.22c.65.11,1.08.74.95,1.41-.03.19-.11.37-.22.52l-25.95,36.14c-.58.81-.47.93.33.36l35.05-25.17c1.66-1.2,1.91-.97.73.67l-30.3,42.16c-2.48,2.74-4.65,5.69-6.51,8.85-.28.49-.8.81-1.39.86l-27.87,2.4c-.47.04-.88-.32-.92-.81,0-.04,0-.07,0-.11l1.2-28.4c.03-.94.52-1.81,1.3-2.33l9.29-6.17,44.21-29.03c.73-.47.64-.68-.25-.63-1.66.11-3.32.29-4.96.55-15.79,2.52-31.6,5.04-47.42,7.55l-11.28,1.66c-.36.05-.73-.05-1.01-.3l-21.57-18.01c-.26-.23-.26-.66.02-.96.02-.02.04-.05.07-.07l21.31-19.59c.54-.5,1.31-.7,2.05-.54l11.05,2.29c4.54.95,52.22,10.97,52.46,10.4.07-.19-.08-.46-.35-.66l-43.04-31.02-9.08-6.84c-.26-.2-.43-.5-.46-.82l-2.43-28.14c-.03-.3.22-.56.54-.58.03,0,.05,0,.08,0l28.61,1.16c1.09.04,1.98.58,2.65,1.6l5.84,8.75,29.27,44.51c.72,1.09.97.99.75-.3l-8.56-52.49-1.54-9.97c-.16-1.05.06-2.03.61-2.69l17.79-21.24c.21-.25.58-.27.84-.05.02.02.04.03.05.05l19.85,21.58c.25.27.36.62.3.96l-2.15,11.87Zm-18.78,6.05l5.78-7.24c.35-.43.31-.65-.13-.65h-11.68c-.57-.01-.69.2-.35.62l5.86,7.15c.15.17.36.25.48.16.01,0,.03-.02.04-.04Zm-48.57,10.05c-.02-.19-.19-.32-.38-.29-.07,0-.14.04-.19.09l-8.11,8.16c-.14.13-.14.35,0,.48.06.06.14.1.22.1l9.15.99c.19.02.35-.12.37-.3,0-.02,0-.04,0-.07l-1.05-9.15Zm104.97,8.82c.19-.02.33-.19.31-.39,0-.08-.04-.15-.1-.21l-8.02-8.08c-.13-.14-.35-.15-.5-.02-.06.06-.1.14-.11.23l-.97,8.98c-.02.19.12.36.31.38.03,0,.05,0,.08,0l8.98-.9ZM57.3,123.36c-.14-.11-.35-.09-.46.06-.04.06-.07.13-.07.2l-.02,11.39c0,.18.15.33.33.32.07,0,.14-.03.2-.07l7.01-5.68c.14-.12.16-.32.05-.46-.01-.02-.03-.03-.05-.05l-6.99-5.71Zm148.34,12.41c.14.12.35.1.46-.04.05-.06.08-.14.08-.22l.08-11.63c0-.18-.14-.33-.33-.33-.08,0-.16.03-.22.08l-7.18,5.77c-.14.11-.17.32-.06.46.01.02.03.03.05.05l7.1,5.86Zm-131.13,41.85c-.18.02-.31.18-.29.37,0,.08.04.14.1.2l8.12,8.19c.13.13.34.13.47,0,.06-.05.09-.13.1-.21l1.07-9.2c.02-.18-.11-.34-.29-.36-.02,0-.04,0-.07,0l-9.21,1.01Zm105.04,8.75c.02.18.18.31.37.29.08,0,.14-.04.2-.1l8.12-8.24c.12-.13.12-.34-.01-.47-.05-.05-.12-.08-.19-.09l-9.14-.9c-.18-.02-.34.11-.36.29,0,.03,0,.05,0,.08l1.02,9.13Zm-54.43,17.42c-.12.15-.09.36.05.48.06.05.14.07.21.07l11.76-.02c.19,0,.34-.15.34-.34,0-.08-.03-.15-.07-.21l-5.89-7.06c-.12-.14-.34-.16-.48-.04-.02.01-.03.03-.04.04l-5.87,7.08Z"/>
  <path class="cls-1" d="m131.82,62.49c-.09.12-.3.09-.47-.07-.02-.02-.04-.04-.05-.06l-5.86-7.15c-.34-.42-.22-.63.35-.63h11.68c.44.01.48.23.13.66l-5.78,7.24Z"/>
  <path class="cls-1" d="m114.86,55.93l8.56,52.49c.21,1.29-.04,1.39-.75.3l-29.27-44.51c6.79-3.72,13.94-6.47,21.46-8.27Z"/>
  <path class="cls-1" d="m150.6,56.44c7.31,2.04,14.37,5.16,21.21,9.37l-31.05,43.05c-.87,1.21-1.16,1.09-.86-.35l10.7-52.06Z"/>
  <path class="cls-1" d="m112.2,202.47c-7.46-2.05-14.44-5.16-20.93-9.33l30.3-42.16c1.18-1.64.93-1.87-.73-.67l-35.05,25.17c-.8.57-.91.45-.33-.36l25.95-36.14c.4-.56.29-1.33-.23-1.72-.15-.11-.32-.18-.5-.21l-43.37-7.22c-.36-.06-.64-.22-.69-.4-.06-.2.13-.33.57-.4,14.75-2.34,29.5-4.74,44.24-7.19.24-.04.4-.26.35-.5,0-.03-.01-.06-.03-.09-.41-.97-1.25-2.36-2.53-4.17-7.69-10.95-15.46-21.84-23.33-32.66-.19-.25-.23-.55-.08-.67.19-.15,33.31,23.63,36.61,25.95.44.32,1.05.23,1.36-.2.09-.12.15-.26.17-.41l7.2-43.79c.25-1.49.48-1.53.71-.13l6.98,43.06c.27,1.67,1.06,2.03,2.38,1.08l36.11-25.94c.29-.21.33-.17.13.12l-26.57,37.22c-.21.3-.15.72.15.93.08.06.17.09.26.11,14.89,2.58,29.81,5.02,44.75,7.31.42.06.61.19.56.37-.04.15-.23.27-.49.32l-44.07,7.25c-.61.1-1,.7-.88,1.35.04.18.11.36.22.51l26.27,36.43c.09.13.1.29.02.35-.01,0-.02.02-.03.02-.41.17-33.66-23.98-36.96-26.36-.52-.38-1.25-.22-1.64.34-.11.16-.18.35-.21.54l-7.02,43.78c-.2,1.24-.4,1.25-.59.03l-7.23-43.83c-.06-.32-.21-.61-.44-.81-.9-.78-1.15-.73-.76.15.11.25.14.51.1.74l-10.7,52.22Zm38.13-73.01c0-10.44-8.46-18.9-18.9-18.9s-18.9,8.46-18.9,18.9h0c0,10.44,8.46,18.9,18.9,18.9h0c10.44,0,18.9-8.46,18.9-18.9Z"/>
  <path class="cls-2" d="m83.25,72.54l1.05,9.15c.02.19-.12.35-.3.37-.02,0-.04,0-.07,0l-9.15-.99c-.19-.01-.33-.17-.32-.36,0-.08.04-.16.1-.22l8.11-8.16c.13-.13.35-.13.48,0,.05.05.08.12.09.19Z"/>
  <path class="cls-2" d="m188.21,81.36l-8.98.9c-.19.02-.37-.11-.39-.3,0-.03,0-.05,0-.08l.97-8.98c.01-.19.18-.34.38-.32.09,0,.17.05.23.11l8.02,8.08c.14.14.13.36,0,.5-.06.06-.13.09-.21.1Z"/>
  <path class="cls-1" d="m67.65,89.07l43.04,31.02c.28.2.42.47.35.66-.23.57-47.91-9.45-52.46-10.4,2.02-7.52,5.04-14.61,9.07-21.28Z"/>
  <path class="cls-1" d="m445.89,162.05c.08-6.05,1.17-16.4-.92-21.92-.16-.42-.43-.72-.69-.76l-6.56-1.18c-.5-.09-.89-.27-.9-.42l-.14-2.45c-.02-.2.31-.38.73-.39.01,0,.03,0,.04,0h27.61c.41,0,.74.16.78.38.13.83.06,1.62-.21,2.39-.08.21-.41.4-.84.49l-6.11,1.13c-.92.17-1.63,1.14-1.71,2.37-.47,7.33-.58,14.68-.33,22.03.02.68-.44,1.28-1.1,1.44-6.02,1.53-12.28,2.59-18.8,3.19-30.27,2.74-43.85-21.57-39.66-48.41,4.81-30.79,34.37-33.84,58.58-25.83.38.12.64.36.64.58v12.48c0,.29-.26.53-.57.53h0l-4.5.03c-.27,0-.49-.23-.49-.52,0-.02,0-.03,0-.05.46-6.58-2.53-10.65-8.97-12.21-29.76-7.21-37.1,22.04-33.42,44.25,3.15,19.01,17.31,28.8,37.02,23.52.31-.08.53-.35.53-.67Z"/>
  <path class="cls-1" d="m196.62,91.5c3.87,6.51,6.59,13.67,8.14,21.46-5.83.99-50.19,9.19-52.14,7.94-.13-.08-.17-.25-.08-.39.02-.04.06-.07.09-.09l43.98-28.93Z"/>
  <path class="cls-1" d="m287.79,162.46c1.39-.45,2.14-1.63,2.23-3.56.63-13.07.2-28.01.32-38.97.08-7.65.07-15.31-.04-22.97,0-.36-.21-.65-.45-.65l-19.11.47c-.76.02-1.36.61-1.38,1.35l-.18,6.9c-.01.41-.25.75-.55.78l-4.51.34c-.28.02-.52-.33-.54-.79,0-.02,0-.03,0-.05v-12.48c0-.29.24-.53.53-.53h62.92c.29,0,.53.24.53.53v12.21c0,.4-.24.73-.54.75l-4.23.31c-.29.02-.55-.33-.58-.79h0s-.52-6.9-.52-6.9c-.06-.85-.65-1.52-1.36-1.54l-19.05-.55c-.25,0-.45.28-.46.65,0,0,0,0,0,.01-.04,21.04-.69,42.34.46,63.31.05.99.68,1.84,1.58,2.11,2.52.76,5.09,1.11,7.71,1.05.43,0,.79.23.8.52,0,0,0,0,0,.01v2.12c0,.29-.24.53-.53.53h-30.26c-.44,0-.8-.24-.8-.53v-2.12c0-.31.35-.55.77-.54.01,0,.02,0,.03,0,2.42.11,4.83-.21,7.22-.98Z"/>
  <path class="cls-1" d="m380.88,161c.79-2.75,1.22-5.57,1.28-8.45.01-.44.28-.79.59-.79h4.24c.3,0,.54.36.54.8h0v13.54c0,.29-.36.53-.8.53h-52.03c-.44,0-.8-.24-.8-.53v-2.12c0-.24.22-.46.53-.52l6.12-1.03c.43-.07.77-.24.92-.47,1.08-1.59,1.63-3.64,1.65-6.15.1-16.13.11-32.25.02-48.38-.01-3.13-.24-6.24-.68-9.33-.07-.46-.25-.81-.48-.93-2.29-1.11-4.73-1.66-7.3-1.66-.44,0-.8-.24-.8-.54h0s.01-2.13.01-2.13c0-.29.24-.53.53-.53h27.87c.44,0,.81.21.83.48,0,.02,0,.04,0,.05l-.32,2.11c-.04.25-.36.47-.78.54l-6.37,1.06c-.81.14-1.42.88-1.49,1.79-1.22,17.57-.65,40.25-.27,58.87.05,2.65-.16,4.45,3.12,4.75,8,.73,15.66.61,22.99-.37.42-.05.76-.28.84-.58Z"/>
  <path class="cls-1" d="m57.3,123.36l6.99,5.71c.14.12.16.32.05.46-.01.02-.03.03-.05.05l-7.01,5.68c-.14.11-.35.09-.46-.06-.04-.06-.07-.13-.07-.2l.02-11.39c0-.18.15-.33.33-.32.07,0,.14.03.2.07Z"/>
  <path class="cls-1" d="m205.64,135.77l-7.1-5.86c-.14-.12-.15-.33-.04-.46.01-.02.03-.03.05-.05l7.18-5.77c.14-.12.35-.1.46.04.05.06.08.14.08.22l-.08,11.63c0,.18-.14.33-.33.33-.08,0-.16-.03-.22-.08Z"/>
  <path class="cls-1" d="m66.36,167.43c-3.87-6.48-6.68-13.66-8.43-21.56,15.82-2.51,31.63-5.03,47.42-7.55,1.64-.26,3.3-.45,4.96-.55.9-.06.98.15.25.63l-44.21,29.03Z"/>
  <path class="cls-1" d="m204.44,148.59c-2.19,7.6-5.27,14.7-9.24,21.32-14.35-10.39-28.68-20.83-43-31.33-.86-.63.35-.64.65-.57,17.19,3.53,34.38,7.06,51.59,10.58Z"/>
  <path class="cls-1" d="m169.32,194.73c-6.52,3.66-13.42,6.34-20.71,8.05l-.47-.03c-.2-.02-.39-.25-.44-.56l-8.28-51.5c-.06-.34.04-.64.23-.7l.19-.07c.06-.02.18.09.28.24l29.19,44.58Z"/>
  <path class="cls-2" d="m74.51,177.62l9.21-1.01c.18-.02.34.11.36.29,0,.02,0,.04,0,.07l-1.07,9.2c-.02.18-.18.31-.36.3-.08,0-.15-.04-.21-.1l-8.12-8.19c-.13-.13-.13-.34,0-.47.05-.05.12-.09.2-.1Z"/>
  <path class="cls-1" d="m179.55,186.37l-1.02-9.13c-.02-.18.1-.35.28-.37.03,0,.05,0,.08,0l9.14.9c.18.02.31.18.29.37,0,.07-.04.14-.09.19l-8.12,8.24c-.13.13-.34.13-.47,0-.05-.05-.09-.12-.1-.2Z"/>
  <path class="cls-1" d="m125.12,203.79l5.87-7.08c.12-.14.34-.16.48-.04.02.01.03.03.04.04l5.89,7.06c.12.15.09.36-.05.48-.06.05-.14.07-.21.07l-11.76.02c-.19,0-.34-.15-.34-.34,0-.08.03-.15.07-.21Z"/>
</svg>