<?xml version="1.0" encoding="UTF-8"?>
<svg id="Layer_1" data-name="Layer 1" xmlns="http://www.w3.org/2000/svg" viewBox="0 0 2232.97 257">
  <defs>
    <style>
      .cls-1 {
        fill: #f47f01;
      }
    </style>
  </defs>
  <path class="cls-1" d="m1100.36,22.1l32.51-1.1c.72-.02,1.32.54,1.34,1.26,0,.03,0,.06,0,.08l-1.1,32.51c-.03.72-.63,1.28-1.35,1.25-.33-.01-.65-.15-.88-.4l-31.38-31.38c-.52-.5-.53-1.32-.03-1.84.23-.24.55-.38.88-.4Z"/>
  <path d="m292.65,170.06c4.42,33.61,42.18,39.46,67.38,28.7,22.93-9.82,13.72-36.53-6.94-41.73-24.52-6.2-44.45-11.92-59.79-17.17-50.33-17.21-45.63-80.58.53-99.98,43.6-18.31,110.66-6.01,114.92,52.2.1,1.5-.57,2.79-1.51,2.88-.04,0-.07,0-.11,0l-38.56.16c-.83,0-1.67-1.36-1.95-3.17-4.38-27.32-42.05-34.1-60.16-18.63-34.95,29.75,47.21,43.11,69.9,49.4,52.61,14.53,50.33,85.98,1.91,105.74-46.48,18.96-126.97,7.06-126.97-58.25,0-1.59,1.03-2.88,2.28-2.88.01,0,.02,0,.03,0h36.53c1.23,0,2.31,1.16,2.52,2.72Z"/>
  <path d="m500,196.16c30.28,12.99,59.55-2.03,64.79-36.17.26-1.62,1.28-2.81,2.39-2.8h37.55c1.03,0,1.85.92,1.84,2.04,0,.06,0,.13-.01.19-4.1,45.14-35.03,74.61-80.01,77.13-126,7.02-137.89-187.58-16.97-203.86,43.64-5.89,88.98,19.69,95.43,66.98.2,1.31-.3,2.51-1.11,2.7-.06.01-.13.02-.19.02h-37.55c-1.02,0-1.99-.92-2.39-2.23-10.88-35.07-58.29-41.73-79.24-16.2-23.22,28.29-23.71,95.43,15.47,112.2Z"/>
  <path d="m190.68,188.65h-67.99c-1.1,0-2.07.68-2.44,1.7l-13.92,39.86c-.42,1.24-1.6,2.07-2.92,2.07l-39.33-.08c-.81,0-1.47-.64-1.48-1.44,0-.19.03-.37.1-.55L135.23,38.78c.53-1.38,1.61-2.29,2.68-2.27l40.88.2c.91-.01,1.97,1.13,2.6,2.8l70.96,189.81c.43,1.13-.04,2.39-1.06,2.82-.23.1-.48.15-.73.14h-40.59c-.89,0-1.89-1.13-2.44-2.76l-13.31-39.17c-.37-1.02-1.8-1.7-3.53-1.7Zm-57.72-34.3c-.25.7.12,1.46.82,1.71.14.05.29.08.44.08l46.52.08c.74,0,1.34-.6,1.33-1.34,0-.15-.03-.3-.08-.44l-23.14-65.35c-.25-.69-1.02-1.05-1.72-.8-.37.14-.66.43-.8.8l-23.38,65.27Z"/>
  <path d="m674.75,195.87l99.45-.08c2.22,0,4.02,1.34,4.02,3h0s.04,31.46.04,31.46c0,1.12-1.36,2.03-3.04,2.03h-144.1c-1.1,0-1.99-1.02-1.99-2.27h0V41.5c0-2.8,2.24-5.07,4.99-5.07h138.06c1.97,0,3.57.89,3.57,1.99h0v32.51c0,1.12-1.14,2.03-2.56,2.03h-97.42c-1.68,0-3.04.91-3.04,2.03v37.55c0,1.21,1.25,2.19,2.8,2.19h0l88.53-.12c1.68,0,3.04.89,3.04,1.99v29.43c0,1.12-1.36,2.03-3.04,2.03h-88.29c-1.68,0-3.04,1.36-3.04,3.04v42.62c0,1.19.91,2.15,2.03,2.15Z"/>
  <path d="m840.16,105.43v124.82c0,1.12-.91,2.03-2.03,2.03l-36.57.04c-1.08,0-1.95-1.04-1.95-2.31h0s-.04-189.53-.04-189.53c0-2.26,1.8-4.1,4.02-4.1h0l35.56.04c2.09,0,4.06,1.12,5.2,2.96l77.78,125.07c1.76,2.81,2.62,2.42,2.6-1.18l-.24-123.81c0-1.68.87-3.04,1.95-3.04h36.53c1.12,0,2.03,1.36,2.03,3.04v189.77c0,1.68-.91,3.04-2.03,3.04l-38.56.04c-1.61,0-3.26-1.08-4.34-2.84l-77.33-124.78c-1.7-2.76-2.56-2.52-2.56.73Z"/>
  <path d="m1081.93,38.21l33,32.96c1.6,1.6,1.01,2.38-1.75,2.35l-29.47-.45c-1.1-.02-2.01,1.26-2.03,2.88,0,.01,0,.03,0,.04v154.25c0,1.12-.91,2.03-2.03,2.03h-38.56c-1.12,0-2.03-1.36-2.03-3.04V76c0-1.68-.91-3.04-2.03-3.04h-53.79c-1.68,0-3.04-.91-3.04-2.03v-32.47c0-1.12,1.36-2.03,3.04-2.03h94.38c1.61,0,3.16.64,4.3,1.79Z"/>
  <path d="m1246.86,36.51h9.58c1.57,0,2.84,1.27,2.84,2.84v190.14c0,1.57-1.27,2.84-2.84,2.84h-9.58c-1.57,0-2.84-1.27-2.84-2.84V39.35c0-1.57,1.27-2.84,2.84-2.84Z"/>
  <path class="cls-1" d="m1539.9,128.49c-22.82-.12-41.22-20.53-41.09-45.6h0c.13-25.06,18.74-45.28,41.56-45.17,22.82.12,41.22,20.53,41.09,45.6h0c-.13,25.06-18.74,45.28-41.56,45.17Zm.38-10.11c16.28-.09,29.39-15.95,29.29-35.43h0c-.1-19.48-13.38-35.21-29.65-35.12h0c-16.28.09-29.39,15.95-29.29,35.43.1,19.48,13.38,35.21,29.65,35.12h0Z"/>
  <path class="cls-1" d="m1725.85,52.42c12.34-22.49,54.64-19.04,59.83,10.11.26,1.57-.37,3.04-1.42,3.29-.11.03-.21.04-.32.04l-7.83-.2c-.56-.02-1.49-1.56-2.19-3.65-7.47-22.49-48.83-16.68-35.84,7.39.6,1.14,1.65,2.01,2.92,2.39,17.17,5.36,52.85,7.75,47.86,34.75-5.64,30.36-63.93,28.86-68.4-4.99-.23-1.73.34-3.24,1.34-3.57,2.38-.78,4.82-.97,7.31-.57.61.11,1.57,1.52,2.35,3.45,17.01,41.24,73.43-.77,31.05-11.65-16.93-4.38-51.47-9.9-36.66-36.78Z"/>
  <path class="cls-1" d="m1797.29,65.04c-1.7-34.06,55.49-36.98,61.86-3.25.32,1.68-.03,3.14-.81,3.41-2.92,1.08-5.85,1.08-8.77,0-.87-.31-1.64-1.64-1.99-3.41-6.49-32.03-62.31-1.26-30.24,11.2,10.64,4.1,29.79,4.22,39.74,14.74,33,34.99-57.03,63.45-62.76,12.87-.18-1.65.54-3.11,1.61-3.27.06,0,.12-.01.18-.01h7.1c.8,0,1.74,1.37,2.23,3.25,5.48,20.62,36.9,24.36,45.26,6.58,3.46-7.41,1.35-12.5-6.33-15.26-15.06-5.4-46.11-6.58-47.09-26.83Z"/>
  <path class="cls-1" d="m1936.05,128.45c-22.78-.24-41.03-20.75-40.76-45.81.26-25.06,18.94-45.19,41.71-44.95,22.78.24,41.03,20.75,40.76,45.81-.26,25.06-18.94,45.19-41.71,44.95Zm.29-10.06c16.28.09,29.55-15.66,29.65-35.16h0c.1-19.5-13.01-35.38-29.28-35.47-16.28-.09-29.55,15.66-29.65,35.16h0c-.1,19.5,13.01,35.38,29.28,35.47Z"/>
  <path class="cls-1" d="m1363.81,93.26v30.44c0,1.12-.91,2.03-2.03,2.03h-8.12c-1.12,0-2.03-1.36-2.03-3.04V43.53c0-1.39,1.03-2.53,2.35-2.6,23.5-1.06,58.41-7.83,61.34,21.92,3.17,32.39-28.62,28.62-49.24,28.62-1.26,0-2.27.8-2.27,1.79Zm39.82-26.14c2.07-21.68-24.8-16.76-37.63-16.36-1.22.04-2.18.89-2.19,1.91v26.39c0,1.02.98,1.86,2.19,1.91,14.45.61,35.92,4.22,37.63-13.84Z"/>
  <path class="cls-1" d="m1481.89,86.84l1.42.65c1.41.65,2.48,1.63,3,2.76,4.91,10.15,4.38,22.57,6.9,33.49.22.98-.29,1.96-1.13,2.19-.15.04-.3.05-.45.04l-8.97-.69c-1.08-.09-1.97-1.21-2.11-2.64l-2.27-21.31c-.84-7.93-5.49-11.92-13.96-11.97l-25.41-.12c-.85-.02-1.56.96-1.58,2.19,0,.01,0,.03,0,.04l.24,31.18c0,1.73-1.22,3.13-2.72,3.13h0l-7.14-.04c-1.1,0-1.99-1.36-1.99-3.04V42.51c0-1.02.96-1.85,2.15-1.87,20.91-.28,77.82-8.97,61.54,34.42-.24.65-1.06,1.66-2.44,3.04l-6.09,6.09c-.58.58-.36,1.6.48,2.3.16.13.34.25.54.34Zm-3.17-15.59c10.39-26.75-26.75-20.91-39.42-20.26-1.34.08-2.44.76-2.45,1.52,0,.05,0,.09.01.14,1.46,8.04,1.47,16.06.04,24.07-.25,1.41.82,2.76,2.39,3.01.19.03.38.04.57.04l27.44-.65c5.6-.14,9.4-2.76,11.41-7.87Z"/>
  <path class="cls-1" d="m1602.61,88.91l-.28,33.77c0,1.7-.91,3.09-2.03,3.09l-7.14-.04c-1.12,0-2.03-1.36-2.03-3.04V42.51c0-1.12.91-2.03,2.03-2.03h50.74c2.1,0,3.81.56,3.86,1.26l.2,5.89c.01,1.12-1.35,2.04-3.04,2.07l-39.58.77c-1.68.02-3.03,1-3.04,2.19v21.31c0,1.41,1.15,2.57,2.6,2.64,10.07.57,20.03.66,29.88.28,7.41-.27,9.44,2.6,6.09,8.61-.57,1.03-1.74,1.67-3.04,1.66h-32.47c-1.5,0-2.72.78-2.72,1.75h0Z"/>
  <path class="cls-1" d="m1667.68,88.91v24.88c-.02,1.23,1.55,2.23,3.5,2.23.02,0,.05,0,.07,0l40.63-.32c1.69-.02,3.04.33,3.25.85.97,2.22,1.22,4.6.73,7.14-.24,1.18-1.48,2.03-2.96,2.03h-54.8c-1.12,0-2.03-.91-2.03-2.03V42.51c0-1.12.91-2.03,2.03-2.03h52.77c1.99,0,3.58.52,3.78,1.22.73,2.79.57,5.44-.49,7.96-.25.57-1.6.98-3.29.97h-40.59c-1.68,0-3.04.91-3.04,2.03v22.33c0,1.12,1.36,2.03,3.04,2.03h39.58c1.12,0,2.03.91,2.03,2.03v6.09c0,1.12-1.36,2.03-3.04,2.03h-38.56c-1.43,0-2.6.78-2.6,1.75h0Z"/>
  <rect class="cls-1" x="1873.24" y="40.53" width="12.18" height="85.24" rx="2.07" ry="2.07"/>
  <path class="cls-1" d="m2044.75,104.42v-61.9c0-1.12.91-2.03,2.03-2.03h7.1c1.12,0,2.03,1.36,2.03,3.04l-.04,77.13c0,1.59-.52,2.92-1.38,3.53-2.79,1.98-6.02,2.58-9.7,1.83-1.3-.26-2.44-1.03-3.17-2.15l-40.75-62.84c-1.87-2.87-2.8-2.61-2.8.77v61.9c0,1.12-.91,2.03-2.03,2.03h-6.05c-1.28,0-2.33-1.34-2.35-3l-1.14-79.2c-.02-1.59.73-2.87,1.66-2.88l10.96-.16c.41-.01,1.59,1.36,2.8,3.25l39.98,61.46c1.89,2.9,2.84,2.64,2.84-.77Z"/>
  <path class="cls-1" d="m2115.78,100.36h-32.47c-1.3,0-2.46.82-2.92,2.07l-7.39,20.17c-.69,1.87-1.85,3.16-2.84,3.17h-8.2c-.8.02-1.31-.95-1.14-2.16.04-.26.11-.52.2-.77l31.01-79.64c.65-1.62,1.64-2.73,2.44-2.72h10.15c.92,0,2.06,1.28,2.8,3.13l30.53,78.1c.46,1.16,0,2.47-1.1,3.04-2.81,1.49-5.64,1.81-8.48.97-1.22-.36-2.24-1.4-2.72-2.8l-7.18-20.22c-.51-1.41-1.59-2.36-2.68-2.35Zm-30.08-12.1c-.27.71.09,1.51.8,1.78.16.06.33.09.49.09l24.72.12c.76,0,1.38-.62,1.37-1.39,0-.15-.03-.3-.07-.44l-12.18-33.85c-.26-.72-1.05-1.09-1.77-.83-.39.14-.69.44-.83.83l-12.54,33.69Z"/>
  <path class="cls-1" d="m2158.4,116.19l38.56-.49c1.61-.03,2.96.64,3.37,1.66.81,1.98,1.01,4.09.61,6.33-.18,1.16-1.01,2.02-1.95,2.03h-52.77c-1.14,0-2.07-.91-2.07-2.03h0s-.16-79.4-.16-79.4c0-2.06.54-3.75,1.22-3.78.01,0,.03,0,.04,0l9.42.53c.55.05.99,1.54,1.01,3.37l.81,69.9c.02,1.05.88,1.89,1.91,1.87Z"/>
  <path class="cls-1" d="m1404.32,205.09c-3.65-22.41-59.79-7.59-53.34-41.04,5.52-28.7,52.53-27.81,60.32,1.46.4,1.49-.31,2.98-1.58,3.33-5.95,1.6-9.24-.73-9.86-6.98-.08-.92-.84-2.09-2.07-3.17-9.95-8.81-28.9-11.08-35.72,2.68-13.92,28.21,67.46,12.02,51.35,53.05-8.44,21.43-44.65,21.39-58.74,6.86-3.21-3.33-13.48-22.29.04-18.63,1.11.3,2.03,1.24,2.44,2.48,7.83,24.56,51.07,23.87,47.17-.04Z"/>
  <path class="cls-1" d="m1728.85,202c-7.02,39.58-60.69,38.52-71.77,2.92-18.55-59.63,58.66-84.47,70.87-38.52.35,1.27-.24,2.58-1.32,2.92-.17.05-.34.08-.51.08h-6.17c-.76,0-1.78-1.29-2.48-3.13-2.76-7.17-7.35-11.56-13.76-13.15-51.59-12.95-51.11,77.45-4.83,69.41,10.42-1.81,17.05-8.62,19.89-20.42.47-1.94,1.4-3.35,2.19-3.33h6.09c1.1,0,1.92,1.24,1.84,2.76,0,.15-.03.3-.05.45Z"/>
  <path class="cls-1" d="m1818.52,175.13c17.01,8.12,57.11,8.73,48.39,37.79-8.28,27.6-61.7,23.91-65.64-6.13-.25-1.87.24-3.51,1.07-3.68.03,0,.07-.01.1-.01l4.79-.2c.88-.05,1.9.85,2.56,2.23,7.28,15.48,18.85,21.12,34.71,16.93,6.17-1.65,10.32-4.76,12.46-9.34,13.31-28.58-54.48-13.6-53.14-46.48,1.26-31.3,60.65-29.23,60.44-.81-.03,4.49-2.16,5.72-6.41,3.69-1.07-.52-1.98-1.55-2.56-2.88-9.7-22.77-48.87-17.33-39.46,6.09.49,1.2,1.45,2.2,2.68,2.8Z"/>
  <path class="cls-1" d="m1438.86,153.82c-2.78-.02-5.05,1.47-5.07,3.33,0,.01,0,.03,0,.04l.04,22.29c0,1.36,1.15,2.47,2.6,2.52,12.45.49,24.77.27,36.98-.65,5.74-.43,7.33,2.08,4.79,7.55-.52,1.09-1.59,1.79-2.76,1.79h-38.56c-1.68,0-3.04.91-3.04,2.03v26.39c0,1.12,1.36,2.03,3.04,2.03h42.62c.6,0,1.48.68,2.27,1.75,1.19,1.57,1.19,3.1,0,4.59-.9,1.13-2.11,1.79-3.29,1.79h-52.77c-1.12,0-2.03-.91-2.03-2.03v-79.16c0-1.68.91-3.04,2.03-3.04h52.77c1.68,0,3.04.91,3.04,2.03v5.07c0,1.05-1.36,1.91-3.04,1.91h0l-39.62-.2Z"/>
  <path class="cls-1" d="m1500.81,195.75v31.46c0,1.12-.91,2.03-2.03,2.03h-6.09c-1.12,0-2.03-1.36-2.03-3.04v-78.14c0-1.39,1.03-2.53,2.35-2.6,16.68-.89,53.95-6.13,61.34,13.92,2.95,8.01,1.7,15.84-3.73,23.5-.61.87-1.61,1.58-2.84,2.03-1.95.7-3.41,1.93-4.38,3.69-.37.72.5,1.87,1.95,2.58.04.02.08.04.12.06,10.47,4.87,8.73,25.7,11.53,35.15.35,1.21-.15,2.43-1.11,2.74-.09.03-.18.05-.27.06-3.17.41-6.24.18-9.21-.69-.7-.2-1.13-1.59-1.01-3.29.6-8.82-.68-17.31-3.82-25.45-1.5-3.94-4.76-6.56-8.2-6.58l-30.48-.41c-1.14,0-2.07,1.33-2.07,2.96h0Zm43.31-20.05c11.65-27.32-28.54-21.43-41.08-22.49-1.16-.09-2.18.69-2.27,1.74,0,.06,0,.11,0,.17l.04,27.4c0,1.1.89,1.99,1.99,1.99.01,0,.03,0,.04,0l29.15-.24c5.68-.05,9.73-2.91,12.14-8.57Z"/>
  <path class="cls-1" d="m1591.53,214.91c1.35,4.14,2.75,4.06,4.18-.24l22.12-66.33c.44-1.31,1.34-2.3,2.44-2.68,2.33-.87,4.7-.99,7.1-.37.87.22,1.25,1.5.85,2.85-.02.08-.05.16-.08.23l-27.4,77.45c-.69,1.99-1.73,3.42-2.52,3.45h-9.17c-1.04,0-2.21-1.28-2.88-3.13l-27.32-77.13c-.44-1.22,0-2.55,1.06-3.17,2.3-1.33,4.7-1.52,7.18-.57,1.23.49,2.19,1.52,2.6,2.8l21.84,66.82Z"/>
  <rect class="cls-1" x="1597.62" y="182.15" width="83.86" height="10.07" rx="1.95" ry="1.95" transform="translate(1449.5 1826.41) rotate(-89.9)"/>
  <path class="cls-1" d="m1749.35,192.71l-.57,26.39c-.03.87,1.01,1.62,2.33,1.66,0,0,.01,0,.02,0,13.37.51,26.67.65,39.9.41,6.25-.11,7.94,2.02,5.07,6.37-.71,1.06-1.85,1.7-3.04,1.7h-51.76c-1.21,0-2.19-.8-2.19-1.79h0s.12-80.41.12-80.41c0-1.12.93-2.03,2.07-2.03h50.74c1.74,0,3.16.46,3.82,1.22,1.92,2.14,1.93,4.37.04,6.7-.63.78-2.09,1.23-3.86,1.18l-39.58-.93c-1.5-.04-2.73.87-2.76,2.03l-.89,24.56c-.05,1.28,1.06,2.35,2.47,2.39.04,0,.09,0,.13,0l37.59-.45c1.95-.02,3.51.41,3.98,1.1,1.3,1.98,1.19,4.17-.32,6.58-.49.79-1.91,1.3-3.65,1.3h-37.55c-1.15,0-2.09.9-2.11,2.03Z"/>
</svg>