<?xml version="1.0" encoding="UTF-8"?>
<svg id="Layer_1" data-name="Layer 1" xmlns="http://www.w3.org/2000/svg" viewBox="0 0 380.9 257">
  <defs>
    <style>
      .cls-1 {
        fill: #00467f;
      }

      .cls-2 {
        fill: #ffe484;
      }

      .cls-3 {
        fill: #fff;
      }

      .cls-4 {
        stroke: #80a3bf;
      }

      .cls-4, .cls-5 {
        fill: none;
        stroke-width: 2px;
      }

      .cls-5 {
        stroke: #809582;
      }
    </style>
  </defs>
  <g>
    <path class="cls-4" d="m251.59,21.11c0-.06-.05-.11-.11-.11h-125.03c-.06,0-.11.05-.11.11v75.63c0,.06.05.11.11.11h125.03c.06,0,.11-.05.11-.11h0V21.11" vector-effect="non-scaling-stroke"/>
    <path class="cls-4" d="m128.45,166.47h15.02c.17,0,.31-.09.31-.2,0,0,0,0,0-.01l-.06-.88s-.14-.13-.33-.19c-1.39-.46-1.79-1.52-1.19-3.17.96-2.67,2.02-5.34,3.16-8.02.06-.13.19-.22.33-.22h19.36c.11,0,.22.08.28.2,1.3,2.94,3.21,6.74,3.24,9.97,0,.18-.04.33-.11.42-.42.49-.95.81-1.58.96-.14.03-.24.15-.24.28v.64c0,.12.14.21.32.21h16.08c.16,0,.29-.09.33-.21.05-.17.04-.35-.02-.53-.05-.16-.15-.28-.26-.35-2.37-1.38-3.52-4.16-4.68-6.77-7.2-16.15-14.41-32.29-21.62-48.44-.08-.19-.2-.31-.3-.31h-1.27c-.07,0-.18.13-.26.33-7.41,16.22-14.86,32.42-22.34,48.61-1.35,2.93-2.04,5.05-4.39,6.5-.05.03-.12.15-.18.32-.09.23-.11.45-.06.66.02.11.22.19.47.19" vector-effect="non-scaling-stroke"/>
    <path class="cls-4" d="m295.03,153.99c1.28,2.69,2.32,5.47,3.13,8.34.41,1.44.19,2.6-1.4,2.92-.18.04-.31.15-.31.26v.74c0,.12.14.21.32.21h15.98c.17,0,.31-.04.33-.1.12-.23.14-.47.05-.72-.03-.09-.12-.18-.25-.25-1.95-.97-3.22-3.36-3.94-4.98-7.47-16.75-14.95-33.5-22.44-50.24-.06-.13-.16-.23-.29-.27-1.44-.47-1.61.45-2.17,1.66-7.08,15.47-14.17,30.94-21.27,46.4-1.66,3.63-2.32,5.45-4.83,7.44-.1.08-.17.19-.2.31-.06.24-.02.45.11.61.07.08.22.13.41.13h15.02c.12,0,.21-.09.21-.21v-.74c0-.1-.13-.22-.33-.28-1.47-.46-1.9-1.5-1.29-3.14,1.3-3.48,2.38-6.19,3.23-8.13.05-.12.17-.2.29-.2h19.36c.11,0,.22.09.28.22" vector-effect="non-scaling-stroke"/>
    <path class="cls-4" d="m36.27,160.78c9.14,8.36,22.98,8.59,34.04,4.75.12-.04.21-.15.22-.28.4-3.33.79-6.66,1.18-10,.14-1.24-.78-1.02-1.36-.54-10.12,8.41-26.23,6.84-30.86-6.88-4.34-12.86,1.69-28.36,17.19-28.41,5.03-.02,9.66,1.58,13.87,4.79.58.44.86.31.86-.38v-11.11c0-.63-.28-.81-.85-.55-1.82.83-3.07.7-5.2.26-15.14-3.14-30.58.55-36.07,16.6-3.66,10.68-1.61,23.89,6.97,31.75" vector-effect="non-scaling-stroke"/>
    <path class="cls-4" d="m76.16,146.18c5.33,28.31,48.17,29.1,55.42,1.88,1.56-5.87,1.51-11.69-.15-17.46-4.86-16.89-23.69-22.85-39-17.05-13.57,5.15-18.86,18.94-16.28,32.64" vector-effect="non-scaling-stroke"/>
    <path class="cls-4" d="m187.47,128.72c2.09,13.61,22.19,12.77,22.3,23.44.05,4.61-4.46,7.32-8.75,7.62-4.7.33-8.65-1.08-11.84-4.21-.52-.52-1.1-.97-1.73-1.35-.52-.32-.76-.19-.7.41l.97,10.26c.01.13.1.25.23.3,9.17,3.94,24.04,4.48,30-5.15,3.28-5.3,3.17-12.25-.14-17.55-3.53-5.64-10.85-8.06-16.44-11.38-5.51-3.27-4.17-10.28,1.97-11.46,5.63-1.07,9.34,1.22,13.43,4.86.12.11.25.17.34.17h.53c.12,0,.21-.09.21-.21v-11.75c0-.31-.26-.55-.59-.54-.08,0-.16.02-.23.05-1.11.47-2.04.7-3.3.46-5.13-.99-8.94-1.65-13.32-.98-8.44,1.3-14.26,8.39-12.94,17.01" vector-effect="non-scaling-stroke"/>
    <path class="cls-4" d="m238.66,121c.04,11.23.04,22.46,0,33.7,0,3.34.18,9.21-3.79,10.53-.19.06-.32.18-.32.28v.74c0,.12.15.21.32.21h18.09c.13,0,.25-.07.3-.18.26-.51-.05-.93-.56-1.15-3.65-1.6-3.6-7.62-3.59-11.36.02-10.93.03-21.85.05-32.77,0-.12.1-.22.22-.22,4.15-.19,10.21-.67,12.75,3.42.1.16.24.27.35.27h.85c.11,0,.2-.13.2-.29,0,0,0-.02,0-.03l-1.16-11.11c-.01-.12-.1-.21-.2-.21h-36.29c-.19,0-.35.17-.38.39l-1.12,10.82c-.02.16.04.31.15.36.63.32,1.02.06,1.41-.5,2.55-3.62,8.23-3.33,12.5-3.11.12,0,.22.1.22.22" vector-effect="non-scaling-stroke"/>
    <path class="cls-4" d="m316.53,114.01c4.12,2.12,3.72,7.69,3.73,11.73.01,9.87,0,19.73-.03,29.6-.01,3.5-.1,8.3-3.48,9.78-.52.23-.92.7-.45,1.2.09.09.22.15.36.15h32.16c.16,0,.29-.09.3-.21l1.15-11.75c.01-.13-.08-.25-.22-.28-.22-.05-.45-.05-.68,0-.08.02-.18.11-.28.25-3.18,4.72-8.01,4.01-13.57,3.94-2.92-.03-4.67-.58-4.7-3.81-.11-13.3-.14-23.46-.1-30.49.02-3.4.02-8.57,3.79-10.09.2-.08.34-.18.33-.25v-.74c0-.12-.09-.21-.21-.21h-18.2c-.12,0-.23.08-.28.19-.18.44-.06.77.36.99" vector-effect="non-scaling-stroke"/>
    <path class="cls-4" d="m127.04,221.41c1.22,2.62,2.24,5.31,3.06,8.07.44,1.5.47,2.81-1.24,3.28-.19.05-.33.14-.35.22-.08.25-.1.51-.06.77.02.12.12.21.24.21,5.28,0,10.56,0,15.85.01.56,0,.85-.17.61-.8-.04-.11-.15-.22-.28-.29-2.04-1.04-3.3-3.57-4.15-5.49-7.37-16.54-14.75-33.08-22.15-49.61-.07-.16-.19-.27-.3-.29-.46-.08-.91-.06-1.36.05-.1.03-.21.15-.3.33-7.64,16.69-15.29,33.38-22.94,50.06-1,2.19-2.24,3.85-3.72,4.96-.12.09-.2.21-.22.33-.2,1.09.57.73,1.14.73,4.81-.01,9.62,0,14.44.01.16,0,.29-.09.3-.2,0-.01,0-.02,0-.03-.03-.15,0-.29.11-.41.07-.09-.01-.27-.19-.38-.02-.01-.03-.02-.05-.03l-1.45-.77c-.59-.31-.71-.91-.36-1.8l3.45-8.86c.05-.13.17-.22.29-.22h19.44c.09,0,.17.06.21.14" vector-effect="non-scaling-stroke"/>
    <path class="cls-4" d="m145.29,213.89c4.09,20.24,25,25.02,42.07,19.16.13-.04.22-.14.24-.25l1.23-10.58c.02-.15-.05-.29-.17-.31,0,0-.02,0-.03,0h-.63c-.16,0-.3.04-.39.11-6.38,5.49-15.61,7.23-23.11,3.19-10.18-5.48-11.79-21.09-6.08-30.15,6.46-10.25,20.49-10.21,29.27-3.23.49.39.73.29.73-.28v-11.33c0-.31-.25-.57-.56-.57-.07,0-.13.01-.19.03-1.51.57-2.81.79-4.51.41-4.65-1.04-9.31-1.4-13.97-1.07-18.14,1.26-27.28,18.23-23.91,34.87" vector-effect="non-scaling-stroke"/>
    <path class="cls-4" d="m303.69,179.62c-29.77,6.66-26.71,53.67,4.72,55.6,6.33.39,12.13-.33,17.41-2.17.13-.05.23-.14.24-.25l1.21-10.44c.02-.15-.04-.29-.14-.35-.39-.25-.74-.25-1.05,0-4.41,3.67-9.25,5.45-14.54,5.34-12.79-.27-18.9-11.27-17.8-22.83,1.63-17.18,19.65-22.55,32.34-12.78.56.43.85.3.85-.41v-11.43c0-.11-.09-.2-.21-.2-.01,0-.03,0-.04,0-1.78.38-3.2.78-5.08.38-5.76-1.24-12.26-1.73-17.9-.47" vector-effect="non-scaling-stroke"/>
    <path class="cls-4" d="m65.34,189.02c4.1-1.11,9.62-.95,12.85,1.7,4.15,3.4,3.24,10.4-1.41,12.86-2.15,1.13-4.11,1.6-5.89,1.4-1.34-.16-2.35-.2-3.04-.13-.1,0-.18.11-.17.22,0,.02,0,.03,0,.04l2.28,7.35c.03.08.16.15.34.18,12.04,2.09,22.83-6.36,20.92-19.11-1.6-10.63-10.76-13.18-20.02-13.19-6.8-.01-13.6-.01-20.39,0-.13,0-.24.09-.24.21v.74c0,.1.13.22.31.29,4,1.51,3.85,7.91,3.85,11.56,0,9.76-.03,19.52-.08,29.28-.02,3.7,0,8.9-3.78,10.33-.18.07-.31.18-.31.27v.74c0,.12.1.21.22.21h18.2c.18,0,.32-.1.32-.22h0v-.63c0-.12-.08-.23-.22-.28-3.73-1.54-3.91-6.02-3.91-9.34,0-11.42,0-22.84,0-34.26,0-.1.07-.18.17-.21" vector-effect="non-scaling-stroke"/>
    <path class="cls-4" d="m195.07,181.62c3.38,1.45,3.5,6.11,3.5,9.18.01,10.93.01,21.86,0,32.8,0,3.11-.06,7.69-3.74,9.17-.15.06-.26.16-.26.24v.74c0,.12.09.21.21.21h18.09c.18,0,.32-.1.32-.22h0v-.74c0-.09-.13-.21-.31-.28-3.68-1.5-3.69-6.28-3.7-9.77-.02-10.71-.02-21.42,0-32.14,0-3.88.24-7.67,3.72-9.3.17-.08.28-.18.28-.25v-.74c0-.12-.09-.21-.21-.21h-18.09c-.14,0-.26.08-.3.19-.19.51-.03.88.48,1.1" vector-effect="non-scaling-stroke"/>
    <path class="cls-4" d="m233.21,188.29c3.23-.05,6.45-.05,9.68-.01,3.41.04,7.52.15,9.52,3.53.1.17.23.27.34.27h.63c.12,0,.21-.09.21-.21v-11.32c0-.12-.09-.21-.21-.21h-34.91c-.12,0-.21.09-.21.21v.74c0,.08.13.19.32.27,1.86.74,2.96,2.1,3.27,4.07.78,4.84.42,10.91.48,14.6.1,6.9-.05,13.8.03,20.7.05,3.72.55,10.07-3.88,11.9-.14.06-.23.17-.23.3v.64c0,.12.14.22.31.22h0c5.95-.02,11.9-.01,17.86.02.57,0,.75-.31.55-.94-.04-.12-.14-.22-.28-.27-3.55-1.36-3.77-5.92-3.8-9.18-.04-4.34-.06-8.87-.06-13.58,0-.25.2-.45.44-.45,2.67-.08,5.38-.08,8.13.01,4.14.14,6.81.15,8.9,3.54.08.14.21.22.32.22h.63c.12,0,.21-.09.21-.21v-15.02c0-.14-.1-.27-.23-.28-1.28-.16-1.41.97-1.99,1.57-2.96,3.05-11.35,2.36-16.13,2.14-.15,0-.26-.12-.26-.25l.03-12.83c0-.08.14-.15.31-.16" vector-effect="non-scaling-stroke"/>
    <path class="cls-4" d="m258.97,181.52c1.07.62,1.83.86,2.42,1.95,1.26,2.29,1.3,5.31,1.32,7.86.07,9.96.1,19.92.08,29.89,0,3.72.36,9.94-3.9,11.62-.13.05-.21.16-.21.28v.64c0,.12.09.21.21.21h18.17c.18,0,.34-.08.35-.19,0,0,0-.02,0-.03-.03-.15,0-.29.11-.41.05-.07-.03-.22-.18-.34-.63-.51-1.39-.73-1.92-1.24-2.03-1.95-2.15-6.52-2.15-9.43-.02-10.55,0-21.11.05-31.66.02-3.48.25-7.59,3.82-9.17.16-.07.27-.2.27-.33v-.63c0-.12-.09-.21-.21-.21h-18.2c-.14,0-.25.07-.3.19-.19.45-.1.79.28,1" vector-effect="non-scaling-stroke"/>
    <path class="cls-5" d="m198.2,84.94c.22.19.56.17.76-.05,0,0,0,0,0,0,3.43-4.14,7.49-7.81,12.17-10.99,4.81-3.27,12.21-6.22,17.96-3.74,6.45,2.78-.99,9.97-3.76,4.86-.06-.11-.2-.15-.3-.09-.03.02-.06.04-.08.08-3.19,4.78-2.97,9.38.68,13.78.08.09.21.15.36.15h17.46c.12,0,.21-.09.21-.21V29.15c0-.12-.09-.21-.21-.21h-109.07c-.12,0-.21.09-.21.21v20.1c0,.19.07.22.22.08,5.25-5.14,11.01-9.66,18.33-11.32,2.67-.61,9.17-.82,10.54,2.37,1.57,3.65-3.26,6.5-5.92,3.16-.08-.1-.23-.12-.33-.04-.02.02-.04.04-.06.06-5.56,9.25-.15,20.24,5.92,27.54.09.12.26.14.38.04.01-.01.03-.02.04-.04,6.66-7.82,16.73-16.26,27.41-17.03,12.13-.87,5.51,11.35.44,4.97-.06-.07-.16-.08-.23-.02,0,0-.02.02-.03.03-7.13,9.31.14,19.66,7.33,25.89" vector-effect="non-scaling-stroke"/>
    <path class="cls-4" d="m148.74,145.65c-.03.07,0,.15.08.18.02,0,.03,0,.05,0h13.23c.08,0,.14-.07.14-.14,0-.02,0-.03,0-.05l-6.61-15.95c-.03-.07-.12-.1-.19-.07-.03.01-.05.04-.07.07l-6.61,15.95" vector-effect="non-scaling-stroke"/>
    <path class="cls-4" d="m278.48,145.61c-.04.08,0,.18.09.22.02,0,.04.01.06.01h13.11c.09,0,.17-.07.17-.17,0-.02,0-.04-.01-.06l-6.56-15.9c-.04-.08-.13-.12-.22-.09-.04.02-.07.05-.09.09l-6.56,15.9" vector-effect="non-scaling-stroke"/>
    <path class="cls-4" d="m101.57,119.64c-22.34,2.69-20.19,41.91,3.69,40.18,12.48-.9,17.71-11.87,16.69-22.95-1.02-10.98-8.95-18.6-20.38-17.23" vector-effect="non-scaling-stroke"/>
    <path class="cls-4" d="m110.54,213.03c-.03.07,0,.16.08.19.02,0,.03.01.05.01h13.08c.08,0,.14-.07.14-.15,0-.02,0-.04-.01-.05l-6.54-15.84c-.03-.07-.12-.1-.19-.07-.03.01-.06.04-.07.07l-6.54,15.84" vector-effect="non-scaling-stroke"/>
  </g>
  <path class="cls-3" d="m251.59,21.11c0-.06-.05-.11-.11-.11h-125.03c-.06,0-.11.05-.11.11v75.63c0,.06.05.11.11.11h125.03c.06,0,.11-.05.11-.11h0V21.11Z"/>
  <path class="cls-1" d="m251.59,96.75c0,.06-.05.11-.11.11h-125.03c-.06,0-.11-.05-.11-.11h0V21.11c0-.06.05-.11.11-.11h125.03c.06,0,.11.05.11.11h0v75.63Zm-53.39-11.81c.22.19.56.17.76-.05,0,0,0,0,0,0,3.43-4.14,7.49-7.81,12.17-10.99,4.81-3.27,12.21-6.22,17.96-3.74,6.45,2.78-.99,9.97-3.76,4.86-.06-.11-.2-.15-.3-.09-.03.02-.06.04-.08.08-3.19,4.78-2.97,9.38.68,13.78.08.09.21.15.36.15h17.46c.12,0,.21-.09.21-.21V29.15c0-.12-.09-.21-.21-.21h-109.07c-.12,0-.21.09-.21.21v20.1c0,.19.07.22.22.08,5.25-5.14,11.01-9.66,18.33-11.32,2.67-.61,9.17-.82,10.54,2.37,1.57,3.65-3.26,6.5-5.92,3.16-.08-.1-.23-.12-.33-.04-.02.02-.04.04-.06.06-5.56,9.25-.15,20.24,5.92,27.54.09.12.26.14.38.04.01-.01.03-.02.04-.04,6.66-7.82,16.73-16.26,27.41-17.03,12.13-.87,5.51,11.35.44,4.97-.06-.07-.16-.08-.23-.02,0,0-.02.02-.03.03-7.13,9.31.14,19.66,7.33,25.89Z"/>
  <path class="cls-2" d="m198.2,84.94c-7.18-6.23-14.46-16.58-7.33-25.89.06-.07.16-.09.23-.03,0,0,.02.02.03.03,5.07,6.38,11.7-5.84-.44-4.97-10.68.77-20.76,9.21-27.41,17.03-.1.11-.27.13-.38.03-.01-.01-.03-.02-.04-.04-6.07-7.3-11.48-18.28-5.92-27.54.07-.11.21-.15.32-.08.02.01.05.03.06.06,2.65,3.34,7.48.5,5.92-3.16-1.37-3.19-7.87-2.98-10.54-2.37-7.32,1.65-13.08,6.18-18.33,11.32-.14.14-.22.12-.22-.08v-20.1c0-.12.09-.21.21-.21h109.07c.12,0,.21.09.21.21v59.56c0,.12-.09.21-.21.21h-17.46c-.15,0-.28-.05-.36-.15-3.64-4.41-3.87-9-.68-13.78.07-.1.21-.13.31-.07.03.02.06.05.08.08,2.78,5.11,10.21-2.09,3.76-4.86-5.75-2.48-13.16.47-17.96,3.74-4.69,3.19-8.74,6.85-12.17,10.99-.19.23-.53.26-.76.07,0,0,0,0,0,0Z"/>
  <path class="cls-1" d="m127.98,166.28c-.05-.21-.02-.43.06-.66.06-.16.13-.29.18-.32,2.34-1.45,3.03-3.57,4.39-6.5,7.48-16.19,14.92-32.39,22.34-48.61.09-.19.2-.33.26-.33h1.27c.1,0,.22.13.3.31,7.21,16.14,14.42,32.29,21.62,48.44,1.16,2.61,2.31,5.39,4.68,6.77.11.07.2.19.26.35.06.18.07.36.02.53-.04.13-.17.21-.33.21h-16.08c-.18,0-.32-.09-.32-.21v-.64c0-.13.1-.25.24-.28.63-.16,1.16-.48,1.58-.96.08-.09.12-.24.11-.42-.03-3.23-1.94-7.03-3.24-9.97-.06-.12-.16-.2-.28-.2h-19.36c-.15,0-.28.09-.33.22-1.14,2.67-2.19,5.35-3.16,8.02-.6,1.65-.2,2.71,1.19,3.17.19.06.33.15.33.19l.06.88c0,.11-.12.2-.29.21,0,0-.01,0-.02,0h-15.02c-.25,0-.45-.08-.47-.19Zm20.76-20.63c-.03.07,0,.15.08.18.02,0,.03,0,.05,0h13.23c.08,0,.14-.07.14-.14,0-.02,0-.03,0-.05l-6.61-15.95c-.03-.07-.12-.1-.19-.07-.03.01-.05.04-.07.07l-6.61,15.95Z"/>
  <path class="cls-1" d="m294.76,153.77h-19.36c-.12,0-.23.08-.29.2-.86,1.94-1.94,4.65-3.23,8.13-.61,1.63-.18,2.68,1.29,3.14.19.06.33.17.33.28v.74c0,.12-.1.21-.22.21h-15.02c-.18,0-.34-.05-.41-.13-.14-.16-.17-.37-.11-.61.03-.12.1-.23.2-.31,2.51-1.99,3.17-3.82,4.83-7.44,7.1-15.46,14.19-30.93,21.27-46.4.55-1.21.72-2.12,2.17-1.66.12.04.23.14.29.27,7.49,16.74,14.97,33.49,22.44,50.24.72,1.63,2,4.01,3.94,4.98.13.06.22.15.25.25.09.25.07.49-.05.72-.03.06-.16.1-.33.1h-15.98c-.18,0-.32-.09-.32-.21v-.74c0-.11.13-.22.31-.26,1.59-.33,1.81-1.48,1.4-2.92-.81-2.87-1.85-5.65-3.13-8.34-.06-.13-.17-.22-.28-.22Zm-16.27-8.16c-.04.08,0,.18.09.22.02,0,.04.01.06.01h13.11c.09,0,.17-.07.17-.17,0-.02,0-.04-.01-.06l-6.56-15.9c-.04-.08-.13-.12-.22-.09-.04.02-.07.05-.09.09l-6.56,15.9Z"/>
  <path class="cls-1" d="m36.27,160.78c-8.59-7.86-10.63-21.07-6.97-31.75,5.49-16.05,20.93-19.74,36.07-16.6,2.13.44,3.39.57,5.2-.26.57-.26.85-.08.85.55v11.11c0,.69-.29.82-.87.38-4.21-3.22-8.84-4.81-13.87-4.79-15.5.06-21.52,15.55-17.19,28.41,4.63,13.72,20.74,15.29,30.86,6.88.58-.48,1.5-.7,1.36.54-.39,3.34-.79,6.67-1.18,10-.02.13-.1.24-.22.28-11.05,3.85-24.9,3.61-34.04-4.75Z"/>
  <path class="cls-1" d="m131.58,148.06c-7.25,27.22-50.1,26.43-55.42-1.88-2.58-13.7,2.71-27.49,16.28-32.64,15.3-5.8,34.13.16,39,17.05,1.66,5.77,1.71,11.59.15,17.46Zm-30.01-28.41c-22.34,2.69-20.19,41.91,3.69,40.18,12.48-.9,17.71-11.87,16.69-22.95-1.02-10.98-8.95-18.6-20.38-17.23Z"/>
  <path class="cls-1" d="m209.77,152.16c-.11-10.66-20.21-9.82-22.3-23.44-1.32-8.62,4.5-15.71,12.94-17.01,4.38-.67,8.19-.01,13.32.98,1.26.24,2.18,0,3.3-.46.3-.13.65,0,.77.28.03.07.05.14.05.21v11.75c0,.12-.1.21-.22.21h-.53c-.09,0-.22-.06-.34-.17-4.09-3.64-7.8-5.94-13.43-4.86-6.14,1.17-7.48,8.19-1.97,11.46,5.59,3.32,12.91,5.74,16.44,11.38,3.31,5.29,3.42,12.25.14,17.55-5.96,9.64-20.82,9.09-30,5.15-.13-.05-.22-.17-.23-.3l-.97-10.26c-.06-.59.18-.73.7-.41.63.38,1.2.83,1.73,1.35,3.2,3.14,7.15,4.54,11.84,4.21,4.29-.3,8.79-3,8.75-7.62Z"/>
  <path class="cls-1" d="m238.44,120.78c-4.27-.21-9.95-.5-12.5,3.11-.39.55-.78.82-1.41.5-.11-.05-.17-.19-.15-.36l1.12-10.82c.02-.22.18-.39.38-.39h36.29c.1,0,.19.09.2.21l1.16,11.11c.02.16-.06.3-.17.32,0,0-.01,0-.02,0h-.85c-.11,0-.25-.11-.35-.27-2.54-4.08-8.61-3.6-12.75-3.42-.12,0-.22.1-.22.22-.02,10.92-.03,21.84-.05,32.77,0,3.74-.06,9.76,3.59,11.36.51.22.82.64.56,1.15-.05.11-.17.18-.3.18h-18.09c-.18,0-.32-.09-.32-.21v-.74c0-.1.13-.22.32-.28,3.97-1.32,3.78-7.19,3.79-10.53.03-11.23.03-22.47,0-33.7,0-.12-.1-.22-.22-.22Z"/>
  <path class="cls-1" d="m316.53,114.01c-.43-.22-.55-.55-.36-.99.05-.12.16-.19.28-.19h18.2c.12,0,.21.09.21.21v.74c0,.07-.13.17-.33.25-3.77,1.52-3.77,6.69-3.79,10.09-.05,7.03-.01,17.19.1,30.49.03,3.23,1.78,3.78,4.7,3.81,5.56.06,10.39.78,13.57-3.94.1-.14.2-.24.28-.25.23-.05.45-.05.68,0,.14.03.23.15.22.28l-1.15,11.75c-.01.12-.14.21-.3.21h-32.16c-.15,0-.28-.05-.36-.15-.47-.5-.07-.97.45-1.2,3.38-1.48,3.47-6.29,3.48-9.78.04-9.87.05-19.73.03-29.6,0-4.03.39-9.61-3.73-11.73Z"/>
  <path class="cls-1" d="m127.04,221.41c-.04-.08-.12-.14-.21-.14h-19.44c-.13,0-.24.08-.29.22l-3.45,8.86c-.35.89-.23,1.49.36,1.8l1.45.77c.19.1.31.27.26.38,0,.01,0,.02-.02.03-.1.13-.14.27-.11.41.02.11-.09.22-.25.23-.02,0-.03,0-.05,0-4.82-.02-9.63-.02-14.44-.01-.57,0-1.34.36-1.14-.73.02-.12.1-.24.22-.33,1.48-1.11,2.72-2.77,3.72-4.96,7.66-16.68,15.31-33.37,22.94-50.06.08-.18.19-.3.3-.33.45-.11.9-.13,1.36-.05.12.02.23.13.3.29,7.39,16.54,14.78,33.07,22.15,49.61.85,1.92,2.11,4.45,4.15,5.49.14.07.24.17.28.29.24.63-.05.8-.61.8-5.29-.02-10.57-.02-15.85-.01-.12,0-.22-.09-.24-.21-.04-.27-.02-.52.06-.77.03-.08.16-.17.35-.22,1.71-.47,1.68-1.78,1.24-3.28-.82-2.76-1.84-5.45-3.06-8.07Zm-16.5-8.38c-.03.07,0,.16.08.19.02,0,.03.01.05.01h13.08c.08,0,.14-.07.14-.15,0-.02,0-.04-.01-.05l-6.54-15.84c-.03-.07-.12-.1-.19-.07-.03.01-.06.04-.07.07l-6.54,15.84Z"/>
  <path class="cls-1" d="m187.36,233.06c-17.07,5.86-37.98,1.08-42.07-19.16-3.37-16.64,5.77-33.62,23.91-34.87,4.66-.32,9.32.04,13.97,1.07,1.69.38,2.99.16,4.51-.41.28-.11.6.04.71.34.02.06.04.13.04.2v11.33c0,.57-.24.67-.72.28-8.77-6.98-22.81-7.02-29.27,3.23-5.71,9.06-4.1,24.67,6.08,30.15,7.5,4.04,16.72,2.3,23.11-3.19.09-.08.23-.12.39-.12h.63c.11,0,.2.13.19.28,0,.01,0,.02,0,.03l-1.23,10.58c-.01.11-.11.21-.24.25Z"/>
  <path class="cls-1" d="m308.41,235.22c-31.43-1.93-34.49-48.94-4.72-55.6,5.63-1.26,12.14-.77,17.9.47,1.87.4,3.3,0,5.08-.38.11-.02.22.04.25.15,0,.01,0,.03,0,.04v11.43c0,.71-.28.85-.84.41-12.69-9.78-30.71-4.41-32.34,12.78-1.1,11.56,5.01,22.56,17.8,22.83,5.28.11,10.13-1.67,14.54-5.34.31-.26.66-.26,1.05,0,.1.06.16.2.14.35l-1.21,10.44c-.01.1-.11.2-.24.25-5.28,1.84-11.08,2.56-17.41,2.17Z"/>
  <path class="cls-1" d="m65.34,189.02c-.1.03-.17.11-.17.21,0,11.42,0,22.84,0,34.26,0,3.32.18,7.8,3.91,9.34.13.05.22.17.22.28v.63c0,.12-.15.22-.32.22h-18.2c-.12,0-.21-.09-.21-.21v-.74c0-.09.12-.2.31-.27,3.78-1.43,3.76-6.63,3.78-10.33.05-9.76.07-19.52.08-29.28,0-3.66.15-10.05-3.85-11.56-.19-.07-.31-.19-.31-.29v-.74c0-.11.11-.21.24-.21,6.8,0,13.59,0,20.39,0,9.26.01,18.43,2.56,20.02,13.19,1.91,12.75-8.87,21.2-20.92,19.11-.18-.03-.31-.1-.34-.18l-2.28-7.35c-.03-.11.02-.22.12-.25.01,0,.03,0,.04,0,.69-.07,1.71-.03,3.04.13,1.78.2,3.74-.26,5.89-1.4,4.65-2.45,5.56-9.45,1.41-12.86-3.23-2.65-8.75-2.81-12.85-1.7Z"/>
  <path class="cls-1" d="m195.07,181.62c-.51-.22-.67-.59-.48-1.1.04-.12.16-.19.3-.19h18.09c.12,0,.21.09.21.21v.74c0,.07-.11.18-.28.25-3.48,1.63-3.72,5.42-3.72,9.3-.03,10.71-.03,21.42,0,32.14,0,3.49.02,8.26,3.7,9.77.18.07.31.19.31.28v.74c0,.12-.14.22-.32.22h-18.09c-.12,0-.21-.09-.21-.21v-.74c0-.08.11-.18.26-.24,3.68-1.48,3.74-6.06,3.74-9.17.01-10.93.01-21.86,0-32.8,0-3.07-.12-7.73-3.5-9.18Z"/>
  <path class="cls-1" d="m232.9,188.44l-.03,12.83c0,.14.12.25.26.25,4.78.22,13.17.91,16.13-2.14.58-.6.71-1.73,1.99-1.57.13.02.23.14.23.28v15.02c0,.12-.09.21-.21.21h-.63c-.11,0-.23-.08-.32-.22-2.09-3.39-4.75-3.4-8.9-3.54-2.75-.09-5.45-.1-8.13-.01-.25,0-.44.21-.44.45,0,4.72.02,9.25.06,13.58.03,3.26.24,7.82,3.8,9.18.14.05.24.15.28.27.21.63.02.95-.55.94-5.96-.03-11.91-.03-17.86-.02-.18,0-.32-.1-.32-.22h0v-.64c0-.12.09-.24.23-.3,4.43-1.84,3.92-8.19,3.88-11.9-.08-6.9.07-13.8-.03-20.7-.06-3.69.3-9.76-.48-14.6-.32-1.97-1.41-3.33-3.27-4.07-.19-.07-.33-.18-.33-.27v-.74c0-.12.1-.21.22-.21h34.91c.12,0,.21.09.21.21v11.32c0,.12-.09.21-.21.21h-.63c-.11,0-.24-.1-.34-.27-2.01-3.38-6.11-3.48-9.52-3.53-3.23-.04-6.45-.03-9.68.01-.17,0-.31.07-.31.16Z"/>
  <path class="cls-1" d="m258.97,181.52c-.37-.21-.46-.55-.28-1,.05-.11.16-.19.3-.19h18.2c.12,0,.21.09.21.21v.63c0,.13-.11.26-.27.33-3.58,1.58-3.8,5.69-3.82,9.17-.05,10.55-.06,21.1-.05,31.66,0,2.91.13,7.48,2.15,9.43.53.51,1.29.73,1.92,1.24.15.12.23.27.18.34-.1.13-.13.27-.11.41.02.11-.12.21-.3.22-.02,0-.03,0-.05,0h-18.17c-.12,0-.21-.1-.21-.22v-.64c0-.12.08-.23.21-.28,4.26-1.68,3.89-7.9,3.9-11.62.02-9.96,0-19.92-.08-29.89-.02-2.55-.06-5.58-1.32-7.86-.6-1.09-1.35-1.33-2.42-1.95Z"/>
</svg>