<?xml version="1.0" encoding="UTF-8"?>
<svg id="Layer_1" data-name="Layer 1" xmlns="http://www.w3.org/2000/svg" viewBox="0 0 1618.75 257">
  <defs>
    <style>
      .cls-1 {
        fill: #0030c2;
      }
    </style>
  </defs>
  <g>
    <path class="cls-1" d="m122.8,156.66h-55.5c-.33,0-.61.27-.61.61v36.32h-24.04c-.33,0-.61.27-.61.61v6.16c0,.33.27.61.61.61h55.47c.33,0,.61-.27.61-.61v-18.51c0-.33-.27-.61-.61-.61h-6.12c-.33,0-.61.27-.61.61v11.74h-17.31v-29.55h41.94v11.62c0,.33.27.61.61.61h48.73v24.1c0,.33.27.61.61.61h61.01v24.09c0,.33.27.61.61.61h6.17c.33,0,.61-.27.61-.61v-30.86c0-.33-.27-.61-.61-.61h-61.02v-23.97c0-.33-.27-.61-.61-.61h-48.71v-11.75c0-.33-.27-.6-.61-.6Z"/>
    <path class="cls-1" d="m189.97,120.22v55.43c0,.33.27.61.61.61h43.15c.33,0,.61-.27.61-.61v-30.74c0-.33-.27-.61-.61-.61h-18.46c-.33,0-.61.27-.61.61v6.16c0,.33.27.61.61.61h11.68v17.33h-29.6v-42.01h36.38c.33,0,.61-.27.61-.61V33.9c0-.33-.27-.61-.61-.61h-6.17c-.34,0-.61.27-.61.61v85.72h-36.37c-.33,0-.61.27-.61.61Z"/>
    <path class="cls-1" d="m209.09,225.65c.34,0,.61-.27.61-.61v-6.18c0-.33-.27-.61-.61-.61h-61.07v-24.07c0-.33-.27-.61-.61-.61h-30.8c-.33,0-.61.27-.61.61v24.07H42.64c-.33,0-.61.27-.61.61v6.18c0,.33.27.61.61.61h80.15c.33,0,.61-.27.61-.61v-24.09h17.24v17.3h-4.91v-11.72c0-.33-.27-.61-.61-.61h-6.16c-.33,0-.61.27-.61.61v24.06H37.09v-17.29h73.37c.33,0,.61-.27.61-.61v-43.09c0-.33-.27-.61-.61-.61h-30.81c-.33,0-.61.27-.61.61v18.4c0,.33.27.61.61.61h6.17c.33,0,.61-.27.61-.61v-11.76h17.25v29.67H37.09v-17.31h24.02c.33,0,.61-.27.61-.61v-67.79c0-.33-.27-.61-.61-.61h-6.17c-.33,0-.61.27-.61.61v61.02h-17.25v-78.88h73.37c.33,0,.61-.27.61-.61v-6.17c0-.33-.27-.61-.61-.61h-24.04v-17.3h24.04c.33,0,.61-.27.61-.61v-30.83c0-.33-.27-.61-.61-.61h-55.51c-.33,0-.61.27-.61.61v6.18c0,.33.27.61.61.61h48.73v17.25h-48.73c-.33,0-.61.27-.61.61v6.18c0,.33.27.61.61.61h24.09v17.3h-41.95V28.34h91.27v48.73c0,.33.27.61.61.61h55.44c.34,0,.61-.27.61-.61v-30.83c0-.33-.27-.61-.61-.61h-24.03v-11.74c0-.33-.27-.61-.61-.61h-6.15c-.34,0-.61.27-.61.61v18.53c0,.33.27.61.61.61h24.09v17.25h-41.96V21.61c0-.33-.27-.61-.61-.61H30.3c-.33,0-.61.27-.61.61v215.79c0,.33.27.61.61.61h104.82c.33,0,.61-.27.61-.61v-11.74h73.36Z"/>
    <path class="cls-1" d="m246.06,21h-104.82c-.33,0-.61.27-.61.61v43.18c0,.33.27.61.61.61h30.86c.33,0,.61-.27.61-.61v-6.19c0-.33-.27-.61-.61-.61h-24.09v-29.64h54.31v66.63h-73.36c-.33,0-.61.27-.61.61v6.17c0,.33.27.61.61.61h11.68v17.26h-48.65c-.33,0-.61.27-.61.61v6.16c0,.33.27.61.61.61h55.42c.33,0,.61-.27.61-.61v-24.03h61.07c.34,0,.61-.27.61-.61V28.34h29.62v103.62h-36.38c-.34,0-.61.27-.61.61v30.85c0,.33.27.61.61.61h18.45c.33,0,.61-.27.61-.61v-6.16c0-.33-.27-.61-.61-.61h-11.69v-17.32h29.62v41.9h-54.31v-66.6h36.38c.33,0,.61-.27.61-.61V33.9c0-.33-.27-.61-.61-.61h-6.11c-.33,0-.61.27-.61.61v73.42h-61.07c-.34,0-.61.27-.61.61v24.04h-66.58v-17.32h48.71c.33,0,.61-.27.61-.61v-6.12c0-.33-.27-.61-.61-.61h-11.72v-17.29h73.34c.33,0,.61-.27.61-.61v-55.52c0-.33-.27-.61-.61-.61h-30.8c-.33,0-.61.27-.61.61v6.18c0,.33.27.61.61.61h24.03v41.95h-66.57v-48.74c0-.33-.27-.61-.61-.61H42.64c-.33,0-.61.27-.61.61v55.52c0,.33.27.61.61.61h30.82c.33,0,.61-.27.61-.61v-6.18c0-.33-.27-.61-.61-.61h-24.04v-17.25h48.68c.33,0,.61-.27.61-.61v-6.19c0-.33-.27-.61-.61-.61h-48.68v-17.29h66.58v41.95h-24.02c-.33,0-.61.27-.61.61v6.18c0,.33.27.61.61.61h24.02v17.29h-36.37c-.33,0-.61.27-.61.61v30.81c0,.33.27.61.61.61h80.12c.34,0,.61-.27.61-.61v-24.09h17.33v42.01h-41.96v-4.98h36.38c.33,0,.61-.27.61-.61v-30.85c0-.33-.27-.61-.61-.61h-6.16c-.33,0-.61.27-.61.61v24.08h-91.27v-36.38c0-.33-.27-.61-.61-.61h-30.82c-.33,0-.61.27-.61.61v67.73c0,.33.27.61.61.61h6.18c.33,0,.61-.27.61-.61v-61.01h17.26v36.43c0,.33.27.61.61.61h61.06v11.74c0,.33.27.61.61.61h48.73v23.98c0,.33.27.61.61.61h61.02v41.98h-17.32v-24.06c0-.33-.27-.61-.61-.61h-61.02v-24.08c0-.33-.27-.61-.61-.61h-43.14c-.33,0-.61.27-.61.61v6.16c0,.33.27.61.61.61h36.38v24.08c0,.33.27.61.61.61h61.06v17.29h-73.42c-.33,0-.61.27-.61.61v6.19c0,.33.27.61.61.61h104.82c.33,0,.61-.27.61-.61V21.61c0-.33-.27-.61-.61-.61Z"/>
  </g>
  <path id="id-NWRg60gGY-12" class="cls-1" d="m434.14,23.77v1.73h-1.39c-4.28,0-8.04,1.56-11.27,4.68h0c-1.85,1.62-3.18,3.64-3.99,6.07h0l-28.79,91.73c-2.31,7.28-3.58,13.7-3.82,19.25h-1.56l-35.38-99.19-26.36,79.94c-2.2,7.17-3.41,13.58-3.64,19.25h-1.56l-39.37-111.15c-1.39-3.47-3.53-6.1-6.42-7.89-2.89-1.79-5.84-2.69-8.84-2.69h-1.39v-1.73h38.5v1.73h-1.56c-2.43,0-4.25.78-5.46,2.34-1.21,1.56-1.82,3.03-1.82,4.42s.17,2.66.52,3.81h0l26.36,84.45,32.26-99.53,1.56.17,34.17,95.89,23.24-81.15c.35-1.27.52-2.57.52-3.9s-.58-2.75-1.73-4.25c-1.16-1.5-2.95-2.25-5.38-2.25h-1.56v-1.73h34.17Zm6.07,119.65h2.43c3.12,0,5.84-.92,8.15-2.77,2.31-1.85,3.47-4.05,3.47-6.59h0V52.21c0-2.54-1.16-4.74-3.47-6.59-2.31-1.85-5.09-2.77-8.32-2.77h-2.25v-1.73h39.2v1.73h-2.25c-3.12,0-5.81.87-8.06,2.6-2.25,1.73-3.5,3.87-3.73,6.42h0v82.37c.12,2.54,1.33,4.71,3.64,6.5,2.31,1.79,5.03,2.69,8.15,2.69h2.25l.17,1.73h-39.37v-1.73Zm61.74,0h2.43c2.77,0,5.12-.9,7.02-2.69,1.91-1.79,2.92-3.96,3.04-6.5h0V52.21c-.12-2.54-1.19-4.74-3.21-6.59-2.02-1.85-4.42-2.77-7.2-2.77h-2.08v-1.73h35.9v1.73h-2.08c-2.77,0-5.17.92-7.2,2.77-2.02,1.85-3.04,4.05-3.04,6.59h0v87.57h27.06c5.32,0,9.83-.92,13.53-2.77,3.7-1.85,6.5-4.05,8.41-6.59,1.91-2.54,3.79-5.9,5.64-10.06h1.73l-9.54,24.8h-70.41v-1.73Zm96.95-3.99h0c-.35-1.39-.52-4.22-.52-8.5s.75-8.61,2.25-13.01h2.08c-.12,1.04-.17,2.08-.17,3.12h0c0,6.24,2.05,11.36,6.16,15.35,4.1,3.99,9.8,5.98,17.08,5.98h0c7.63,0,13.59-1.76,17.86-5.29,4.28-3.53,6.42-8.09,6.42-13.7s-2.08-10.26-6.24-13.96h0l-34.69-26.7c-5.55-4.74-8.32-11.1-8.32-19.07h0c0-4.51,1.24-8.67,3.73-12.48s5.95-6.85,10.41-9.1c4.45-2.25,9.68-3.38,15.7-3.38s11.33.52,15.96,1.56h5.72l.35,18.9h-1.91c0-4.86-1.68-8.61-5.03-11.27-3.35-2.66-8.15-3.99-14.39-3.99s-11.39,1.59-15.44,4.77c-4.05,3.18-6.07,7.28-6.07,12.31s2.25,9.39,6.76,13.09h0l35.03,27.05c5.32,4.39,7.98,10.52,7.98,18.38s-2.98,14.51-8.93,19.94c-5.95,5.43-13.21,8.15-21.77,8.15h0c-5.67,0-11.33-.69-17-2.08-5.67-1.39-10-3.41-13.01-6.07Zm111.34-93.9c8.9-4.57,18.7-6.85,29.4-6.85s20.49,2.28,29.4,6.85c8.9,4.57,15.98,11.01,21.25,19.33s7.89,17.74,7.89,28.26c0,10.52-2.63,19.94-7.89,28.26-5.26,8.32-12.34,14.77-21.25,19.33-8.9,4.57-18.04,6.85-27.4,6.85s-17.63-1.33-24.8-3.99c-7.17-2.66-13.38-6.36-18.64-11.1-5.26-4.74-9.42-10.52-12.49-17.34-3.06-6.82-4.6-14.83-4.6-24.02,0-9.19,2.63-17.95,7.89-26.27,5.26-8.32,12.34-14.77,21.25-19.33Zm-3.21,83.06c8.73,9.19,19.57,13.79,32.52,13.79s23.82-4.6,32.6-13.79c8.79-9.19,13.18-21.01,13.18-35.46s-4.39-26.27-13.18-35.46c-8.79-9.19-19.66-13.79-32.6-13.79s-23.79,4.6-32.52,13.79c-8.73,9.19-13.09,21.01-13.09,35.46s4.36,26.27,13.09,35.46Zm231.27-85.75h-2.95c-2.54,0-4.74.84-6.59,2.51s-2.83,3.73-2.95,6.16h0v73.87c0,6.7.4,13.06,1.21,19.07h0l.35,3.12h-1.56l-90.18-85.49v72.31c0,2.54.92,4.68,2.77,6.42,1.85,1.73,4.1,2.6,6.76,2.6h2.95v1.73h-32.78v-1.73h2.95c2.66,0,4.91-.87,6.76-2.6,1.85-1.73,2.77-3.87,2.77-6.42h0V60.19c0-7.05-.4-13.35-1.21-18.9h0l-.35-2.77,1.91.17,90.01,84.79V51.52c-.23-2.43-1.27-4.48-3.12-6.16-1.85-1.68-4.05-2.51-6.59-2.51h-2.95v-1.73h32.78v1.73Zm109.09,102.31h-42.32l.17-1.73h2.08c3.01,0,5.58-1.04,7.72-3.12,2.14-2.08,3.27-4.62,3.38-7.63h0V36.26c0-3.01-1.1-5.55-3.3-7.63-2.2-2.08-4.8-3.12-7.8-3.12h-2.08l-.17-1.73h34.51c11.91,0,21.16,2.63,27.75,7.89,6.59,5.26,9.89,12.28,9.89,21.07h0c0,6.94-1.85,12.69-5.55,17.25-3.7,4.57-8.21,7.6-13.53,9.1h0c9.13,1.39,16.36,5.14,21.68,11.27,5.32,6.13,7.98,13.84,7.98,23.15s-3.56,16.91-10.67,22.8c-7.11,5.9-17.03,8.84-29.74,8.84Zm-17.69-115.83v109.59h17.34c8.79,0,15.61-2.4,20.46-7.2,4.86-4.8,7.28-11.59,7.28-20.37h0c0-4.97-.84-9.33-2.51-13.09-1.68-3.76-3.79-6.73-6.33-8.93h0c-6.71-5.55-16.76-8.32-30.18-8.32h-.17v-1.56h1.65c.98,0,2.4-.12,4.25-.35,1.85-.23,3.93-.64,6.24-1.21,2.31-.58,4.39-1.5,6.24-2.77,1.85-1.27,3.58-2.77,5.2-4.51h0c3.35-3.81,5.03-9.51,5.03-17.08s-2.17-13.5-6.5-17.77c-4.34-4.28-10.61-6.42-18.82-6.42h-9.19Zm110.3,17.17h-9.19v87.57c.12,3.58,1.73,6.3,4.86,8.15h0c1.5.81,3.18,1.21,5.03,1.21h2.25l.17,1.73h-35.55v-1.73h2.43c2.66,0,4.94-.9,6.85-2.69,1.91-1.79,2.86-3.96,2.86-6.5h0V51.87c0-2.54-.95-4.68-2.86-6.42-1.91-1.73-4.19-2.6-6.85-2.6h-2.43v-1.73h43.53c10.87,0,19.45,2.49,25.75,7.46,6.3,4.97,9.45,11.5,9.45,19.59,0,8.09-2.54,14.85-7.63,20.29-5.09,5.43-11.56,8.55-19.42,9.36h0c3.7,1.62,8.15,6.13,13.35,13.53h0c-.12,0,1.88,2.54,5.98,7.63,4.1,5.09,7.4,9.05,9.89,11.88,2.49,2.83,4.54,5,6.16,6.5h0c4.28,4.05,9.19,6.07,14.74,6.07h0v1.73h-5.38c-9.13,0-16.3-1.79-21.51-5.38h0c-3.93-2.66-7.52-5.95-10.75-9.88h0c-.69-.92-3.61-5-8.76-12.22-5.15-7.23-7.89-11.07-8.24-11.53h0c-6.24-7.75-12.08-11.62-17.52-11.62h0v-1.73c13.53,0,21.68-.69,24.45-2.08h0c3.82-1.97,6.42-4.05,7.8-6.24h0c2.89-4.62,4.34-9.71,4.34-15.26h0c0-7.05-2.08-12.48-6.24-16.3-4.16-3.81-9.77-5.9-16.82-6.24h0c-3.12-.12-6.71-.17-10.75-.17Zm101.98-.95c8.9-4.57,18.7-6.85,29.4-6.85s20.49,2.28,29.4,6.85c8.9,4.57,15.98,11.01,21.25,19.33,5.26,8.32,7.89,17.74,7.89,28.26,0,10.52-2.63,19.94-7.89,28.26-5.26,8.32-12.34,14.77-21.25,19.33-8.9,4.57-18.04,6.85-27.4,6.85s-17.63-1.33-24.8-3.99c-7.17-2.66-13.38-6.36-18.64-11.1-5.26-4.74-9.42-10.52-12.49-17.34-3.06-6.82-4.6-14.83-4.6-24.02,0-9.19,2.63-17.95,7.89-26.27s12.34-14.77,21.25-19.33Zm-3.21,83.06c8.73,9.19,19.57,13.79,32.52,13.79s23.82-4.6,32.6-13.79c8.79-9.19,13.18-21.01,13.18-35.46s-4.39-26.27-13.18-35.46c-8.79-9.19-19.66-13.79-32.6-13.79s-23.79,4.6-32.52,13.79c-8.73,9.19-13.09,21.01-13.09,35.46s4.36,26.27,13.09,35.46Zm140.91-83.06c8.9-4.57,18.7-6.85,29.4-6.85s20.49,2.28,29.4,6.85c8.9,4.57,15.98,11.01,21.25,19.33,5.26,8.32,7.89,17.74,7.89,28.26s-2.63,19.94-7.89,28.26c-5.26,8.32-12.34,14.77-21.25,19.33-8.9,4.57-18.04,6.85-27.4,6.85s-17.63-1.33-24.8-3.99c-7.17-2.66-13.38-6.36-18.64-11.1-5.26-4.74-9.42-10.52-12.49-17.34-3.06-6.82-4.6-14.83-4.6-24.02s2.63-17.95,7.89-26.27c5.26-8.32,12.34-14.77,21.25-19.33Zm-3.21,83.06c8.73,9.19,19.57,13.79,32.52,13.79s23.82-4.6,32.61-13.79c8.79-9.19,13.18-21.01,13.18-35.46s-4.39-26.27-13.18-35.46c-8.79-9.19-19.66-13.79-32.61-13.79s-23.79,4.6-32.52,13.79c-8.73,9.19-13.09,21.01-13.09,35.46s4.36,26.27,13.09,35.46Zm209.59,14.83v1.73h-6.42c-11.33,0-19.83-3.29-25.49-9.88h0l-38.15-41.79,37.29-43.87c1.27-1.62,1.47-3.15.61-4.6-.87-1.45-2.34-2.17-4.42-2.17h-1.56v-1.73h35.38v1.73h-.69c-7.05,0-12.66,2.08-16.82,6.24h0l-37.81,40.4,43.01,46.82c2.08,2.54,4.22,4.34,6.42,5.38,2.2,1.04,5.09,1.62,8.67,1.73h0Zm-65.9,0h1.91v1.73h-35.55v-1.73h2.08c2.77,0,5.15-.92,7.11-2.77,1.97-1.85,3.01-4.05,3.12-6.59h0V52.21c-.12-2.54-1.16-4.74-3.12-6.59-1.97-1.85-4.34-2.77-7.11-2.77h-2.08v-1.73h35.55v1.73h-2.08c-3.7,0-6.59,1.5-8.67,4.51h0c-.93,1.39-1.39,2.95-1.39,4.68h0v82.19c0,2.54,1.01,4.71,3.04,6.5,2.02,1.79,4.42,2.69,7.2,2.69Z"/>
  <path id="id-k5DKOr34iL80" class="cls-1" d="m260.36,186.29h.55c.73,0,1.36-.26,1.88-.78.52-.52.8-1.15.82-1.88h0v-23.66c-.08-.68-.38-1.25-.89-1.71-.51-.46-1.11-.7-1.82-.7h-.51l-.04-.42h12.38c.87,0,1.82-.08,2.85-.25,1.03-.17,1.75-.34,2.18-.51h0v5.32h-.42v-.76c0-.68-.23-1.25-.7-1.73-.46-.48-1.02-.73-1.67-.76h-8.62v13.05h7.14c.56-.03,1.04-.24,1.44-.63s.59-.89.59-1.48h0v-.59h.42v6.67h-.42v-.63c0-.56-.19-1.04-.57-1.44-.38-.39-.85-.61-1.42-.63h-7.18v12.63h6.04c2.08,0,3.68-.46,4.77-1.39,1.1-.93,2.01-2.31,2.75-4.14h.42l-2.45,6.84h-17.53v-.42Zm50.45,0v.42h-10.01v-.42h.51c.56,0,.98-.19,1.25-.57.27-.38.4-.69.4-.93s-.07-.49-.21-.74h0l-5.83-8.36-6.17,8.32c-.2.25-.3.51-.3.76s.13.57.4.95c.27.38.7.57,1.29.57h.51v.42h-9.21v-.42h.55c1.52,0,2.86-.69,4.01-2.07h0l7.86-10.05-7.14-10.27c-.42-.59-1.01-1.09-1.75-1.5-.75-.41-1.51-.61-2.3-.61h-.55v-.42h9.93v.42h-.51c-.56,0-.98.19-1.25.57-.27.38-.4.69-.4.93s.08.49.25.74h0l5.37,7.69,5.11-7.69c.17-.23.25-.46.25-.72s-.13-.57-.4-.95c-.27-.38-.68-.57-1.25-.57h-.51v-.42h9.38v.42h-.59c-.79,0-1.54.2-2.26.61s-1.32.92-1.8,1.54h0l-6.8,9.46,7.56,10.81c.62.82,1.32,1.37,2.09,1.65.77.28,1.43.42,1.96.42h.55Zm3.55,0h.59c.68,0,1.25-.22,1.71-.65.46-.44.71-.96.74-1.58h0v-20.07c0-.62-.24-1.14-.72-1.56s-1.06-.63-1.73-.63h-.59v-.42h12.34c1.15,0,2.17-.08,3.04-.25s1.44-.31,1.69-.42h0v4.82l-.46-.04v-.63c0-.59-.2-1.1-.59-1.52-.39-.42-.9-.63-1.52-.63h-8.79v10.73h7.22c.56,0,.99-.17,1.29-.51s.44-.76.44-1.27h0v-.55h.46v5.91h-.46v-.55c0-.79-.3-1.32-.89-1.61h0c-.23-.08-.46-.14-.72-.17h-7.35v10.73h6.63c1.3,0,2.39-.23,3.27-.68.89-.45,1.56-.99,2.03-1.61.46-.62.94-1.44,1.42-2.45h.42l-2.32,6.04h-17.15v-.42Zm38.49,1.01c-4.31-.03-7.71-1.23-10.2-3.59-2.49-2.37-3.74-5.6-3.74-9.7s1.25-7.33,3.74-9.7c2.49-2.37,5.89-3.55,10.2-3.55h0c1.75,0,3.51.23,5.28.68,1.77.45,3.31,1.07,4.61,1.86h0l.93,6h-.38c-1.21-4.84-4.7-7.27-10.48-7.27h0c-3.35,0-6,1.07-7.94,3.21-1.94,2.14-2.92,5.07-2.92,8.79h0c0,2.42.44,4.53,1.31,6.32.87,1.79,2.14,3.18,3.8,4.16h0c1.66.99,3.59,1.48,5.79,1.48s4.12-.33,5.77-.99c1.65-.66,3.01-1.75,4.1-3.27,1.08-1.52,1.7-3.41,1.84-5.66h.38l-.46,5.79c-1.1,1.69-2.69,3.02-4.77,3.99-2.08.97-4.37,1.46-6.84,1.46h0Zm43.52-25.94v.42h-.63c-.76,0-1.34.3-1.73.89h0c-.17.25-.27.55-.3.89h0v14.24c0,2.93-.94,5.25-2.81,6.95-1.87,1.7-4.44,2.56-7.71,2.56s-5.84-.84-7.73-2.53c-1.89-1.69-2.83-4-2.83-6.93h0v-14.24c0-.51-.2-.94-.59-1.29-.39-.35-.87-.53-1.44-.53h-.63v-.42h8.03v.42h-.63c-.56,0-1.04.18-1.44.53-.39.35-.59.78-.59,1.29h0v13.73c0,2.73.7,4.89,2.09,6.46,1.39,1.58,3.37,2.37,5.92,2.37s4.59-.75,6.13-2.24c1.54-1.49,2.3-3.53,2.3-6.13h0v-14.19c-.03-.54-.23-.97-.61-1.31s-.85-.51-1.42-.51h-.63v-.42h7.27Zm24.42,1.23h-7.65v21.46c.03.87.45,1.52,1.27,1.94h0c.37.2.77.3,1.23.3h.46v.42h-8.7v-.42h.51c.68,0,1.25-.23,1.73-.68.48-.45.73-.99.76-1.61h0v-21.42h-7.65c-.65,0-1.16.21-1.54.63-.38.42-.57.93-.57,1.52h0v.68h-.46v-4.77c.56.23,1.36.39,2.39.51,1.03.11,1.8.17,2.3.17h13.77c2.03,0,3.61-.23,4.73-.68h0v4.77h-.46v-.68c0-.59-.2-1.1-.59-1.52-.39-.42-.9-.63-1.52-.63h0Zm7.18,23.7h.59c.76,0,1.42-.23,1.99-.68.56-.45.85-.99.85-1.61h0v-19.94c0-.62-.28-1.15-.85-1.61-.56-.45-1.24-.68-2.03-.68h-.55v-.42h9.55v.42h-.55c-.76,0-1.42.21-1.96.63-.55.42-.85.94-.91,1.56h0v20.07c.03.62.32,1.15.89,1.58.56.44,1.23.65,1.99.65h.55l.04.42h-9.59v-.42Zm41.79-24.92v.42h-.34c-.62,0-1.23.2-1.82.61-.59.41-1.1,1.02-1.52,1.84h0c-6.14,13.18-9.34,20.08-9.59,20.7h0c-.48,1.18-.73,1.97-.76,2.37h-.38l-10.44-23.02c-.82-1.66-1.9-2.49-3.25-2.49h-.34v-.42h8.66v.42h-.34c-.54,0-.94.19-1.2.57-.27.38-.4.73-.4,1.03s.04.63.13.97h0l7.56,18.42,7.77-18.33c.14-.37.21-.71.21-1.03s-.14-.68-.42-1.06-.7-.57-1.27-.57h-.3v-.42h8.03Zm3.8,24.92h.59c.68,0,1.25-.22,1.71-.65.46-.44.71-.96.74-1.58h0v-20.07c0-.62-.24-1.14-.72-1.56-.48-.42-1.06-.63-1.73-.63h-.59v-.42h12.34c1.15,0,2.17-.08,3.04-.25.87-.17,1.44-.31,1.69-.42h0v4.82l-.46-.04v-.63c0-.59-.2-1.1-.59-1.52s-.9-.63-1.52-.63h-8.79v10.73h7.22c.56,0,.99-.17,1.29-.51s.44-.76.44-1.27h0v-.55h.46v5.91h-.46v-.55c0-.79-.3-1.32-.89-1.61h0c-.23-.08-.46-.14-.72-.17h-7.35v10.73h6.63c1.3,0,2.39-.23,3.27-.68.89-.45,1.56-.99,2.03-1.61.46-.62.94-1.44,1.42-2.45h.42l-2.32,6.04h-17.15v-.42Zm37.27-1.31h0c-.08-.39-.13-1.15-.13-2.28,0-1.13.21-2.32.63-3.59h.38c-.03.31-.04.62-.04.93h0c0,1.72.52,3.15,1.56,4.29,1.04,1.14,2.42,1.71,4.14,1.71h0c1.77,0,3.23-.54,4.37-1.61,1.14-1.07,1.71-2.41,1.71-4.03s-.55-2.94-1.65-3.95h0l-8.11-7.52c-1.52-1.41-2.28-3.11-2.28-5.11s.67-3.71,2.01-5.13c1.34-1.42,3.15-2.13,5.43-2.13h0c1.07,0,2.28.14,3.63.42h1.65v5.2h-.38c0-1.32-.46-2.38-1.37-3.17-.92-.79-2.09-1.18-3.53-1.18s-2.64.48-3.61,1.44c-.97.96-1.46,2.15-1.46,3.59s.56,2.68,1.69,3.72h0l8.32,7.69c1.41,1.3,2.11,3.07,2.11,5.32s-.72,4.1-2.15,5.56c-1.44,1.45-3.35,2.18-5.75,2.18h0c-1.24,0-2.56-.19-3.95-.57-1.39-.38-2.47-.96-3.23-1.75Zm21.51,1.31h.59c.68,0,1.25-.22,1.71-.65.46-.44.71-.96.74-1.58h0v-20.07c0-.62-.24-1.14-.72-1.56-.48-.42-1.06-.63-1.73-.63h-.59v-.42h12.34c1.15,0,2.17-.08,3.04-.25s1.44-.31,1.69-.42h0v4.82l-.46-.04v-.63c0-.59-.2-1.1-.59-1.52-.39-.42-.9-.63-1.52-.63h-8.79v10.73h7.22c.56,0,.99-.17,1.29-.51.3-.34.44-.76.44-1.27h0v-.55h.46v5.91h-.46v-.55c0-.79-.3-1.32-.89-1.61h0c-.23-.08-.46-.14-.72-.17h-7.35v10.73h6.63c1.3,0,2.39-.23,3.27-.68.89-.45,1.56-.99,2.03-1.61.46-.62.94-1.44,1.42-2.45h.42l-2.32,6.04h-17.15v-.42Zm50.32,0h.34v.42h-8.66v-.42h.34c.54,0,.94-.18,1.23-.55.28-.37.42-.71.42-1.03s-.06-.64-.17-.95h0l-2.32-5.62h-10.69l-2.32,5.49c-.14.37-.21.71-.21,1.03s.14.68.42,1.06c.28.38.7.57,1.27.57h.34v.42h-8.07v-.42h.34c.59,0,1.19-.2,1.8-.61.61-.41,1.11-1.02,1.5-1.84h0c6.17-13.18,9.38-20.08,9.63-20.7h0c.48-1.18.73-1.97.76-2.37h.38l10.44,23.07c.82,1.63,1.9,2.45,3.25,2.45Zm-14.07-21l-4.9,11.57h9.63l-4.73-11.57Zm26.11-2.62h-2.24v21.33c.03.87.42,1.53,1.18,1.99h0c.37.2.77.3,1.23.3h.55l.04.42h-8.66v-.42h.59c.65,0,1.2-.22,1.67-.65.46-.44.7-.96.7-1.58h0v-20.07c0-.62-.23-1.14-.7-1.56-.46-.42-1.02-.63-1.67-.63h-.59v-.42h10.61c2.65,0,4.74.61,6.27,1.82,1.54,1.21,2.3,2.8,2.3,4.77s-.62,3.62-1.86,4.94-2.82,2.08-4.73,2.28h0c.9.39,1.99,1.49,3.25,3.3h0s.46.62,1.46,1.86c1,1.24,1.8,2.2,2.41,2.89.61.69,1.11,1.22,1.5,1.58h0c1.04.99,2.24,1.48,3.59,1.48h0v.42h-1.31c-2.23,0-3.97-.44-5.24-1.31h0c-.96-.65-1.83-1.45-2.62-2.41h0c-.17-.23-.88-1.22-2.13-2.98-1.25-1.76-1.92-2.7-2.01-2.81h0c-1.52-1.89-2.94-2.83-4.27-2.83h0v-.42c3.3,0,5.28-.17,5.96-.51h0c.93-.48,1.56-.99,1.9-1.52h0c.7-1.13,1.06-2.37,1.06-3.72h0c0-1.72-.51-3.04-1.52-3.97-1.01-.93-2.38-1.44-4.1-1.52h0c-.76-.03-1.63-.04-2.62-.04Zm32.53,24.63c-4.31-.03-7.71-1.23-10.2-3.59-2.49-2.37-3.74-5.6-3.74-9.7s1.25-7.33,3.74-9.7,5.89-3.55,10.2-3.55h0c1.75,0,3.51.23,5.28.68s3.31,1.07,4.61,1.86h0l.93,6h-.38c-1.21-4.84-4.7-7.27-10.48-7.27h0c-3.35,0-6,1.07-7.94,3.21-1.94,2.14-2.92,5.07-2.92,8.79h0c0,2.42.44,4.53,1.31,6.32.87,1.79,2.14,3.18,3.8,4.16h0c1.66.99,3.59,1.48,5.79,1.48s4.12-.33,5.77-.99,3.01-1.75,4.1-3.27c1.08-1.52,1.7-3.41,1.84-5.66h.38l-.46,5.79c-1.1,1.69-2.69,3.02-4.77,3.99-2.08.97-4.37,1.46-6.84,1.46h0Zm36.04-1.01h.51c.65,0,1.21-.22,1.69-.65.48-.44.73-.96.76-1.58h0v-9.21h-15.59v9.21c.03.62.28,1.15.76,1.58.48.44,1.04.65,1.69.65h.51v.42h-8.62v-.42h.51c.68,0,1.25-.23,1.71-.68.46-.45.71-.99.74-1.61h0v-19.94c-.03-.62-.28-1.15-.76-1.61-.48-.45-1.04-.68-1.69-.68h-.51v-.42h8.62v.42h-.51c-.65,0-1.21.22-1.69.65-.48.44-.73.96-.76,1.58h0v9.55h15.59v-9.5c0-.62-.18-1.1-.55-1.44h0c-.59-.56-1.23-.84-1.9-.84h-.51v-.42h8.62v.42h-.51c-.65,0-1.21.21-1.69.63-.48.42-.73.94-.76,1.56h0v20.07c.03.62.21,1.08.55,1.39h0c.62.56,1.25.84,1.9.84h.51v.42h-8.62v-.42Zm51.97-15.42h-.63c-.59,0-1.01.15-1.25.44-.24.3-.36.58-.36.84s.06.71.19,1.33.19,1.44.19,2.45h0c0,2.22-.52,4.25-1.56,6.08h0c1.01.87,1.82,1.54,2.41,2.01.59.46,1.37.94,2.32,1.44.96.49,1.85.77,2.66.82h0v.42h-1.63c-.18,0-.52-.01-1.01-.04-.49-.03-.89-.08-1.2-.15-.31-.07-.72-.16-1.23-.27-.51-.11-.96-.27-1.35-.46h0c-1.01-.45-1.9-.97-2.66-1.56h0c-2,1.94-4.61,2.91-7.82,2.91h0c-4.11,0-7.3-.86-9.55-2.58-2.25-1.72-3.38-4.15-3.38-7.31h0c0-3.49,1.7-6.1,5.11-7.82h0c-1.07-1.72-1.61-3.6-1.61-5.66h0c0-2.08.76-3.8,2.28-5.15h0c1.58-1.38,3.65-2.07,6.21-2.07h0c1.44,0,2.8.27,4.1.82,1.3.55,2.32,1.27,3.08,2.18h0l-.76,4.77h-.42c0-2.03-.55-3.62-1.65-4.77h0c-1.1-1.15-2.5-1.73-4.2-1.73s-3.08.56-4.14,1.69c-1.06,1.13-1.58,2.53-1.58,4.22s.52,3.28,1.56,4.77c1.04,1.49,3.08,3.59,6.13,6.29,3.04,2.7,5.27,4.65,6.68,5.83h0c.59-1.3.89-2.63.89-4.01s-.3-2.68-.91-3.91c-.61-1.23-1.5-1.84-2.68-1.84h-.63v-.42h8.41v.42Zm-6.55,12.12h0c-7.21-5.94-11.72-10.12-13.52-12.55h0c-1.8,1.69-2.7,3.89-2.7,6.61s.87,4.87,2.6,6.44c1.73,1.58,4.15,2.37,7.25,2.37h0c2.59,0,4.72-.96,6.38-2.87Zm38.28,4.31c-4.45-.03-8.08-1.45-10.88-4.27-2.8-2.82-4.2-6.53-4.2-11.13,0-4.6,1.4-8.32,4.2-11.13,2.8-2.82,6.51-4.22,11.13-4.22h0c3.77,0,7.11.96,10.01,2.87h0l.85,5.96h-.38c-.62-2.42-1.87-4.29-3.76-5.6-1.89-1.31-4.13-1.96-6.72-1.96h0c-3.69,0-6.64,1.28-8.85,3.84-2.21,2.56-3.32,5.96-3.32,10.18,0,4.22,1.09,7.63,3.27,10.2,2.18,2.58,5.06,3.91,8.64,3.99h0c3.15,0,5.79-.86,7.9-2.58h0c2.28-1.86,3.66-4.89,4.14-9.08h.34l-.51,6.63c-2.56,4.2-6.52,6.29-11.87,6.29h0Zm25.39-24.86c2.17-1.11,4.56-1.67,7.16-1.67s4.99.56,7.16,1.67,3.89,2.68,5.18,4.71c1.28,2.03,1.92,4.32,1.92,6.89s-.64,4.86-1.92,6.89c-1.28,2.03-3.01,3.6-5.18,4.71-2.17,1.11-4.39,1.67-6.68,1.67s-4.3-.32-6.04-.97c-1.75-.65-3.26-1.55-4.54-2.7-1.28-1.15-2.3-2.56-3.04-4.22-.75-1.66-1.12-3.61-1.12-5.85s.64-4.37,1.92-6.4c1.28-2.03,3.01-3.6,5.18-4.71Zm-.78,20.23c2.13,2.24,4.77,3.36,7.92,3.36s5.8-1.12,7.94-3.36c2.14-2.24,3.21-5.12,3.21-8.64,0-3.52-1.07-6.4-3.21-8.64s-4.79-3.36-7.94-3.36-5.8,1.12-7.92,3.36c-2.13,2.24-3.19,5.12-3.19,8.64s1.06,6.4,3.19,8.64Zm57.19-20.89h-.72c-.62,0-1.15.2-1.61.61-.45.41-.69.91-.72,1.5h0v18c0,1.63.1,3.18.3,4.65h0l.08.76h-.38l-21.97-20.83v17.62c0,.62.23,1.14.68,1.56.45.42,1,.63,1.65.63h.72v.42h-7.99v-.42h.72c.65,0,1.2-.21,1.65-.63.45-.42.68-.94.68-1.56h0v-18.08c0-1.72-.1-3.25-.3-4.6h0l-.08-.68.46.04,21.93,20.66v-17.53c-.06-.59-.31-1.09-.76-1.5-.45-.41-.99-.61-1.61-.61h-.72v-.42h7.99v.42Zm5.62,23.53h0c-.08-.34-.13-1.03-.13-2.07s.18-2.1.55-3.17h.51c-.03.25-.04.51-.04.76h0c0,1.52.5,2.77,1.5,3.74,1,.97,2.39,1.46,4.16,1.46h0c1.86,0,3.31-.43,4.35-1.29,1.04-.86,1.56-1.97,1.56-3.34s-.51-2.5-1.52-3.4h0l-8.45-6.51c-1.35-1.15-2.03-2.7-2.03-4.65h0c0-1.1.3-2.11.91-3.04s1.45-1.67,2.54-2.22c1.08-.55,2.36-.82,3.82-.82s2.76.13,3.89.38h1.39l.08,4.6h-.46c0-1.18-.41-2.1-1.23-2.75-.82-.65-1.99-.97-3.51-.97s-2.77.39-3.76,1.16c-.99.77-1.48,1.77-1.48,3s.55,2.29,1.65,3.19h0l8.53,6.59c1.3,1.07,1.94,2.56,1.94,4.48s-.73,3.53-2.18,4.86c-1.45,1.32-3.22,1.99-5.3,1.99h0c-1.38,0-2.76-.17-4.14-.51s-2.44-.83-3.17-1.48Zm46.86-23.95v.42h-.63c-.76,0-1.34.3-1.73.89h0c-.17.25-.27.55-.3.89h0v14.24c0,2.93-.94,5.25-2.81,6.95-1.87,1.7-4.44,2.56-7.71,2.56s-5.84-.84-7.73-2.53c-1.89-1.69-2.83-4-2.83-6.93h0v-14.24c0-.51-.2-.94-.59-1.29-.39-.35-.87-.53-1.44-.53h-.63v-.42h8.03v.42h-.63c-.56,0-1.04.18-1.44.53-.39.35-.59.78-.59,1.29h0v13.73c0,2.73.7,4.89,2.09,6.46,1.39,1.58,3.37,2.37,5.92,2.37s4.59-.75,6.13-2.24c1.54-1.49,2.3-3.53,2.3-6.13h0v-14.19c-.03-.54-.23-.97-.61-1.31-.38-.34-.85-.51-1.42-.51h-.63v-.42h7.27Zm5.49,24.92h.59c.68,0,1.25-.22,1.71-.65.46-.44.71-.96.74-1.58h0v-19.98c-.03-.62-.29-1.15-.78-1.61-.49-.45-1.08-.68-1.75-.68h-.51v-.42h8.75v.42h-.51c-.68,0-1.26.23-1.75.68-.49.45-.74.99-.74,1.61h0v21.33h6.59c1.3,0,2.39-.23,3.3-.68.9-.45,1.58-.99,2.05-1.61.46-.62.92-1.44,1.37-2.45h.42l-2.32,6.04h-17.15v-.42Zm38.66-23.7h-7.65v21.46c.03.87.45,1.52,1.27,1.94h0c.37.2.77.3,1.23.3h.46v.42h-8.7v-.42h.51c.68,0,1.25-.23,1.73-.68.48-.45.73-.99.76-1.61h0v-21.42h-7.65c-.65,0-1.16.21-1.54.63-.38.42-.57.93-.57,1.52h0v.68h-.46v-4.77c.56.23,1.36.39,2.39.51,1.03.11,1.8.17,2.3.17h13.77c2.03,0,3.61-.23,4.73-.68h0v4.77h-.46v-.68c0-.59-.2-1.1-.59-1.52-.39-.42-.9-.63-1.52-.63h0Zm7.18,23.7h.59c.76,0,1.42-.23,1.99-.68.56-.45.85-.99.85-1.61h0v-19.94c0-.62-.28-1.15-.85-1.61-.56-.45-1.24-.68-2.03-.68h-.55v-.42h9.55v.42h-.55c-.76,0-1.42.21-1.96.63-.55.42-.85.94-.91,1.56h0v20.07c.03.62.32,1.15.89,1.58.56.44,1.23.65,1.99.65h.55l.04.42h-9.59v-.42Zm45-24.5h-.72c-.62,0-1.15.2-1.61.61-.45.41-.69.91-.72,1.5h0v18c0,1.63.1,3.18.3,4.65h0l.08.76h-.38l-21.97-20.83v17.62c0,.62.23,1.14.68,1.56.45.42,1,.63,1.65.63h.72v.42h-7.99v-.42h.72c.65,0,1.2-.21,1.65-.63.45-.42.68-.94.68-1.56h0v-18.08c0-1.72-.1-3.25-.3-4.6h0l-.08-.68.46.04,21.93,20.66v-17.53c-.06-.59-.31-1.09-.76-1.5s-.99-.61-1.61-.61h-.72v-.42h7.99v.42Zm18.93,25.52c-4.2-.03-7.56-1.23-10.08-3.61-2.52-2.38-3.78-5.6-3.78-9.67s1.26-7.29,3.78-9.67,5.77-3.57,9.76-3.57,7.37.84,10.16,2.53h0l.93,6h-.38c-.59-2.48-1.74-4.31-3.44-5.49-1.7-1.18-4.11-1.77-7.22-1.77s-5.65,1.08-7.61,3.23c-1.96,2.15-2.94,5.08-2.94,8.77s.99,6.61,2.96,8.77c1.97,2.15,4.7,3.23,8.18,3.23s6.47-1.23,8.98-3.68h0l.04-5.62c.03-.51-.13-.91-.49-1.2-.35-.3-.84-.44-1.46-.44h-.59v-.42h7.73v.42h-.59c-1.27,0-1.9.56-1.9,1.69h0v5.07c-1.18,1.46-2.81,2.74-4.88,3.82-2.07,1.08-4.46,1.63-7.16,1.63h0Zm-720.97,50.69c-4.51-.03-8.16-1.45-10.96-4.27-2.8-2.82-4.2-6.52-4.2-11.11s1.4-8.3,4.2-11.13c2.8-2.83,6.46-4.25,10.96-4.25h0c3.89,0,7.31.96,10.27,2.87h0l.85,5.96h-.38c-.62-2.42-1.87-4.29-3.74-5.6-1.87-1.31-4.2-1.96-6.99-1.96h0c-3.58,0-6.47,1.3-8.68,3.89-2.21,2.59-3.32,6-3.32,10.22s1.11,7.63,3.32,10.2c2.21,2.58,5.11,3.88,8.68,3.91h0c1.83,0,3.57-.32,5.22-.97s3.09-1.55,4.33-2.7h0v-7.48c0-.62-.19-1.09-.57-1.42s-.91-.49-1.58-.49h-.68v-.42h8.28v.42h-.63c-.7,0-1.24.16-1.61.49-.37.32-.54.8-.51,1.42h0v6.97c-.73.96-1.61,1.82-2.62,2.58-1.01.76-2.37,1.43-4.08,2.01-1.7.58-3.56.87-5.56.87h0Zm45.8-25.94v.42h-.63c-.76,0-1.34.3-1.73.89h0c-.17.25-.27.55-.3.89h0v14.24c0,2.93-.94,5.25-2.81,6.95-1.87,1.7-4.44,2.56-7.71,2.56s-5.84-.84-7.73-2.53c-1.89-1.69-2.83-4-2.83-6.93h0v-14.24c0-.51-.2-.94-.59-1.29-.39-.35-.87-.53-1.44-.53h-.63v-.42h8.03v.42h-.63c-.56,0-1.04.18-1.44.53-.39.35-.59.78-.59,1.29h0v13.73c0,2.73.7,4.89,2.09,6.46,1.39,1.58,3.37,2.37,5.92,2.37s4.59-.75,6.13-2.24c1.54-1.49,2.3-3.53,2.3-6.13h0v-14.19c-.03-.54-.23-.97-.61-1.31-.38-.34-.85-.51-1.42-.51h-.63v-.42h7.27Zm5.49,24.92h.59c.76,0,1.42-.23,1.99-.68.56-.45.85-.99.85-1.61h0v-19.94c0-.62-.28-1.15-.85-1.61-.56-.45-1.24-.68-2.03-.68h-.55v-.42h9.55v.42h-.55c-.76,0-1.42.21-1.96.63-.55.42-.85.94-.91,1.56h0v20.07c.03.62.32,1.15.89,1.58.56.44,1.23.65,1.99.65h.55l.04.42h-9.59v-.42Zm43.56-12.25h0c0,3.91-1.22,7.01-3.65,9.27-2.44,2.27-5.74,3.4-9.91,3.4h-14.11v-.42h.55c.68,0,1.24-.23,1.69-.68.45-.45.69-.99.72-1.61h0v-19.94c-.03-.68-.27-1.23-.74-1.65s-1.04-.63-1.71-.63h-.51v-.42h14.11c2.76,0,5.16.51,7.2,1.52,2.04,1.01,3.61,2.48,4.71,4.39,1.1,1.92,1.65,4.17,1.65,6.76Zm-13.56-11.41h-8.41v22.81h8.41c3.24,0,5.8-1.02,7.69-3.06,1.89-2.04,2.83-4.82,2.83-8.34h0c0-3.52-.94-6.3-2.83-8.34-1.89-2.04-4.45-3.06-7.69-3.06h0Zm19.06,23.66h.59c.76,0,1.42-.23,1.99-.68.56-.45.85-.99.85-1.61h0v-19.94c0-.62-.28-1.15-.85-1.61-.56-.45-1.24-.68-2.03-.68h-.55v-.42h9.55v.42h-.55c-.76,0-1.42.21-1.96.63-.55.42-.85.94-.91,1.56h0v20.07c.03.62.32,1.15.89,1.58.56.44,1.23.65,1.99.65h.55l.04.42h-9.59v-.42Zm45-24.5h-.72c-.62,0-1.15.2-1.61.61s-.69.91-.72,1.5h0v18c0,1.63.1,3.18.3,4.65h0l.08.76h-.38l-21.97-20.83v17.62c0,.62.23,1.14.68,1.56.45.42,1,.63,1.65.63h.72v.42h-7.99v-.42h.72c.65,0,1.2-.21,1.65-.63.45-.42.68-.94.68-1.56h0v-18.08c0-1.72-.1-3.25-.3-4.6h0l-.08-.68.46.04,21.93,20.66v-17.53c-.06-.59-.31-1.09-.76-1.5s-.99-.61-1.61-.61h-.72v-.42h7.99v.42Zm18.93,25.52c-4.2-.03-7.56-1.23-10.08-3.61-2.52-2.38-3.78-5.6-3.78-9.67s1.26-7.29,3.78-9.67c2.52-2.38,5.77-3.57,9.76-3.57s7.37.84,10.16,2.53h0l.93,6h-.38c-.59-2.48-1.74-4.31-3.44-5.49-1.7-1.18-4.11-1.77-7.22-1.77s-5.65,1.08-7.61,3.23c-1.96,2.15-2.94,5.08-2.94,8.77s.99,6.61,2.96,8.77,4.7,3.23,8.18,3.23,6.47-1.23,8.98-3.68h0l.04-5.62c.03-.51-.13-.91-.49-1.2-.35-.3-.84-.44-1.46-.44h-.59v-.42h7.73v.42h-.59c-1.27,0-1.9.56-1.9,1.69h0v5.07c-1.18,1.46-2.81,2.74-4.88,3.82-2.07,1.08-4.46,1.63-7.16,1.63h0Zm56.57-25.94v.42h-.51c-.76,0-1.49.2-2.18.61-.69.41-1.26.92-1.71,1.54h0l-8.11,12.29v7.77c0,.62.24,1.15.72,1.61.48.45,1.06.68,1.73.68h.51v.42h-8.66v-.42h.51c.68,0,1.25-.23,1.73-.68.48-.45.72-.99.72-1.61h0v-7.82l-7.82-12.29c-.96-1.41-2.25-2.11-3.89-2.11h-.51v-.42h9.8v.42h-.51c-.54,0-.92.17-1.16.51-.24.34-.36.63-.36.87s.03.46.08.65h0l6.17,10.94,6.55-10.9c.08-.23.13-.46.13-.7s-.12-.53-.36-.87c-.24-.34-.64-.51-1.2-.51h-.51v-.42h8.83Zm9.21,1.08c2.17-1.11,4.56-1.67,7.16-1.67s4.99.56,7.16,1.67,3.89,2.68,5.18,4.71c1.28,2.03,1.92,4.32,1.92,6.89,0,2.56-.64,4.86-1.92,6.89-1.28,2.03-3.01,3.6-5.18,4.71-2.17,1.11-4.39,1.67-6.68,1.67s-4.3-.32-6.04-.97c-1.75-.65-3.26-1.55-4.54-2.7-1.28-1.15-2.3-2.56-3.04-4.22-.75-1.66-1.12-3.61-1.12-5.85,0-2.24.64-4.37,1.92-6.4,1.28-2.03,3.01-3.6,5.18-4.71Zm-.78,20.23c2.13,2.24,4.77,3.36,7.92,3.36s5.8-1.12,7.94-3.36c2.14-2.24,3.21-5.12,3.21-8.64s-1.07-6.4-3.21-8.64c-2.14-2.24-4.79-3.36-7.94-3.36s-5.8,1.12-7.92,3.36-3.19,5.12-3.19,8.64,1.06,6.4,3.19,8.64Zm53.64-21.31v.42h-.63c-.76,0-1.34.3-1.73.89h0c-.17.25-.27.55-.3.89h0v14.24c0,2.93-.94,5.25-2.81,6.95-1.87,1.7-4.44,2.56-7.71,2.56s-5.84-.84-7.73-2.53c-1.89-1.69-2.83-4-2.83-6.93h0v-14.24c0-.51-.2-.94-.59-1.29-.39-.35-.87-.53-1.44-.53h-.63v-.42h8.03v.42h-.63c-.56,0-1.04.18-1.44.53-.39.35-.59.78-.59,1.29h0v13.73c0,2.73.7,4.89,2.09,6.46s3.37,2.37,5.92,2.37,4.59-.75,6.13-2.24c1.54-1.49,2.3-3.53,2.3-6.13h0v-14.19c-.03-.54-.23-.97-.61-1.31-.38-.34-.85-.51-1.42-.51h-.63v-.42h7.27Zm36.67,1.23h-7.65v21.46c.03.87.45,1.52,1.27,1.94h0c.37.2.77.3,1.23.3h.46v.42h-8.7v-.42h.51c.68,0,1.25-.23,1.73-.68.48-.45.73-.99.76-1.61h0v-21.42h-7.65c-.65,0-1.16.21-1.54.63-.38.42-.57.93-.57,1.52h0v.68h-.46v-4.77c.56.23,1.36.39,2.39.51,1.03.11,1.8.17,2.3.17h13.77c2.03,0,3.61-.23,4.73-.68h0v4.77h-.46v-.68c0-.59-.2-1.1-.59-1.52-.39-.42-.9-.63-1.52-.63h0Zm12.8-.15c2.17-1.11,4.56-1.67,7.16-1.67s4.99.56,7.16,1.67,3.89,2.68,5.18,4.71c1.28,2.03,1.92,4.32,1.92,6.89s-.64,4.86-1.92,6.89c-1.28,2.03-3.01,3.6-5.18,4.71-2.17,1.11-4.39,1.67-6.68,1.67s-4.3-.32-6.04-.97c-1.75-.65-3.26-1.55-4.54-2.7-1.28-1.15-2.3-2.56-3.04-4.22-.75-1.66-1.12-3.61-1.12-5.85s.64-4.37,1.92-6.4c1.28-2.03,3.01-3.6,5.18-4.71Zm-.78,20.23c2.13,2.24,4.77,3.36,7.92,3.36s5.8-1.12,7.94-3.36,3.21-5.12,3.21-8.64-1.07-6.4-3.21-8.64-4.79-3.36-7.94-3.36-5.8,1.12-7.92,3.36-3.19,5.12-3.19,8.64,1.06,6.4,3.19,8.64Zm65.47-21.31v.42h-.51c-.76,0-1.49.2-2.18.61-.69.41-1.26.92-1.71,1.54h0l-8.11,12.29v7.77c0,.62.24,1.15.72,1.61.48.45,1.06.68,1.73.68h.51v.42h-8.66v-.42h.51c.68,0,1.25-.23,1.73-.68.48-.45.72-.99.72-1.61h0v-7.82l-7.82-12.29c-.96-1.41-2.25-2.11-3.89-2.11h-.51v-.42h9.8v.42h-.51c-.54,0-.92.17-1.16.51s-.36.63-.36.87.03.46.08.65h0l6.17,10.94,6.55-10.9c.08-.23.13-.46.13-.7s-.12-.53-.36-.87-.64-.51-1.2-.51h-.51v-.42h8.83Zm9.21,1.08c2.17-1.11,4.56-1.67,7.16-1.67s4.99.56,7.16,1.67,3.89,2.68,5.18,4.71c1.28,2.03,1.92,4.32,1.92,6.89,0,2.56-.64,4.86-1.92,6.89-1.28,2.03-3.01,3.6-5.18,4.71-2.17,1.11-4.39,1.67-6.68,1.67s-4.3-.32-6.04-.97c-1.75-.65-3.26-1.55-4.54-2.7-1.28-1.15-2.3-2.56-3.04-4.22-.75-1.66-1.12-3.61-1.12-5.85,0-2.24.64-4.37,1.92-6.4s3.01-3.6,5.18-4.71Zm-.78,20.23c2.13,2.24,4.77,3.36,7.92,3.36s5.8-1.12,7.94-3.36c2.14-2.24,3.21-5.12,3.21-8.64s-1.07-6.4-3.21-8.64c-2.14-2.24-4.79-3.36-7.94-3.36s-5.8,1.12-7.92,3.36c-2.13,2.24-3.19,5.12-3.19,8.64s1.06,6.4,3.19,8.64Zm53.64-21.31v.42h-.63c-.76,0-1.34.3-1.73.89h0c-.17.25-.27.55-.3.89h0v14.24c0,2.93-.94,5.25-2.81,6.95-1.87,1.7-4.44,2.56-7.71,2.56s-5.84-.84-7.73-2.53c-1.89-1.69-2.83-4-2.83-6.93h0v-14.24c0-.51-.2-.94-.59-1.29-.39-.35-.87-.53-1.44-.53h-.63v-.42h8.03v.42h-.63c-.56,0-1.04.18-1.44.53-.39.35-.59.78-.59,1.29h0v13.73c0,2.73.7,4.89,2.09,6.46s3.37,2.37,5.92,2.37,4.59-.75,6.13-2.24c1.54-1.49,2.3-3.53,2.3-6.13h0v-14.19c-.03-.54-.23-.97-.61-1.31s-.85-.51-1.42-.51h-.63v-.42h7.27Zm13.39,1.31h-2.24v21.33c.03.87.42,1.53,1.18,1.99h0c.37.2.77.3,1.23.3h.55l.04.42h-8.66v-.42h.59c.65,0,1.2-.22,1.67-.65.46-.44.7-.96.7-1.58h0v-20.07c0-.62-.23-1.14-.7-1.56s-1.02-.63-1.67-.63h-.59v-.42h10.61c2.65,0,4.74.61,6.27,1.82,1.54,1.21,2.3,2.8,2.3,4.77,0,1.97-.62,3.62-1.86,4.94-1.24,1.32-2.82,2.08-4.73,2.28h0c.9.39,1.99,1.49,3.25,3.3h0s.46.62,1.46,1.86c1,1.24,1.8,2.2,2.41,2.89.61.69,1.11,1.22,1.5,1.58h0c1.04.99,2.24,1.48,3.59,1.48h0v.42h-1.31c-2.23,0-3.97-.44-5.24-1.31h0c-.96-.65-1.83-1.45-2.62-2.41h0c-.17-.23-.88-1.22-2.13-2.98-1.25-1.76-1.92-2.7-2.01-2.81h0c-1.52-1.89-2.94-2.83-4.27-2.83h0v-.42c3.3,0,5.28-.17,5.96-.51h0c.93-.48,1.56-.99,1.9-1.52h0c.7-1.13,1.06-2.37,1.06-3.72h0c0-1.72-.51-3.04-1.52-3.97-1.01-.93-2.38-1.44-4.1-1.52h0c-.76-.03-1.63-.04-2.62-.04Zm61.64-.89h-.72c-.62,0-1.15.2-1.61.61-.45.41-.69.91-.72,1.5h0v18c0,1.63.1,3.18.3,4.65h0l.08.76h-.38l-21.97-20.83v17.62c0,.62.23,1.14.68,1.56s1,.63,1.65.63h.72v.42h-7.99v-.42h.72c.65,0,1.2-.21,1.65-.63.45-.42.68-.94.68-1.56h0v-18.08c0-1.72-.1-3.25-.3-4.6h0l-.08-.68.46.04,21.93,20.66v-17.53c-.06-.59-.31-1.09-.76-1.5s-.99-.61-1.61-.61h-.72v-.42h7.99v.42Zm5.49,24.5h.59c.68,0,1.25-.22,1.71-.65.46-.44.71-.96.74-1.58h0v-20.07c0-.62-.24-1.14-.72-1.56s-1.06-.63-1.73-.63h-.59v-.42h12.34c1.15,0,2.17-.08,3.04-.25s1.44-.31,1.69-.42h0v4.82l-.46-.04v-.63c0-.59-.2-1.1-.59-1.52-.39-.42-.9-.63-1.52-.63h-8.79v10.73h7.22c.56,0,.99-.17,1.29-.51.3-.34.44-.76.44-1.27h0v-.55h.46v5.91h-.46v-.55c0-.79-.3-1.32-.89-1.61h0c-.23-.08-.46-.14-.72-.17h-7.35v10.73h6.63c1.3,0,2.39-.23,3.27-.68s1.56-.99,2.03-1.61c.46-.62.94-1.44,1.42-2.45h.42l-2.32,6.04h-17.15v-.42Zm49.35,0v.42h-10.01v-.42h.51c.56,0,.98-.19,1.25-.57.27-.38.4-.69.4-.93s-.07-.49-.21-.74h0l-5.83-8.36-6.17,8.32c-.2.25-.3.51-.3.76s.13.57.4.95c.27.38.7.57,1.29.57h.51v.42h-9.21v-.42h.55c1.52,0,2.86-.69,4.01-2.07h0l7.86-10.05-7.14-10.27c-.42-.59-1.01-1.09-1.75-1.5s-1.51-.61-2.3-.61h-.55v-.42h9.93v.42h-.51c-.56,0-.98.19-1.25.57s-.4.69-.4.93.08.49.25.74h0l5.37,7.69,5.11-7.69c.17-.23.25-.46.25-.72s-.13-.57-.4-.95-.68-.57-1.25-.57h-.51v-.42h9.38v.42h-.59c-.79,0-1.54.2-2.26.61s-1.32.92-1.8,1.54h0l-6.8,9.46,7.56,10.81c.62.82,1.32,1.37,2.09,1.65.77.28,1.43.42,1.96.42h.55Zm22.48-23.7h-7.65v21.46c.03.87.45,1.52,1.27,1.94h0c.37.2.77.3,1.23.3h.46v.42h-8.7v-.42h.51c.68,0,1.25-.23,1.73-.68.48-.45.73-.99.76-1.61h0v-21.42h-7.65c-.65,0-1.16.21-1.54.63-.38.42-.57.93-.57,1.52h0v.68h-.46v-4.77c.56.23,1.36.39,2.39.51,1.03.11,1.8.17,2.3.17h13.77c2.03,0,3.61-.23,4.73-.68h0v4.77h-.46v-.68c0-.59-.2-1.1-.59-1.52-.39-.42-.9-.63-1.52-.63h0Zm37.73,23.7h.51c.65,0,1.21-.22,1.69-.65.48-.44.73-.96.76-1.58h0v-9.21h-15.59v9.21c.03.62.28,1.15.76,1.58.48.44,1.04.65,1.69.65h.51v.42h-8.62v-.42h.51c.68,0,1.25-.23,1.71-.68.46-.45.71-.99.74-1.61h0v-19.94c-.03-.62-.28-1.15-.76-1.61-.48-.45-1.04-.68-1.69-.68h-.51v-.42h8.62v.42h-.51c-.65,0-1.21.22-1.69.65s-.73.96-.76,1.58h0v9.55h15.59v-9.5c0-.62-.18-1.1-.55-1.44h0c-.59-.56-1.23-.84-1.9-.84h-.51v-.42h8.62v.42h-.51c-.65,0-1.21.21-1.69.63s-.73.94-.76,1.56h0v20.07c.03.62.21,1.08.55,1.39h0c.62.56,1.25.84,1.9.84h.51v.42h-8.62v-.42Zm14.91,0h.59c.76,0,1.42-.23,1.99-.68.56-.45.85-.99.85-1.61h0v-19.94c0-.62-.28-1.15-.85-1.61-.56-.45-1.24-.68-2.03-.68h-.55v-.42h9.55v.42h-.55c-.76,0-1.42.21-1.96.63s-.85.94-.91,1.56h0v20.07c.03.62.32,1.15.89,1.58.56.44,1.23.65,1.99.65h.55l.04.42h-9.59v-.42Zm23.79-23.61h-2.24v21.33c.03.87.42,1.53,1.18,1.99h0c.37.2.77.3,1.23.3h.55l.04.42h-8.66v-.42h.59c.65,0,1.2-.22,1.67-.65.46-.44.7-.96.7-1.58h0v-20.07c0-.62-.23-1.14-.7-1.56-.46-.42-1.02-.63-1.67-.63h-.59v-.42h10.61c2.65,0,4.74.61,6.27,1.82,1.54,1.21,2.3,2.8,2.3,4.77s-.62,3.62-1.86,4.94c-1.24,1.32-2.82,2.08-4.73,2.28h0c.9.39,1.99,1.49,3.25,3.3h0s.46.62,1.46,1.86,1.8,2.2,2.41,2.89c.61.69,1.11,1.22,1.5,1.58h0c1.04.99,2.24,1.48,3.59,1.48h0v.42h-1.31c-2.23,0-3.97-.44-5.24-1.31h0c-.96-.65-1.83-1.45-2.62-2.41h0c-.17-.23-.88-1.22-2.13-2.98-1.25-1.76-1.92-2.7-2.01-2.81h0c-1.52-1.89-2.94-2.83-4.27-2.83h0v-.42c3.3,0,5.28-.17,5.96-.51h0c.93-.48,1.56-.99,1.9-1.52h0c.7-1.13,1.06-2.37,1.06-3.72h0c0-1.72-.51-3.04-1.52-3.97s-2.38-1.44-4.1-1.52h0c-.76-.03-1.63-.04-2.62-.04Zm20.28,23.61h.59c.68,0,1.25-.22,1.71-.65.46-.44.71-.96.74-1.58h0v-20.07c0-.62-.24-1.14-.72-1.56-.48-.42-1.06-.63-1.73-.63h-.59v-.42h12.34c1.15,0,2.17-.08,3.04-.25s1.44-.31,1.69-.42h0v4.82l-.46-.04v-.63c0-.59-.2-1.1-.59-1.52s-.9-.63-1.52-.63h-8.79v10.73h7.22c.56,0,.99-.17,1.29-.51.3-.34.44-.76.44-1.27h0v-.55h.46v5.91h-.46v-.55c0-.79-.3-1.32-.89-1.61h0c-.23-.08-.46-.14-.72-.17h-7.35v10.73h6.63c1.3,0,2.39-.23,3.27-.68s1.56-.99,2.03-1.61c.46-.62.94-1.44,1.42-2.45h.42l-2.32,6.04h-17.15v-.42Zm43.9-23.85c2.17-1.11,4.56-1.67,7.16-1.67s4.99.56,7.16,1.67,3.89,2.68,5.18,4.71c1.28,2.03,1.92,4.32,1.92,6.89s-.64,4.86-1.92,6.89c-1.28,2.03-3.01,3.6-5.18,4.71-2.17,1.11-4.39,1.67-6.68,1.67s-4.3-.32-6.04-.97c-1.75-.65-3.26-1.55-4.54-2.7-1.28-1.15-2.3-2.56-3.04-4.22-.75-1.66-1.12-3.61-1.12-5.85s.64-4.37,1.92-6.4c1.28-2.03,3.01-3.6,5.18-4.71Zm-.78,20.23c2.13,2.24,4.77,3.36,7.92,3.36s5.8-1.12,7.94-3.36c2.14-2.24,3.21-5.12,3.21-8.64,0-3.52-1.07-6.4-3.21-8.64-2.14-2.24-4.79-3.36-7.94-3.36s-5.8,1.12-7.92,3.36c-2.13,2.24-3.19,5.12-3.19,8.64s1.06,6.4,3.19,8.64Zm35.55-20h-2.24v21.33c.03.87.42,1.53,1.18,1.99h0c.37.2.77.3,1.23.3h.55l.04.42h-8.66v-.42h.59c.65,0,1.2-.22,1.67-.65.46-.44.7-.96.7-1.58h0v-20.07c0-.62-.23-1.14-.7-1.56-.46-.42-1.02-.63-1.67-.63h-.59v-.42h10.61c2.65,0,4.74.61,6.27,1.82,1.54,1.21,2.3,2.8,2.3,4.77,0,1.97-.62,3.62-1.86,4.94-1.24,1.32-2.82,2.08-4.73,2.28h0c.9.39,1.99,1.49,3.25,3.3h0s.46.62,1.46,1.86,1.8,2.2,2.41,2.89c.61.69,1.11,1.22,1.5,1.58h0c1.04.99,2.24,1.48,3.59,1.48h0v.42h-1.31c-2.23,0-3.97-.44-5.24-1.31h0c-.96-.65-1.83-1.45-2.62-2.41h0c-.17-.23-.88-1.22-2.13-2.98-1.25-1.76-1.92-2.7-2.01-2.81h0c-1.52-1.89-2.94-2.83-4.27-2.83h0v-.42c3.3,0,5.28-.17,5.96-.51h0c.93-.48,1.56-.99,1.9-1.52h0c.7-1.13,1.06-2.37,1.06-3.72h0c0-1.72-.51-3.04-1.52-3.97-1.01-.93-2.38-1.44-4.1-1.52h0c-.76-.03-1.63-.04-2.62-.04Zm46.27,24.63c-4.31-.03-7.71-1.23-10.2-3.59-2.49-2.37-3.74-5.6-3.74-9.7s1.25-7.33,3.74-9.7c2.49-2.37,5.89-3.55,10.2-3.55h0c1.75,0,3.51.23,5.28.68s3.31,1.07,4.61,1.86h0l.93,6h-.38c-1.21-4.84-4.7-7.27-10.48-7.27h0c-3.35,0-6,1.07-7.94,3.21-1.94,2.14-2.92,5.07-2.92,8.79h0c0,2.42.44,4.53,1.31,6.32.87,1.79,2.14,3.18,3.8,4.16h0c1.66.99,3.59,1.48,5.79,1.48,2.2,0,4.12-.33,5.77-.99,1.65-.66,3.01-1.75,4.1-3.27,1.08-1.52,1.7-3.41,1.84-5.66h.38l-.46,5.79c-1.1,1.69-2.69,3.02-4.77,3.99s-4.37,1.46-6.84,1.46h0Zm43.31-1.01h.34v.42h-8.66v-.42h.34c.54,0,.94-.18,1.23-.55.28-.37.42-.71.42-1.03s-.06-.64-.17-.95h0l-2.32-5.62h-10.69l-2.32,5.49c-.14.37-.21.71-.21,1.03,0,.32.14.68.42,1.06.28.38.7.57,1.27.57h.34v.42h-8.07v-.42h.34c.59,0,1.19-.2,1.8-.61.61-.41,1.11-1.02,1.5-1.84h0c6.17-13.18,9.38-20.08,9.63-20.7h0c.48-1.18.73-1.97.76-2.37h.38l10.44,23.07c.82,1.63,1.9,2.45,3.25,2.45Zm-14.07-21l-4.9,11.57h9.63l-4.73-11.57Zm26.11-2.62h-2.24v21.33c.03.87.42,1.53,1.18,1.99h0c.37.2.77.3,1.23.3h.55l.04.42h-8.66v-.42h.59c.65,0,1.2-.22,1.67-.65.46-.44.7-.96.7-1.58h0v-20.07c0-.62-.23-1.14-.7-1.56-.46-.42-1.02-.63-1.67-.63h-.59v-.42h10.61c2.65,0,4.74.61,6.27,1.82,1.54,1.21,2.3,2.8,2.3,4.77,0,1.97-.62,3.62-1.86,4.94-1.24,1.32-2.82,2.08-4.73,2.28h0c.9.39,1.99,1.49,3.25,3.3h0s.46.62,1.46,1.86,1.8,2.2,2.41,2.89c.61.69,1.11,1.22,1.5,1.58h0c1.04.99,2.24,1.48,3.59,1.48h0v.42h-1.31c-2.23,0-3.97-.44-5.24-1.31h0c-.96-.65-1.83-1.45-2.62-2.41h0c-.17-.23-.88-1.22-2.13-2.98-1.25-1.76-1.92-2.7-2.01-2.81h0c-1.52-1.89-2.94-2.83-4.27-2.83h0v-.42c3.3,0,5.28-.17,5.96-.51h0c.93-.48,1.56-.99,1.9-1.52h0c.7-1.13,1.06-2.37,1.06-3.72h0c0-1.72-.51-3.04-1.52-3.97-1.01-.93-2.38-1.44-4.1-1.52h0c-.76-.03-1.63-.04-2.62-.04Zm20.28,23.61h.59c.68,0,1.25-.22,1.71-.65.46-.44.71-.96.74-1.58h0v-20.07c0-.62-.24-1.14-.72-1.56-.48-.42-1.06-.63-1.73-.63h-.59v-.42h12.34c1.15,0,2.17-.08,3.04-.25s1.44-.31,1.69-.42h0v4.82l-.46-.04v-.63c0-.59-.2-1.1-.59-1.52-.39-.42-.9-.63-1.52-.63h-8.79v10.73h7.22c.56,0,.99-.17,1.29-.51.3-.34.44-.76.44-1.27h0v-.55h.46v5.91h-.46v-.55c0-.79-.3-1.32-.89-1.61h0c-.23-.08-.46-.14-.72-.17h-7.35v10.73h6.63c1.3,0,2.39-.23,3.27-.68s1.56-.99,2.03-1.61c.46-.62.94-1.44,1.42-2.45h.42l-2.32,6.04h-17.15v-.42Zm24.34,0h.59c.68,0,1.25-.22,1.71-.65.46-.44.71-.96.74-1.58h0v-20.07c0-.62-.24-1.14-.72-1.56s-1.06-.63-1.73-.63h-.59v-.42h12.34c1.15,0,2.17-.08,3.04-.25.87-.17,1.44-.31,1.69-.42h0v4.82l-.46-.04v-.63c0-.59-.2-1.1-.59-1.52-.39-.42-.9-.63-1.52-.63h-8.79v10.73h7.22c.56,0,.99-.17,1.29-.51.3-.34.44-.76.44-1.27h0v-.55h.46v5.91h-.46v-.55c0-.79-.3-1.32-.89-1.61h0c-.23-.08-.46-.14-.72-.17h-7.35v10.73h6.63c1.3,0,2.39-.23,3.27-.68.89-.45,1.56-.99,2.03-1.61.46-.62.94-1.44,1.42-2.45h.42l-2.32,6.04h-17.15v-.42Zm32.24-23.61h-2.24v21.33c.03.87.42,1.53,1.18,1.99h0c.37.2.77.3,1.23.3h.55l.04.42h-8.66v-.42h.59c.65,0,1.2-.22,1.67-.65.46-.44.7-.96.7-1.58h0v-20.07c0-.62-.23-1.14-.7-1.56-.46-.42-1.02-.63-1.67-.63h-.59v-.42h10.61c2.65,0,4.74.61,6.27,1.82,1.54,1.21,2.3,2.8,2.3,4.77,0,1.97-.62,3.62-1.86,4.94-1.24,1.32-2.82,2.08-4.73,2.28h0c.9.39,1.99,1.49,3.25,3.3h0s.46.62,1.46,1.86c1,1.24,1.8,2.2,2.41,2.89.61.69,1.11,1.22,1.5,1.58h0c1.04.99,2.24,1.48,3.59,1.48h0v.42h-1.31c-2.23,0-3.97-.44-5.24-1.31h0c-.96-.65-1.83-1.45-2.62-2.41h0c-.17-.23-.88-1.22-2.13-2.98-1.25-1.76-1.92-2.7-2.01-2.81h0c-1.52-1.89-2.94-2.83-4.27-2.83h0v-.42c3.3,0,5.28-.17,5.96-.51h0c.93-.48,1.56-.99,1.9-1.52h0c.7-1.13,1.06-2.37,1.06-3.72h0c0-1.72-.51-3.04-1.52-3.97-1.01-.93-2.38-1.44-4.1-1.52h0c-.76-.03-1.63-.04-2.62-.04Zm39.42-.23c2.17-1.11,4.56-1.67,7.16-1.67s4.99.56,7.16,1.67c2.17,1.11,3.89,2.68,5.18,4.71,1.28,2.03,1.92,4.32,1.92,6.89s-.64,4.86-1.92,6.89c-1.28,2.03-3.01,3.6-5.18,4.71-2.17,1.11-4.39,1.67-6.68,1.67s-4.3-.32-6.04-.97c-1.75-.65-3.26-1.55-4.54-2.7-1.28-1.15-2.3-2.56-3.04-4.22-.75-1.66-1.12-3.61-1.12-5.85s.64-4.37,1.92-6.4c1.28-2.03,3.01-3.6,5.18-4.71Zm-.78,20.23c2.13,2.24,4.77,3.36,7.92,3.36s5.8-1.12,7.94-3.36c2.14-2.24,3.21-5.12,3.21-8.64s-1.07-6.4-3.21-8.64c-2.14-2.24-4.79-3.36-7.94-3.36s-5.8,1.12-7.92,3.36c-2.13,2.24-3.19,5.12-3.19,8.64s1.06,6.4,3.19,8.64Zm35.01-7.54v-.42c.65.17,1.24.25,1.77.25s.97-.01,1.31-.04c.34-.03.82-.12,1.44-.27.62-.15,1.18-.4,1.69-.74h0c1.18-.73,2.06-1.89,2.62-3.46h0c.2-.56.3-1.32.3-2.28h0c0-1.72-.59-3.07-1.77-4.06-1.18-.99-2.82-1.48-4.9-1.48h-4.1v21.38c.03.9.44,1.56,1.23,1.99h0c.37.2.77.3,1.23.3h.59v.42h-8.75v-.42h.59c.68,0,1.25-.22,1.71-.65.46-.44.71-.96.74-1.58h0v-20.02c-.03-.65-.27-1.18-.74-1.61-.46-.42-1.04-.63-1.71-.63h-.59v-.42h9.89c2.96,0,5.3.65,7.03,1.94,1.73,1.3,2.6,3.04,2.6,5.24h0c0,1.58-.37,2.96-1.1,4.14h0c-1.44,2.31-3.66,3.46-6.68,3.46h0c-1.49,0-2.96-.34-4.39-1.01h0Zm25.05,0v-.42c.65.17,1.24.25,1.77.25s.97-.01,1.31-.04c.34-.03.82-.12,1.44-.27.62-.15,1.18-.4,1.69-.74h0c1.18-.73,2.06-1.89,2.62-3.46h0c.2-.56.3-1.32.3-2.28h0c0-1.72-.59-3.07-1.77-4.06-1.18-.99-2.82-1.48-4.9-1.48h-4.1v21.38c.03.9.44,1.56,1.23,1.99h0c.37.2.77.3,1.23.3h.59v.42h-8.75v-.42h.59c.68,0,1.25-.22,1.71-.65.46-.44.71-.96.74-1.58h0v-20.02c-.03-.65-.27-1.18-.74-1.61-.46-.42-1.04-.63-1.71-.63h-.59v-.42h9.89c2.96,0,5.3.65,7.03,1.94,1.73,1.3,2.6,3.04,2.6,5.24h0c0,1.58-.37,2.96-1.1,4.14h0c-1.44,2.31-3.66,3.46-6.68,3.46h0c-1.49,0-2.96-.34-4.39-1.01h0Zm24.8-12.69c2.17-1.11,4.56-1.67,7.16-1.67s4.99.56,7.16,1.67c2.17,1.11,3.89,2.68,5.18,4.71,1.28,2.03,1.92,4.32,1.92,6.89s-.64,4.86-1.92,6.89c-1.28,2.03-3.01,3.6-5.18,4.71-2.17,1.11-4.39,1.67-6.68,1.67s-4.3-.32-6.04-.97c-1.75-.65-3.26-1.55-4.54-2.7-1.28-1.15-2.3-2.56-3.04-4.22-.75-1.66-1.12-3.61-1.12-5.85s.64-4.37,1.92-6.4c1.28-2.03,3.01-3.6,5.18-4.71Zm-.78,20.23c2.13,2.24,4.77,3.36,7.92,3.36s5.8-1.12,7.94-3.36c2.14-2.24,3.21-5.12,3.21-8.64s-1.07-6.4-3.21-8.64c-2.14-2.24-4.79-3.36-7.94-3.36s-5.8,1.12-7.92,3.36c-2.13,2.24-3.19,5.12-3.19,8.64s1.06,6.4,3.19,8.64Zm35.55-20h-2.24v21.33c.03.87.42,1.53,1.18,1.99h0c.37.2.77.3,1.23.3h.55l.04.42h-8.66v-.42h.59c.65,0,1.2-.22,1.67-.65.46-.44.7-.96.7-1.58h0v-20.07c0-.62-.23-1.14-.7-1.56s-1.02-.63-1.67-.63h-.59v-.42h10.6c2.65,0,4.74.61,6.27,1.82,1.54,1.21,2.3,2.8,2.3,4.77s-.62,3.62-1.86,4.94c-1.24,1.32-2.82,2.08-4.73,2.28h0c.9.39,1.99,1.49,3.25,3.3h0s.46.62,1.46,1.86c1,1.24,1.8,2.2,2.41,2.89.61.69,1.11,1.22,1.5,1.58h0c1.04.99,2.24,1.48,3.59,1.48h0v.42h-1.31c-2.23,0-3.97-.44-5.24-1.31h0c-.96-.65-1.83-1.45-2.62-2.41h0c-.17-.23-.88-1.22-2.13-2.98-1.25-1.76-1.92-2.7-2.01-2.81h0c-1.52-1.89-2.94-2.83-4.27-2.83h0v-.42c3.3,0,5.28-.17,5.96-.51h0c.93-.48,1.56-.99,1.9-1.52h0c.7-1.13,1.06-2.37,1.06-3.72h0c0-1.72-.51-3.04-1.52-3.97-1.01-.93-2.38-1.44-4.1-1.52h0c-.76-.03-1.63-.04-2.62-.04Zm38.15-.08h-7.65v21.46c.03.87.45,1.52,1.27,1.94h0c.37.2.77.3,1.23.3h.46v.42h-8.7v-.42h.51c.68,0,1.25-.23,1.73-.68.48-.45.73-.99.76-1.61h0v-21.42h-7.65c-.65,0-1.16.21-1.54.63-.38.42-.57.93-.57,1.52h0v.68h-.46v-4.77c.56.23,1.36.39,2.39.51,1.03.11,1.8.17,2.3.17h13.77c2.03,0,3.61-.23,4.73-.68h0v4.77h-.46v-.68c0-.59-.2-1.1-.59-1.52-.39-.42-.9-.63-1.52-.63h0Zm32.96-1.23v.42h-.63c-.76,0-1.34.3-1.73.89h0c-.17.25-.27.55-.3.89h0v14.24c0,2.93-.94,5.25-2.81,6.95-1.87,1.7-4.44,2.56-7.71,2.56s-5.84-.84-7.73-2.53c-1.89-1.69-2.83-4-2.83-6.93h0v-14.24c0-.51-.2-.94-.59-1.29-.39-.35-.87-.53-1.44-.53h-.63v-.42h8.03v.42h-.63c-.56,0-1.04.18-1.44.53-.39.35-.59.78-.59,1.29h0v13.73c0,2.73.7,4.89,2.09,6.46,1.39,1.58,3.37,2.37,5.92,2.37s4.59-.75,6.13-2.24c1.54-1.49,2.3-3.53,2.3-6.13h0v-14.19c-.03-.54-.23-.97-.61-1.31-.38-.34-.85-.51-1.42-.51h-.63v-.42h7.27Zm34.6.42h-.72c-.62,0-1.15.2-1.61.61-.45.41-.69.91-.72,1.5h0v18c0,1.63.1,3.18.3,4.65h0l.08.76h-.38l-21.97-20.83v17.62c0,.62.23,1.14.68,1.56s1,.63,1.65.63h.72v.42h-7.99v-.42h.72c.65,0,1.2-.21,1.65-.63s.68-.94.68-1.56h0v-18.08c0-1.72-.1-3.25-.3-4.6h0l-.08-.68.46.04,21.93,20.66v-17.53c-.06-.59-.31-1.09-.76-1.5s-.99-.61-1.61-.61h-.72v-.42h7.99v.42Zm5.49,24.5h.59c.76,0,1.42-.23,1.99-.68.56-.45.85-.99.85-1.61h0v-19.94c0-.62-.28-1.15-.85-1.61-.56-.45-1.24-.68-2.03-.68h-.55v-.42h9.55v.42h-.55c-.76,0-1.42.21-1.96.63-.55.42-.85.94-.91,1.56h0v20.07c.03.62.32,1.15.89,1.58.56.44,1.23.65,1.99.65h.55l.04.42h-9.59v-.42Zm34.81-23.7h-7.65v21.46c.03.87.45,1.52,1.27,1.94h0c.37.2.77.3,1.23.3h.46v.42h-8.7v-.42h.51c.68,0,1.25-.23,1.73-.68.48-.45.73-.99.76-1.61h0v-21.42h-7.65c-.65,0-1.16.21-1.54.63-.38.42-.57.93-.57,1.52h0v.68h-.46v-4.77c.56.23,1.36.39,2.39.51,1.03.11,1.8.17,2.3.17h13.77c2.03,0,3.61-.23,4.73-.68h0v4.77h-.46v-.68c0-.59-.2-1.1-.59-1.52-.39-.42-.9-.63-1.52-.63h0Zm32.53-1.23v.42h-.51c-.76,0-1.49.2-2.18.61s-1.26.92-1.71,1.54h0l-8.11,12.29v7.77c0,.62.24,1.15.72,1.61.48.45,1.06.68,1.73.68h.51v.42h-8.66v-.42h.51c.68,0,1.25-.23,1.73-.68.48-.45.72-.99.72-1.61h0v-7.82l-7.82-12.29c-.96-1.41-2.25-2.11-3.89-2.11h-.51v-.42h9.8v.42h-.51c-.54,0-.92.17-1.16.51s-.36.63-.36.87.03.46.08.65h0l6.17,10.94,6.55-10.9c.08-.23.13-.46.13-.7s-.12-.53-.36-.87c-.24-.34-.64-.51-1.2-.51h-.51v-.42h8.83Z"/>
</svg>