<?xml version="1.0" encoding="utf-8"?>
<!-- Generator: Adobe Illustrator 27.6.1, SVG Export Plug-In . SVG Version: 6.00 Build 0)  -->
<svg version="1.1" id="Layer_1" xmlns="http://www.w3.org/2000/svg" xmlns:xlink="http://www.w3.org/1999/xlink" x="0px" y="0px"
	 viewBox="0 0 500 257" style="enable-background:new 0 0 500 257;" xml:space="preserve">
<style type="text/css">
	.st0{fill:none;stroke:#818EA0;stroke-width:2;}
	.st1{fill:none;stroke:#C3CACC;stroke-width:2;}
	.st2{fill:none;stroke:#45596D;stroke-width:2;}
	.st3{fill:none;stroke:#475666;stroke-width:2;}
	.st4{fill:#869498;}
	.st5{fill:#031D41;}
	.st6{fill:#071733;}
</style>
<g>
	<path vector-effect="non-scaling-stroke" class="st0" d="M114.9,55.9c-7.5,1.8-14.7,4.6-21.5,8.3"/>
	<path vector-effect="non-scaling-stroke" class="st1" d="M93.4,64.2l-5.8-8.7c-0.7-1-1.6-1.6-2.7-1.6l-28.6-1.2
		c-0.3,0-0.6,0.2-0.6,0.5c0,0,0,0,0,0.1l2.4,28.1c0,0.3,0.2,0.6,0.5,0.8l9.1,6.8"/>
	<path vector-effect="non-scaling-stroke" class="st0" d="M67.6,89.1c-4,6.7-7.1,13.8-9.1,21.3"/>
	<path vector-effect="non-scaling-stroke" class="st1" d="M58.6,110.3l-11.1-2.3c-0.7-0.2-1.5,0-2,0.5l-21.3,19.6
		c-0.3,0.3-0.4,0.7-0.1,1c0,0,0,0,0.1,0.1l21.6,18c0.3,0.2,0.7,0.4,1,0.3l11.3-1.7"/>
	<path vector-effect="non-scaling-stroke" class="st0" d="M57.9,145.9c1.8,7.9,4.6,15.1,8.4,21.6"/>
	<path vector-effect="non-scaling-stroke" class="st1" d="M66.4,167.4l-9.3,6.2c-0.8,0.5-1.3,1.4-1.3,2.3l-1.2,28.4
		c0,0.5,0.3,0.9,0.8,0.9c0,0,0.1,0,0.1,0l27.9-2.4c0.6-0.1,1.1-0.4,1.4-0.9c1.9-3.2,4-6.1,6.5-8.8"/>
	<path vector-effect="non-scaling-stroke" class="st0" d="M91.3,193.1c6.5,4.2,13.5,7.3,20.9,9.3"/>
	<path vector-effect="non-scaling-stroke" class="st1" d="M112.2,202.5l-2.3,11.7c-0.1,0.3,0,0.7,0.3,1l19.7,21.4
		c0.4,0.4,1,0.5,1.4,0.1c0,0,0.1-0.1,0.1-0.1l17.6-21.1c0.3-0.3,0.4-0.7,0.4-1c-0.3-3.6-0.8-7.1-1.6-10.5c-0.2-0.7,0.1-1,0.8-1.1"/>
	<path vector-effect="non-scaling-stroke" class="st0" d="M148.6,202.8c7.3-1.7,14.2-4.4,20.7-8"/>
	<path vector-effect="non-scaling-stroke" class="st1" d="M169.3,194.7c2.6,3,4.7,6.1,6.4,9.3c0.3,0.6,0.9,1,1.5,1l29.3,1.2
		c0.4,0,0.7-0.3,0.7-0.7c0,0,0-0.1,0-0.1l-2.5-27.9c0-0.3-0.2-0.6-0.5-0.8l-9.1-6.8"/>
	<path vector-effect="non-scaling-stroke" class="st0" d="M195.2,169.9c4-6.6,7.1-13.7,9.2-21.3"/>
	<path vector-effect="non-scaling-stroke" class="st1" d="M204.4,148.6l11.3,2.2c0.6,0.1,1.3-0.1,1.8-0.5l21.4-19.7
		c0.2-0.2,0.3-0.6,0.1-0.8c0,0,0,0,0,0l-21.7-18.1c-0.3-0.2-0.7-0.4-1-0.3l-11.6,1.6"/>
	<path vector-effect="non-scaling-stroke" class="st0" d="M204.8,113c-1.6-7.8-4.3-14.9-8.1-21.5"/>
	<path vector-effect="non-scaling-stroke" class="st1" d="M196.6,91.5l9.8-6.7c0.4-0.3,0.6-0.6,0.7-1l1.1-29.5
		c0-0.3-0.2-0.6-0.6-0.6c0,0-0.1,0-0.1,0l-27.6,2.5c-0.4,0-0.7,0.2-0.9,0.4l-7.3,9.2"/>
	<path vector-effect="non-scaling-stroke" class="st0" d="M171.8,65.8c-6.8-4.2-13.9-7.3-21.2-9.4"/>
	<path vector-effect="non-scaling-stroke" class="st1" d="M150.6,56.4l2.1-11.9c0.1-0.3-0.1-0.7-0.3-1L132.6,22
		c-0.2-0.2-0.6-0.3-0.8-0.1c0,0,0,0-0.1,0.1l-17.8,21.2c-0.5,0.7-0.8,1.6-0.6,2.7l1.5,10"/>
	<path vector-effect="non-scaling-stroke" class="st2" d="M150.6,56.4l-10.7,52.1c-0.3,1.4,0,1.6,0.9,0.4l31-43"/>
	<path vector-effect="non-scaling-stroke" class="st2" d="M196.6,91.5l-44,28.9c-0.1,0.1-0.2,0.3-0.1,0.4c0,0,0.1,0.1,0.1,0.1
		c2,1.2,46.3-7,52.1-7.9"/>
	<path vector-effect="non-scaling-stroke" class="st2" d="M204.4,148.6c-17.2-3.5-34.4-7-51.6-10.6c-0.3-0.1-1.5-0.1-0.6,0.6
		c14.3,10.5,28.6,20.9,43,31.3"/>
	<path vector-effect="non-scaling-stroke" class="st2" d="M169.3,194.7l-29.2-44.6c-0.1-0.2-0.2-0.3-0.3-0.2l-0.2,0.1
		c-0.2,0.1-0.3,0.4-0.2,0.7l8.3,51.5c0.1,0.3,0.2,0.5,0.4,0.6l0.5,0"/>
	<path vector-effect="non-scaling-stroke" class="st2" d="M112.2,202.5l10.7-52.2c0-0.2,0-0.5-0.1-0.7c-0.4-0.9-0.1-0.9,0.8-0.1
		c0.2,0.2,0.4,0.5,0.4,0.8l7.2,43.8c0.2,1.2,0.4,1.2,0.6,0l7-43.8c0.1-0.7,0.7-1.2,1.3-1.1c0.2,0,0.4,0.1,0.5,0.2
		c3.3,2.4,36.6,26.5,37,26.4c0.1,0,0.1-0.2,0-0.3c0,0,0,0,0-0.1l-26.3-36.4c-0.4-0.5-0.3-1.3,0.2-1.7c0.1-0.1,0.3-0.2,0.5-0.2
		l44.1-7.3c0.3,0,0.4-0.2,0.5-0.3c0-0.2-0.1-0.3-0.6-0.4c-14.9-2.3-29.9-4.7-44.7-7.3c-0.4-0.1-0.6-0.4-0.5-0.8
		c0-0.1,0.1-0.2,0.1-0.3l26.6-37.2c0.2-0.3,0.2-0.3-0.1-0.1l-36.1,25.9c-1.3,0.9-2.1,0.6-2.4-1.1l-7-43.1c-0.2-1.4-0.5-1.4-0.7,0.1
		l-7.2,43.8c-0.1,0.5-0.6,0.9-1.1,0.8c-0.1,0-0.3-0.1-0.4-0.2c-3.3-2.3-36.4-26.1-36.6-26c-0.1,0.1-0.1,0.4,0.1,0.7
		c7.9,10.8,15.6,21.7,23.3,32.7c1.3,1.8,2.1,3.2,2.5,4.2c0.1,0.2,0,0.5-0.2,0.6c0,0-0.1,0-0.1,0c-14.7,2.4-29.5,4.8-44.2,7.2
		c-0.4,0.1-0.6,0.2-0.6,0.4c0.1,0.2,0.3,0.3,0.7,0.4l43.4,7.2c0.6,0.1,1.1,0.7,1,1.4c0,0.2-0.1,0.4-0.2,0.5l-26,36.1
		c-0.6,0.8-0.5,0.9,0.3,0.4l35.1-25.2c1.7-1.2,1.9-1,0.7,0.7l-30.3,42.2"/>
	<path vector-effect="non-scaling-stroke" class="st2" d="M66.4,167.4l44.2-29c0.7-0.5,0.6-0.7-0.3-0.6c-1.7,0.1-3.3,0.3-5,0.6
		c-15.8,2.5-31.6,5-47.4,7.6"/>
	<path vector-effect="non-scaling-stroke" class="st2" d="M58.6,110.3c4.5,0.9,52.2,11,52.5,10.4c0.1-0.2-0.1-0.5-0.4-0.7l-43-31"/>
	<path vector-effect="non-scaling-stroke" class="st2" d="M93.4,64.2l29.3,44.5c0.7,1.1,1,1,0.8-0.3l-8.6-52.5"/>
	<path vector-effect="non-scaling-stroke" class="st0" d="M445.4,162.7c-19.7,5.3-33.9-4.5-37-23.5C404.7,117,412,87.7,441.8,95
		c6.4,1.6,9.4,5.6,9,12.2c0,0.3,0.2,0.5,0.4,0.6c0,0,0,0,0,0l4.5,0c0.3,0,0.6-0.2,0.6-0.5c0,0,0,0,0,0V94.7c0-0.2-0.3-0.5-0.6-0.6
		c-24.2-8-53.8-5-58.6,25.8c-4.2,26.8,9.4,51.2,39.7,48.4c6.5-0.6,12.8-1.7,18.8-3.2c0.7-0.2,1.1-0.8,1.1-1.4
		c-0.3-7.4-0.1-14.7,0.3-22c0.1-1.2,0.8-2.2,1.7-2.4l6.1-1.1c0.4-0.1,0.8-0.3,0.8-0.5c0.3-0.8,0.3-1.6,0.2-2.4
		c0-0.2-0.4-0.4-0.8-0.4h-27.6c-0.4,0-0.8,0.2-0.8,0.4c0,0,0,0,0,0l0.1,2.5c0,0.2,0.4,0.3,0.9,0.4l6.6,1.2c0.3,0,0.5,0.3,0.7,0.8
		c2.1,5.5,1,15.9,0.9,21.9C445.9,162.4,445.7,162.6,445.4,162.7"/>
	<path vector-effect="non-scaling-stroke" class="st0" d="M287.8,162.5c-2.4,0.8-4.8,1.1-7.2,1c-0.4,0-0.8,0.2-0.8,0.5c0,0,0,0,0,0
		v2.1c0,0.3,0.4,0.5,0.8,0.5h30.3c0.3,0,0.5-0.2,0.5-0.5V164c0-0.3-0.3-0.5-0.8-0.5c0,0,0,0,0,0c-2.6,0.1-5.2-0.3-7.7-1.1
		c-0.9-0.3-1.5-1.1-1.6-2.1c-1.1-21-0.5-42.3-0.5-63.3c0-0.4,0.2-0.7,0.4-0.7c0,0,0,0,0,0l19.1,0.6c0.7,0,1.3,0.7,1.4,1.5l0.5,6.9
		c0,0.5,0.3,0.8,0.6,0.8c0,0,0,0,0,0l4.2-0.3c0.3,0,0.5-0.4,0.5-0.8V92.8c0-0.3-0.2-0.5-0.5-0.5h-62.9c-0.3,0-0.5,0.2-0.5,0.5v12.5
		c0,0.5,0.2,0.8,0.5,0.8c0,0,0,0,0,0l4.5-0.3c0.3,0,0.5-0.4,0.6-0.8l0.2-6.9c0-0.7,0.6-1.3,1.4-1.3l19.1-0.5c0.2,0,0.4,0.3,0.4,0.6
		c0.1,7.7,0.1,15.3,0,23c-0.1,11,0.3,25.9-0.3,39C289.9,160.8,289.2,162,287.8,162.5"/>
	<path vector-effect="non-scaling-stroke" class="st0" d="M380,161.6c-7.3,1-15,1.1-23,0.4c-3.3-0.3-3.1-2.1-3.1-4.7
		c-0.4-18.6-1-41.3,0.3-58.9c0.1-0.9,0.7-1.7,1.5-1.8l6.4-1.1c0.4-0.1,0.7-0.3,0.8-0.5l0.3-2.1c0-0.3-0.3-0.5-0.7-0.5
		c0,0-0.1,0-0.1,0h-27.9c-0.3,0-0.5,0.2-0.5,0.5l0,2.1c0,0.3,0.4,0.5,0.8,0.5l0,0c2.6,0,5,0.5,7.3,1.7c0.2,0.1,0.4,0.5,0.5,0.9
		c0.4,3.1,0.7,6.2,0.7,9.3c0.1,16.1,0.1,32.3,0,48.4c0,2.5-0.6,4.6-1.6,6.1c-0.2,0.2-0.5,0.4-0.9,0.5l-6.1,1
		c-0.3,0.1-0.5,0.3-0.5,0.5v2.1c0,0.3,0.4,0.5,0.8,0.5h52c0.4,0,0.8-0.2,0.8-0.5v-13.5c0-0.4-0.2-0.8-0.5-0.8l0,0h-4.2
		c-0.3,0-0.6,0.3-0.6,0.8c-0.1,2.9-0.5,5.7-1.3,8.5C380.8,161.3,380.5,161.5,380,161.6"/>
	<path vector-effect="non-scaling-stroke" class="st2" d="M131.8,62.5l5.8-7.2c0.4-0.4,0.3-0.6-0.1-0.6l-11.7,0
		c-0.6,0-0.7,0.2-0.4,0.6l5.9,7.1C131.4,62.5,131.7,62.6,131.8,62.5C131.8,62.5,131.8,62.5,131.8,62.5"/>
	<path vector-effect="non-scaling-stroke" class="st3" d="M83.2,72.5c0-0.2-0.2-0.3-0.4-0.3c-0.1,0-0.1,0-0.2,0.1l-8.1,8.2
		c-0.1,0.1-0.1,0.3,0,0.5c0.1,0.1,0.1,0.1,0.2,0.1l9.2,1c0.2,0,0.4-0.1,0.4-0.3c0,0,0,0,0-0.1L83.2,72.5"/>
	<path vector-effect="non-scaling-stroke" class="st3" d="M188.2,81.4c0.2,0,0.3-0.2,0.3-0.4c0-0.1,0-0.2-0.1-0.2l-8-8.1
		c-0.1-0.1-0.4-0.1-0.5,0c-0.1,0.1-0.1,0.1-0.1,0.2l-1,9c0,0.2,0.1,0.4,0.3,0.4c0,0,0.1,0,0.1,0L188.2,81.4"/>
	<path vector-effect="non-scaling-stroke" class="st2" d="M57.3,123.4c-0.1-0.1-0.4-0.1-0.5,0.1c0,0.1-0.1,0.1-0.1,0.2l0,11.4
		c0,0.2,0.2,0.3,0.3,0.3c0.1,0,0.1,0,0.2-0.1l7-5.7c0.1-0.1,0.2-0.3,0-0.5c0,0,0,0,0,0L57.3,123.4"/>
	<path vector-effect="non-scaling-stroke" class="st2" d="M205.6,135.8c0.1,0.1,0.3,0.1,0.5,0c0.1-0.1,0.1-0.1,0.1-0.2l0.1-11.6
		c0-0.2-0.1-0.3-0.3-0.3c-0.1,0-0.2,0-0.2,0.1l-7.2,5.8c-0.1,0.1-0.2,0.3-0.1,0.5c0,0,0,0,0,0L205.6,135.8"/>
	<path vector-effect="non-scaling-stroke" class="st3" d="M74.5,177.6c-0.2,0-0.3,0.2-0.3,0.4c0,0.1,0,0.1,0.1,0.2l8.1,8.2
		c0.1,0.1,0.3,0.1,0.5,0c0.1-0.1,0.1-0.1,0.1-0.2l1.1-9.2c0-0.2-0.1-0.3-0.3-0.4c0,0,0,0-0.1,0L74.5,177.6"/>
	<path vector-effect="non-scaling-stroke" class="st2" d="M179.5,186.4c0,0.2,0.2,0.3,0.4,0.3c0.1,0,0.1,0,0.2-0.1l8.1-8.2
		c0.1-0.1,0.1-0.3,0-0.5c-0.1,0-0.1-0.1-0.2-0.1l-9.1-0.9c-0.2,0-0.3,0.1-0.4,0.3c0,0,0,0.1,0,0.1L179.5,186.4"/>
	<path vector-effect="non-scaling-stroke" class="st2" d="M125.1,203.8c-0.1,0.1-0.1,0.4,0.1,0.5c0.1,0,0.1,0.1,0.2,0.1l11.8,0
		c0.2,0,0.3-0.2,0.3-0.3c0-0.1,0-0.2-0.1-0.2l-5.9-7.1c-0.1-0.1-0.3-0.2-0.5,0c0,0,0,0,0,0L125.1,203.8"/>
	<path vector-effect="non-scaling-stroke" class="st0" d="M150.3,129.5c0-10.4-8.5-18.9-18.9-18.9c-10.4,0-18.9,8.5-18.9,18.9v0
		c0,10.4,8.5,18.9,18.9,18.9l0,0C141.9,148.4,150.3,139.9,150.3,129.5"/>
</g>
<path class="st4" d="M150.6,56.4l-10.7,52.1c-0.3,1.4,0,1.6,0.9,0.4l31-43l7.3-9.2c0.2-0.2,0.5-0.4,0.9-0.4l27.6-2.5
	c0.3,0,0.6,0.2,0.7,0.5c0,0,0,0.1,0,0.1l-1.1,29.5c0,0.4-0.3,0.7-0.7,1l-9.8,6.7l-44,28.9c-0.1,0.1-0.2,0.3-0.1,0.4
	c0,0,0.1,0.1,0.1,0.1c2,1.2,46.3-7,52.1-7.9l11.6-1.6c0.3,0,0.7,0.1,1,0.3l21.7,18.1c0.2,0.2,0.2,0.5,0,0.8c0,0,0,0-0.1,0.1
	l-21.4,19.7c-0.5,0.4-1.1,0.6-1.8,0.5l-11.3-2.2c-17.2-3.5-34.4-7-51.6-10.6c-0.3-0.1-1.5-0.1-0.6,0.6c14.3,10.5,28.6,20.9,43,31.3
	l9.1,6.8c0.3,0.2,0.4,0.5,0.5,0.8l2.5,27.9c0,0.4-0.2,0.8-0.6,0.8c0,0-0.1,0-0.1,0l-29.3-1.2c-0.6,0-1.2-0.4-1.5-1
	c-1.7-3.2-3.8-6.3-6.4-9.3l-29.2-44.6c-0.1-0.2-0.2-0.3-0.3-0.2l-0.2,0.1c-0.2,0.1-0.3,0.4-0.2,0.7l8.3,51.5
	c0.1,0.3,0.2,0.5,0.4,0.6l0.5,0c-0.7,0.1-0.9,0.4-0.8,1.1c0.8,3.5,1.3,7,1.6,10.5c0,0.3-0.1,0.7-0.4,1l-17.6,21.1
	c-0.4,0.4-1,0.5-1.4,0.1c0,0-0.1-0.1-0.1-0.1l-19.7-21.4c-0.2-0.3-0.4-0.6-0.3-1l2.3-11.7l10.7-52.2c0-0.2,0-0.5-0.1-0.7
	c-0.4-0.9-0.1-0.9,0.8-0.1c0.2,0.2,0.4,0.5,0.4,0.8l7.2,43.8c0.2,1.2,0.4,1.2,0.6,0l7-43.8c0.1-0.7,0.7-1.2,1.3-1.1
	c0.2,0,0.4,0.1,0.5,0.2c3.3,2.4,36.6,26.5,37,26.4c0.1,0,0.1-0.2,0-0.3c0,0,0,0,0-0.1l-26.3-36.4c-0.4-0.5-0.3-1.3,0.2-1.7
	c0.1-0.1,0.3-0.2,0.5-0.2l44.1-7.3c0.3,0,0.4-0.2,0.5-0.3c0-0.2-0.1-0.3-0.6-0.4c-14.9-2.3-29.9-4.7-44.7-7.3
	c-0.4-0.1-0.6-0.4-0.5-0.8c0-0.1,0.1-0.2,0.1-0.3l26.6-37.2c0.2-0.3,0.2-0.3-0.1-0.1l-36.1,25.9c-1.3,0.9-2.1,0.6-2.4-1.1l-7-43.1
	c-0.2-1.4-0.5-1.4-0.7,0.1l-7.2,43.8c-0.1,0.5-0.6,0.9-1.1,0.8c-0.1,0-0.3-0.1-0.4-0.2c-3.3-2.3-36.4-26.1-36.6-26
	c-0.1,0.1-0.1,0.4,0.1,0.7c7.9,10.8,15.6,21.7,23.3,32.7c1.3,1.8,2.1,3.2,2.5,4.2c0.1,0.2,0,0.5-0.2,0.6c0,0-0.1,0-0.1,0
	c-14.7,2.4-29.5,4.8-44.2,7.2c-0.4,0.1-0.6,0.2-0.6,0.4c0.1,0.2,0.3,0.3,0.7,0.4l43.4,7.2c0.6,0.1,1.1,0.7,1,1.4
	c0,0.2-0.1,0.4-0.2,0.5l-26,36.1c-0.6,0.8-0.5,0.9,0.3,0.4l35.1-25.2c1.7-1.2,1.9-1,0.7,0.7l-30.3,42.2c-2.5,2.7-4.6,5.7-6.5,8.8
	c-0.3,0.5-0.8,0.8-1.4,0.9l-27.9,2.4c-0.5,0-0.9-0.3-0.9-0.8c0,0,0-0.1,0-0.1l1.2-28.4c0-0.9,0.5-1.8,1.3-2.3l9.3-6.2l44.2-29
	c0.7-0.5,0.6-0.7-0.3-0.6c-1.7,0.1-3.3,0.3-5,0.6c-15.8,2.5-31.6,5-47.4,7.6l-11.3,1.7c-0.4,0.1-0.7-0.1-1-0.3l-21.6-18
	c-0.3-0.2-0.3-0.7,0-1c0,0,0,0,0.1-0.1l21.3-19.6c0.5-0.5,1.3-0.7,2-0.5l11.1,2.3c4.5,0.9,52.2,11,52.5,10.4
	c0.1-0.2-0.1-0.5-0.4-0.7l-43-31l-9.1-6.8c-0.3-0.2-0.4-0.5-0.5-0.8l-2.4-28.1c0-0.3,0.2-0.6,0.5-0.6c0,0,0.1,0,0.1,0l28.6,1.2
	c1.1,0,2,0.6,2.7,1.6l5.8,8.7l29.3,44.5c0.7,1.1,1,1,0.8-0.3l-8.6-52.5l-1.5-10c-0.2-1.1,0.1-2,0.6-2.7L131.7,22
	c0.2-0.2,0.6-0.3,0.8-0.1c0,0,0,0,0.1,0.1l19.8,21.6c0.2,0.3,0.4,0.6,0.3,1L150.6,56.4z M131.8,62.5l5.8-7.2
	c0.4-0.4,0.3-0.6-0.1-0.6l-11.7,0c-0.6,0-0.7,0.2-0.4,0.6l5.9,7.1C131.4,62.5,131.7,62.6,131.8,62.5
	C131.8,62.5,131.8,62.5,131.8,62.5z M83.2,72.5c0-0.2-0.2-0.3-0.4-0.3c-0.1,0-0.1,0-0.2,0.1l-8.1,8.2c-0.1,0.1-0.1,0.3,0,0.5
	c0.1,0.1,0.1,0.1,0.2,0.1l9.2,1c0.2,0,0.4-0.1,0.4-0.3c0,0,0,0,0-0.1L83.2,72.5z M188.2,81.4c0.2,0,0.3-0.2,0.3-0.4
	c0-0.1,0-0.2-0.1-0.2l-8-8.1c-0.1-0.1-0.4-0.1-0.5,0c-0.1,0.1-0.1,0.1-0.1,0.2l-1,9c0,0.2,0.1,0.4,0.3,0.4c0,0,0.1,0,0.1,0
	L188.2,81.4z M57.3,123.4c-0.1-0.1-0.4-0.1-0.5,0.1c0,0.1-0.1,0.1-0.1,0.2l0,11.4c0,0.2,0.2,0.3,0.3,0.3c0.1,0,0.1,0,0.2-0.1l7-5.7
	c0.1-0.1,0.2-0.3,0-0.5c0,0,0,0,0,0L57.3,123.4z M205.6,135.8c0.1,0.1,0.3,0.1,0.5,0c0.1-0.1,0.1-0.1,0.1-0.2l0.1-11.6
	c0-0.2-0.1-0.3-0.3-0.3c-0.1,0-0.2,0-0.2,0.1l-7.2,5.8c-0.1,0.1-0.2,0.3-0.1,0.5c0,0,0,0,0,0L205.6,135.8z M74.5,177.6
	c-0.2,0-0.3,0.2-0.3,0.4c0,0.1,0,0.1,0.1,0.2l8.1,8.2c0.1,0.1,0.3,0.1,0.5,0c0.1-0.1,0.1-0.1,0.1-0.2l1.1-9.2c0-0.2-0.1-0.3-0.3-0.4
	c0,0,0,0-0.1,0L74.5,177.6z M179.5,186.4c0,0.2,0.2,0.3,0.4,0.3c0.1,0,0.1,0,0.2-0.1l8.1-8.2c0.1-0.1,0.1-0.3,0-0.5
	c-0.1,0-0.1-0.1-0.2-0.1l-9.1-0.9c-0.2,0-0.3,0.1-0.4,0.3c0,0,0,0.1,0,0.1L179.5,186.4z M125.1,203.8c-0.1,0.1-0.1,0.4,0.1,0.5
	c0.1,0,0.1,0.1,0.2,0.1l11.8,0c0.2,0,0.3-0.2,0.3-0.3c0-0.1,0-0.2-0.1-0.2l-5.9-7.1c-0.1-0.1-0.3-0.2-0.5,0c0,0,0,0,0,0L125.1,203.8
	z"/>
<path class="st5" d="M131.8,62.5c-0.1,0.1-0.3,0.1-0.5-0.1c0,0,0,0-0.1-0.1l-5.9-7.1c-0.3-0.4-0.2-0.6,0.4-0.6l11.7,0
	c0.4,0,0.5,0.2,0.1,0.6L131.8,62.5z"/>
<path class="st5" d="M114.9,55.9l8.6,52.5c0.2,1.3,0,1.4-0.8,0.3L93.4,64.2C100.2,60.5,107.3,57.7,114.9,55.9z"/>
<path class="st5" d="M150.6,56.4c7.3,2,14.4,5.2,21.2,9.4l-31,43c-0.9,1.2-1.2,1.1-0.9-0.4L150.6,56.4z"/>
<path class="st5" d="M112.2,202.5c-7.5-2.1-14.4-5.2-20.9-9.3l30.3-42.2c1.2-1.6,0.9-1.9-0.7-0.7l-35.1,25.2
	c-0.8,0.6-0.9,0.5-0.3-0.4l26-36.1c0.4-0.6,0.3-1.3-0.2-1.7c-0.1-0.1-0.3-0.2-0.5-0.2l-43.4-7.2c-0.4-0.1-0.6-0.2-0.7-0.4
	c-0.1-0.2,0.1-0.3,0.6-0.4c14.8-2.3,29.5-4.7,44.2-7.2c0.2,0,0.4-0.3,0.4-0.5c0,0,0-0.1,0-0.1c-0.4-1-1.3-2.4-2.5-4.2
	c-7.7-11-15.5-21.8-23.3-32.7c-0.2-0.3-0.2-0.5-0.1-0.7c0.2-0.1,33.3,23.6,36.6,26c0.4,0.3,1,0.2,1.4-0.2c0.1-0.1,0.1-0.3,0.2-0.4
	l7.2-43.8c0.2-1.5,0.5-1.5,0.7-0.1l7,43.1c0.3,1.7,1.1,2,2.4,1.1l36.1-25.9c0.3-0.2,0.3-0.2,0.1,0.1l-26.6,37.2
	c-0.2,0.3-0.1,0.7,0.2,0.9c0.1,0.1,0.2,0.1,0.3,0.1c14.9,2.6,29.8,5,44.7,7.3c0.4,0.1,0.6,0.2,0.6,0.4c0,0.1-0.2,0.3-0.5,0.3
	l-44.1,7.3c-0.6,0.1-1,0.7-0.9,1.4c0,0.2,0.1,0.4,0.2,0.5l26.3,36.4c0.1,0.1,0.1,0.3,0,0.4c0,0,0,0,0,0c-0.4,0.2-33.7-24-37-26.4
	c-0.5-0.4-1.3-0.2-1.6,0.3c-0.1,0.2-0.2,0.3-0.2,0.5l-7,43.8c-0.2,1.2-0.4,1.2-0.6,0l-7.2-43.8c-0.1-0.3-0.2-0.6-0.4-0.8
	c-0.9-0.8-1.2-0.7-0.8,0.1c0.1,0.2,0.1,0.5,0.1,0.7L112.2,202.5z M150.3,129.5c0-10.4-8.5-18.9-18.9-18.9
	c-10.4,0-18.9,8.5-18.9,18.9v0c0,10.4,8.5,18.9,18.9,18.9l0,0C141.9,148.4,150.3,139.9,150.3,129.5z"/>
<path class="st6" d="M83.2,72.5l1.1,9.2c0,0.2-0.1,0.4-0.3,0.4c0,0,0,0-0.1,0l-9.2-1c-0.2,0-0.3-0.2-0.3-0.4c0-0.1,0-0.2,0.1-0.2
	l8.1-8.2c0.1-0.1,0.3-0.1,0.5,0C83.2,72.4,83.2,72.5,83.2,72.5z"/>
<path class="st6" d="M188.2,81.4l-9,0.9c-0.2,0-0.4-0.1-0.4-0.3c0,0,0-0.1,0-0.1l1-9c0-0.2,0.2-0.3,0.4-0.3c0.1,0,0.2,0,0.2,0.1
	l8,8.1c0.1,0.1,0.1,0.4,0,0.5C188.4,81.3,188.3,81.4,188.2,81.4z"/>
<path class="st5" d="M67.6,89.1l43,31c0.3,0.2,0.4,0.5,0.4,0.7c-0.2,0.6-47.9-9.5-52.5-10.4C60.6,102.8,63.6,95.7,67.6,89.1z"/>
<path class="st5" d="M445.9,162.1c0.1-6.1,1.2-16.4-0.9-21.9c-0.2-0.4-0.4-0.7-0.7-0.8l-6.6-1.2c-0.5-0.1-0.9-0.3-0.9-0.4l-0.1-2.5
	c0-0.2,0.3-0.4,0.7-0.4c0,0,0,0,0,0h27.6c0.4,0,0.7,0.2,0.8,0.4c0.1,0.8,0.1,1.6-0.2,2.4c-0.1,0.2-0.4,0.4-0.8,0.5l-6.1,1.1
	c-0.9,0.2-1.6,1.1-1.7,2.4c-0.5,7.3-0.6,14.7-0.3,22c0,0.7-0.4,1.3-1.1,1.4c-6,1.5-12.3,2.6-18.8,3.2c-30.3,2.7-43.8-21.6-39.7-48.4
	c4.8-30.8,34.4-33.8,58.6-25.8c0.4,0.1,0.6,0.4,0.6,0.6v12.5c0,0.3-0.3,0.5-0.6,0.5l0,0l-4.5,0c-0.3,0-0.5-0.2-0.5-0.5c0,0,0,0,0,0
	c0.5-6.6-2.5-10.6-9-12.2c-29.8-7.2-37.1,22-33.4,44.2c3.2,19,17.3,28.8,37,23.5C445.7,162.6,445.9,162.4,445.9,162.1z"/>
<path class="st5" d="M196.6,91.5c3.9,6.5,6.6,13.7,8.1,21.5c-5.8,1-50.2,9.2-52.1,7.9c-0.1-0.1-0.2-0.3-0.1-0.4c0,0,0.1-0.1,0.1-0.1
	L196.6,91.5z"/>
<path class="st5" d="M287.8,162.5c1.4-0.4,2.1-1.6,2.2-3.6c0.6-13.1,0.2-28,0.3-39c0.1-7.7,0.1-15.3,0-23c0-0.4-0.2-0.7-0.4-0.6
	l-19.1,0.5c-0.8,0-1.4,0.6-1.4,1.3l-0.2,6.9c0,0.4-0.3,0.7-0.6,0.8l-4.5,0.3c-0.3,0-0.5-0.3-0.5-0.8c0,0,0,0,0-0.1V92.8
	c0-0.3,0.2-0.5,0.5-0.5H327c0.3,0,0.5,0.2,0.5,0.5V105c0,0.4-0.2,0.7-0.5,0.8l-4.2,0.3c-0.3,0-0.5-0.3-0.6-0.8c0,0,0,0,0,0l-0.5-6.9
	c-0.1-0.9-0.6-1.5-1.4-1.5l-19.1-0.6c-0.2,0-0.5,0.3-0.5,0.6c0,0,0,0,0,0c0,21-0.7,42.3,0.5,63.3c0.1,1,0.7,1.8,1.6,2.1
	c2.5,0.8,5.1,1.1,7.7,1.1c0.4,0,0.8,0.2,0.8,0.5c0,0,0,0,0,0v2.1c0,0.3-0.2,0.5-0.5,0.5h-30.3c-0.4,0-0.8-0.2-0.8-0.5V164
	c0-0.3,0.3-0.5,0.8-0.5c0,0,0,0,0,0C283,163.5,285.4,163.2,287.8,162.5z"/>
<path class="st5" d="M380.9,161c0.8-2.8,1.2-5.6,1.3-8.5c0-0.4,0.3-0.8,0.6-0.8h4.2c0.3,0,0.5,0.4,0.5,0.8l0,0v13.5
	c0,0.3-0.4,0.5-0.8,0.5h-52c-0.4,0-0.8-0.2-0.8-0.5V164c0-0.2,0.2-0.5,0.5-0.5l6.1-1c0.4-0.1,0.8-0.2,0.9-0.5
	c1.1-1.6,1.6-3.6,1.6-6.1c0.1-16.1,0.1-32.3,0-48.4c0-3.1-0.2-6.2-0.7-9.3c-0.1-0.5-0.2-0.8-0.5-0.9c-2.3-1.1-4.7-1.7-7.3-1.7
	c-0.4,0-0.8-0.2-0.8-0.5c0,0,0,0,0,0l0-2.1c0-0.3,0.2-0.5,0.5-0.5h27.9c0.4,0,0.8,0.2,0.8,0.5c0,0,0,0,0,0.1l-0.3,2.1
	c0,0.2-0.4,0.5-0.8,0.5l-6.4,1.1c-0.8,0.1-1.4,0.9-1.5,1.8c-1.2,17.6-0.6,40.2-0.3,58.9c0.1,2.7-0.2,4.4,3.1,4.7
	c8,0.7,15.7,0.6,23-0.4C380.5,161.5,380.8,161.3,380.9,161z"/>
<path class="st5" d="M57.3,123.4l7,5.7c0.1,0.1,0.2,0.3,0,0.5c0,0,0,0,0,0l-7,5.7c-0.1,0.1-0.4,0.1-0.5-0.1c0-0.1-0.1-0.1-0.1-0.2
	l0-11.4c0-0.2,0.2-0.3,0.3-0.3C57.2,123.3,57.2,123.3,57.3,123.4z"/>
<path class="st5" d="M205.6,135.8l-7.1-5.9c-0.1-0.1-0.2-0.3,0-0.5c0,0,0,0,0,0l7.2-5.8c0.1-0.1,0.3-0.1,0.5,0
	c0.1,0.1,0.1,0.1,0.1,0.2l-0.1,11.6c0,0.2-0.1,0.3-0.3,0.3C205.8,135.8,205.7,135.8,205.6,135.8z"/>
<path class="st5" d="M66.4,167.4c-3.9-6.5-6.7-13.7-8.4-21.6c15.8-2.5,31.6-5,47.4-7.6c1.6-0.3,3.3-0.4,5-0.6c0.9-0.1,1,0.2,0.3,0.6
	L66.4,167.4z"/>
<path class="st5" d="M204.4,148.6c-2.2,7.6-5.3,14.7-9.2,21.3c-14.3-10.4-28.7-20.8-43-31.3c-0.9-0.6,0.4-0.6,0.6-0.6
	C170,141.5,187.2,145.1,204.4,148.6z"/>
<path class="st5" d="M169.3,194.7c-6.5,3.7-13.4,6.3-20.7,8l-0.5,0c-0.2,0-0.4-0.3-0.4-0.6l-8.3-51.5c-0.1-0.3,0-0.6,0.2-0.7
	l0.2-0.1c0.1,0,0.2,0.1,0.3,0.2L169.3,194.7z"/>
<path class="st6" d="M74.5,177.6l9.2-1c0.2,0,0.3,0.1,0.4,0.3c0,0,0,0,0,0.1l-1.1,9.2c0,0.2-0.2,0.3-0.4,0.3c-0.1,0-0.2,0-0.2-0.1
	l-8.1-8.2c-0.1-0.1-0.1-0.3,0-0.5C74.4,177.7,74.4,177.6,74.5,177.6z"/>
<path class="st5" d="M179.5,186.4l-1-9.1c0-0.2,0.1-0.3,0.3-0.4c0,0,0.1,0,0.1,0l9.1,0.9c0.2,0,0.3,0.2,0.3,0.4c0,0.1,0,0.1-0.1,0.2
	l-8.1,8.2c-0.1,0.1-0.3,0.1-0.5,0C179.6,186.5,179.6,186.4,179.5,186.4z"/>
<path class="st5" d="M125.1,203.8l5.9-7.1c0.1-0.1,0.3-0.2,0.5,0c0,0,0,0,0,0l5.9,7.1c0.1,0.1,0.1,0.4-0.1,0.5
	c-0.1,0-0.1,0.1-0.2,0.1l-11.8,0c-0.2,0-0.3-0.2-0.3-0.3C125,203.9,125.1,203.8,125.1,203.8z"/>
</svg>
