<svg width="59" height="59" viewBox="0 0 59 59" fill="none" xmlns="http://www.w3.org/2000/svg">
<g clip-path="url(#clip0_132_68)">
<path d="M58.9998 27.6572V31.3443C58.966 31.5121 58.9229 31.6769 58.8982 31.8462C58.7273 33.0609 58.6334 34.2909 58.381 35.4887C55.1805 50.6559 40.9454 60.7889 25.6189 58.7368C17.7509 57.6822 11.293 53.9781 6.37458 47.7539C1.23136 41.2464 -0.785286 33.7921 0.272299 25.5727C1.1159 19.0221 3.95306 13.386 8.61444 8.70744C13.0187 4.28444 18.3113 1.51179 24.4751 0.444917C25.5296 0.263255 26.5965 0.146253 27.6571 0C28.8856 0 30.1156 0 31.3441 0C31.7212 0.0477247 32.0984 0.100068 32.4771 0.140095C38.313 0.768213 43.5409 2.89273 48.0761 6.61679C53.7319 11.2599 57.2495 17.1978 58.5472 24.4181C58.7397 25.4896 58.852 26.5765 58.9998 27.6572ZM55.3114 29.4969C55.3083 15.2811 43.7472 3.71021 29.5245 3.68712C15.3002 3.66402 3.68366 15.2719 3.68828 29.5031C3.69136 43.7143 15.2571 55.2898 29.4736 55.3129C43.6949 55.336 55.3144 43.725 55.3114 29.4954V29.4969Z" fill="#E38B29"/>
<path d="M31.3442 31.3442C31.3442 32.3849 31.3442 33.3425 31.3442 34.3016C31.3442 37.4699 31.3458 40.6367 31.3442 43.805C31.3442 45.0258 30.5853 45.8633 29.4985 45.8618C28.4132 45.8618 27.6588 45.0212 27.6588 43.7988C27.6573 39.8823 27.6588 35.9658 27.6588 32.0493V31.3442C27.4233 31.3442 27.2201 31.3442 27.0184 31.3442C23.0452 31.3442 19.0704 31.3504 15.0971 31.3412C13.6424 31.3381 12.7218 29.9849 13.316 28.7317C13.6732 27.9789 14.3043 27.654 15.1326 27.6556C18.7425 27.6617 22.3509 27.6587 25.9609 27.6587C26.4981 27.6587 27.0338 27.6587 27.6604 27.6587C27.6604 27.417 27.6604 27.1968 27.6604 26.9767C27.6604 23.0217 27.6558 19.0667 27.6635 15.1117C27.6665 13.6753 28.9566 12.7439 30.2035 13.2843C31.0117 13.6338 31.3535 14.2958 31.3519 15.1717C31.3442 19.1083 31.3489 23.0432 31.3489 26.9797V27.6587C31.6044 27.6587 31.8091 27.6587 32.0154 27.6587C35.9887 27.6587 39.9635 27.6525 43.9367 27.6617C45.3268 27.6648 46.2305 28.958 45.7332 30.1911C45.4361 30.9255 44.7634 31.3442 43.8474 31.3442C39.9111 31.3473 35.9764 31.3442 32.0401 31.3442C31.8322 31.3442 31.6244 31.3442 31.3473 31.3442H31.3442Z" fill="#E38B29"/>
</g>
<defs>
<clipPath id="clip0_132_68">
<rect width="59" height="59" fill="white"/>
</clipPath>
</defs>
</svg>
