<svg width="67" height="39" viewBox="0 0 67 39" fill="none" xmlns="http://www.w3.org/2000/svg">
<mask id="mask0_36_996" style="mask-type:luminance" maskUnits="userSpaceOnUse" x="0" y="0" width="67" height="39">
<path d="M67 0H0V39H67V0Z" fill="white"/>
</mask>
<g mask="url(#mask0_36_996)">
<path d="M15.7718 0H0V39H15.7718V0Z" fill="#EA0020"/>
<path d="M67.0199 0H51.2482V39H67.0199V0Z" fill="#EA0020"/>
<path d="M51.2482 0H15.7717V39H51.2482V0Z" fill="white"/>
<mask id="mask1_36_996" style="mask-type:luminance" maskUnits="userSpaceOnUse" x="0" y="0" width="67" height="39">
<path d="M67 0H0V39H67V0Z" fill="white"/>
</mask>
<g mask="url(#mask1_36_996)">
<path d="M33.5 5.05908L31.1842 9.56061C30.9247 10.0586 30.4455 9.99882 29.9664 9.71996L28.2894 8.80372L29.5471 15.7353C29.8067 17.0101 28.9682 17.0101 28.5489 16.4523L25.6142 13.0264L25.135 14.7593C25.0751 14.9784 24.8356 15.2373 24.4762 15.1776L20.7629 14.3609L21.7411 18.0458C21.9607 18.8625 22.1204 19.2011 21.5215 19.4202L20.2039 20.0575L26.5924 25.4554C26.832 25.6546 26.9717 26.033 26.8719 26.3517L26.3129 28.2639C28.509 28.0049 30.4854 27.7659 32.6815 27.4871C32.8812 27.4871 33.2006 27.6663 33.2006 27.8854L32.9011 34.8768H33.9792L33.7995 27.9054C33.7995 27.6863 34.099 27.4871 34.2786 27.4871C36.4747 27.746 38.4512 27.985 40.6472 28.2639L40.0882 26.3517C40.0084 26.0131 40.1282 25.6546 40.3877 25.4554L46.7763 20.0575L45.4586 19.4202C44.8797 19.2011 45.0394 18.8625 45.239 18.0458L46.2173 14.3609L42.5039 15.1776C42.1446 15.2373 41.905 14.9983 41.8451 14.7593L41.366 13.0264L38.4312 16.4523C38.012 16.9901 37.1735 16.9901 37.433 15.7353L38.6907 8.80372L37.0138 9.71996C36.5346 9.99882 36.0555 10.0387 35.7959 9.56061L33.4801 5.05908H33.5Z" fill="#EA0020"/>
</g>
</g>
</svg>
