<svg id="Group_20" data-name="Group 20" xmlns="http://www.w3.org/2000/svg" xmlns:xlink="http://www.w3.org/1999/xlink" width="49.536" height="49.554" viewBox="0 0 49.536 49.554">
  <defs>
    <clipPath id="clip-path">
      <rect id="Rectangle_103" data-name="Rectangle 103" width="49.536" height="49.554" fill="#f9a925"/>
    </clipPath>
  </defs>
  <g id="Group_19" data-name="Group 19" clip-path="url(#clip-path)">
    <path id="Path_458" data-name="Path 458" d="M268.274,238.957a1.075,1.075,0,0,1-.6-1.108c.029-.705.007-1.412.007-2.187H257.464a1.035,1.035,0,0,1-.384-.008c-.293-.128-.7-.227-.819-.461a1.1,1.1,0,0,1,.1-.927c.709-1.095,1.479-2.149,2.228-3.219q4.5-6.434,9.009-12.867a2.664,2.664,0,0,1,.332-.412.791.791,0,0,1,1.369.42,2.718,2.718,0,0,1,.034.577q0,7.3,0,14.6v.644c.749,0,1.469.022,2.187-.007a1.075,1.075,0,0,1,1.109.6v.484a1.188,1.188,0,0,1-1.17.58c-.7-.025-1.4-.006-2.125-.006,0,.752-.019,1.44.006,2.125a1.188,1.188,0,0,1-.58,1.17Zm-.613-17.994-9.11,13.013h9.11Z" transform="translate(-223.09 -189.404)" fill="#f9a925"/>
    <path id="Path_459" data-name="Path 459" d="M166.779,238.621c-.719-.5-.774-.914-.206-1.583q4.863-5.731,9.728-11.46a4.052,4.052,0,0,0-1.378-6.279,4.956,4.956,0,0,0-7.08,4.294c-.034.635-.383,1.026-.884.988s-.8-.429-.757-1.042a6.381,6.381,0,0,1,3.66-5.676,6.288,6.288,0,0,1,6.728.519,5.686,5.686,0,0,1,1.019,8.21q-4.231,4.968-8.448,9.948c-.1.117-.189.242-.337.434h.6c2.965,0,5.93-.01,8.9.015a1.372,1.372,0,0,1,.887.348c.38.385.171.91-.431,1.284Z" transform="translate(-144.714 -189.067)" fill="#f9a925"/>
    <path id="Path_460" data-name="Path 460" d="M1.73,21.5c1.049,0,2.063-.024,3.074.016a1.163,1.163,0,0,1,.786.344.839.839,0,0,1,.083.784,1.2,1.2,0,0,1-.8.481c-.882.061-1.772.023-2.658.023H1.594c.239,1.432.381,2.81.707,4.144A20.14,20.14,0,0,0,9.025,38.1a19.843,19.843,0,0,0,9.547,4.484c.95.166,1.921.207,2.87.374a1.219,1.219,0,0,1,.782.518c.3.556-.195,1.134-.893,1.1a20.493,20.493,0,0,1-6.379-1.225c-7.783-2.943-12.7-8.46-14.464-16.6A22.178,22.178,0,0,1,16.1.922,21.519,21.519,0,0,1,34.272,3.556,21.677,21.677,0,0,1,44.421,19.793c.051.414.086.829.137,1.34.154-.135.268-.226.371-.328.9-.9,1.8-1.8,2.7-2.7a1.848,1.848,0,0,1,.451-.357.805.805,0,0,1,1.044,1.116,1.918,1.918,0,0,1-.3.374q-2.134,2.141-4.274,4.275c-.6.6-.985.595-1.6-.014q-2.122-2.118-4.238-4.242a1.5,1.5,0,0,1-.384-.542.744.744,0,0,1,.339-.92.8.8,0,0,1,1.054.154c.818.8,1.625,1.612,2.43,2.426.2.2.38.433.633.725C42.714,12.577,35.307,2.247,23.127,1.74c0,.64,0,1.28,0,1.919a3.87,3.87,0,0,1-.019.579.811.811,0,0,1-.826.727.791.791,0,0,1-.793-.808c-.02-.787-.005-1.576-.005-2.363C12.315,1.747,2.161,9.6,1.73,21.5" transform="translate(0 0)" fill="#f9a925"/>
    <path id="Path_461" data-name="Path 461" d="M125.33,96.342a1.086,1.086,0,0,1,.042-.388c.3-.564,0-.892-.388-1.263-1.148-1.108-2.267-2.245-3.387-3.381a1.616,1.616,0,0,1-.4-.586.718.718,0,0,1,.3-.85.763.763,0,0,1,.944,0,3.864,3.864,0,0,1,.464.422c1.175,1.172,2.352,2.342,3.518,3.524a.664.664,0,0,0,.71.211,3.36,3.36,0,0,1,1.328,0,.663.663,0,0,0,.709-.212q4.112-4.127,8.238-8.241a2.922,2.922,0,0,1,.473-.408.738.738,0,0,1,1.006.127.76.76,0,0,1,.074,1.016,2.926,2.926,0,0,1-.388.43q-4.083,4.087-8.174,8.167a.723.723,0,0,0-.231.83,2.27,2.27,0,0,1-.8,2.511,2.3,2.3,0,0,1-2.62.331,2.409,2.409,0,0,1-1.418-2.235m3.29.009a.841.841,0,0,0-.844-.811.813.813,0,1,0,.047,1.625.85.85,0,0,0,.8-.814" transform="translate(-105.501 -74.036)" fill="#f9a925"/>
  </g>
</svg>
