<svg xmlns="http://www.w3.org/2000/svg" width="69.8" height="93.068" viewBox="0 0 69.8 93.068">
  <g id="_5803966_checklist_clipboard_task_todo_icon" data-name="5803966_checklist_clipboard_task_todo_icon" transform="translate(-16 0.001)">
    <path id="Path_447" data-name="Path 447" d="M84.44,7.045a4.661,4.661,0,0,0-3.17-1.229H58a7.4,7.4,0,0,0-1.8-3.534A7.227,7.227,0,0,0,50.856,0h0a7.2,7.2,0,0,0-7.184,5.817H20.363A4.363,4.363,0,0,0,16,10.179V88.7a4.363,4.363,0,0,0,4.363,4.363H81.438A4.319,4.319,0,0,0,85.8,88.7V10.179a4.253,4.253,0,0,0-1.36-3.134ZM44.982,8.725A1.454,1.454,0,0,0,46.436,7.27a4.3,4.3,0,0,1,4.421-4.363h0A4.275,4.275,0,0,1,54.1,4.26a4.5,4.5,0,0,1,1.163,3.01,1.454,1.454,0,0,0,1.454,1.454h8.725V17.45H36.358V8.725ZM82.892,88.7a1.454,1.454,0,0,1-1.454,1.454H20.363A1.454,1.454,0,0,1,18.908,88.7V10.179a1.454,1.454,0,0,1,1.454-1.454H33.45V18.9A1.454,1.454,0,0,0,34.9,20.358H66.9A1.454,1.454,0,0,0,68.35,18.9V8.725H81.27a1.73,1.73,0,0,1,1.185.444,1.345,1.345,0,0,1,.436,1.011Z" transform="translate(0 0)" fill="#f9a925"/>
    <path id="Path_448" data-name="Path 448" d="M78.9,20H75.988a1.454,1.454,0,1,0,0,2.908h1.454V86.892H30.908V22.908h1.454a1.454,1.454,0,0,0,0-2.908H29.454A1.454,1.454,0,0,0,28,21.454V88.346A1.454,1.454,0,0,0,29.454,89.8H78.9a1.454,1.454,0,0,0,1.454-1.454V21.454A1.454,1.454,0,0,0,78.9,20Z" transform="translate(-3.275 -5.459)" fill="#f9a925"/>
    <path id="Path_449" data-name="Path 449" d="M65.454,46.908h16a1.454,1.454,0,1,0,0-2.908h-16a1.454,1.454,0,0,0,0,2.908Z" transform="translate(-13.1 -12.009)" fill="#f9a925"/>
    <path id="Path_450" data-name="Path 450" d="M65.454,58.908H77.088a1.454,1.454,0,1,0,0-2.908H65.454a1.454,1.454,0,1,0,0,2.908Z" transform="translate(-13.1 -15.284)" fill="#f9a925"/>
    <path id="Path_451" data-name="Path 451" d="M43.836,55.392a1.454,1.454,0,0,0,1.025.422h.065a1.454,1.454,0,0,0,1.091-.516l7.656-9.212a1.454,1.454,0,1,0-2.225-1.869l-6.682,8L40.5,47.954a1.454,1.454,0,0,0-2.05,2.058Z" transform="translate(-6.023 -11.912)" fill="#f9a925"/>
    <path id="Path_452" data-name="Path 452" d="M81.45,74.908h-16a1.454,1.454,0,0,1,0-2.908h16a1.454,1.454,0,1,1,0,2.908Z" transform="translate(-13.1 -19.65)" fill="#f9a925"/>
    <path id="Path_453" data-name="Path 453" d="M77.088,86.908H65.454a1.454,1.454,0,1,1,0-2.908H77.088a1.454,1.454,0,1,1,0,2.908Z" transform="translate(-13.1 -22.925)" fill="#f9a925"/>
    <path id="Path_454" data-name="Path 454" d="M44.823,83.83a1.454,1.454,0,0,1-1.025-.422L38.41,78.021a1.454,1.454,0,1,1,2.05-2.058l4.268,4.261,6.682-8A1.455,1.455,0,0,1,53.635,74.1l-7.656,9.212a1.454,1.454,0,0,1-1.054.516Z" transform="translate(-5.985 -19.571)" fill="#f9a925"/>
  </g>
</svg>
