<svg xmlns="http://www.w3.org/2000/svg" width="64.874" height="88.064" viewBox="0 0 64.874 88.064">
  <g id="Layer_2" data-name="Layer 2" transform="translate(1.5 1.5)">
    <g id="Interface-Light" transform="translate(0.5 0.5)">
      <g id="work-business-light-task-check">
        <path id="Path_456" data-name="Path 456" d="M18.567,15.78l-5.16,7.073L9.32,18.766" transform="translate(16.247 28.513)" fill="none" stroke="#f9a925" stroke-linecap="round" stroke-linejoin="round" stroke-width="4"/>
        <ellipse id="Ellipse_67" data-name="Ellipse 67" cx="15.842" cy="16.228" rx="15.842" ry="16.228" transform="translate(14.683 31.684)" fill="none" stroke="#f9a925" stroke-linecap="round" stroke-linejoin="round" stroke-width="4"/>
        <path id="Path_457" data-name="Path 457" d="M43.981,2.5H55.287a6.058,6.058,0,0,1,6.087,6.029V74.737a6.058,6.058,0,0,1-6.087,6.029H6.587A6.058,6.058,0,0,1,.5,74.737V8.529A6.058,6.058,0,0,1,6.587,2.5H17.893" transform="translate(-0.5 3.297)" fill="none" stroke="#f9a925" stroke-linecap="round" stroke-linejoin="round" stroke-width="4"/>
        <rect id="Rectangle_102" data-name="Rectangle 102" width="25.502" height="11.592" rx="1" transform="translate(17.774)" fill="none" stroke="#f9a925" stroke-linecap="round" stroke-linejoin="round" stroke-width="4"/>
      </g>
    </g>
  </g>
</svg>
