<svg xmlns="http://www.w3.org/2000/svg" width="90.365" height="90.365" viewBox="0 0 90.365 90.365">
  <g id="layer1" transform="translate(1 1)">
    <g id="Path_455" data-name="Path 455" fill="#f9a925">
      <path d="M 46.39161682128906 88.864990234375 L 37.55512237548828 88.864990234375 C 33.62507629394531 88.864990234375 30.4277458190918 85.66767120361328 30.4277458190918 81.73762512207031 L 30.4277458190918 57.61294937133789 C 25.28328132629395 56.36128997802734 21.59125137329102 51.70647811889648 21.59125137329102 46.39162063598633 L 21.59125137329102 28.7186222076416 C 21.59125137329102 25.6473274230957 22.79568672180176 22.75145721435547 24.98269844055176 20.56444549560547 C 26.95867156982422 18.58847236633301 29.51310348510742 17.41461181640625 32.25295257568359 17.20646095275879 C 31.0560359954834 15.34435367584229 30.4277458190918 13.23245429992676 30.4277458190918 11.04562187194824 C 30.4277458190918 7.974339962005615 31.63218116760254 5.078457355499268 33.81919097900391 2.891445636749268 C 36.00620269775391 0.7044339776039124 38.9020881652832 -0.5000013113021851 41.97336959838867 -0.5000013113021851 C 45.04466247558594 -0.5000013113021851 47.94053268432617 0.7044339776039124 50.12754440307617 2.891445636749268 C 52.31455612182617 5.078457355499268 53.51899337768555 7.97432804107666 53.51899337768555 11.04562187194824 C 53.51899337768555 13.2324857711792 52.89071655273438 15.3443775177002 51.69380569458008 17.20646095275879 C 54.43365478515625 17.41461181640625 56.98807907104492 18.58847236633301 58.96405029296875 20.56444549560547 C 61.15106201171875 22.75145721435547 62.35549926757812 25.6473274230957 62.35549926757812 28.7186222076416 L 62.35549926757812 46.39162063598633 C 62.35549926757812 51.71001052856445 58.66266632080078 56.36697769165039 53.51899337768555 57.61502456665039 L 53.51899337768555 70.18285369873047 L 53.51899337768555 71.38996124267578 L 52.66543960571289 70.53640747070312 L 50.75834655761719 68.62931823730469 L 50.75475692749023 68.62572479248047 L 50.75123977661133 68.6220703125 C 50.14204025268555 67.98760223388672 49.33693313598633 67.46846771240234 48.42296981811523 67.12077331542969 L 48.10074615478516 66.99819946289062 L 48.10074615478516 66.6534423828125 L 48.10074615478516 33.13686752319336 C 48.10074615478516 31.64305686950684 49.3160514831543 30.4277515411377 50.80987548828125 30.4277515411377 C 52.30368804931641 30.4277515411377 53.51899337768555 31.64305686950684 53.51899337768555 33.13686752319336 L 53.51899337768555 51.8729133605957 C 54.42180633544922 51.43354034423828 55.19815826416016 50.78303146362305 55.79025268554688 49.96442031860352 C 56.54061508178711 48.92699813842773 56.93724060058594 47.6915397644043 56.93724060058594 46.39162063598633 L 56.93724060058594 28.7186222076416 C 56.93724060058594 27.06928062438965 56.30336761474609 25.52708053588867 55.15239334106445 24.3761043548584 C 54.00141525268555 23.22511672973633 52.4592170715332 22.59124565124512 50.80987548828125 22.59124565124512 L 50.75809860229492 22.59124565124512 C 48.04615783691406 22.59124565124512 45.83983993530273 20.38492774963379 45.83983993530273 17.67299842834473 C 45.84269714355469 16.56736373901367 46.20813369750977 15.5414571762085 46.95703887939453 14.53537559509277 C 47.38418197631836 13.96154022216797 48.10074615478516 12.74512767791748 48.10074615478516 11.04562187194824 C 48.10074615478516 9.396281242370605 47.46687316894531 7.854081153869629 46.31588745117188 6.703104496002197 C 45.16490936279297 5.552128314971924 43.62271118164062 4.918257713317871 41.97336959838867 4.918257713317871 C 40.32402801513672 4.918257713317871 38.78182983398438 5.552128314971924 37.63085174560547 6.703104496002197 C 36.47986221313477 7.854081153869629 35.84599304199219 9.396281242370605 35.84599304199219 11.04562187194824 C 35.84599304199219 12.74497509002686 36.56258010864258 13.96149253845215 36.98972320556641 14.53539848327637 C 37.73861694335938 15.54158687591553 38.10403823852539 16.56748008728027 38.10689926147461 17.67170524597168 C 38.10689926147461 20.38492774963379 35.90058135986328 22.59124565124512 33.18865203857422 22.59124565124512 L 33.13687515258789 22.59124565124512 C 31.48753356933594 22.59124565124512 29.94533348083496 23.22511672973633 28.79435729980469 24.3761043548584 C 27.64336967468262 25.52708053588867 27.00949859619141 27.06928062438965 27.00949859619141 28.7186222076416 L 27.00949859619141 46.39162063598633 C 27.00949859619141 47.6915397644043 27.4061222076416 48.92698669433594 28.15648651123047 49.96442031860352 C 28.74857902526855 50.78303146362305 29.52493667602539 51.43354034423828 30.4277458190918 51.87290954589844 L 30.4277458190918 33.13686752319336 C 30.4277458190918 31.64305686950684 31.64305114746094 30.4277515411377 33.13687515258789 30.4277515411377 C 34.63068771362305 30.4277515411377 35.84599304199219 31.64305686950684 35.84599304199219 33.13686752319336 L 35.84599304199219 81.73762512207031 C 35.84599304199219 82.68003082275391 36.61270904541016 83.44675445556641 37.55512237548828 83.44675445556641 L 39.26425170898438 83.44675445556641 L 39.26425170898438 73.9366455078125 L 40.25595855712891 73.84592437744141 C 40.49575805664062 75.14568328857422 41.16302871704102 76.39977264404297 42.08667373657227 77.28663635253906 L 42.09034729003906 77.29015350341797 L 42.09393310546875 77.29373931884766 L 44.53605270385742 79.73584747314453 L 44.68249893188477 79.88229370117188 L 44.68249893188477 80.08940124511719 L 44.68249893188477 83.44675445556641 L 46.39161682128906 83.44675445556641 C 46.69784164428711 83.44675445556641 47.00600433349609 83.33721923828125 47.33370971679688 83.11190795898438 L 47.67644119262695 82.87624359130859 L 47.97054672241211 83.17034912109375 L 51.12027359008789 86.32008361816406 L 51.4955940246582 86.69539642333984 L 51.09855651855469 87.04764556884766 C 49.77765274047852 88.21957397460938 48.10602951049805 88.864990234375 46.39161682128906 88.864990234375 Z M 59.62048721313477 88.86457824707031 C 58.89700317382812 88.86457824707031 58.21677017211914 88.58287811279297 57.70508575439453 88.0714111328125 L 44.4535026550293 74.81983947753906 C 43.62035369873047 74.01722717285156 43.36586380004883 72.93498992919922 43.77274703979492 71.92372894287109 C 44.20075607299805 70.86000061035156 45.26361465454102 70.11708068847656 46.35744094848633 70.11708068847656 C 47.06883239746094 70.11708068847656 47.73504638671875 70.41849517822266 48.28445434570312 70.9888916015625 L 59.62048721313477 82.32492828369141 L 84.21257019042969 57.73283386230469 C 84.70658111572266 57.22836303710938 85.36717224121094 56.93975830078125 86.07296752929688 56.92017364501953 C 86.10018157958984 56.91943359375 86.12683868408203 56.9190673828125 86.15359497070312 56.9190673828125 C 87.27320098876953 56.9190673828125 88.23233032226562 57.56581115722656 88.65670013427734 58.60691452026367 C 89.08022308349609 59.64595794677734 88.84512329101562 60.77887344360352 88.04310607910156 61.56418991088867 L 61.53595733642578 88.07134246826172 C 61.02420425415039 88.58289337158203 60.34396743774414 88.86457824707031 59.62048721313477 88.86457824707031 Z M 27.00949859619141 80.02849578857422 L 26.50949859619141 80.02849578857422 L 22.09125137329102 80.02849578857422 L 15.46387481689453 80.02849578857422 C 11.53382778167725 80.02849578857422 8.336498260498047 76.8311767578125 8.336498260498047 72.90113067626953 L 8.336498260498047 57.61501693725586 C 3.19281268119812 56.36689376831055 -0.4999955296516418 51.70991897583008 -0.4999955296516418 46.39162063598633 L -0.4999955296516418 33.13686752319336 C -0.4999955296516418 30.06557464599609 0.7044397592544556 27.16970443725586 2.891451597213745 24.98269271850586 C 4.867424011230469 23.0067195892334 7.421848297119141 21.83285903930664 10.161696434021 21.62470817565918 C 8.964781761169434 19.76262664794922 8.336498260498047 17.65074348449707 8.336498260498047 15.46388149261475 C 8.336498260498047 13.41030502319336 8.896862983703613 11.39163398742676 9.957015991210938 9.626092910766602 C 10.97839260101318 7.92510461807251 12.435133934021 6.49672794342041 14.16974544525146 5.495375156402588 C 14.9460563659668 5.047224998474121 15.78289699554443 4.689265727996826 16.65705490112305 4.43141508102417 L 16.72574615478516 4.410140037536621 C 16.81843948364258 4.381351470947266 16.91427421569824 4.351586818695068 17.01546287536621 4.324080944061279 L 17.01834487915039 4.32329273223877 L 17.021240234375 4.322551727294922 C 18.08620452880859 4.046728134155273 18.99527549743652 3.918257474899292 19.88212203979492 3.918257474899292 C 21.87452507019043 3.918257474899292 23.79481315612793 4.444621086120605 25.59037590026855 5.482974052429199 C 25.76078033447266 5.56037425994873 25.93253898620605 5.654982566833496 26.31899261474609 5.974539756774902 C 26.84311103820801 6.407939910888672 27.18188667297363 7.172222137451172 27.18208694458008 7.921657562255859 C 27.18208694458008 9.415610313415527 25.96678161621094 10.63091659545898 24.47295761108398 10.63091659545898 C 23.92956924438477 10.62833976745605 23.44376945495605 10.46039867401123 22.7378978729248 10.03193950653076 C 22.20936965942383 9.711128234863281 21.14432144165039 9.336504936218262 19.88212203979492 9.336504936218262 C 18.23278045654297 9.336504936218262 16.69058036804199 9.970375061035156 15.53960418701172 11.12135124206543 C 14.38861656188965 12.27233982086182 13.75474548339844 13.81453990936279 13.75474548339844 15.46388149261475 C 13.75474548339844 17.16377449035645 14.47129821777344 18.37992858886719 14.89841651916504 18.95356369018555 C 15.6472864151001 19.95930480957031 16.01273345947266 20.98521041870117 16.01565170288086 22.08992767333984 C 16.01565170288086 24.80318641662598 13.80933380126953 27.0095043182373 11.09740447998047 27.0095043182373 L 11.04562759399414 27.0095043182373 C 9.396286964416504 27.0095043182373 7.854086875915527 27.64337539672852 6.703110218048096 28.79435157775879 C 5.552122116088867 29.94532775878906 4.918251514434814 31.48752784729004 4.918251514434814 33.13686752319336 L 4.918251514434814 46.39162063598633 C 4.918251514434814 47.6915397644043 5.31487512588501 48.92698669433594 6.065239906311035 49.96442031860352 C 6.657331466674805 50.78303146362305 7.433689117431641 51.43354034423828 8.336498260498047 51.87290954589844 L 8.336498260498047 37.55512619018555 C 8.336498260498047 36.06130599975586 9.551804542541504 34.84599685668945 11.04562759399414 34.84599685668945 C 12.5394401550293 34.84599685668945 13.75474548339844 36.06130599975586 13.75474548339844 37.55512619018555 L 13.75474548339844 72.90113067626953 C 13.75474548339844 73.84353637695312 14.52146339416504 74.61024475097656 15.46387481689453 74.61024475097656 L 17.17300415039062 74.61024475097656 L 17.17300415039062 59.6463737487793 C 17.17300415039062 58.15254974365234 18.38830947875977 56.9372444152832 19.88212203979492 56.9372444152832 C 21.37594604492188 56.9372444152832 22.59125137329102 58.15254974365234 22.59125137329102 59.6463737487793 L 22.59125137329102 65.87680053710938 L 22.59125137329102 74.61024475097656 L 26.50949859619141 74.61024475097656 L 27.00949859619141 74.61024475097656 L 27.00949859619141 75.11024475097656 L 27.00949859619141 79.52849578857422 L 27.00949859619141 80.02849578857422 Z M 61.35549926757812 75.75644683837891 L 61.35549926757812 74.54933929443359 L 61.35549926757812 65.87680053710938 L 61.35549926757812 59.6463737487793 C 61.35549926757812 58.15254974365234 62.57080459594727 56.9372444152832 64.06461334228516 56.9372444152832 C 65.55844116210938 56.9372444152832 66.77374267578125 58.15254974365234 66.77374267578125 59.6463737487793 L 66.77374267578125 70.13109588623047 L 66.77374267578125 70.33819580078125 L 66.62729644775391 70.48464202880859 L 62.20905303955078 74.90289306640625 L 61.35549926757812 75.75644683837891 Z M 40.25857925415039 71.99245452880859 L 39.26425170898438 71.91737365722656 L 39.26425170898438 59.6463737487793 C 39.26425170898438 58.15254974365234 40.47955703735352 56.9372444152832 41.97336959838867 56.9372444152832 C 43.46719360351562 56.9372444152832 44.68249893188477 58.15254974365234 44.68249893188477 59.6463737487793 L 44.68249893188477 66.59303283691406 L 44.68249893188477 66.94609069824219 L 44.34979248046875 67.06422424316406 C 43.45656967163086 67.38135528564453 42.6436882019043 67.88972473144531 41.99900436401367 68.53440093994141 C 41.06166458129883 69.47172546386719 40.4598388671875 70.66750335693359 40.25857925415039 71.99245452880859 Z M 70.19199371337891 66.91993713378906 L 70.19199371337891 65.71283721923828 L 70.19199371337891 37.55512619018555 C 70.19199371337891 36.06130599975586 71.40729522705078 34.84599685668945 72.901123046875 34.84599685668945 C 74.39494323730469 34.84599685668945 75.61025238037109 36.06130599975586 75.61025238037109 37.55512619018555 L 75.61025238037109 51.87290954589844 C 76.5130615234375 51.43354034423828 77.28942108154297 50.78303146362305 77.88150787353516 49.96442031860352 C 78.63187408447266 48.92698669433594 79.02849578857422 47.6915397644043 79.02849578857422 46.39162063598633 L 79.02849578857422 33.13686752319336 C 79.02849578857422 31.48752784729004 78.39463043212891 29.94532775878906 77.24365234375 28.79435157775879 C 76.09267425537109 27.64337539672852 74.55046081542969 27.0095043182373 72.901123046875 27.0095043182373 L 72.84934234619141 27.0095043182373 C 70.13740539550781 27.0095043182373 67.93108367919922 24.80318641662598 67.93108367919922 22.09124565124512 C 67.93401336669922 20.98521041870117 68.29946136474609 19.95929336547852 69.04833221435547 18.95356369018555 C 69.47544860839844 18.37994003295898 70.19199371337891 17.16378784179688 70.19199371337891 15.46388149261475 C 70.19199371337891 13.81453990936279 69.55812072753906 12.27233982086182 68.40713500976562 11.12135124206543 C 67.25615692138672 9.970375061035156 65.71395874023438 9.336504936218262 64.06461334228516 9.336504936218262 C 62.80241775512695 9.336504936218262 61.73736953735352 9.711128234863281 61.20883941650391 10.03193950653076 C 60.50297927856445 10.46039867401123 60.01718139648438 10.62833976745605 59.47616958618164 10.63091659545898 C 57.9799690246582 10.63091659545898 56.76466369628906 9.415610313415527 56.76466369628906 7.921786785125732 C 56.76485061645508 7.172245502471924 57.1036262512207 6.407951831817627 57.62774658203125 5.974551677703857 C 58.01422500610352 5.654951095581055 58.18601226806641 5.560346603393555 58.35642623901367 5.482943058013916 C 60.15188217163086 4.444728374481201 62.07233428955078 3.918257474899292 64.06461334228516 3.918257474899292 C 64.95147705078125 3.918257474899292 65.86054229736328 4.046728134155273 66.92550659179688 4.322551727294922 L 66.92835998535156 4.323280811309814 L 66.93120574951172 4.324057579040527 C 67.03282928466797 4.351657390594482 67.12907409667969 4.381563186645508 67.22214508056641 4.410480976104736 L 67.29010009765625 4.431533813476562 C 68.16407775878906 4.689373970031738 69.00083923339844 5.047307014465332 69.77700805664062 5.495375156402588 C 71.51161956787109 6.49672794342041 72.96836090087891 7.92510461807251 73.98973083496094 9.626092910766602 C 75.04988861083984 11.39163398742676 75.61025238037109 13.41030502319336 75.61025238037109 15.46388149261475 C 75.61025238037109 17.65074348449707 74.98197174072266 19.76262664794922 73.78505706787109 21.62470817565918 C 76.52490234375 21.83285903930664 79.07932281494141 23.0067195892334 81.0552978515625 24.98269271850586 C 83.2423095703125 27.16970443725586 84.44674682617188 30.06557464599609 84.44674682617188 33.13686752319336 L 84.44674682617188 46.39162063598633 C 84.44674682617188 51.7098274230957 80.75392913818359 56.36680221557617 75.61025238037109 57.61501312255859 L 75.61025238037109 61.29458618164062 L 75.61025238037109 61.50169372558594 L 75.46380615234375 61.64813995361328 L 71.04554748535156 66.06638336181641 L 70.19199371337891 66.91993713378906 Z" stroke="none"/>
      <path d="M 41.97336959838867 0 C 35.89921569824219 0 30.9277458190918 4.971458435058594 30.9277458190918 11.04562377929688 C 30.9277458190918 13.53469085693359 31.78496932983398 15.82060241699219 33.18865203857422 17.67299652099609 L 33.13687515258789 17.67299652099609 C 27.06270980834961 17.67299652099609 22.09125518798828 22.64445495605469 22.09125518798828 28.71862030029297 L 22.09125518798828 46.39162063598633 C 22.09125518798828 51.70651626586914 25.9069709777832 56.17826843261719 30.9277458190918 57.21288299560547 L 30.9277458190918 81.73760986328125 C 30.9277458190918 85.39781188964844 33.89492034912109 88.364990234375 37.55512237548828 88.364990234375 L 46.39161682128906 88.364990234375 C 48.07858276367188 88.364990234375 49.59683990478516 87.71157836914062 50.7667236328125 86.67363739013672 L 47.61699295043945 83.52390289306641 C 47.26150894165039 83.76832580566406 46.85564041137695 83.94673919677734 46.39161682128906 83.94673919677734 L 44.18249893188477 83.94673919677734 L 44.18249893188477 80.08940124511719 L 41.74037933349609 77.64727783203125 C 40.7322998046875 76.67936706542969 40.01881790161133 75.31640625 39.76425170898438 73.9366455078125 L 39.76425170898438 83.94673919677734 L 37.55512237548828 83.94673919677734 C 36.33505249023438 83.94673919677734 35.34599304199219 82.95767974853516 35.34599304199219 81.73760986328125 L 35.34599304199219 33.13686752319336 C 35.34599304199219 31.91679763793945 34.35693359375 30.92775344848633 33.13687515258789 30.92775344848633 C 31.91680526733398 30.92775344848633 30.9277458190918 31.91679763793945 30.9277458190918 33.13686752319336 L 30.9277458190918 52.62204742431641 C 28.34835815429688 51.71788024902344 26.50949859619141 49.29742050170898 26.50949859619141 46.39162063598633 L 26.50949859619141 28.71862030029297 C 26.50949859619141 25.03225708007812 29.45051193237305 22.09124755859375 33.13687515258789 22.09124755859375 L 33.18865203857422 22.09124755859375 C 35.62878036499023 22.09124755859375 37.60689926147461 20.11312866210938 37.60689926147461 17.67299652099609 C 37.60441589355469 16.71308135986328 37.29168701171875 15.77854156494141 36.58862686157227 14.83393096923828 C 35.88557052612305 13.88931274414062 35.34599304199219 12.55565643310547 35.34599304199219 11.04562377929688 C 35.34599304199219 7.359260559082031 38.28700256347656 4.418243408203125 41.97336959838867 4.418243408203125 C 45.65973281860352 4.418243408203125 48.60074615478516 7.359260559082031 48.60074615478516 11.04562377929688 C 48.60074615478516 12.55565643310547 48.06126403808594 13.88930511474609 47.35810852050781 14.83393096923828 C 46.65496826171875 15.77854919433594 46.34232330322266 16.71308135986328 46.33983993530273 17.67299652099609 C 46.33983993530273 20.11312866210938 48.31795883178711 22.09124755859375 50.75809860229492 22.09124755859375 L 50.80987548828125 22.09124755859375 C 54.49623870849609 22.09124755859375 57.43724060058594 25.03225708007812 57.43724060058594 28.71862030029297 L 57.43724060058594 46.39162063598633 C 57.43724060058594 49.29742050170898 55.59839248657227 51.71788024902344 53.01899337768555 52.62204742431641 L 53.01899337768555 33.13686752319336 C 53.01899337768555 31.91679763793945 52.02993392944336 30.92775344848633 50.80987548828125 30.92775344848633 C 49.58980560302734 30.92775344848633 48.60074615478516 31.91679763793945 48.60074615478516 33.13686752319336 L 48.60074615478516 66.6534423828125 C 49.54660415649414 67.01326751708984 50.42761611938477 67.56310272216797 51.11190032958984 68.27576446533203 L 53.01899337768555 70.182861328125 L 53.01899337768555 57.21288299560547 L 53.02762985229492 57.21288299560547 C 58.04778289794922 56.17826843261719 61.85549926757812 51.70651626586914 61.85549926757812 46.39162063598633 L 61.85549926757812 28.71862030029297 C 61.85549926757812 22.64445495605469 56.88402938842773 17.67299652099609 50.80987548828125 17.67299652099609 L 50.75809860229492 17.67299652099609 C 52.16178131103516 15.82060241699219 53.01899337768555 13.53469085693359 53.01899337768555 11.04562377929688 C 53.01899337768555 4.971458435058594 48.04753494262695 0 41.97336959838867 0 M 19.88212585449219 4.418243408203125 C 18.93280792236328 4.418243408203125 18.02729034423828 4.578483581542969 17.1466064453125 4.806571960449219 C 17.02939605712891 4.838424682617188 16.91712188720703 4.874519348144531 16.80142974853516 4.910125732421875 C 15.95980072021484 5.158126831054688 15.16608428955078 5.497528076171875 14.41970825195312 5.928390502929688 C 11.10654449462891 7.841018676757812 8.836502075195312 11.38417816162109 8.836502075195312 15.4638671875 C 8.836502075195312 17.95294952392578 9.693695068359375 20.23886108398438 11.09738922119141 22.09124755859375 L 11.04563140869141 22.09124755859375 C 4.971466064453125 22.09124755859375 -7.62939453125e-06 27.06270599365234 -7.62939453125e-06 33.13686752319336 L -7.62939453125e-06 46.39162063598633 C -7.62939453125e-06 51.70651626586914 3.808120727539062 56.17826843261719 8.827873229980469 57.21288299560547 L 8.836502075195312 57.21288299560547 L 8.836502075195312 72.90111541748047 C 8.836502075195312 76.56131744384766 11.80367279052734 79.52849578857422 15.46387481689453 79.52849578857422 L 26.50949859619141 79.52849578857422 L 26.50949859619141 75.11024475097656 L 22.09125518798828 75.11024475097656 L 22.09125518798828 59.6463623046875 C 22.09125518798828 58.42630386352539 21.10219573974609 57.43724822998047 19.88212585449219 57.43724822998047 C 18.66204833984375 57.43724822998047 17.67298889160156 58.42630386352539 17.67298889160156 59.6463623046875 L 17.67298889160156 75.11024475097656 L 15.46387481689453 75.11024475097656 C 14.24381256103516 75.11024475097656 13.2547607421875 74.12118530273438 13.2547607421875 72.90111541748047 L 13.2547607421875 37.55511474609375 C 13.2547607421875 36.33505630493164 12.26568603515625 35.34599685668945 11.04563140869141 35.34599685668945 C 9.825553894042969 35.34599685668945 8.836502075195312 36.33505630493164 8.836502075195312 37.55511474609375 L 8.836502075195312 52.62204742431641 C 6.257110595703125 51.71788024902344 4.418251037597656 49.29742050170898 4.418251037597656 46.39162063598633 L 4.418251037597656 33.13686752319336 C 4.418251037597656 29.45050430297852 7.359260559082031 26.50949096679688 11.04563140869141 26.50949096679688 L 11.09738922119141 26.50949096679688 C 13.53753662109375 26.50949096679688 15.51564788818359 24.5313720703125 15.51564788818359 22.09124755859375 C 15.51310729980469 21.13130187988281 15.20073699951172 20.19680023193359 14.49738311767578 19.25217437744141 C 13.79401397705078 18.30754852294922 13.2547607421875 16.97390747070312 13.2547607421875 15.4638671875 C 13.2547607421875 11.77750396728516 16.19575500488281 8.836502075195312 19.88212585449219 8.836502075195312 C 21.15509796142578 8.836502075195312 22.32491302490234 9.19635009765625 22.99733734130859 9.604515075683594 C 23.66975402832031 10.01267242431641 24.06754302978516 10.12899017333984 24.47295379638672 10.13090515136719 C 25.69302749633789 10.13090515136719 26.68208694458008 9.141860961914062 26.68208694458008 7.921783447265625 C 26.68191146850586 7.252586364746094 26.36429977416992 6.660812377929688 26.00037002563477 6.359855651855469 C 25.63641738891602 6.058906555175781 25.50334548950195 5.9915771484375 25.36179351806641 5.928390502929688 C 23.74063873291016 4.986518859863281 21.88246154785156 4.418243408203125 19.88212585449219 4.418243408203125 M 64.06462097167969 4.418243408203125 C 62.06428527832031 4.418243408203125 60.20610046386719 4.986518859863281 58.58495712280273 5.928390502929688 C 58.44338989257812 5.9915771484375 58.31032180786133 6.058906555175781 57.94638061523438 6.359855651855469 C 57.58245086669922 6.660812377929688 57.26482772827148 7.252586364746094 57.26466369628906 7.921783447265625 C 57.26466369628906 9.141860961914062 58.25370788574219 10.13090515136719 59.47379302978516 10.13090515136719 C 59.87920379638672 10.12899017333984 60.27699279785156 10.01267242431641 60.94940185546875 9.604515075683594 C 61.621826171875 9.19635009765625 62.79164123535156 8.836502075195312 64.06462097167969 8.836502075195312 C 67.7509765625 8.836502075195312 70.69199371337891 11.77750396728516 70.69199371337891 15.4638671875 C 70.69199371337891 16.97390747070312 70.15272521972656 18.30754852294922 69.44935607910156 19.25217437744141 C 68.74600219726562 20.19680023193359 68.43362426757812 21.13130187988281 68.43109130859375 22.09124755859375 C 68.43109130859375 24.5313720703125 70.40920257568359 26.50949096679688 72.84934997558594 26.50949096679688 L 72.901123046875 26.50949096679688 C 76.58748626708984 26.50949096679688 79.52849578857422 29.45050430297852 79.52849578857422 33.13686752319336 L 79.52849578857422 46.39162063598633 C 79.52849578857422 49.29742050170898 77.68963623046875 51.71788024902344 75.11023712158203 52.62204742431641 L 75.11023712158203 37.55511474609375 C 75.11023712158203 36.33505630493164 74.12117767333984 35.34599685668945 72.901123046875 35.34599685668945 C 71.68105316162109 35.34599685668945 70.69199371337891 36.33505630493164 70.69199371337891 37.55511474609375 L 70.69199371337891 65.71282958984375 L 75.11023712158203 61.29458618164062 L 75.11023712158203 57.21288299560547 L 75.11887359619141 57.21288299560547 C 80.13820648193359 56.17826843261719 83.94674682617188 51.70651626586914 83.94674682617188 46.39162063598633 L 83.94674682617188 33.13686752319336 C 83.94674682617188 27.06270599365234 78.97527313232422 22.09124755859375 72.901123046875 22.09124755859375 L 72.84934997558594 22.09124755859375 C 74.25303649902344 20.23886108398438 75.11023712158203 17.95294952392578 75.11023712158203 15.4638671875 C 75.11023712158203 11.38417816162109 72.84020233154297 7.841018676757812 69.52701568603516 5.928390502929688 C 68.78065490722656 5.497528076171875 67.98694610595703 5.158126831054688 67.14532470703125 4.910125732421875 C 67.02963256835938 4.874496459960938 66.9173583984375 4.838409423828125 66.80013275146484 4.806571960449219 C 65.91946411132812 4.578468322753906 65.01393127441406 4.418243408203125 64.06462097167969 4.418243408203125 M 86.15360260009766 57.4190673828125 C 86.13140869140625 57.4190673828125 86.10928344726562 57.41937255859375 86.08683776855469 57.41998672485352 C 85.51351928710938 57.43589019775391 84.9688720703125 57.67420959472656 84.56806182861328 58.08444595336914 L 59.62048721313477 83.03202056884766 L 47.92765045166016 71.33920288085938 C 45.84553146362305 69.17068481445312 42.63529586791992 72.38091278076172 44.80381774902344 74.46304321289062 L 58.05855560302734 87.71778869628906 C 58.92128372192383 88.58016204833984 60.31967163085938 88.58016204833984 61.18240356445312 87.71778869628906 L 87.69190216064453 61.20829010009766 C 89.11296081542969 59.81897354125977 88.11849212646484 57.41922378540039 86.15360260009766 57.4190673828125 M 41.97336959838867 57.43724822998047 C 40.75331115722656 57.43724822998047 39.76425170898438 58.42630386352539 39.76425170898438 59.6463623046875 L 39.76425170898438 71.91737365722656 C 39.99248504638672 70.41477966308594 40.6884651184082 69.13782501220703 41.64545059204102 68.18083190917969 C 42.33596801757812 67.49032592773438 43.19902801513672 66.94221496582031 44.18249893188477 66.59303283691406 L 44.18249893188477 59.6463623046875 C 44.18249893188477 58.42630386352539 43.19343948364258 57.43724822998047 41.97336959838867 57.43724822998047 M 64.06462097167969 57.43724822998047 C 62.84455871582031 57.43724822998047 61.85549926757812 58.42630386352539 61.85549926757812 59.6463623046875 L 61.85549926757812 74.54933929443359 L 66.27374267578125 70.13108062744141 L 66.27374267578125 59.6463623046875 C 66.27374267578125 58.42630386352539 65.28468322753906 57.43724822998047 64.06462097167969 57.43724822998047 M 41.97336959838867 -1 C 45.17821502685547 -1 48.19964981079102 0.2564468383789062 50.48109817504883 2.537895202636719 C 52.76254653930664 4.819343566894531 54.01899337768555 7.840774536132812 54.01899337768555 11.04562377929688 C 54.01899337768555 13.0660400390625 53.5059814453125 15.02431488037109 52.52291870117188 16.79427337646484 C 55.0806770324707 17.15958404541016 57.44763946533203 18.34092712402344 59.31760406494141 20.21089172363281 C 61.59905242919922 22.49234008789062 62.85549926757812 25.51377487182617 62.85549926757812 28.71862030029297 L 62.85549926757812 46.39162063598633 C 62.85549926757812 51.80768966674805 59.18493270874023 56.5662727355957 54.01899337768555 58.00153350830078 L 54.01899337768555 72.59706878662109 L 50.39057922363281 68.96836090087891 C 49.83229827880859 68.38694000244141 49.09043884277344 67.90964508056641 48.24518203735352 67.58810424804688 L 47.60074615478516 67.34294128417969 L 47.60074615478516 33.13686752319336 C 47.60074615478516 31.36735153198242 49.04035568237305 29.92775344848633 50.80987548828125 29.92775344848633 C 52.57939147949219 29.92775344848633 54.01899337768555 31.36735153198242 54.01899337768555 33.13686752319336 L 54.01899337768555 51.00506973266602 C 54.54473495483398 50.64443206787109 55.00609970092773 50.19541168212891 55.3851203918457 49.67138671875 C 56.07342910766602 48.71976470947266 56.43724060058594 47.58563232421875 56.43724060058594 46.39162063598633 L 56.43724060058594 28.71862030029297 C 56.43724060058594 27.20283508300781 55.85538101196289 25.78619766235352 54.7988395690918 24.72965621948242 C 53.7422981262207 23.67310333251953 52.32565307617188 23.09124755859375 50.80987548828125 23.09124755859375 L 50.75809860229492 23.09124755859375 C 47.77046203613281 23.09124755859375 45.33983993530273 20.66063690185547 45.33983993530273 17.67299652099609 C 45.34297943115234 16.45509338378906 45.74077987670898 15.33195495605469 46.55594635009766 14.23682403564453 C 47.21993255615234 13.34482574462891 47.60074615478516 12.18167114257812 47.60074615478516 11.04562377929688 C 47.60074615478516 9.52984619140625 47.01888656616211 8.113197326660156 45.96233367919922 7.056655883789062 C 44.90579223632812 6.000106811523438 43.4891471862793 5.418243408203125 41.97336959838867 5.418243408203125 C 40.45759201049805 5.418243408203125 39.04094696044922 6.000106811523438 37.98440551757812 7.056655883789062 C 36.92785263061523 8.113197326660156 36.34599304199219 9.52984619140625 36.34599304199219 11.04562377929688 C 36.34599304199219 12.18156433105469 36.7268180847168 13.3447265625 37.39082717895508 14.23686981201172 C 38.20597076416016 15.33208465576172 38.60375595092773 16.4552001953125 38.60689926147461 17.67041015625 C 38.60689926147461 20.66063690185547 36.17628860473633 23.09124755859375 33.18865203857422 23.09124755859375 L 33.13687515258789 23.09124755859375 C 31.62109756469727 23.09124755859375 30.20445251464844 23.67310333251953 29.14791107177734 24.72965621948242 C 28.09135818481445 25.78619766235352 27.50949859619141 27.20284652709961 27.50949859619141 28.71862030029297 L 27.50949859619141 46.39162063598633 C 27.50949859619141 47.58563232421875 27.87331008911133 48.71976470947266 28.56161499023438 49.67138671875 C 28.94063949584961 50.19541168212891 29.40200424194336 50.64442825317383 29.9277458190918 51.00506591796875 L 29.9277458190918 33.13686752319336 C 29.9277458190918 31.36735153198242 31.36735916137695 29.92775344848633 33.13687515258789 29.92775344848633 C 34.90639114379883 29.92775344848633 36.34599304199219 31.36735153198242 36.34599304199219 33.13686752319336 L 36.34599304199219 81.73760986328125 C 36.34599304199219 82.40432739257812 36.88840484619141 82.94673919677734 37.55512237548828 82.94673919677734 L 38.76425170898438 82.94673919677734 L 38.76425170898438 73.9366455078125 L 40.74765014648438 73.75521087646484 C 40.96888732910156 74.95430755615234 41.58315658569336 76.11000061035156 42.43296813964844 76.92594909667969 L 42.44748687744141 76.94017791748047 L 45.18249893188477 79.67518615722656 L 45.18249893188477 82.94673919677734 L 46.39161682128906 82.94673919677734 C 46.59614562988281 82.94673919677734 46.80548858642578 82.86830139160156 47.0504150390625 82.69989013671875 L 47.73588562011719 82.22857666015625 L 52.22445297241211 86.71714782714844 L 51.43039321899414 87.42166900634766 C 50.01791000366211 88.67483520507812 48.22843933105469 89.364990234375 46.39161682128906 89.364990234375 L 37.55512237548828 89.364990234375 C 33.34936904907227 89.364990234375 29.9277458190918 85.94336700439453 29.9277458190918 81.73760986328125 L 29.9277458190918 57.99920654296875 C 24.7613525390625 56.56050109863281 21.09125518798828 51.80407333374023 21.09125518798828 46.39162063598633 L 21.09125518798828 28.71862030029297 C 21.09125518798828 25.51377487182617 22.34770202636719 22.49234008789062 24.62914276123047 20.21089172363281 C 26.49911499023438 18.34092712402344 28.86607360839844 17.15958404541016 31.42383193969727 16.79427337646484 C 30.44076919555664 15.02431488037109 29.9277458190918 13.06602478027344 29.9277458190918 11.04562377929688 C 29.9277458190918 7.840774536132812 31.1841926574707 4.819343566894531 33.46564102172852 2.537895202636719 C 35.74708557128906 0.2564468383789062 38.76852035522461 -1 41.97336959838867 -1 Z M 19.88212585449219 3.418243408203125 C 21.95611572265625 3.418243408203125 23.95383453369141 3.963371276855469 25.82073593139648 5.038619995117188 C 26.04543685913086 5.143257141113281 26.2547607421875 5.272613525390625 26.63762664794922 5.589195251464844 C 27.28163909912109 6.121772766113281 27.68185043334961 7.015457153320312 27.68208694458008 7.921531677246094 C 27.68208694458008 9.691307067871094 26.24247360229492 11.13090515136719 24.47295379638672 11.13090515136719 C 23.83580780029297 11.12790679931641 23.25933074951172 10.933349609375 22.47845458984375 10.45936584472656 C 21.96769714355469 10.14933013916016 20.96681976318359 9.836502075195312 19.88212585449219 9.836502075195312 C 18.36634826660156 9.836502075195312 16.94969940185547 10.41836547851562 15.89315795898438 11.47490692138672 C 14.83661651611328 12.53144836425781 14.2547607421875 13.94808959960938 14.2547607421875 15.4638671875 C 14.2547607421875 16.60019683837891 14.63553619384766 17.7633056640625 15.29945373535156 18.65495300292969 C 16.11461639404297 19.74972534179688 16.51242828369141 20.87287902832031 16.51564788818359 22.08860015869141 C 16.51564788818359 25.07888031005859 14.08502960205078 27.50949096679688 11.09738922119141 27.50949096679688 L 11.04563140869141 27.50949096679688 C 9.529853820800781 27.50949096679688 8.113204956054688 28.09135055541992 7.056663513183594 29.14790344238281 C 6.000106811523438 30.20444488525391 5.418251037597656 31.62109375 5.418251037597656 33.13686752319336 L 5.418251037597656 46.39162063598633 C 5.418251037597656 47.58563232421875 5.782066345214844 48.71976470947266 6.470367431640625 49.67138671875 C 6.849388122558594 50.19541168212891 7.310760498046875 50.64442825317383 7.836502075195312 51.00506591796875 L 7.836502075195312 37.55511474609375 C 7.836502075195312 35.78559875488281 9.276107788085938 34.34599685668945 11.04563140869141 34.34599685668945 C 12.81514739990234 34.34599685668945 14.2547607421875 35.78559875488281 14.2547607421875 37.55511474609375 L 14.2547607421875 72.90111541748047 C 14.2547607421875 73.56783294677734 14.79717254638672 74.11024475097656 15.46387481689453 74.11024475097656 L 16.67298889160156 74.11024475097656 L 16.67298889160156 59.6463623046875 C 16.67298889160156 57.87684631347656 18.11260223388672 56.4372444152832 19.88212585449219 56.4372444152832 C 21.65164184570312 56.4372444152832 23.09125518798828 57.87684631347656 23.09125518798828 59.6463623046875 L 23.09125518798828 74.11024475097656 L 27.50949859619141 74.11024475097656 L 27.50949859619141 80.52849578857422 L 15.46387481689453 80.52849578857422 C 11.25812530517578 80.52849578857422 7.836502075195312 77.10687255859375 7.836502075195312 72.90111541748047 L 7.836502075195312 58.00151824951172 C 2.670570373535156 56.56616973876953 -1.000007629394531 51.80759811401367 -1.000007629394531 46.39162063598633 L -1.000007629394531 33.13686752319336 C -1.000007629394531 29.93202209472656 0.256439208984375 26.91058731079102 2.537887573242188 24.6291389465332 C 4.407867431640625 22.75917053222656 6.774818420410156 21.57783508300781 9.332572937011719 21.2125244140625 C 8.349510192871094 19.44258117675781 7.836502075195312 17.48431396484375 7.836502075195312 15.4638671875 C 7.836502075195312 13.31964874267578 8.421531677246094 11.21195983886719 9.528343200683594 9.368690490722656 C 10.59330749511719 7.595130920410156 12.11183166503906 6.106025695800781 13.91975402832031 5.062339782714844 C 14.72906494140625 4.595146179199219 15.60111999511719 4.221931457519531 16.51167297363281 3.9530029296875 L 16.57761383056641 3.932586669921875 C 16.67446136474609 3.902503967285156 16.77460479736328 3.87139892578125 16.88440704345703 3.841560363769531 L 16.8958740234375 3.838516235351562 C 18.00294494628906 3.551788330078125 18.95185089111328 3.418243408203125 19.88212585449219 3.418243408203125 Z M 64.06462097167969 3.418243408203125 C 64.99496459960938 3.418243408203125 65.94386291503906 3.551788330078125 67.05087280273438 3.838516235351562 L 67.06221771240234 3.841529846191406 C 67.17257690429688 3.871505737304688 67.27321624755859 3.902778625488281 67.37054443359375 3.933013916015625 L 67.43486785888672 3.95294189453125 C 68.34554290771484 4.22186279296875 69.21757507324219 4.595085144042969 70.02696990966797 5.062324523925781 C 71.83489990234375 6.106010437011719 73.35342407226562 7.595130920410156 74.41839599609375 9.368690490722656 C 75.52520751953125 11.21195983886719 76.11023712158203 13.31963348388672 76.11023712158203 15.4638671875 C 76.11023712158203 17.48431396484375 75.59722900390625 19.44258117675781 74.61416625976562 21.2125244140625 C 77.17192077636719 21.57783508300781 79.53888702392578 22.75917053222656 81.40885162353516 24.6291389465332 C 83.69029998779297 26.91058731079102 84.94674682617188 29.93202209472656 84.94674682617188 33.13686752319336 L 84.94674682617188 46.39162063598633 C 84.94674682617188 51.80751037597656 81.27616119384766 56.56608200073242 76.11023712158203 58.00151062011719 L 76.11023712158203 61.70880126953125 L 69.69199371337891 68.12704467773438 L 69.69199371337891 37.55511474609375 C 69.69199371337891 35.78559875488281 71.13160705566406 34.34599685668945 72.901123046875 34.34599685668945 C 74.67063903808594 34.34599685668945 76.11023712158203 35.78559875488281 76.11023712158203 37.55511474609375 L 76.11023712158203 51.00506973266602 C 76.63597869873047 50.64443206787109 77.09735107421875 50.19541168212891 77.47637939453125 49.67138671875 C 78.1646728515625 48.71976470947266 78.52849578857422 47.58563232421875 78.52849578857422 46.39162063598633 L 78.52849578857422 33.13686752319336 C 78.52849578857422 31.62109375 77.94664001464844 30.20444488525391 76.89009094238281 29.14790344238281 C 75.83354187011719 28.09135055541992 74.41690063476562 27.50949096679688 72.901123046875 27.50949096679688 L 72.84934997558594 27.50949096679688 C 69.86170959472656 27.50949096679688 67.43109130859375 25.07888031005859 67.43109130859375 22.09124755859375 C 67.43431091308594 20.87287902832031 67.83212280273438 19.74972534179688 68.64727783203125 18.65496063232422 C 69.31121826171875 17.76329040527344 69.69199371337891 16.60018920898438 69.69199371337891 15.4638671875 C 69.69199371337891 13.94808959960938 69.11013793945312 12.53144836425781 68.05358123779297 11.47490692138672 C 66.99703979492188 10.41836547851562 65.58040618896484 9.836502075195312 64.06462097167969 9.836502075195312 C 62.97991943359375 9.836502075195312 61.97904205322266 10.14933013916016 61.46829986572266 10.4593505859375 C 60.68742752075195 10.93334197998047 60.11094665527344 11.12790679931641 59.47852325439453 11.13088989257812 C 57.70427703857422 11.13090515136719 56.26466369628906 9.691307067871094 56.26466369628906 7.921783447265625 C 56.26488494873047 7.015480041503906 56.66508865356445 6.121788024902344 57.30909729003906 5.589225769042969 C 57.69196319580078 5.272621154785156 57.90127182006836 5.143272399902344 58.12596893310547 5.03863525390625 C 59.99285507202148 3.963386535644531 61.99061965942383 3.418243408203125 64.06462097167969 3.418243408203125 Z M 86.15360260009766 56.4190673828125 L 86.1536865234375 56.4190673828125 C 87.46055603027344 56.41917419433594 88.62481689453125 57.20394134521484 89.11976623535156 58.41836547851562 C 89.62093353271484 59.64801788330078 89.34333801269531 60.98873138427734 88.39559173583984 61.9188117980957 L 61.88951110839844 88.42489624023438 C 61.28324890136719 89.03090667724609 60.47748565673828 89.36456298828125 59.62047576904297 89.36456298828125 C 58.76347351074219 89.36456298828125 57.95771026611328 89.03090667724609 57.35159301757812 88.42503356933594 L 44.10328674316406 75.17672729492188 C 43.1207389831543 74.22796630859375 42.82371139526367 72.94293975830078 43.30888748168945 71.73709106445312 C 43.81112289428711 70.48886108398438 45.06473541259766 69.61708068847656 46.35744094848633 69.61708068847656 C 47.20655822753906 69.61708068847656 47.99607086181641 69.97027587890625 48.64137268066406 70.63870239257812 L 59.62048721313477 81.61781311035156 L 83.85720825195312 57.38108825683594 C 84.44216156005859 56.78466796875 85.223876953125 56.44353866577148 86.05911254882812 56.42037582397461 C 86.09117889404297 56.41949462890625 86.12234497070312 56.4190673828125 86.15360260009766 56.4190673828125 Z M 41.97336959838867 56.4372444152832 C 43.74288558959961 56.4372444152832 45.18249893188477 57.87684631347656 45.18249893188477 59.6463623046875 L 45.18249893188477 67.29914855957031 L 44.51708602905273 67.535400390625 C 43.69346237182617 67.82781982421875 42.94498062133789 68.2955322265625 42.35255813598633 68.88795471191406 C 41.49118041992188 69.74931335449219 40.93802642822266 70.84880828857422 40.75291061401367 72.06755065917969 L 38.76425170898438 71.91737365722656 L 38.76425170898438 59.6463623046875 C 38.76425170898438 57.87684631347656 40.20384979248047 56.4372444152832 41.97336959838867 56.4372444152832 Z M 64.06462097167969 56.4372444152832 C 65.83413696289062 56.4372444152832 67.27374267578125 57.87684631347656 67.27374267578125 59.6463623046875 L 67.27374267578125 70.5452880859375 L 60.85549926757812 76.96356201171875 L 60.85549926757812 59.6463623046875 C 60.85549926757812 57.87684631347656 62.29509735107422 56.4372444152832 64.06462097167969 56.4372444152832 Z" stroke="none" fill="#fff"/>
    </g>
  </g>
</svg>
