<svg xmlns="http://www.w3.org/2000/svg" xmlns:xlink="http://www.w3.org/1999/xlink" width="49.551" height="49.554" viewBox="0 0 49.551 49.554">
  <defs>
    <clipPath id="clip-path">
      <rect id="Rectangle_115" data-name="Rectangle 115" width="49.551" height="49.554" fill="#f9a925"/>
    </clipPath>
  </defs>
  <g id="Group_25" data-name="Group 25" transform="translate(0 1)">
    <g id="Group_24" data-name="Group 24" transform="translate(0 -1)" clip-path="url(#clip-path)">
      <path id="Path_467" data-name="Path 467" d="M26.22,0c.956.129,1.917.226,2.866.391A24.423,24.423,0,0,1,39.117,4.586a.97.97,0,1,1-1.161,1.54A23.119,23.119,0,0,0,31.019,2.8,22.858,22.858,0,0,0,2.51,19.738,22.463,22.463,0,0,0,4.723,35.7c.111.208.235.411.407.71.212-.6.387-1.113.569-1.62.233-.652.7-.932,1.243-.756A.973.973,0,0,1,7.53,35.4q-.582,1.74-1.185,3.473a.955.955,0,0,1-1.308.642c-1.192-.393-2.379-.8-3.564-1.217A.966.966,0,1,1,2.1,36.476c.3.09.6.2.981.322-.353-.743-.689-1.407-.989-2.087a24.247,24.247,0,0,1-2-7.972A3.439,3.439,0,0,0,0,26.316v-3.1a2.772,2.772,0,0,0,.08-.373A24.113,24.113,0,0,1,5.608,9.091,24.255,24.255,0,0,1,20.024.471C21.111.258,22.219.154,23.317,0Z" fill="#f9a925"/>
      <path id="Path_468" data-name="Path 468" d="M56.3,73.794c0-1.064,0-2.128,0-3.192,0-.839.341-1.179,1.173-1.185,1.048-.007,2.1-.014,3.144.006.312.006.409-.14.563-.383a1.409,1.409,0,0,0-.454-2.133,16.681,16.681,0,0,1-1.617-1.594.982.982,0,0,1,0-1.561q2.3-2.315,4.617-4.617a.994.994,0,0,1,1.6,0q1.138,1.119,2.254,2.26a.455.455,0,0,0,.626.129c.381-.2.937-.262,1.137-.567s.065-.84.067-1.274c0-.742,0-1.483,0-2.225.006-.78.346-1.143,1.11-1.146q3.265-.014,6.529,0c.763,0,1.1.367,1.109,1.147.006,1.048.011,2.1,0,3.144,0,.293.1.41.36.574a1.424,1.424,0,0,0,2.173-.458,16.045,16.045,0,0,1,1.56-1.583,1,1,0,0,1,1.6,0q2.314,2.3,4.616,4.618a.982.982,0,0,1,0,1.562c-.71.726-1.42,1.454-2.159,2.149-.3.285-.433.537-.168.9a.214.214,0,0,1,.037.089c.144.884.7,1.057,1.511.982a23.933,23.933,0,0,1,2.465-.014.99.99,0,0,1,1.122,1.138q.011,3.24,0,6.481a.987.987,0,0,1-1.126,1.133c-1.048.008-2.1.014-3.144,0-.317-.006-.442.111-.612.384a1.415,1.415,0,0,0,.459,2.133,16.276,16.276,0,0,1,1.617,1.595.984.984,0,0,1-.007,1.563q-2.3,2.315-4.616,4.617a.99.99,0,0,1-1.6,0Q81.117,87.334,80,86.194a.454.454,0,0,0-.626-.123c-.382.2-.939.259-1.138.563s-.064.841-.066,1.275c0,.742,0,1.483,0,2.225-.007.78-.347,1.141-1.111,1.144q-3.265.012-6.529,0a.974.974,0,0,1-1.107-1.1c-.009-1.064-.019-2.128.007-3.192.008-.34-.153-.436-.409-.6a1.382,1.382,0,0,0-2.094.45,16.52,16.52,0,0,1-1.594,1.617.993.993,0,0,1-1.6,0q-2.314-2.3-4.617-4.616a.981.981,0,0,1,0-1.561c.723-.736,1.445-1.474,2.193-2.184.274-.261.391-.491.158-.822a.453.453,0,0,1-.077-.176c-.145-.836-.671-1-1.445-.937-.832.071-1.675.022-2.514.014-.766-.008-1.117-.359-1.123-1.135-.009-1.08,0-2.16,0-3.241M64.6,61.126l-3.485,3.462c.74.736,1.5,1.483,2.247,2.235.547.548.571.842.235,1.55a20.406,20.406,0,0,0-.81,1.908c-.326.92-.492,1.068-1.453,1.068H58.279v4.886h3.034c.977,0,1.15.147,1.467,1.053a17.524,17.524,0,0,0,.761,1.824c.411.852.394,1.079-.268,1.743-.725.726-1.452,1.452-2.129,2.13l3.457,3.47c.71-.712,1.449-1.454,2.189-2.194.6-.6.852-.618,1.625-.248a18.085,18.085,0,0,0,1.82.769c.979.343,1.117.5,1.117,1.518,0,1,0,1.991,0,3h4.882c0-1.121,0-2.2,0-3.279a1.032,1.032,0,0,1,.828-1.141c.707-.266,1.413-.54,2.1-.861.8-.376,1.039-.362,1.662.262.737.737,1.472,1.475,2.16,2.164l3.478-3.459c-.7-.693-1.416-1.408-2.134-2.125-.678-.677-.7-.891-.287-1.738A16.687,16.687,0,0,0,84.77,77.4c.373-1.061.485-1.159,1.631-1.159h2.9V71.351c-1.071,0-2.1,0-3.132,0-.845,0-1.067-.183-1.345-.958-.238-.665-.5-1.323-.806-1.962-.379-.8-.364-1.04.26-1.662.739-.736,1.48-1.468,2.175-2.158L82.991,61.1c-.755.765-1.519,1.55-2.3,2.323a1.022,1.022,0,0,1-1.393.211c-.656-.3-1.315-.61-2-.852-.932-.332-1.073-.489-1.073-1.5s0-1.992,0-3.006H71.352c0,1.087,0,2.134,0,3.18a1.116,1.116,0,0,1-.913,1.286c-.708.26-1.407.549-2.093.864a1.071,1.071,0,0,1-1.511-.239c-.753-.75-1.5-1.507-2.237-2.247" transform="translate(-49.025 -49.025)" fill="#f9a925"/>
      <path id="Path_469" data-name="Path 469" d="M111.376,80.232c-.191.547-.361,1.047-.538,1.545-.24.674-.725.955-1.285.752A.975.975,0,0,1,109,81.18q.581-1.74,1.181-3.474a.95.95,0,0,1,1.3-.648q1.789.586,3.564,1.214a.958.958,0,0,1,.658,1.258.977.977,0,0,1-1.309.56c-.29-.089-.575-.192-.953-.32.106.222.17.371.246.514A24.782,24.782,0,0,1,97.475,115.9a24.354,24.354,0,0,1-19.939-3.815c-.409-.279-.719-.635-.546-1.119a1.187,1.187,0,0,1,.685-.7,1.474,1.474,0,0,1,1.009.275,22.863,22.863,0,0,0,26.942-.635,21.909,21.909,0,0,0,8.522-13.673,22.372,22.372,0,0,0-2.431-15.518c-.07-.127-.143-.252-.219-.376-.015-.025-.047-.04-.124-.1" transform="translate(-66.997 -67.037)" fill="#f9a925"/>
      <path id="Path_470" data-name="Path 470" d="M138.208,128.886a9.311,9.311,0,1,1-9.327-9.3,9.3,9.3,0,0,1,9.327,9.3m-9.321,7.392a7.376,7.376,0,1,0-7.366-7.387,7.36,7.36,0,0,0,7.366,7.387" transform="translate(-104.129 -104.132)" fill="#f9a925"/>
      <path id="Path_471" data-name="Path 471" d="M186.061,154.776c.789,0,1.525,0,2.262,0,.707,0,1.132.376,1.128.974s-.43.956-1.142.959q-1.521.005-3.042,0c-.767,0-1.135-.361-1.138-1.115q-.009-2.028,0-4.056c0-.7.378-1.128.978-1.122s.952.427.954,1.146c0,1.046,0,2.091,0,3.213" transform="translate(-160.325 -130.975)" fill="#f9a925"/>
    </g>
  </g>
</svg>
