<svg width="92" height="92" viewBox="0 0 92 92" fill="none" xmlns="http://www.w3.org/2000/svg">
<ellipse cx="45.75" cy="45.7548" rx="45.75" ry="45.7548" fill="#F2F2F2"/>
<ellipse cx="45.75" cy="45.7548" rx="35.5833" ry="35.5871" fill="white"/>
<g clip-path="url(#clip0_602_59)">
<path d="M60.8333 44.9804C60.1256 46.5537 59.4179 48.1204 58.7168 49.6937C58.4088 50.382 57.9895 50.9916 57.4522 51.5226C56.43 52.5387 55.4078 53.5613 54.3594 54.6036C54.7132 55.0297 54.6346 55.5279 54.6346 56.0195C54.6346 57.0487 54.6149 58.0779 54.6411 59.1136C54.6608 59.7495 54.4773 60.2346 53.8679 60.5034H47.6889C47.0861 60.287 46.8567 59.8478 46.8764 59.212C46.9026 57.973 46.883 56.7275 46.883 55.4886C46.883 54.8003 47.0992 54.5249 47.7675 54.302C47.8396 54.2758 47.9051 54.1316 47.9117 54.0333C47.9707 53.3646 47.9248 52.6698 48.0755 52.0208C48.4425 50.4606 49.2812 49.2479 50.8538 48.6383C51.8039 48.2712 52.6623 47.7402 53.4158 47.0519C54.3659 46.18 55.3881 45.9834 56.5676 46.6061C56.8559 45.9375 57.1442 45.2754 57.426 44.6068C57.5111 44.4101 57.5898 44.2134 57.6815 44.0233C58.0026 43.335 58.5923 42.9745 59.3262 43.0204C60.0142 43.0663 60.5581 43.5055 60.7809 44.2003C60.8005 44.2593 60.8267 44.3118 60.8464 44.3708V44.9739L60.8333 44.9804ZM48.9732 54.2824C49.0453 54.2824 49.0912 54.2955 49.1436 54.2955C50.4344 54.2955 51.7253 54.2955 53.0161 54.2889C53.1472 54.2889 53.3044 54.1972 53.3962 54.1054C54.5232 52.991 55.6568 51.8766 56.7511 50.736C57.0983 50.3754 57.4194 49.9624 57.6291 49.5167C58.3499 48.0221 59.0248 46.4947 59.7062 44.9804C59.7652 44.8493 59.7914 44.6789 59.7652 44.5412C59.7128 44.2724 59.5293 44.0954 59.2476 44.0692C58.9396 44.0365 58.7234 44.1807 58.5989 44.4625C58.2319 45.3147 57.8584 46.1669 57.5046 47.0191C57.1704 47.8189 56.6921 48.5268 56.0761 49.1365C55.434 49.7789 54.7919 50.4213 54.1497 51.0637C54.0121 51.2014 53.8811 51.3456 53.7303 51.457C53.5272 51.6144 53.2455 51.5882 53.0685 51.4112C52.8916 51.2342 52.8654 50.9654 53.0161 50.7491C53.0751 50.6704 53.1472 50.5983 53.2192 50.5262C53.94 49.8051 54.6674 49.0906 55.3816 48.3564C55.624 48.1073 55.8403 47.832 56.063 47.5698C55.4799 47.1371 54.8443 47.1699 54.307 47.6419C53.3175 48.5203 52.2102 49.2086 50.9783 49.7068C50.4999 49.9034 50.1133 50.2181 49.8054 50.6311C48.9863 51.7127 48.8487 52.9517 48.9601 54.2824H48.9732ZM53.5796 55.3509H47.9379V59.448H53.5796V55.3509Z" fill="#E38B29"/>
<path d="M36.7789 60.4969C36.1695 60.2281 35.986 59.7495 36.0057 59.1071C36.0319 57.9337 36.0057 56.7669 36.0188 55.5935C36.0188 55.2657 36.1236 54.938 36.1826 54.6102C36.2154 54.6102 36.2416 54.6102 36.2743 54.6102C36.2088 54.5381 36.1367 54.466 36.0712 54.3939C35.1145 53.4368 34.1644 52.4797 33.2012 51.5227C32.677 51.0048 32.2642 50.4214 31.9562 49.7462C31.301 48.2974 30.6326 46.8487 29.9839 45.3934C29.4597 44.2135 30.305 42.968 31.5631 43.0401C32.2511 43.0794 32.7294 43.4531 33.0046 44.0824C33.3191 44.8035 33.6206 45.5311 33.9351 46.2522C33.9875 46.3702 34.0399 46.4882 34.0989 46.6258C34.6886 46.2784 35.3046 46.1211 35.9401 46.3177C36.3136 46.4357 36.7002 46.6193 36.9951 46.8684C37.9321 47.655 38.9412 48.2909 40.0748 48.7629C41.4181 49.3266 42.1126 50.4476 42.532 51.7783C42.7548 52.4928 42.7417 53.2336 42.7286 53.9678C42.7286 54.171 42.7417 54.289 42.9972 54.3349C43.4297 54.407 43.7508 54.8003 43.7573 55.2395C43.7704 56.6751 43.7704 58.1042 43.7573 59.5398C43.7573 60.0511 43.3969 60.3199 42.9579 60.4969H36.7789ZM34.5838 47.5633C34.7279 47.7402 34.8459 47.9172 34.99 48.068C35.2456 48.3433 35.5077 48.6055 35.7698 48.8678C36.3595 49.4643 36.9558 50.0477 37.5455 50.6508C37.8666 50.9786 37.7552 51.4833 37.3358 51.5423C37.1589 51.5685 36.9165 51.4637 36.7854 51.3326C35.9926 50.5721 35.2194 49.7855 34.4462 49.0054C33.8827 48.4417 33.4633 47.7796 33.1488 47.0454C32.7884 46.1998 32.4214 45.3607 32.0676 44.515C31.9693 44.2856 31.8317 44.1152 31.5762 44.0693C31.3403 44.0299 31.1306 44.0955 30.9864 44.2856C30.8095 44.5085 30.8226 44.7445 30.9406 44.9936C31.6089 46.4489 32.2445 47.9238 32.9456 49.366C33.1815 49.8511 33.5026 50.3099 33.8696 50.6967C34.9769 51.857 36.1236 52.9779 37.2703 54.1054C37.3686 54.2038 37.5455 54.2759 37.6897 54.2759C38.9281 54.289 40.1731 54.2824 41.4115 54.2824C41.4967 54.2824 41.5884 54.2693 41.6998 54.2628C41.7064 53.4368 41.7653 52.6305 41.4836 51.8504C41.156 50.9589 40.6973 50.146 39.7799 49.7527C38.4891 49.2021 37.3031 48.4941 36.2481 47.5567C35.7829 47.1437 35.1342 47.1568 34.5903 47.5501L34.5838 47.5633ZM42.722 55.3575H37.0803V59.4415H42.722V55.3575Z" fill="#E38B29"/>
<path d="M37.0541 37.7565C37.0541 36.3602 37.0606 34.9705 37.0541 33.5742C37.0541 33.1874 37.1982 32.9711 37.5586 32.8138C40.0158 31.7518 42.473 30.6702 44.9237 29.5886C45.2185 29.4575 45.4675 29.464 45.7558 29.5886C48.1868 30.6636 50.6244 31.7321 53.0684 32.7875C53.455 32.958 53.6189 33.1874 53.6123 33.6135C53.5992 36.1766 53.6058 38.7463 53.6058 41.3094C53.6058 43.3612 52.7801 44.9935 51.1092 46.1997C49.4121 47.419 47.7216 48.6448 46.0245 49.8641C45.5003 50.2443 45.1596 50.2377 44.6222 49.851C42.9251 48.6317 41.2346 47.4059 39.5375 46.1866C37.8862 45.0001 37.0606 43.3875 37.0541 41.3553C37.0541 40.1557 37.0541 38.9495 37.0541 37.7499V37.7565ZM52.5639 37.9466C52.5639 36.6224 52.5639 35.2982 52.5639 33.9806C52.5639 33.7774 52.4984 33.6791 52.3149 33.6004C50.0543 32.6171 47.7937 31.6207 45.5265 30.6374C45.4151 30.5915 45.2447 30.585 45.1333 30.6374C42.8596 31.6207 40.5924 32.6237 38.3187 33.6135C38.1483 33.6922 38.0828 33.784 38.0828 33.9741C38.0828 36.4651 38.0828 38.9626 38.0894 41.4537C38.0959 43.0794 38.7774 44.3708 40.0944 45.3278C41.7588 46.534 43.4362 47.7336 45.1006 48.9464C45.284 49.084 45.3954 49.0644 45.5658 48.9398C47.2039 47.7467 48.8486 46.5602 50.4999 45.3803C51.8759 44.3904 52.5705 43.0531 52.5639 41.3553C52.5639 40.2213 52.5639 39.0937 52.5639 37.9597V37.9466Z" fill="#E38B29"/>
<path d="M49.694 57.901C49.6023 57.901 49.5105 57.9075 49.4254 57.901C49.1567 57.8747 48.9732 57.6912 48.9601 57.4355C48.947 57.1537 49.0781 56.957 49.3467 56.9046C49.5826 56.8652 49.8316 56.8652 50.0675 56.8914C50.3427 56.9242 50.5065 57.1537 50.4869 57.429C50.4738 57.6977 50.2837 57.8813 49.9954 57.901C49.8971 57.9075 49.7923 57.901 49.694 57.901Z" fill="#E38B29"/>
<path d="M40.9202 57.9009C40.396 57.9009 40.1601 57.7436 40.1666 57.3896C40.1666 57.0356 40.4091 56.8717 40.9267 56.8717C41.0447 56.8717 41.1692 56.8717 41.2871 56.8914C41.5623 56.9504 41.7261 57.1732 41.6934 57.442C41.6606 57.7173 41.4968 57.8747 41.2216 57.9009C41.1233 57.9074 41.0185 57.9009 40.9202 57.9009Z" fill="#E38B29"/>
<path d="M51.5221 38.3202C51.5221 39.3429 51.5221 40.3589 51.5221 41.3816C51.5287 42.6992 50.9914 43.7415 49.9233 44.5084C48.5407 45.5048 47.1581 46.5078 45.7756 47.5042C45.389 47.7795 45.2645 47.7795 44.8844 47.5042C43.4822 46.4947 42.0799 45.4852 40.6842 44.4757C39.6686 43.7415 39.1313 42.7451 39.1247 41.4799C39.1182 39.2708 39.1247 37.0551 39.1247 34.8459C39.1247 34.5313 39.2427 34.3412 39.531 34.2166C41.3591 33.4234 43.1873 32.6106 45.022 31.8305C45.1924 31.7584 45.4479 31.7518 45.6183 31.8305C47.4661 32.6171 49.2943 33.43 51.1355 34.2297C51.4238 34.3543 51.5287 34.5706 51.5287 34.8787C51.5221 36.0324 51.5287 37.1796 51.5287 38.3333L51.5221 38.3202ZM40.16 38.4645C40.16 39.4346 40.1666 40.4048 40.16 41.375C40.1469 42.3517 40.5466 43.1056 41.3329 43.6694C42.5976 44.574 43.8557 45.4852 45.1137 46.3964C45.271 46.5078 45.3693 46.5209 45.5331 46.4029C46.8109 45.4655 48.1017 44.5478 49.386 43.6169C50.1199 43.0794 50.4934 42.3517 50.4934 41.4406C50.4934 39.4019 50.4934 37.3632 50.4934 35.3179C50.4934 35.1344 50.4475 35.036 50.264 34.9574C48.6849 34.2756 47.1057 33.5742 45.5266 32.8924C45.4152 32.8466 45.2448 32.8466 45.1334 32.8924C43.5477 33.5742 41.9751 34.2756 40.3959 34.9574C40.1994 35.0426 40.1535 35.1475 40.16 35.3441C40.1666 36.3864 40.16 37.4222 40.16 38.4645Z" fill="#E38B29"/>
<path d="M44.1636 41.6504C44.773 40.7392 45.3562 39.8608 45.9459 38.9824C46.6143 37.9728 47.2892 36.9699 47.9576 35.9604C48.0952 35.7572 48.2852 35.6064 48.5145 35.6982C48.6783 35.7637 48.8421 35.9276 48.9142 36.0849C48.9666 36.1964 48.8946 36.4061 48.8159 36.5307C47.4727 38.5694 46.1163 40.595 44.7599 42.6271C44.5371 42.9614 44.2554 43.0073 43.9343 42.7648C43.2791 42.2797 42.6238 41.788 41.9751 41.2898C41.6868 41.0669 41.6344 40.7785 41.8178 40.5294C42.0013 40.2869 42.3027 40.2541 42.591 40.4704C43.1087 40.8506 43.6263 41.2439 44.1636 41.6504Z" fill="#E38B29"/>
</g>
<defs>
<clipPath id="clip0_602_59">
<rect width="31" height="31" fill="white" transform="translate(29.8333 29.4968)"/>
</clipPath>
</defs>
</svg>
