<svg width="72" height="72" viewBox="0 0 72 72" fill="none" xmlns="http://www.w3.org/2000/svg">
<circle cx="36" cy="36" r="36" fill="#F2F2F2"/>
<circle cx="36" cy="36" r="28" fill="white"/>
<g clip-path="url(#clip0_531_2185)">
<path d="M51 35.4836C50.2923 37.0569 49.5847 38.6236 48.8835 40.1968C48.5756 40.8852 48.1562 41.4948 47.6189 42.0258C46.5967 43.0418 45.5745 44.0645 44.5261 45.1068C44.8799 45.5329 44.8013 46.0311 44.8013 46.5227C44.8013 47.5519 44.7817 48.5811 44.8079 49.6168C44.8275 50.2527 44.644 50.7378 44.0347 51.0065H37.8556C37.2528 50.7902 37.0235 50.351 37.0431 49.7151C37.0693 48.4762 37.0497 47.2307 37.0497 45.9917C37.0497 45.3034 37.2659 45.0281 37.9343 44.8052C38.0063 44.779 38.0719 44.6348 38.0784 44.5365C38.1374 43.8678 38.0915 43.173 38.2422 42.524C38.6092 40.9638 39.4479 39.7511 41.0205 39.1414C41.9706 38.7743 42.829 38.2434 43.5825 37.5551C44.5327 36.6832 45.5548 36.4865 46.7343 37.1093C47.0226 36.4407 47.3109 35.7786 47.5927 35.1099C47.6779 34.9133 47.7565 34.7166 47.8482 34.5265C48.1693 33.8382 48.759 33.4777 49.4929 33.5236C50.1809 33.5694 50.7248 34.0086 50.9476 34.7035C50.9672 34.7625 50.9934 34.8149 51.0131 34.8739V35.477L51 35.4836ZM39.1399 44.7856C39.212 44.7856 39.2579 44.7987 39.3103 44.7987C40.6011 44.7987 41.892 44.7987 43.1828 44.7921C43.3139 44.7921 43.4711 44.7003 43.5629 44.6086C44.6899 43.4942 45.8235 42.3798 46.9178 41.2391C47.2651 40.8786 47.5861 40.4656 47.7958 40.0199C48.5166 38.5252 49.1915 36.9979 49.873 35.4836C49.9319 35.3525 49.9581 35.182 49.9319 35.0444C49.8795 34.7756 49.696 34.5986 49.4143 34.5724C49.1063 34.5396 48.8901 34.6838 48.7656 34.9657C48.3986 35.8179 48.0252 36.6701 47.6713 37.5223C47.3371 38.322 46.8588 39.03 46.2429 39.6396C45.6007 40.2821 44.9586 40.9245 44.3164 41.5669C44.1788 41.7046 44.0478 41.8488 43.8971 41.9602C43.6939 42.1175 43.4122 42.0913 43.2353 41.9143C43.0583 41.7373 43.0321 41.4686 43.1828 41.2522C43.2418 41.1736 43.3139 41.1015 43.386 41.0294C44.1067 40.3083 44.8341 39.5938 45.5483 38.8596C45.7907 38.6105 46.007 38.3351 46.2298 38.0729C45.6466 37.6403 45.011 37.6731 44.4737 38.145C43.4843 39.0234 42.3769 39.7118 41.145 40.21C40.6667 40.4066 40.2801 40.7213 39.9721 41.1343C39.153 42.2159 39.0154 43.4548 39.1268 44.7856H39.1399ZM43.7464 45.8541H38.1046V49.9511H43.7464V45.8541Z" fill="#E38B29"/>
<path d="M26.9457 51C26.3363 50.7313 26.1528 50.2527 26.1725 49.6103C26.1987 48.4369 26.1725 47.2701 26.1856 46.0967C26.1856 45.7689 26.2904 45.4411 26.3494 45.1134C26.3822 45.1134 26.4084 45.1134 26.4411 45.1134C26.3756 45.0413 26.3035 44.9692 26.238 44.897C25.2813 43.94 24.3312 42.9829 23.368 42.0258C22.8438 41.508 22.431 40.9245 22.123 40.2493C21.4678 38.8006 20.7994 37.3519 20.1507 35.8966C19.6265 34.7167 20.4718 33.4712 21.7299 33.5433C22.4179 33.5826 22.8962 33.9563 23.1714 34.5856C23.4859 35.3066 23.7874 36.0343 24.1019 36.7554C24.1543 36.8734 24.2067 36.9914 24.2657 37.129C24.8554 36.7816 25.4714 36.6243 26.107 36.8209C26.4805 36.9389 26.8671 37.1225 27.1619 37.3716C28.0989 38.1582 29.108 38.7941 30.2416 39.266C31.5849 39.8298 32.2794 40.9508 32.6988 42.2815C32.9216 42.996 32.9085 43.7368 32.8954 44.471C32.8954 44.6742 32.9085 44.7922 33.164 44.838C33.5965 44.9102 33.9176 45.3035 33.9241 45.7427C33.9372 47.1783 33.9372 48.6073 33.9241 50.043C33.9241 50.5543 33.5637 50.823 33.1247 51H26.9457ZM24.7506 38.0664C24.8947 38.2434 25.0127 38.4204 25.1568 38.5712C25.4124 38.8465 25.6745 39.1087 25.9366 39.3709C26.5263 39.9675 27.1226 40.5509 27.7123 41.154C28.0334 41.4817 27.922 41.9865 27.5026 42.0455C27.3257 42.0717 27.0833 41.9668 26.9522 41.8357C26.1594 41.0753 25.3862 40.2887 24.613 39.5086C24.0495 38.9448 23.6301 38.2828 23.3156 37.5486C22.9552 36.7029 22.5883 35.8638 22.2344 35.0182C22.1361 34.7888 21.9985 34.6183 21.743 34.5725C21.5071 34.5331 21.2974 34.5987 21.1532 34.7888C20.9763 35.0117 20.9894 35.2476 21.1074 35.4968C21.7757 36.952 22.4113 38.427 23.1125 39.8691C23.3483 40.3542 23.6694 40.8131 24.0364 41.1999C25.1437 42.3601 26.2904 43.4811 27.4371 44.6086C27.5354 44.7069 27.7123 44.7791 27.8565 44.7791C29.0949 44.7922 30.3399 44.7856 31.5783 44.7856C31.6635 44.7856 31.7552 44.7725 31.8666 44.7659C31.8732 43.94 31.9322 43.1337 31.6504 42.3536C31.3228 41.4621 30.8641 40.6492 29.9467 40.2559C28.6559 39.7053 27.4699 38.9973 26.4149 38.0599C25.9497 37.6469 25.301 37.66 24.7571 38.0533L24.7506 38.0664ZM32.8888 45.8607H27.2471V49.9446H32.8888V45.8607Z" fill="#E38B29"/>
<path d="M27.2209 28.2596C27.2209 26.8634 27.2274 25.4736 27.2209 24.0774C27.2209 23.6906 27.365 23.4743 27.7254 23.3169C30.1826 22.255 32.6398 21.1734 35.0905 20.0917C35.3853 19.9606 35.6343 19.9672 35.9226 20.0917C38.3536 21.1668 40.7912 22.2353 43.2353 23.2907C43.6219 23.4612 43.7857 23.6906 43.7791 24.1167C43.766 26.6798 43.7726 29.2495 43.7726 31.8126C43.7726 33.8644 42.9469 35.4967 41.2761 36.7029C39.5789 37.9221 37.8884 39.148 36.1913 40.3673C35.6671 40.7475 35.3264 40.7409 34.7891 40.3542C33.0919 39.1349 31.4014 37.909 29.7043 36.6897C28.0531 35.5032 27.2274 33.8906 27.2209 31.8585C27.2209 30.6589 27.2209 29.4527 27.2209 28.2531V28.2596ZM42.7307 28.4497C42.7307 27.1256 42.7307 25.8014 42.7307 24.4838C42.7307 24.2806 42.6652 24.1822 42.4817 24.1036C40.2211 23.1203 37.9605 22.1239 35.6933 21.1406C35.5819 21.0947 35.4115 21.0881 35.3002 21.1406C33.0264 22.1239 30.7592 23.1268 28.4855 24.1167C28.3152 24.1954 28.2496 24.2871 28.2496 24.4772C28.2496 26.9682 28.2496 29.4658 28.2562 31.9568C28.2627 33.5825 28.9442 34.8739 30.2613 35.831C31.9256 37.0372 33.603 38.2368 35.2674 39.4495C35.4509 39.5872 35.5623 39.5675 35.7326 39.443C37.3707 38.2499 39.0154 37.0634 40.6667 35.8834C42.0427 34.8936 42.7373 33.5563 42.7307 31.8585C42.7307 30.7244 42.7307 29.5969 42.7307 28.4629V28.4497Z" fill="#E38B29"/>
<path d="M39.8607 48.4041C39.769 48.4041 39.6772 48.4107 39.5921 48.4041C39.3234 48.3779 39.1399 48.1944 39.1268 47.9387C39.1137 47.6568 39.2448 47.4602 39.5134 47.4077C39.7493 47.3684 39.9983 47.3684 40.2342 47.3946C40.5094 47.4274 40.6732 47.6568 40.6536 47.9322C40.6405 48.2009 40.4504 48.3845 40.1621 48.4041C40.0638 48.4107 39.959 48.4041 39.8607 48.4041Z" fill="#E38B29"/>
<path d="M31.0869 48.4041C30.5627 48.4041 30.3268 48.2467 30.3333 47.8927C30.3333 47.5388 30.5758 47.3749 31.0934 47.3749C31.2114 47.3749 31.3359 47.3749 31.4538 47.3945C31.729 47.4535 31.8928 47.6764 31.8601 47.9452C31.8273 48.2205 31.6635 48.3778 31.3883 48.4041C31.29 48.4106 31.1852 48.4041 31.0869 48.4041Z" fill="#E38B29"/>
<path d="M41.6889 28.8234C41.6889 29.846 41.6889 30.8621 41.6889 31.8847C41.6954 33.2023 41.1581 34.2446 40.09 35.0116C38.7075 36.008 37.3249 37.011 35.9423 38.0074C35.5557 38.2827 35.4312 38.2827 35.0512 38.0074C33.6489 36.9979 32.2467 35.9883 30.851 34.9788C29.8353 34.2446 29.298 33.2482 29.2915 31.9831C29.2849 29.7739 29.2915 27.5582 29.2915 25.3491C29.2915 25.0344 29.4094 24.8443 29.6977 24.7198C31.5259 23.9266 33.3541 23.1137 35.1888 22.3337C35.3591 22.2616 35.6147 22.255 35.785 22.3337C37.6329 23.1203 39.461 23.9332 41.3023 24.7329C41.5906 24.8575 41.6954 25.0738 41.6954 25.3819C41.6889 26.5356 41.6954 27.6828 41.6954 28.8365L41.6889 28.8234ZM30.3268 28.9676C30.3268 29.9378 30.3333 30.908 30.3268 31.8782C30.3137 32.8549 30.7134 33.6088 31.4997 34.1725C32.7643 35.0772 34.0224 35.9883 35.2805 36.8995C35.4378 37.011 35.536 37.0241 35.6999 36.9061C36.9776 35.9687 38.2684 35.0509 39.5527 34.1201C40.2866 33.5826 40.6601 32.8549 40.6601 31.9437C40.6601 29.905 40.6601 27.8663 40.6601 25.8211C40.6601 25.6375 40.6143 25.5392 40.4308 25.4605C38.8516 24.7788 37.2725 24.0774 35.6933 23.3956C35.5819 23.3497 35.4115 23.3497 35.3002 23.3956C33.7144 24.0774 32.1418 24.7788 30.5627 25.4605C30.3661 25.5458 30.3202 25.6506 30.3268 25.8473C30.3333 26.8896 30.3268 27.9253 30.3268 28.9676Z" fill="#E38B29"/>
<path d="M34.3304 32.1535C34.9398 31.2424 35.5229 30.3639 36.1127 29.4855C36.781 28.476 37.4559 27.4731 38.1243 26.4635C38.2619 26.2603 38.4519 26.1096 38.6813 26.2013C38.8451 26.2669 39.0089 26.4308 39.081 26.5881C39.1334 26.6995 39.0613 26.9093 38.9827 27.0339C37.6394 29.0725 36.283 31.0981 34.9267 33.1303C34.7039 33.4646 34.4221 33.5105 34.101 33.2679C33.4458 32.7828 32.7905 32.2912 32.1418 31.793C31.8535 31.5701 31.8011 31.2817 31.9846 31.0326C32.168 30.79 32.4695 30.7573 32.7578 30.9736C33.2754 31.3538 33.7931 31.7471 34.3304 32.1535Z" fill="#E38B29"/>
</g>
<defs>
<clipPath id="clip0_531_2185">
<rect width="31" height="31" fill="white" transform="translate(20 20)"/>
</clipPath>
</defs>
</svg>
