<svg width="72" height="72" viewBox="0 0 72 72" fill="none" xmlns="http://www.w3.org/2000/svg">
<circle cx="36" cy="36" r="36" fill="#F2F2F2"/>
<circle cx="36" cy="36" r="28" fill="white"/>
<g clip-path="url(#clip0_531_2186)">
<path d="M24.8159 45.9279C24.7683 44.5343 24.0891 43.4662 23.1286 42.5275C22.6527 42.0602 22.1638 41.6054 21.7009 41.1298C21.2163 40.6333 20.9914 40.0492 21 39.3482C21.026 37.7085 21.0217 36.0647 21 34.425C20.9914 33.6281 21.1947 32.9104 21.6317 32.2387C22.2374 31.3083 22.8301 30.3654 23.4444 29.4433C23.8338 28.855 24.4049 28.5755 25.1318 28.709C25.798 28.83 26.3605 29.1471 26.5032 29.8355C26.5811 30.2026 26.5422 30.6157 26.4427 30.9828C26.2912 31.5503 26.0792 32.1052 25.8283 32.6392C25.4865 33.3652 25.5428 34.1162 25.5557 34.863C25.8716 34.863 26.1787 34.8297 26.4729 34.8714C26.9835 34.9465 27.3685 35.226 27.6757 35.6266C28.2511 36.3817 28.8265 37.1411 29.4236 37.8796C29.6442 38.155 29.9124 38.4011 30.1893 38.6222C31.2709 39.4901 31.6906 40.5749 31.4267 41.9142C31.1844 43.145 31.1325 44.38 31.3878 45.6191C31.4051 45.7109 31.431 45.8027 31.4527 45.8987C31.5781 45.9153 31.6949 45.9237 31.8074 45.9446C32.4001 46.053 32.7982 46.4995 32.8068 47.0794C32.8155 47.6593 32.8155 48.2351 32.8068 48.8151C32.7982 49.4743 32.305 49.9875 31.6214 49.9916C29.4279 50.0042 27.2344 50.0042 25.0409 49.9916C24.3573 49.9916 23.8555 49.4868 23.8382 48.8276C23.8252 48.2476 23.8208 47.6719 23.8382 47.0919C23.8555 46.4869 24.2102 46.1198 24.8029 45.9279H24.8159ZM30.2153 45.8987C29.999 44.818 29.9946 43.7583 30.0985 42.6985C30.1504 42.1812 30.2066 41.6596 30.2369 41.1423C30.2715 40.5164 30.0336 40.0074 29.5317 39.5902C29.125 39.2523 28.7313 38.8893 28.3895 38.4887C27.8574 37.8587 27.3728 37.187 26.8666 36.5319C26.7715 36.411 26.6806 36.2858 26.5681 36.1815C26.3345 35.9603 25.997 35.9353 25.7288 36.1022C25.4606 36.2691 25.3437 36.5737 25.4606 36.8741C25.5211 37.0326 25.612 37.1828 25.7158 37.3205C25.9754 37.6668 26.2609 37.9922 26.5205 38.3385C26.9748 38.9352 27.4291 39.5318 27.8574 40.1409C28.117 40.5039 27.9439 40.9504 27.5286 41.0505C27.2214 41.1256 27.0051 40.9879 26.8277 40.7501C26.2739 40.0116 25.7072 39.2856 25.1577 38.5471C24.8981 38.2008 24.6472 37.8504 24.4222 37.4832C24.2059 37.1328 24.1453 36.7447 24.2146 36.3317C24.2708 36.0062 24.3054 35.6808 24.3227 35.3512C24.34 34.9632 24.3227 34.5752 24.3141 34.183C24.2968 33.6364 24.3919 33.1107 24.5866 32.5933C24.8462 31.9091 25.0885 31.2165 25.3351 30.5281C25.4389 30.2402 25.3481 30.0232 25.0971 29.9064C24.8462 29.7854 24.6083 29.8522 24.4395 30.1067C23.8382 31.0287 23.2411 31.955 22.6441 32.8812C22.3412 33.3527 22.2071 33.8617 22.2114 34.4208C22.2244 36.073 22.2244 37.721 22.2114 39.3733C22.2114 39.7821 22.3326 40.1159 22.6268 40.3996C23.0767 40.8377 23.5353 41.2675 23.9853 41.7055C24.8765 42.5775 25.586 43.5539 25.8759 44.768C25.9624 45.1351 26.0057 45.5106 26.0749 45.9028H30.2153V45.8987ZM25.0798 48.7984H31.5954V47.1044H25.0798V48.7984Z" fill="#E38B29"/>
<path d="M45.4919 34.8589C45.4486 34.2706 45.5784 33.6907 45.3448 33.1107C45.0506 32.3681 44.7953 31.6087 44.5401 30.8535C44.2545 30.0107 44.6309 29.1805 45.4313 28.8342C46.249 28.4795 47.1359 28.7424 47.6162 29.485C48.2175 30.4196 48.8103 31.3584 49.4203 32.2846C49.788 32.8437 49.9957 33.4445 49.9957 34.1079C49.9957 35.9687 49.9957 37.8254 49.987 39.6862C49.987 40.3246 49.7102 40.8419 49.2213 41.2883C48.5723 41.8808 47.932 42.49 47.3479 43.1367C46.5865 43.9794 46.1884 45.0392 46.2231 45.9237C46.2836 45.9488 46.3572 45.978 46.4221 46.0072C46.898 46.2116 47.1662 46.5621 47.1749 47.0669C47.1835 47.6552 47.1878 48.2435 47.1749 48.8318C47.1576 49.5077 46.6514 49.9875 45.9418 49.9875C43.7786 49.9958 41.6154 49.9958 39.4479 49.9875C38.7513 49.9875 38.2451 49.5244 38.2192 48.8568C38.1932 48.2602 38.1975 47.6594 38.2192 47.0627C38.2451 46.3618 38.6821 45.9946 39.608 45.8862C39.6642 45.4147 39.7767 44.9265 39.768 44.4426C39.7464 43.5038 39.6945 42.5651 39.5733 41.6346C39.4176 40.4163 39.7767 39.4359 40.7804 38.6682C41.464 38.1466 41.9918 37.4832 42.4937 36.7948C42.8095 36.3609 43.1253 35.9228 43.4715 35.5098C43.943 34.9423 44.5444 34.6628 45.3188 34.8464C45.3621 34.8589 45.414 34.8464 45.4962 34.8464L45.4919 34.8589ZM44.99 45.9029C45.0506 44.3424 45.7169 43.0616 46.7941 41.9642C47.2614 41.4886 47.7416 41.0255 48.2392 40.5832C48.6112 40.2536 48.8146 39.8698 48.8146 39.3858C48.8146 37.6793 48.8146 35.9729 48.8146 34.2623C48.8146 33.7449 48.6675 33.2734 48.3733 32.8395C47.9363 32.1887 47.4994 31.5336 47.071 30.8744C46.898 30.6115 46.7422 30.3362 46.5692 30.0692C46.4221 29.8439 46.2101 29.7854 45.9548 29.8856C45.7125 29.9815 45.626 30.1693 45.6693 30.4155C45.6866 30.5072 45.7169 30.599 45.7515 30.6866C45.9462 31.2124 46.1235 31.7464 46.3399 32.2638C46.6211 32.9355 46.7249 33.6239 46.7076 34.3457C46.6903 35.0508 46.6297 35.7601 46.8201 36.4652C46.885 36.6989 46.8028 36.9993 46.7076 37.2371C46.5908 37.5333 46.4091 37.8129 46.2187 38.0757C45.5438 38.9853 44.8516 39.8823 44.1637 40.7835C43.9603 41.0505 43.6618 41.1298 43.3893 40.9963C43.1124 40.8628 42.9912 40.5958 43.1124 40.2703C43.1902 40.0575 43.2941 39.8447 43.4368 39.6695C43.9301 39.0437 44.4579 38.4387 44.9424 37.8087C45.1761 37.5083 45.3837 37.1787 45.5438 36.8407C45.6952 36.5236 45.5698 36.2441 45.2885 36.0814C45.0117 35.9228 44.6915 35.952 44.4536 36.1857C44.3151 36.3192 44.1983 36.4736 44.0858 36.6279C43.2854 37.7544 42.4547 38.8601 41.3515 39.7446C40.9016 40.1076 40.7112 40.5999 40.7415 41.1632C40.7545 41.3885 40.7804 41.618 40.8194 41.8433C40.9924 42.8947 41.0962 43.9502 40.9578 45.0142C40.9189 45.3021 40.8756 45.5899 40.8323 45.8903H44.99V45.9029ZM45.9765 47.1128H39.4436V48.7984H45.9765V47.1128Z" fill="#E38B29"/>
<path d="M44.7131 24.6412C44.4276 29.3433 43.0345 33.5781 39.9843 37.2205C38.9114 38.5056 37.6178 39.5445 36.043 40.2371C35.7531 40.3664 35.4935 40.3747 35.1993 40.2454C33.4212 39.4735 32.0237 38.2594 30.8513 36.7866C28.74 34.1414 27.494 31.129 26.8493 27.8705C26.5075 26.139 26.3821 24.395 26.5984 22.6343C26.633 22.3673 26.7195 22.1545 26.9878 22.0502C27.269 21.9417 27.5026 22.0335 27.7146 22.2254C28.8827 23.2852 30.2672 23.7608 31.8636 23.644C33.0707 23.5522 34.122 23.0974 35.0176 22.3089C35.4676 21.9125 35.7444 21.9125 36.1857 22.3089C38.1629 24.0737 41.2347 24.0737 43.2118 22.3089C43.4065 22.1378 43.5969 21.996 43.8824 22.0043C44.2978 22.0168 44.5314 22.1921 44.5703 22.5926C44.6309 23.3019 44.6742 24.0112 44.7174 24.6453L44.7131 24.6412ZM27.7146 23.765C27.7146 23.9986 27.7146 24.2073 27.7146 24.4117C27.7795 27.9665 28.7789 31.2709 30.609 34.3458C31.6127 36.0314 32.8544 37.5418 34.5893 38.5848C35.8137 39.3192 35.4329 39.3108 36.6227 38.5932C38.2538 37.6127 39.4349 36.2067 40.4126 34.6379C42.1475 31.855 43.134 28.8301 43.4195 25.5966C43.4758 24.9624 43.4282 24.3199 43.4282 23.6732C40.7458 25.2628 38.137 25.1669 35.606 23.3978C33.0794 25.1752 30.4749 25.3004 27.7189 23.7608L27.7146 23.765Z" fill="#E38B29"/>
<path d="M34.8575 31.3416C35.6276 30.5948 36.3545 29.8897 37.0813 29.1846C37.1592 29.1095 37.2327 29.0344 37.3193 28.9718C37.5615 28.7966 37.8903 28.8174 38.1023 29.0135C38.323 29.2221 38.3446 29.5434 38.1543 29.7896C38.124 29.8271 38.0894 29.8605 38.0548 29.8939C37.1505 30.7659 36.2506 31.6379 35.3421 32.5057C35.0436 32.7936 34.7061 32.7936 34.4076 32.514C33.9793 32.1093 33.5553 31.7004 33.1313 31.2874C32.8501 31.0079 32.8328 30.6699 33.075 30.4279C33.3303 30.1734 33.6894 30.1817 33.9879 30.4696C34.2735 30.7408 34.546 31.0287 34.8619 31.3416H34.8575Z" fill="#E38B29"/>
</g>
<defs>
<clipPath id="clip0_531_2186">
<rect width="29" height="28" fill="white" transform="translate(21 22)"/>
</clipPath>
</defs>
</svg>
