<svg width="972" height="519" viewBox="0 0 972 519" fill="none" xmlns="http://www.w3.org/2000/svg">
<path fill-rule="evenodd" clip-rule="evenodd" d="M518.338 0L331.715 0C351.876 20.1208 373.256 42.4823 395.929 67.3268C469.571 148.023 543.51 197.395 617.736 221.832C692.405 246.415 762.325 244.1 824.803 229.451C879.728 216.574 929.238 194.058 971.071 172.623V19.707C963.239 23.8584 955.478 28.0467 947.882 32.1458C939.223 36.8189 930.778 41.376 922.687 45.6306C880.274 67.9334 838.056 87.6833 793.987 98.0154C751.008 108.092 706.855 109.044 659.952 93.602C618.476 79.9474 571.024 52.2065 518.338 0ZM971.071 271.986C957.785 287.284 943.675 300.074 923.468 310.459C873.637 336.069 768.035 356.104 516.099 300.582C409.411 277.07 320.533 279.33 245.788 302.133C170.597 325.073 114.789 367.258 72.1701 415.234C42.61 448.509 19.262 484.745 0 519H161.247C165.079 514.183 169.025 509.477 173.098 504.892C202.416 471.889 237.951 445.667 285.182 431.258C332.86 416.712 397.482 412.681 487.044 432.418C733.592 486.753 877.173 479.494 971.071 437.314V271.986Z" fill="#FFB800" fill-opacity="0.31"/>
</svg>
