<svg viewBox="-1263.7184 122.1421 4057.4368 565.7157" width="5000" height="697.1343336758812" xmlns="http://www.w3.org/2000/svg" xmlns:xlink="http://www.w3.org/1999/xlink" preserveAspectRatio="none"><defs></defs><style>.alyzcHXT8m0filter-floo {flood-color:#0030C2;flood-opacity:0.5;}.aOkK-DlkBE0filter-floo {flood-color:#0030C2;flood-opacity:0.5;}.apuNI4lqoO0filter-floo {flood-color:#0030C2;flood-opacity:0.5;}.companyName {fill:#0030C2;fill-opacity:1;}.icon1 {fill:#0030C2;fill-opacity:1;}.icon2 {fill:#DADADA;fill-opacity:1;}.icon3 {fill:#BABABA;fill-opacity:1;}.icon3-str {stroke:#BABABA;stroke-opacity:1;}.text {fill:#0030C2;fill-opacity:1;}</style><defs>
      <filter
        x="-662.3675"
        y="122.1421"
        width="3456.0859"
        height="330"
        id="OkK-DlkBE"
        filterUnits="userSpaceOnUse"
        primitiveUnits="userSpaceOnUse"
        color-interpolation-filters="sRGB">
        <feMerge><feMergeNode in="SourceGraphic" /></feMerge>
      </filter>
      <filter
        x="-662.3675"
        y="475.0867"
        width="3434.3061"
        height="212.7711"
        id="lyzcHXT8m"
        filterUnits="userSpaceOnUse"
        primitiveUnits="userSpaceOnUse"
        color-interpolation-filters="sRGB">
        <feMerge><feMergeNode in="SourceGraphic" /></feMerge>
      </filter>
      <filter
        x="-1263.7184"
        y="122.1421"
        width="565.6552"
        height="565.7157"
        id="puNI4lqoO"
        filterUnits="userSpaceOnUse"
        primitiveUnits="userSpaceOnUse"
        color-interpolation-filters="sRGB">
        <feMerge><feMergeNode in="SourceGraphic" /></feMerge>
      </filter></defs><g opacity="1" transform="rotate(0 -1263.7184 122.1421)">
<svg width="565.6552" height="565.7157" x="-1263.7184" y="122.1421" version="1.1" preserveAspectRatio="none" viewBox="5.084000110626221 5.880000114440918 89.52000427246094 89.52400970458984">
  <g transform="matrix(1 0 0 1 0 0)" class="icon1"><path d="M43.498,61.845h-22.9c-0.138,0-0.25,0.112-0.25,0.25v14.984h-9.919c-0.138,0-0.25,0.112-0.25,0.25v2.543  c0,0.138,0.112,0.25,0.25,0.25h22.884c0.138,0,0.25-0.112,0.25-0.25v-7.635c0-0.138-0.112-0.25-0.25-0.25h-2.526  c-0.138,0-0.25,0.112-0.25,0.25v4.842h-7.142V64.886h17.302v4.795c0,0.138,0.112,0.25,0.25,0.25H61.05v9.941  c0,0.138,0.112,0.25,0.25,0.25h25.171v9.938c0,0.138,0.111,0.25,0.25,0.25h2.547c0.138,0,0.25-0.112,0.25-0.25v-12.73  c0-0.138-0.112-0.25-0.25-0.25H64.093V67.19c0-0.138-0.112-0.25-0.25-0.25H43.748v-4.846C43.748,61.957,43.636,61.845,43.498,61.845  z"></path><path d="M71.214,46.815v22.866c0,0.138,0.112,0.25,0.25,0.25h17.804c0.138,0,0.25-0.112,0.25-0.25V56.999  c0-0.138-0.112-0.25-0.25-0.25h-7.616c-0.138,0-0.25,0.112-0.25,0.25v2.543c0,0.138,0.112,0.25,0.25,0.25h4.819v7.148H74.257V49.607  h15.011c0.138,0,0.25-0.112,0.25-0.25V11.201c0-0.138-0.112-0.25-0.25-0.25h-2.547c-0.139,0-0.25,0.112-0.25,0.25v35.364H71.464  C71.326,46.565,71.214,46.677,71.214,46.815z"></path><path d="M79.1,90.31c0.139,0,0.25-0.112,0.25-0.25v-2.551c0-0.138-0.111-0.25-0.25-0.25H53.902v-9.93  c0-0.138-0.112-0.25-0.25-0.25H40.946c-0.138,0-0.25,0.112-0.25,0.25v9.93H10.429c-0.138,0-0.25,0.112-0.25,0.25v2.551  c0,0.138,0.112,0.25,0.25,0.25h33.069c0.138,0,0.25-0.112,0.25-0.25v-9.938h7.112v7.137h-2.027v-4.836c0-0.138-0.112-0.25-0.25-0.25  h-2.542c-0.138,0-0.25,0.112-0.25,0.25v9.928H8.136v-7.135h30.269c0.138,0,0.25-0.112,0.25-0.25V67.19c0-0.138-0.112-0.25-0.25-0.25  H25.692c-0.138,0-0.25,0.112-0.25,0.25v7.59c0,0.138,0.112,0.25,0.25,0.25h2.545c0.138,0,0.25-0.112,0.25-0.25v-4.85h7.118v12.242  H8.136V75.03h9.911c0.138,0,0.25-0.112,0.25-0.25V46.815c0-0.138-0.112-0.25-0.25-0.25h-2.546c-0.138,0-0.25,0.112-0.25,0.25v25.172  H8.136V39.443h30.269c0.138,0,0.25-0.112,0.25-0.25v-2.545c0-0.138-0.112-0.25-0.25-0.25h-9.917v-7.136h9.917  c0.138,0,0.25-0.112,0.25-0.25V16.294c0-0.138-0.112-0.25-0.25-0.25H15.501c-0.138,0-0.25,0.112-0.25,0.25v2.551  c0,0.138,0.112,0.25,0.25,0.25h20.104v7.118H15.501c-0.138,0-0.25,0.112-0.25,0.25v2.548c0,0.138,0.112,0.25,0.25,0.25h9.941v7.136  H8.136V8.908h37.655v20.104c0,0.138,0.112,0.25,0.25,0.25h22.872c0.139,0,0.25-0.112,0.25-0.25V16.294c0-0.138-0.111-0.25-0.25-0.25  h-9.916v-4.843c0-0.138-0.111-0.25-0.25-0.25h-2.539c-0.139,0-0.25,0.112-0.25,0.25v7.645c0,0.138,0.111,0.25,0.25,0.25h9.938v7.118  H48.833V6.13c0-0.138-0.112-0.25-0.25-0.25H5.334c-0.138,0-0.25,0.112-0.25,0.25v89.023c0,0.138,0.112,0.25,0.25,0.25h43.248  c0.138,0,0.25-0.112,0.25-0.25V90.31H79.1z"></path><path d="M94.354,5.88H51.109c-0.138,0-0.25,0.112-0.25,0.25v17.812c0,0.138,0.112,0.25,0.25,0.25h12.733  c0.138,0,0.25-0.112,0.25-0.25v-2.555c0-0.138-0.112-0.25-0.25-0.25h-9.94V8.908h22.406v27.49H46.041c-0.138,0-0.25,0.112-0.25,0.25  v2.545c0,0.138,0.112,0.25,0.25,0.25h4.819v7.122H30.786c-0.138,0-0.25,0.112-0.25,0.25v2.542c0,0.138,0.112,0.25,0.25,0.25h22.866  c0.138,0,0.25-0.112,0.25-0.25v-9.914H79.1c0.139,0,0.25-0.112,0.25-0.25V8.908h12.219v42.75h-15.01c-0.139,0-0.25,0.112-0.25,0.25  v12.729c0,0.138,0.111,0.25,0.25,0.25h7.614c0.138,0,0.25-0.112,0.25-0.25v-2.541c0-0.138-0.112-0.25-0.25-0.25H79.35V54.7h12.219  v17.287H69.162V44.513h15.011c0.138,0,0.25-0.112,0.25-0.25V11.201c0-0.138-0.112-0.25-0.25-0.25h-2.521  c-0.138,0-0.25,0.112-0.25,0.25v30.288H56.207c-0.139,0-0.25,0.112-0.25,0.25v9.918h-27.47v-7.144h20.095  c0.138,0,0.25-0.112,0.25-0.25v-2.524c0-0.138-0.112-0.25-0.25-0.25h-4.835v-7.133h30.259c0.138,0,0.25-0.112,0.25-0.25V11.201  c0-0.138-0.112-0.25-0.25-0.25H61.3c-0.138,0-0.25,0.112-0.25,0.25v2.551c0,0.138,0.112,0.25,0.25,0.25h9.914v17.306H43.748V11.201  c0-0.138-0.112-0.25-0.25-0.25H10.429c-0.138,0-0.25,0.112-0.25,0.25v22.905c0,0.138,0.112,0.25,0.25,0.25h12.715  c0.138,0,0.25-0.112,0.25-0.25v-2.548c0-0.138-0.112-0.25-0.25-0.25h-9.917v-7.116h20.086c0.138,0,0.25-0.112,0.25-0.25v-2.555  c0-0.138-0.112-0.25-0.25-0.25H13.227v-7.135h27.47v17.306h-9.91c-0.138,0-0.25,0.112-0.25,0.25v2.548c0,0.138,0.112,0.25,0.25,0.25  h9.91v7.133H25.692c-0.138,0-0.25,0.112-0.25,0.25V54.45c0,0.138,0.112,0.25,0.25,0.25h33.054c0.139,0,0.25-0.112,0.25-0.25v-9.937  h7.148v17.332H48.833v-2.053h15.01c0.138,0,0.25-0.112,0.25-0.25V46.815c0-0.138-0.112-0.25-0.25-0.25H61.3  c-0.138,0-0.25,0.112-0.25,0.25v9.934H23.394v-15.01c0-0.138-0.112-0.25-0.25-0.25H10.429c-0.138,0-0.25,0.112-0.25,0.25v27.942  c0,0.138,0.112,0.25,0.25,0.25h2.548c0.138,0,0.25-0.112,0.25-0.25V44.513h7.121v15.029c0,0.138,0.112,0.25,0.25,0.25h25.193v4.844  c0,0.138,0.112,0.25,0.25,0.25h20.104v9.895c0,0.138,0.111,0.25,0.25,0.25h25.174v17.32h-7.146v-9.928c0-0.138-0.112-0.25-0.25-0.25  H58.996v-9.936c0-0.138-0.111-0.25-0.25-0.25h-17.8c-0.138,0-0.25,0.112-0.25,0.25v2.543c0,0.138,0.112,0.25,0.25,0.25h15.011v9.936  c0,0.138,0.111,0.25,0.25,0.25h25.194v7.135H51.109c-0.138,0-0.25,0.112-0.25,0.25v2.553c0,0.138,0.112,0.25,0.25,0.25h43.245  c0.138,0,0.25-0.112,0.25-0.25V6.13C94.604,5.992,94.492,5.88,94.354,5.88z"></path></g>
</svg>
</g><g opacity="1" transform="rotate(0 -662.3675 122.1421)">
<svg width="3456.0859" height="330" x="-662.3675" y="122.1421" version="1.1" preserveAspectRatio="none" viewBox="-0.4 -28.64 305.75999999999993 29.200000000000003">
  <g transform="matrix(1 0 0 1 0 0)" class="companyName"><path id="id-NWRg60gGY-12" d="M39.68-28L39.68-27.60L39.36-27.60Q37.88-27.60 36.76-26.52L36.76-26.52Q36.12-25.96 35.84-25.12L35.84-25.12L29.20-3.96Q28.40-1.44 28.32 0.48L28.32 0.48L27.96 0.48L19.80-22.40L13.72-3.96Q12.96-1.48 12.88 0.48L12.88 0.48L12.52 0.48L3.44-25.16Q2.96-26.36 1.96-26.98Q0.96-27.60-0.08-27.60L-0.08-27.60L-0.40-27.60L-0.40-28L8.48-28L8.48-27.60L8.12-27.60Q7.28-27.60 6.86-27.06Q6.44-26.52 6.44-26.04Q6.44-25.56 6.56-25.16L6.56-25.16L12.64-5.68L20.08-28.64L20.44-28.60L28.32-6.48L33.68-25.20Q33.80-25.64 33.80-26.10Q33.80-26.56 33.40-27.08Q33-27.60 32.16-27.60L32.16-27.60L31.80-27.60L31.80-28L39.68-28Z M41.08-0.40L41.64-0.40Q42.72-0.40 43.52-1.04Q44.32-1.68 44.32-2.56L44.32-2.56L44.32-21.44Q44.32-22.32 43.52-22.96Q42.72-23.60 41.60-23.60L41.60-23.60L41.08-23.60L41.08-24L50.12-24L50.12-23.60L49.60-23.60Q48.52-23.60 47.74-23Q46.96-22.40 46.88-21.52L46.88-21.52L46.88-2.52Q46.92-1.64 47.72-1.02Q48.52-0.40 49.60-0.40L49.60-0.40L50.12-0.40L50.16 0L41.08 0L41.08-0.40Z M55.32-0.40L55.88-0.40Q56.84-0.40 57.50-1.02Q58.16-1.64 58.20-2.52L58.20-2.52L58.20-21.44Q58.16-22.32 57.46-22.96Q56.76-23.60 55.80-23.60L55.80-23.60L55.32-23.60L55.32-24L63.60-24L63.60-23.60L63.12-23.60Q62.16-23.60 61.46-22.96Q60.76-22.32 60.76-21.44L60.76-21.44L60.76-1.24L67.00-1.24Q68.84-1.24 70.12-1.88Q71.40-2.52 72.06-3.40Q72.72-4.28 73.36-5.72L73.36-5.72L73.76-5.72L71.56 0L55.32 0L55.32-0.40Z M77.68-1.32L77.68-1.32Q77.56-1.80 77.56-3.28Q77.56-4.76 78.08-6.28L78.08-6.28L78.56-6.28Q78.52-5.92 78.52-5.56L78.52-5.56Q78.52-3.40 79.94-2.02Q81.36-0.64 83.88-0.64L83.88-0.64Q86.52-0.64 88.00-1.86Q89.48-3.08 89.48-5.02Q89.48-6.96 88.04-8.24L88.04-8.24L80.04-14.40Q78.12-16.04 78.12-18.80L78.12-18.80Q78.12-20.36 78.98-21.68Q79.84-23 81.38-23.78Q82.92-24.56 85.00-24.56Q87.08-24.56 88.68-24.20L88.68-24.20L90.00-24.20L90.08-19.84L89.64-19.84Q89.64-21.52 88.48-22.44Q87.32-23.36 85.16-23.36Q83.00-23.36 81.60-22.26Q80.20-21.16 80.20-19.42Q80.20-17.68 81.76-16.40L81.76-16.40L89.84-10.16Q91.68-8.64 91.68-5.92Q91.68-3.20 89.62-1.32Q87.56 0.56 84.60 0.56L84.60 0.56Q82.64 0.56 80.68 0.08Q78.72-0.40 77.68-1.32Z M103.36-22.98Q106.44-24.56 110.14-24.56Q113.84-24.56 116.92-22.98Q120.00-21.40 121.82-18.52Q123.64-15.64 123.64-12Q123.64-8.36 121.82-5.48Q120.00-2.60 116.92-1.02Q113.84 0.56 110.60 0.56Q107.36 0.56 104.88-0.36Q102.40-1.28 100.58-2.92Q98.76-4.56 97.70-6.92Q96.64-9.28 96.64-12.46Q96.64-15.64 98.46-18.52Q100.28-21.40 103.36-22.98ZM102.62-3.82Q105.64-0.64 110.12-0.64Q114.60-0.64 117.64-3.82Q120.68-7 120.68-12Q120.68-17 117.64-20.18Q114.60-23.36 110.12-23.36Q105.64-23.36 102.62-20.18Q99.60-17 99.60-12Q99.60-7 102.62-3.82Z M155.96-23.60L155.28-23.60Q154.40-23.60 153.76-23.02Q153.12-22.44 153.08-21.60L153.08-21.60L153.08-4.56Q153.08-2.24 153.36-0.16L153.36-0.16L153.44 0.56L153.08 0.56L132.28-19.16L132.28-2.48Q132.28-1.60 132.92-1Q133.56-0.40 134.48-0.40L134.48-0.40L135.16-0.40L135.16 0L127.60 0L127.60-0.40L128.28-0.40Q129.20-0.40 129.84-1Q130.48-1.60 130.48-2.48L130.48-2.48L130.48-19.60Q130.48-22.04 130.20-23.96L130.20-23.96L130.12-24.60L130.56-24.56L151.32-5L151.32-21.60Q151.24-22.44 150.60-23.02Q149.96-23.60 149.08-23.60L149.08-23.60L148.40-23.60L148.40-24L155.96-24L155.96-23.60Z M181.12 0L181.12 0L171.36 0L171.40-0.40L171.88-0.40Q172.92-0.40 173.66-1.12Q174.40-1.84 174.44-2.88L174.44-2.88L174.44-25.12Q174.44-26.16 173.68-26.88Q172.92-27.60 171.88-27.60L171.88-27.60L171.40-27.60L171.36-28L179.32-28Q183.44-28 185.72-26.18Q188-24.36 188-21.32L188-21.32Q188-18.92 186.72-17.34Q185.44-15.76 183.60-15.24L183.60-15.24Q186.76-14.76 188.60-12.64Q190.44-10.52 190.44-7.30Q190.44-4.08 187.98-2.04Q185.52 0 181.12 0ZM177.04-26.72L177.04-1.44L180.96-1.44Q181-1.44 181.04-1.44L181.04-1.44Q184.08-1.44 185.76-3.10Q187.44-4.76 187.44-7.80L187.44-7.80Q187.44-9.52 186.86-10.82Q186.28-12.12 185.40-12.88L185.40-12.88Q183.08-14.80 178.44-14.80L178.44-14.80Q178.44-14.80 178.40-14.80L178.40-14.80L178.40-15.16Q178.44-15.16 178.78-15.16Q179.12-15.16 179.76-15.24Q180.40-15.32 181.20-15.52Q182-15.72 182.64-16.16Q183.28-16.60 183.84-17.20L183.84-17.20Q185-18.52 185-21.14Q185-23.76 183.50-25.24Q182-26.72 179.16-26.72L179.16-26.72L177.04-26.72Z M202.48-22.76L202.48-22.76L200.36-22.76L200.36-2.56Q200.40-1.32 201.48-0.68L201.48-0.68Q202-0.40 202.64-0.40L202.64-0.40L203.16-0.40L203.20 0L195 0L195-0.40L195.56-0.40Q196.48-0.40 197.14-1.02Q197.80-1.64 197.80-2.52L197.80-2.52L197.80-21.52Q197.80-22.40 197.14-23Q196.48-23.60 195.56-23.60L195.56-23.60L195-23.60L195-24L205.04-24Q208.80-24 210.98-22.28Q213.16-20.56 213.16-17.76Q213.16-14.96 211.40-13.08Q209.64-11.20 206.92-10.92L206.92-10.92Q208.20-10.36 210-7.80L210-7.80Q209.96-7.80 211.38-6.04Q212.80-4.28 213.66-3.30Q214.52-2.32 215.08-1.80L215.08-1.80Q216.56-0.40 218.48-0.40L218.48-0.40L218.48 0L217.24 0Q214.08 0 212.28-1.24L212.28-1.24Q210.92-2.16 209.80-3.52L209.80-3.52Q209.56-3.84 207.78-6.34Q206-8.84 205.88-9L205.88-9Q203.72-11.68 201.84-11.68L201.84-11.68L201.84-12.08Q206.52-12.08 207.48-12.56L207.48-12.56Q208.80-13.24 209.28-14L209.28-14Q210.28-15.60 210.28-17.52L210.28-17.52Q210.28-19.96 208.84-21.28Q207.40-22.60 204.96-22.72L204.96-22.72Q203.88-22.76 202.48-22.76Z M226.00-22.98Q229.08-24.56 232.78-24.56Q236.48-24.56 239.56-22.98Q242.64-21.40 244.46-18.52Q246.28-15.64 246.28-12Q246.28-8.36 244.46-5.48Q242.64-2.60 239.56-1.02Q236.48 0.56 233.24 0.56Q230.00 0.56 227.52-0.36Q225.04-1.28 223.22-2.92Q221.40-4.56 220.34-6.92Q219.28-9.28 219.28-12.46Q219.28-15.64 221.10-18.52Q222.92-21.40 226.00-22.98ZM225.26-3.82Q228.28-0.64 232.76-0.64Q237.24-0.64 240.28-3.82Q243.32-7 243.32-12Q243.32-17 240.28-20.18Q237.24-23.36 232.76-23.36Q228.28-23.36 225.26-20.18Q222.24-17 222.24-12Q222.24-7 225.26-3.82Z M257.76-22.98Q260.84-24.56 264.54-24.56Q268.24-24.56 271.32-22.98Q274.40-21.40 276.22-18.52Q278.04-15.64 278.04-12Q278.04-8.36 276.22-5.48Q274.40-2.60 271.32-1.02Q268.24 0.56 265.00 0.56Q261.76 0.56 259.28-0.36Q256.80-1.28 254.98-2.92Q253.16-4.56 252.10-6.92Q251.04-9.28 251.04-12.46Q251.04-15.64 252.86-18.52Q254.68-21.40 257.76-22.98ZM257.02-3.82Q260.04-0.64 264.52-0.64Q269.00-0.64 272.04-3.82Q275.08-7 275.08-12Q275.08-17 272.04-20.18Q269.00-23.36 264.52-23.36Q260.04-23.36 257.02-20.18Q254.00-17 254.00-12Q254.00-7 257.02-3.82Z M305.36-0.40L305.36 0L303.88 0Q299.96 0 298.00-2.28L298.00-2.28L289.20-11.92L297.80-22.04Q298.24-22.60 297.94-23.10Q297.64-23.60 296.92-23.60L296.92-23.60L296.56-23.60L296.56-24L304.72-24L304.72-23.60L304.56-23.60Q302.12-23.60 300.68-22.16L300.68-22.16L291.96-12.84L301.88-2.04Q302.60-1.16 303.36-0.80Q304.12-0.44 305.36-0.40L305.36-0.40ZM290.16-0.40L290.16-0.40L290.60-0.40L290.60 0L282.40 0L282.40-0.40L282.88-0.40Q283.84-0.40 284.52-1.04Q285.20-1.68 285.24-2.56L285.24-2.56L285.24-21.44Q285.20-22.32 284.52-22.96Q283.84-23.60 282.88-23.60L282.88-23.60L282.40-23.60L282.40-24L290.60-24L290.60-23.60L290.12-23.60Q288.84-23.60 288.12-22.56L288.12-22.56Q287.80-22.08 287.80-21.48L287.80-21.48L287.80-2.52Q287.80-1.64 288.50-1.02Q289.20-0.40 290.16-0.40Z"/></g>
</svg>
</g><g opacity="1" transform="rotate(0 -662.3675 475.0867)">
<svg width="3434.3061" height="212.7711" x="-662.3675" y="475.0867" version="1.1" preserveAspectRatio="none" viewBox="2.4 -28.72 1247.1599999999999 77.28">
  <g transform="matrix(1 0 0 1 0 0)" class="text"><path id="id-k5DKOr34iL80" d="M2.40-0.40L2.92-0.40Q3.96-0.40 4.70-1.14Q5.44-1.88 5.48-2.92L5.48-2.92L5.48-25.32Q5.36-26.28 4.64-26.94Q3.92-27.60 2.92-27.60L2.92-27.60L2.44-27.60L2.40-28L14.12-28Q15.36-28 16.82-28.24Q18.28-28.48 18.88-28.72L18.88-28.72L18.88-23.68L18.48-23.68L18.48-24.40Q18.48-25.36 17.82-26.04Q17.16-26.72 16.24-26.76L16.24-26.76L8.08-26.76L8.08-14.40L14.84-14.40Q15.64-14.44 16.20-15Q16.76-15.56 16.76-16.40L16.76-16.40L16.76-16.96L17.16-16.96L17.16-10.64L16.76-10.64L16.76-11.24Q16.76-12.04 16.22-12.60Q15.68-13.16 14.88-13.20L14.88-13.20L8.08-13.20L8.08-1.24L13.80-1.24Q16.76-1.24 18.32-2.56Q19.88-3.88 20.92-6.48L20.92-6.48L21.32-6.48L19 0L2.40 0L2.40-0.40Z M50.16-0.40L50.16 0L40.68 0L40.68-0.40L41.16-0.40Q41.96-0.40 42.34-0.94Q42.72-1.48 42.72-1.82Q42.72-2.16 42.52-2.52L42.52-2.52L37-10.44L31.16-2.56Q30.88-2.20 30.88-1.84Q30.88-1.48 31.26-0.94Q31.64-0.40 32.48-0.40L32.48-0.40L32.96-0.40L32.96 0L24.24 0L24.24-0.40L24.76-0.40Q26.92-0.40 28.56-2.36L28.56-2.36L36-11.88L29.24-21.60Q28.64-22.44 27.58-23.02Q26.52-23.60 25.40-23.60L25.40-23.60L24.88-23.60L24.88-24L34.28-24L34.28-23.60L33.80-23.60Q33-23.60 32.62-23.06Q32.24-22.52 32.24-22.18Q32.24-21.84 32.48-21.48L32.48-21.48L37.56-14.20L42.40-21.48Q42.64-21.80 42.64-22.16Q42.64-22.52 42.26-23.06Q41.88-23.60 41.08-23.60L41.08-23.60L40.60-23.60L40.60-24L49.48-24L49.48-23.60L48.92-23.60Q47.80-23.60 46.78-23.02Q45.76-22.44 45.08-21.56L45.08-21.56L38.64-12.60L45.80-2.36Q46.68-1.20 47.78-0.80Q48.88-0.40 49.64-0.40L49.64-0.40L50.16-0.40Z M53.52-0.40L54.08-0.40Q55.04-0.40 55.70-1.02Q56.36-1.64 56.40-2.52L56.40-2.52L56.40-21.52Q56.40-22.40 55.72-23Q55.04-23.60 54.08-23.60L54.08-23.60L53.52-23.60L53.52-24L65.20-24Q66.84-24 68.08-24.24Q69.32-24.48 69.68-24.64L69.68-24.64L69.68-20.08L69.24-20.12L69.24-20.72Q69.24-21.56 68.68-22.16Q68.12-22.76 67.24-22.76L67.24-22.76L58.92-22.76L58.92-12.60L65.76-12.60Q66.56-12.60 66.98-13.08Q67.40-13.56 67.40-14.28L67.40-14.28L67.40-14.80L67.84-14.80L67.84-9.20L67.40-9.20L67.40-9.72Q67.40-10.84 66.56-11.24L66.56-11.24Q66.24-11.36 65.88-11.40L65.88-11.40L58.92-11.40L58.92-1.24L65.20-1.24Q67.04-1.24 68.30-1.88Q69.56-2.52 70.22-3.40Q70.88-4.28 71.56-5.72L71.56-5.72L71.96-5.72L69.76 0L53.52 0L53.52-0.40Z M89.96 0.56Q83.84 0.52 80.30-2.84Q76.76-6.20 76.76-12.02Q76.76-17.84 80.30-21.20Q83.84-24.56 89.96-24.56L89.96-24.56Q92.44-24.56 94.96-23.92Q97.48-23.28 99.32-22.16L99.32-22.16L100.20-16.48L99.84-16.48Q98.12-23.36 89.92-23.36L89.92-23.36Q85.16-23.36 82.40-20.32Q79.64-17.28 79.64-12L79.64-12Q79.64-8.56 80.88-6.02Q82.12-3.48 84.48-2.08L84.48-2.08Q86.84-0.68 89.96-0.68Q93.08-0.68 95.42-1.62Q97.76-2.56 99.30-4.72Q100.84-6.88 101.04-10.08L101.04-10.08L101.40-10.08L100.96-4.60Q99.40-2.20 96.44-0.82Q93.48 0.56 89.96 0.56L89.96 0.56Z M131.16-24L131.16-23.60L130.56-23.60Q129.48-23.60 128.92-22.76L128.92-22.76Q128.68-22.40 128.64-21.92L128.64-21.92L128.64-8.44Q128.64-4.28 125.98-1.86Q123.32 0.56 118.68 0.56Q114.04 0.56 111.36-1.84Q108.68-4.24 108.68-8.40L108.68-8.40L108.68-21.88Q108.68-22.60 108.12-23.10Q107.56-23.60 106.76-23.60L106.76-23.60L106.16-23.60L106.16-24L113.76-24L113.76-23.60L113.16-23.60Q112.36-23.60 111.80-23.10Q111.24-22.60 111.24-21.88L111.24-21.88L111.24-8.88Q111.24-5 113.22-2.76Q115.20-0.52 118.82-0.52Q122.44-0.52 124.62-2.64Q126.80-4.76 126.80-8.44L126.80-8.44L126.80-21.88Q126.76-22.64 126.22-23.12Q125.68-23.60 124.88-23.60L124.88-23.60L124.28-23.60L124.28-24L131.16-24Z M154.28-22.84L147.04-22.84L147.04-2.52Q147.08-1.28 148.24-0.68L148.24-0.68Q148.76-0.40 149.40-0.40L149.40-0.40L149.84-0.40L149.84 0L141.60 0L141.60-0.40L142.08-0.40Q143.04-0.40 143.72-1.04Q144.40-1.68 144.44-2.56L144.44-2.56L144.44-22.84L137.20-22.84Q136.28-22.84 135.74-22.24Q135.20-21.64 135.20-20.80L135.20-20.80L135.20-20.16L134.76-20.16L134.76-24.68Q135.56-24.36 137.02-24.20Q138.48-24.04 139.20-24.04L139.20-24.04L152.24-24.04Q155.12-24.04 156.72-24.68L156.72-24.68L156.72-20.16L156.28-20.16L156.28-20.80Q156.28-21.64 155.72-22.24Q155.16-22.84 154.28-22.84L154.28-22.84Z M161.08-0.40L161.64-0.40Q162.72-0.40 163.52-1.04Q164.32-1.68 164.32-2.56L164.32-2.56L164.32-21.44Q164.32-22.32 163.52-22.96Q162.72-23.60 161.60-23.60L161.60-23.60L161.08-23.60L161.08-24L170.12-24L170.12-23.60L169.60-23.60Q168.52-23.60 167.74-23Q166.96-22.40 166.88-21.52L166.88-21.52L166.88-2.52Q166.92-1.64 167.72-1.02Q168.52-0.40 169.60-0.40L169.60-0.40L170.12-0.40L170.16 0L161.08 0L161.08-0.40Z M200.64-24L200.64-23.60L200.32-23.60Q199.44-23.60 198.60-23.02Q197.76-22.44 197.16-21.28L197.16-21.28Q188.44-2.56 188.08-1.68L188.08-1.68Q187.40 0 187.36 0.56L187.36 0.56L187 0.56L177.12-21.24Q175.96-23.60 174.04-23.60L174.04-23.60L173.72-23.60L173.72-24L181.92-24L181.92-23.60L181.60-23.60Q180.84-23.60 180.46-23.06Q180.08-22.52 180.08-22.08Q180.08-21.64 180.20-21.16L180.20-21.16L187.36-3.72L194.72-21.08Q194.92-21.60 194.92-22.06Q194.92-22.52 194.52-23.06Q194.12-23.60 193.32-23.60L193.32-23.60L193.04-23.60L193.04-24L200.64-24Z M204.24-0.40L204.80-0.40Q205.76-0.40 206.42-1.02Q207.08-1.64 207.12-2.52L207.12-2.52L207.12-21.52Q207.12-22.40 206.44-23Q205.76-23.60 204.80-23.60L204.80-23.60L204.24-23.60L204.24-24L215.92-24Q217.56-24 218.80-24.24Q220.04-24.48 220.40-24.64L220.40-24.64L220.40-20.08L219.96-20.12L219.96-20.72Q219.96-21.56 219.40-22.16Q218.84-22.76 217.96-22.76L217.96-22.76L209.64-22.76L209.64-12.60L216.48-12.60Q217.28-12.60 217.70-13.08Q218.12-13.56 218.12-14.28L218.12-14.28L218.12-14.80L218.56-14.80L218.56-9.20L218.12-9.20L218.12-9.72Q218.12-10.84 217.28-11.24L217.28-11.24Q216.96-11.36 216.60-11.40L216.60-11.40L209.64-11.40L209.64-1.24L215.92-1.24Q217.76-1.24 219.02-1.88Q220.28-2.52 220.94-3.40Q221.60-4.28 222.28-5.72L222.28-5.72L222.68-5.72L220.48 0L204.24 0L204.24-0.40Z M239.52-1.64L239.52-1.64Q239.40-2.20 239.40-3.80Q239.40-5.40 240.00-7.20L240.00-7.20L240.36-7.20Q240.32-6.76 240.32-6.32L240.32-6.32Q240.32-3.88 241.80-2.26Q243.28-0.64 245.72-0.64L245.72-0.64Q248.24-0.64 249.86-2.16Q251.48-3.68 251.48-5.98Q251.48-8.28 249.92-9.72L249.92-9.72L242.24-16.84Q240.08-18.84 240.08-21.68Q240.08-24.52 241.98-26.54Q243.88-28.56 247.12-28.56L247.12-28.56Q248.64-28.56 250.56-28.16L250.56-28.16L252.12-28.16L252.12-23.24L251.76-23.24Q251.76-25.12 250.46-26.24Q249.16-27.36 247.12-27.36Q245.08-27.36 243.70-26Q242.32-24.64 242.32-22.60Q242.32-20.56 243.92-19.08L243.92-19.08L251.80-11.80Q253.80-9.96 253.80-6.76Q253.80-3.56 251.76-1.50Q249.72 0.56 246.32 0.56L246.32 0.56Q244.56 0.56 242.58 0.02Q240.60-0.52 239.52-1.64Z M259.88-0.40L260.44-0.40Q261.40-0.40 262.06-1.02Q262.72-1.64 262.76-2.52L262.76-2.52L262.76-21.52Q262.76-22.40 262.08-23Q261.40-23.60 260.44-23.60L260.44-23.60L259.88-23.60L259.88-24L271.56-24Q273.20-24 274.44-24.24Q275.68-24.48 276.04-24.64L276.04-24.64L276.04-20.08L275.60-20.12L275.60-20.72Q275.60-21.56 275.04-22.16Q274.48-22.76 273.60-22.76L273.60-22.76L265.28-22.76L265.28-12.60L272.12-12.60Q272.92-12.60 273.34-13.08Q273.76-13.56 273.76-14.28L273.76-14.28L273.76-14.80L274.20-14.80L274.20-9.20L273.76-9.20L273.76-9.72Q273.76-10.84 272.92-11.24L272.92-11.24Q272.60-11.36 272.24-11.40L272.24-11.40L265.28-11.40L265.28-1.24L271.56-1.24Q273.40-1.24 274.66-1.88Q275.92-2.52 276.58-3.40Q277.24-4.28 277.92-5.72L277.92-5.72L278.32-5.72L276.12 0L259.88 0L259.88-0.40Z M307.52-0.40L307.52-0.40L307.84-0.40L307.84 0L299.64 0L299.64-0.40L299.96-0.40Q300.72-0.40 301.12-0.92Q301.52-1.44 301.52-1.90Q301.52-2.36 301.36-2.80L301.36-2.80L299.16-8.12L289.04-8.12L286.84-2.92Q286.64-2.40 286.64-1.94Q286.64-1.48 287.04-0.94Q287.44-0.40 288.24-0.40L288.24-0.40L288.56-0.40L288.56 0L280.92 0L280.92-0.40L281.24-0.40Q282.08-0.40 282.94-0.98Q283.80-1.56 284.36-2.72L284.36-2.72Q293.12-21.44 293.48-22.32L293.48-22.32Q294.16-24 294.20-24.56L294.20-24.56L294.56-24.56L304.44-2.72Q305.60-0.40 307.52-0.40ZM294.20-20.28L289.56-9.32L298.68-9.32L294.20-20.28Z M318.92-22.76L318.92-22.76L316.80-22.76L316.80-2.56Q316.84-1.32 317.92-0.68L317.92-0.68Q318.44-0.40 319.08-0.40L319.08-0.40L319.60-0.40L319.64 0L311.44 0L311.44-0.40L312-0.40Q312.92-0.40 313.58-1.02Q314.24-1.64 314.24-2.52L314.24-2.52L314.24-21.52Q314.24-22.40 313.58-23Q312.92-23.60 312-23.60L312-23.60L311.44-23.60L311.44-24L321.48-24Q325.24-24 327.42-22.28Q329.60-20.56 329.60-17.76Q329.60-14.96 327.84-13.08Q326.08-11.20 323.36-10.92L323.36-10.92Q324.64-10.36 326.44-7.80L326.44-7.80Q326.40-7.80 327.82-6.04Q329.24-4.28 330.10-3.30Q330.96-2.32 331.52-1.80L331.52-1.80Q333-0.40 334.92-0.40L334.92-0.40L334.92 0L333.68 0Q330.52 0 328.72-1.24L328.72-1.24Q327.36-2.16 326.24-3.52L326.24-3.52Q326-3.84 324.22-6.34Q322.44-8.84 322.32-9L322.32-9Q320.16-11.68 318.28-11.68L318.28-11.68L318.28-12.08Q322.96-12.08 323.92-12.56L323.92-12.56Q325.24-13.24 325.72-14L325.72-14Q326.72-15.60 326.72-17.52L326.72-17.52Q326.72-19.96 325.28-21.28Q323.84-22.60 321.40-22.72L321.40-22.72Q320.32-22.76 318.92-22.76Z M349.72 0.56Q343.60 0.52 340.06-2.84Q336.52-6.20 336.52-12.02Q336.52-17.84 340.06-21.20Q343.60-24.56 349.72-24.56L349.72-24.56Q352.20-24.56 354.72-23.92Q357.24-23.28 359.08-22.16L359.08-22.16L359.96-16.48L359.60-16.48Q357.88-23.36 349.68-23.36L349.68-23.36Q344.92-23.36 342.16-20.32Q339.40-17.28 339.40-12L339.40-12Q339.40-8.56 340.64-6.02Q341.88-3.48 344.24-2.08L344.24-2.08Q346.60-0.68 349.72-0.68Q352.84-0.68 355.18-1.62Q357.52-2.56 359.06-4.72Q360.60-6.88 360.80-10.08L360.80-10.08L361.16-10.08L360.72-4.60Q359.16-2.20 356.20-0.82Q353.24 0.56 349.72 0.56L349.72 0.56Z M383.84-0.40L384.32-0.40Q385.24-0.40 385.92-1.02Q386.60-1.64 386.64-2.52L386.64-2.52L386.64-11.24L371.88-11.24L371.88-2.52Q371.92-1.64 372.60-1.02Q373.28-0.40 374.20-0.40L374.20-0.40L374.68-0.40L374.68 0L366.52 0L366.52-0.40L367.00-0.40Q367.96-0.40 368.62-1.04Q369.28-1.68 369.32-2.56L369.32-2.56L369.32-21.44Q369.28-22.32 368.60-22.96Q367.92-23.60 367.00-23.60L367.00-23.60L366.52-23.60L366.52-24L374.68-24L374.68-23.60L374.20-23.60Q373.28-23.60 372.60-22.98Q371.92-22.36 371.88-21.48L371.88-21.48L371.88-12.44L386.64-12.44L386.64-21.44Q386.64-22.32 386.12-22.80L386.12-22.80Q385.28-23.60 384.32-23.60L384.32-23.60L383.84-23.60L383.84-24L392.00-24L392.00-23.60L391.52-23.60Q390.60-23.60 389.92-23Q389.24-22.40 389.20-21.52L389.20-21.52L389.20-2.52Q389.24-1.64 389.72-1.20L389.72-1.20Q390.60-0.40 391.52-0.40L391.52-0.40L392.00-0.40L392.00 0L383.84 0L383.84-0.40Z M433.04-15L432.44-15Q431.60-15 431.26-14.58Q430.92-14.16 430.92-13.78Q430.92-13.40 431.10-12.52Q431.28-11.64 431.28-10.20L431.28-10.20Q431.28-7.04 429.80-4.44L429.80-4.44Q431.24-3.20 432.08-2.54Q432.92-1.88 434.28-1.18Q435.64-0.48 436.80-0.40L436.80-0.40L436.80 0Q436.76 0 436.14 0Q435.52 0 435.26 0Q435.00 0 434.30-0.04Q433.60-0.08 433.16-0.18Q432.72-0.28 432.00-0.44Q431.28-0.60 430.72-0.88L430.72-0.88Q429.28-1.52 428.20-2.36L428.20-2.36Q425.36 0.40 420.80 0.40L420.80 0.40Q414.96 0.40 411.76-2.04Q408.56-4.48 408.56-8.96L408.56-8.96Q408.56-13.92 413.40-16.36L413.40-16.36Q411.88-18.80 411.88-21.72L411.88-21.72Q411.88-24.68 414.04-26.60L414.04-26.60Q416.28-28.56 419.92-28.56L419.92-28.56Q421.96-28.56 423.80-27.78Q425.64-27 426.72-25.72L426.72-25.72L426.00-21.20L425.60-21.20Q425.60-24.08 424.04-25.72L424.04-25.72Q422.48-27.36 420.06-27.36Q417.64-27.36 416.14-25.76Q414.64-24.16 414.64-21.76Q414.64-19.36 416.12-17.24Q417.60-15.12 421.92-11.28Q426.24-7.44 428.24-5.76L428.24-5.76Q429.08-7.60 429.08-9.56Q429.08-11.52 428.22-13.26Q427.36-15 425.68-15L425.68-15L425.08-15L425.08-15.40L433.04-15.40L433.04-15ZM426.84-3.52L426.84-3.52Q416.60-11.96 414.04-15.40L414.04-15.40Q411.48-13 411.48-9.14Q411.48-5.28 413.94-3.04Q416.40-0.80 420.80-0.80L420.80-0.80Q424.48-0.80 426.84-3.52Z M463.08 0.56Q456.76 0.52 452.78-3.48Q448.80-7.48 448.80-14.02Q448.80-20.56 452.78-24.56Q456.76-28.56 463.32-28.56L463.32-28.56Q468.68-28.56 472.80-25.84L472.80-25.84L473.60-20.20L473.24-20.20Q472.36-23.64 469.68-25.50Q467.00-27.36 463.32-27.36L463.32-27.36Q458.08-27.36 454.94-23.72Q451.80-20.08 451.80-14.08Q451.80-8.08 454.90-4.42Q458.00-0.76 463.08-0.64L463.08-0.64Q467.56-0.64 470.56-3.08L470.56-3.08Q473.80-5.72 474.48-11.68L474.48-11.68L474.80-11.68L474.32-5.40Q470.68 0.56 463.08 0.56L463.08 0.56Z M487.12-22.98Q490.20-24.56 493.90-24.56Q497.60-24.56 500.68-22.98Q503.76-21.40 505.58-18.52Q507.40-15.64 507.40-12Q507.40-8.36 505.58-5.48Q503.76-2.60 500.68-1.02Q497.60 0.56 494.36 0.56Q491.12 0.56 488.64-0.36Q486.16-1.28 484.34-2.92Q482.52-4.56 481.46-6.92Q480.40-9.28 480.40-12.46Q480.40-15.64 482.22-18.52Q484.04-21.40 487.12-22.98ZM486.38-3.82Q489.40-0.64 493.88-0.64Q498.36-0.64 501.40-3.82Q504.44-7 504.44-12Q504.44-17 501.40-20.18Q498.36-23.36 493.88-23.36Q489.40-23.36 486.38-20.18Q483.36-17 483.36-12Q483.36-7 486.38-3.82Z M540.52-23.60L539.84-23.60Q538.96-23.60 538.32-23.02Q537.68-22.44 537.64-21.60L537.64-21.60L537.64-4.56Q537.64-2.24 537.92-0.16L537.92-0.16L538.00 0.56L537.64 0.56L516.84-19.16L516.84-2.48Q516.84-1.60 517.48-1Q518.12-0.40 519.04-0.40L519.04-0.40L519.72-0.40L519.72 0L512.16 0L512.16-0.40L512.84-0.40Q513.76-0.40 514.40-1Q515.04-1.60 515.04-2.48L515.04-2.48L515.04-19.60Q515.04-22.04 514.76-23.96L514.76-23.96L514.68-24.60L515.12-24.56L535.88-5L535.88-21.60Q535.80-22.44 535.16-23.02Q534.52-23.60 533.64-23.60L533.64-23.60L532.96-23.60L532.96-24L540.52-24L540.52-23.60Z M545.84-1.32L545.84-1.32Q545.72-1.80 545.72-3.28Q545.72-4.76 546.24-6.28L546.24-6.28L546.72-6.28Q546.68-5.92 546.68-5.56L546.68-5.56Q546.68-3.40 548.10-2.02Q549.52-0.64 552.04-0.64L552.04-0.64Q554.68-0.64 556.16-1.86Q557.64-3.08 557.64-5.02Q557.64-6.96 556.20-8.24L556.20-8.24L548.20-14.40Q546.28-16.04 546.28-18.80L546.28-18.80Q546.28-20.36 547.14-21.68Q548.00-23 549.54-23.78Q551.08-24.56 553.16-24.56Q555.24-24.56 556.84-24.20L556.84-24.20L558.16-24.20L558.24-19.84L557.80-19.84Q557.80-21.52 556.64-22.44Q555.48-23.36 553.32-23.36Q551.16-23.36 549.76-22.26Q548.36-21.16 548.36-19.42Q548.36-17.68 549.92-16.40L549.92-16.40L558.00-10.16Q559.84-8.64 559.84-5.92Q559.84-3.20 557.78-1.32Q555.72 0.56 552.76 0.56L552.76 0.56Q550.80 0.56 548.84 0.08Q546.88-0.40 545.84-1.32Z M590.20-24L590.20-23.60L589.60-23.60Q588.52-23.60 587.96-22.76L587.96-22.76Q587.72-22.40 587.68-21.92L587.68-21.92L587.68-8.44Q587.68-4.28 585.02-1.86Q582.36 0.56 577.72 0.56Q573.08 0.56 570.40-1.84Q567.72-4.24 567.72-8.40L567.72-8.40L567.72-21.88Q567.72-22.60 567.16-23.10Q566.60-23.60 565.80-23.60L565.80-23.60L565.20-23.60L565.20-24L572.80-24L572.80-23.60L572.20-23.60Q571.40-23.60 570.84-23.10Q570.28-22.60 570.28-21.88L570.28-21.88L570.28-8.88Q570.28-5 572.26-2.76Q574.24-0.52 577.86-0.52Q581.48-0.52 583.66-2.64Q585.84-4.76 585.84-8.44L585.84-8.44L585.84-21.88Q585.80-22.64 585.26-23.12Q584.72-23.60 583.92-23.60L583.92-23.60L583.32-23.60L583.32-24L590.20-24Z M595.40-0.40L595.96-0.40Q596.92-0.40 597.58-1.02Q598.24-1.64 598.28-2.52L598.28-2.52L598.28-21.44Q598.24-22.32 597.54-22.96Q596.84-23.60 595.88-23.60L595.88-23.60L595.40-23.60L595.40-24L603.68-24L603.68-23.60L603.20-23.60Q602.24-23.60 601.54-22.96Q600.84-22.32 600.84-21.44L600.84-21.44L600.84-1.24L607.08-1.24Q608.92-1.24 610.20-1.88Q611.48-2.52 612.14-3.40Q612.80-4.28 613.44-5.72L613.44-5.72L613.84-5.72L611.64 0L595.40 0L595.40-0.40Z M632.00-22.84L624.76-22.84L624.76-2.52Q624.80-1.28 625.96-0.68L625.96-0.68Q626.48-0.40 627.12-0.40L627.12-0.40L627.56-0.40L627.56 0L619.32 0L619.32-0.40L619.80-0.40Q620.76-0.40 621.44-1.04Q622.12-1.68 622.16-2.56L622.16-2.56L622.16-22.84L614.92-22.84Q614.00-22.84 613.46-22.24Q612.92-21.64 612.92-20.80L612.92-20.80L612.92-20.16L612.48-20.16L612.48-24.68Q613.28-24.36 614.74-24.20Q616.20-24.04 616.92-24.04L616.92-24.04L629.96-24.04Q632.84-24.04 634.44-24.68L634.44-24.68L634.44-20.16L634.00-20.16L634.00-20.80Q634.00-21.64 633.44-22.24Q632.88-22.84 632.00-22.84L632.00-22.84Z M638.80-0.40L639.36-0.40Q640.44-0.40 641.24-1.04Q642.04-1.68 642.04-2.56L642.04-2.56L642.04-21.44Q642.04-22.32 641.24-22.96Q640.44-23.60 639.32-23.60L639.32-23.60L638.80-23.60L638.80-24L647.84-24L647.84-23.60L647.32-23.60Q646.24-23.60 645.46-23Q644.68-22.40 644.60-21.52L644.60-21.52L644.60-2.52Q644.64-1.64 645.44-1.02Q646.24-0.40 647.32-0.40L647.32-0.40L647.84-0.40L647.88 0L638.80 0L638.80-0.40Z M681.40-23.60L680.72-23.60Q679.84-23.60 679.20-23.02Q678.56-22.44 678.52-21.60L678.52-21.60L678.52-4.56Q678.52-2.24 678.80-0.16L678.80-0.16L678.88 0.56L678.52 0.56L657.72-19.16L657.72-2.48Q657.72-1.60 658.36-1Q659.00-0.40 659.92-0.40L659.92-0.40L660.60-0.40L660.60 0L653.04 0L653.04-0.40L653.72-0.40Q654.64-0.40 655.28-1Q655.92-1.60 655.92-2.48L655.92-2.48L655.92-19.60Q655.92-22.04 655.64-23.96L655.64-23.96L655.56-24.60L656.00-24.56L676.76-5L676.76-21.60Q676.68-22.44 676.04-23.02Q675.40-23.60 674.52-23.60L674.52-23.60L673.84-23.60L673.84-24L681.40-24L681.40-23.60Z M699.32 0.56Q693.36 0.52 689.78-2.86Q686.20-6.24 686.20-12.02Q686.20-17.80 689.78-21.18Q693.36-24.56 699.02-24.56Q704.68-24.56 708.64-22.16L708.64-22.16L709.52-16.48L709.16-16.48Q708.32-20 705.90-21.68Q703.48-23.36 699.06-23.36Q694.64-23.36 691.86-20.30Q689.08-17.24 689.08-12Q689.08-6.76 691.88-3.70Q694.68-0.64 699.62-0.64Q704.56-0.64 708.12-4.12L708.12-4.12L708.16-9.44Q708.20-10.16 707.70-10.58Q707.20-11 706.32-11L706.32-11L705.76-11L705.76-11.40L713.08-11.40L713.08-11L712.52-11Q710.72-11 710.72-9.40L710.72-9.40L710.72-4.60Q709.04-2.52 706.10-0.98Q703.16 0.56 699.32 0.56L699.32 0.56Z M16.76 48.56Q10.36 48.52 6.38 44.52Q2.40 40.52 2.40 34Q2.40 27.48 6.38 23.46Q10.36 19.44 16.76 19.44L16.76 19.44Q22.28 19.44 26.48 22.16L26.48 22.16L27.28 27.80L26.92 27.80Q26.04 24.36 23.38 22.50Q20.72 20.64 16.76 20.64L16.76 20.64Q11.68 20.64 8.54 24.32Q5.40 28 5.40 34Q5.40 40 8.54 43.66Q11.68 47.32 16.76 47.36L16.76 47.36Q19.36 47.36 21.70 46.44Q24.04 45.52 25.80 43.88L25.80 43.88L25.80 36.80Q25.80 35.92 25.26 35.46Q24.72 35 23.76 35L23.76 35L23.12 35L23.12 34.60L30.96 34.60L30.96 35L30.36 35Q29.36 35 28.84 35.46Q28.32 35.92 28.36 36.80L28.36 36.80L28.36 43.40Q27.32 44.76 25.88 45.84Q24.44 46.92 22.02 47.74Q19.60 48.56 16.76 48.56L16.76 48.56Z M60.12 24L60.12 24.40L59.52 24.40Q58.44 24.40 57.88 25.24L57.88 25.24Q57.64 25.60 57.60 26.08L57.60 26.08L57.60 39.56Q57.60 43.72 54.94 46.14Q52.28 48.56 47.64 48.56Q43 48.56 40.32 46.16Q37.64 43.76 37.64 39.60L37.64 39.60L37.64 26.12Q37.64 25.40 37.08 24.90Q36.52 24.40 35.72 24.40L35.72 24.40L35.12 24.40L35.12 24L42.72 24L42.72 24.40L42.12 24.40Q41.32 24.40 40.76 24.90Q40.20 25.40 40.20 26.12L40.20 26.12L40.20 39.12Q40.20 43 42.18 45.24Q44.16 47.48 47.78 47.48Q51.40 47.48 53.58 45.36Q55.76 43.24 55.76 39.56L55.76 39.56L55.76 26.12Q55.72 25.36 55.18 24.88Q54.64 24.40 53.84 24.40L53.84 24.40L53.24 24.40L53.24 24L60.12 24Z M65.32 47.60L65.88 47.60Q66.96 47.60 67.76 46.96Q68.56 46.32 68.56 45.44L68.56 45.44L68.56 26.56Q68.56 25.68 67.76 25.04Q66.96 24.40 65.84 24.40L65.84 24.40L65.32 24.40L65.32 24L74.36 24L74.36 24.40L73.84 24.40Q72.76 24.40 71.98 25Q71.20 25.60 71.12 26.48L71.12 26.48L71.12 45.48Q71.16 46.36 71.96 46.98Q72.76 47.60 73.84 47.60L73.84 47.60L74.36 47.60L74.40 48L65.32 48L65.32 47.60Z M106.56 36L106.56 36Q106.56 41.56 103.10 44.78Q99.64 48 93.72 48L93.72 48L80.36 48L80.36 47.60L80.88 47.60Q81.84 47.60 82.48 46.96Q83.12 46.32 83.16 45.44L83.16 45.44L83.16 26.56Q83.12 25.60 82.46 25Q81.80 24.40 80.84 24.40L80.84 24.40L80.36 24.40L80.36 24L93.72 24Q97.64 24 100.54 25.44Q103.44 26.88 105 29.60Q106.56 32.32 106.56 36ZM93.72 25.20L85.76 25.20L85.76 46.80L93.72 46.80Q98.32 46.80 101 43.90Q103.68 41 103.68 36L103.68 36Q103.68 31 101 28.10Q98.32 25.20 93.72 25.20L93.72 25.20Z M111.76 47.60L112.32 47.60Q113.40 47.60 114.20 46.96Q115 46.32 115 45.44L115 45.44L115 26.56Q115 25.68 114.20 25.04Q113.40 24.40 112.28 24.40L112.28 24.40L111.76 24.40L111.76 24L120.80 24L120.80 24.40L120.28 24.40Q119.20 24.40 118.42 25Q117.64 25.60 117.56 26.48L117.56 26.48L117.56 45.48Q117.60 46.36 118.40 46.98Q119.20 47.60 120.28 47.60L120.28 47.60L120.80 47.60L120.84 48L111.76 48L111.76 47.60Z M154.36 24.40L153.68 24.40Q152.80 24.40 152.16 24.98Q151.52 25.56 151.48 26.40L151.48 26.40L151.48 43.44Q151.48 45.76 151.76 47.84L151.76 47.84L151.84 48.56L151.48 48.56L130.68 28.84L130.68 45.52Q130.68 46.40 131.32 47Q131.96 47.60 132.88 47.60L132.88 47.60L133.56 47.60L133.56 48L126 48L126 47.60L126.68 47.60Q127.60 47.60 128.24 47Q128.88 46.40 128.88 45.52L128.88 45.52L128.88 28.40Q128.88 25.96 128.60 24.04L128.60 24.04L128.52 23.40L128.96 23.44L149.72 43L149.72 26.40Q149.64 25.56 149 24.98Q148.36 24.40 147.48 24.40L147.48 24.40L146.80 24.40L146.80 24L154.36 24L154.36 24.40Z M172.28 48.56Q166.32 48.52 162.74 45.14Q159.16 41.76 159.16 35.98Q159.16 30.20 162.74 26.82Q166.32 23.44 171.98 23.44Q177.64 23.44 181.60 25.84L181.60 25.84L182.48 31.52L182.12 31.52Q181.28 28 178.86 26.32Q176.44 24.64 172.02 24.64Q167.60 24.64 164.82 27.70Q162.04 30.76 162.04 36Q162.04 41.24 164.84 44.30Q167.64 47.36 172.58 47.36Q177.52 47.36 181.08 43.88L181.08 43.88L181.12 38.56Q181.16 37.84 180.66 37.42Q180.16 37 179.28 37L179.28 37L178.72 37L178.72 36.60L186.04 36.60L186.04 37L185.48 37Q183.68 37 183.68 38.60L183.68 38.60L183.68 43.40Q182 45.48 179.06 47.02Q176.12 48.56 172.28 48.56L172.28 48.56Z M225.84 24L225.84 24.40L225.36 24.40Q224.28 24.40 223.30 24.98Q222.32 25.56 221.68 26.44L221.68 26.44L214 38.08L214 45.44Q214 46.32 214.68 46.96Q215.36 47.60 216.32 47.60L216.32 47.60L216.80 47.60L216.80 48L208.60 48L208.60 47.60L209.08 47.60Q210.04 47.60 210.72 46.96Q211.40 46.32 211.40 45.44L211.40 45.44L211.40 38.04L204 26.40Q202.64 24.40 200.32 24.40L200.32 24.40L199.84 24.40L199.84 24L209.12 24L209.12 24.40L208.64 24.40Q207.88 24.40 207.54 24.88Q207.20 25.36 207.20 25.70Q207.20 26.04 207.28 26.32L207.28 26.32L213.12 36.68L219.32 26.36Q219.44 26.04 219.44 25.70Q219.44 25.36 219.10 24.88Q218.76 24.40 217.96 24.40L217.96 24.40L217.48 24.40L217.48 24L225.84 24Z M234.56 25.02Q237.64 23.44 241.34 23.44Q245.04 23.44 248.12 25.02Q251.20 26.60 253.02 29.48Q254.84 32.36 254.84 36Q254.84 39.64 253.02 42.52Q251.20 45.40 248.12 46.98Q245.04 48.56 241.80 48.56Q238.56 48.56 236.08 47.64Q233.60 46.72 231.78 45.08Q229.96 43.44 228.90 41.08Q227.84 38.72 227.84 35.54Q227.84 32.36 229.66 29.48Q231.48 26.60 234.56 25.02ZM233.82 44.18Q236.84 47.36 241.32 47.36Q245.80 47.36 248.84 44.18Q251.88 41 251.88 36Q251.88 31 248.84 27.82Q245.80 24.64 241.32 24.64Q236.84 24.64 233.82 27.82Q230.80 31 230.80 36Q230.80 41 233.82 44.18Z M284.60 24L284.60 24.40L284 24.40Q282.92 24.40 282.36 25.24L282.36 25.24Q282.12 25.60 282.08 26.08L282.08 26.08L282.08 39.56Q282.08 43.72 279.42 46.14Q276.76 48.56 272.12 48.56Q267.48 48.56 264.80 46.16Q262.12 43.76 262.12 39.60L262.12 39.60L262.12 26.12Q262.12 25.40 261.56 24.90Q261 24.40 260.20 24.40L260.20 24.40L259.60 24.40L259.60 24L267.20 24L267.20 24.40L266.60 24.40Q265.80 24.40 265.24 24.90Q264.68 25.40 264.68 26.12L264.68 26.12L264.68 39.12Q264.68 43 266.66 45.24Q268.64 47.48 272.26 47.48Q275.88 47.48 278.06 45.36Q280.24 43.24 280.24 39.56L280.24 39.56L280.24 26.12Q280.20 25.36 279.66 24.88Q279.12 24.40 278.32 24.40L278.32 24.40L277.72 24.40L277.72 24L284.60 24Z M319.32 25.16L312.08 25.16L312.08 45.48Q312.12 46.72 313.28 47.32L313.28 47.32Q313.80 47.60 314.44 47.60L314.44 47.60L314.88 47.60L314.88 48L306.64 48L306.64 47.60L307.12 47.60Q308.08 47.60 308.76 46.96Q309.44 46.32 309.48 45.44L309.48 45.44L309.48 25.16L302.24 25.16Q301.32 25.16 300.78 25.76Q300.24 26.36 300.24 27.20L300.24 27.20L300.24 27.84L299.80 27.84L299.80 23.32Q300.60 23.64 302.06 23.80Q303.52 23.96 304.24 23.96L304.24 23.96L317.28 23.96Q320.16 23.96 321.76 23.32L321.76 23.32L321.76 27.84L321.32 27.84L321.32 27.20Q321.32 26.36 320.76 25.76Q320.20 25.16 319.32 25.16L319.32 25.16Z M331.44 25.02Q334.52 23.44 338.22 23.44Q341.92 23.44 345.00 25.02Q348.08 26.60 349.90 29.48Q351.72 32.36 351.72 36Q351.72 39.64 349.90 42.52Q348.08 45.40 345.00 46.98Q341.92 48.56 338.68 48.56Q335.44 48.56 332.96 47.64Q330.48 46.72 328.66 45.08Q326.84 43.44 325.78 41.08Q324.72 38.72 324.72 35.54Q324.72 32.36 326.54 29.48Q328.36 26.60 331.44 25.02ZM330.70 44.18Q333.72 47.36 338.20 47.36Q342.68 47.36 345.72 44.18Q348.76 41 348.76 36Q348.76 31 345.72 27.82Q342.68 24.64 338.20 24.64Q333.72 24.64 330.70 27.82Q327.68 31 327.68 36Q327.68 41 330.70 44.18Z M392.68 24L392.68 24.40L392.20 24.40Q391.12 24.40 390.14 24.98Q389.16 25.56 388.52 26.44L388.52 26.44L380.84 38.08L380.84 45.44Q380.84 46.32 381.52 46.96Q382.20 47.60 383.16 47.60L383.16 47.60L383.64 47.60L383.64 48L375.44 48L375.44 47.60L375.92 47.60Q376.88 47.60 377.56 46.96Q378.24 46.32 378.24 45.44L378.24 45.44L378.24 38.04L370.84 26.40Q369.48 24.40 367.16 24.40L367.16 24.40L366.68 24.40L366.68 24L375.96 24L375.96 24.40L375.48 24.40Q374.72 24.40 374.38 24.88Q374.04 25.36 374.04 25.70Q374.04 26.04 374.12 26.32L374.12 26.32L379.96 36.68L386.16 26.36Q386.28 26.04 386.28 25.70Q386.28 25.36 385.94 24.88Q385.60 24.40 384.80 24.40L384.80 24.40L384.32 24.40L384.32 24L392.68 24Z M401.40 25.02Q404.48 23.44 408.18 23.44Q411.88 23.44 414.96 25.02Q418.04 26.60 419.86 29.48Q421.68 32.36 421.68 36Q421.68 39.64 419.86 42.52Q418.04 45.40 414.96 46.98Q411.88 48.56 408.64 48.56Q405.40 48.56 402.92 47.64Q400.44 46.72 398.62 45.08Q396.80 43.44 395.74 41.08Q394.68 38.72 394.68 35.54Q394.68 32.36 396.50 29.48Q398.32 26.60 401.40 25.02ZM400.66 44.18Q403.68 47.36 408.16 47.36Q412.64 47.36 415.68 44.18Q418.72 41 418.72 36Q418.72 31 415.68 27.82Q412.64 24.64 408.16 24.64Q403.68 24.64 400.66 27.82Q397.64 31 397.64 36Q397.64 41 400.66 44.18Z M451.44 24L451.44 24.40L450.84 24.40Q449.76 24.40 449.20 25.24L449.20 25.24Q448.96 25.60 448.92 26.08L448.92 26.08L448.92 39.56Q448.92 43.72 446.26 46.14Q443.60 48.56 438.96 48.56Q434.32 48.56 431.64 46.16Q428.96 43.76 428.96 39.60L428.96 39.60L428.96 26.12Q428.96 25.40 428.40 24.90Q427.84 24.40 427.04 24.40L427.04 24.40L426.44 24.40L426.44 24L434.04 24L434.04 24.40L433.44 24.40Q432.64 24.40 432.08 24.90Q431.52 25.40 431.52 26.12L431.52 26.12L431.52 39.12Q431.52 43 433.50 45.24Q435.48 47.48 439.10 47.48Q442.72 47.48 444.90 45.36Q447.08 43.24 447.08 39.56L447.08 39.56L447.08 26.12Q447.04 25.36 446.50 24.88Q445.96 24.40 445.16 24.40L445.16 24.40L444.56 24.40L444.56 24L451.44 24Z M464.12 25.24L464.12 25.24L462.00 25.24L462.00 45.44Q462.04 46.68 463.12 47.32L463.12 47.32Q463.64 47.60 464.28 47.60L464.28 47.60L464.80 47.60L464.84 48L456.64 48L456.64 47.60L457.20 47.60Q458.12 47.60 458.78 46.98Q459.44 46.36 459.44 45.48L459.44 45.48L459.44 26.48Q459.44 25.60 458.78 25Q458.12 24.40 457.20 24.40L457.20 24.40L456.64 24.40L456.64 24L466.68 24Q470.44 24 472.62 25.72Q474.80 27.44 474.80 30.24Q474.80 33.04 473.04 34.92Q471.28 36.80 468.56 37.08L468.56 37.08Q469.84 37.64 471.64 40.20L471.64 40.20Q471.60 40.20 473.02 41.96Q474.44 43.72 475.30 44.70Q476.16 45.68 476.72 46.20L476.72 46.20Q478.20 47.60 480.12 47.60L480.12 47.60L480.12 48L478.88 48Q475.72 48 473.92 46.76L473.92 46.76Q472.56 45.84 471.44 44.48L471.44 44.48Q471.20 44.16 469.42 41.66Q467.64 39.16 467.52 39L467.52 39Q465.36 36.32 463.48 36.32L463.48 36.32L463.48 35.92Q468.16 35.92 469.12 35.44L469.12 35.44Q470.44 34.76 470.92 34L470.92 34Q471.92 32.40 471.92 30.48L471.92 30.48Q471.92 28.04 470.48 26.72Q469.04 25.40 466.60 25.28L466.60 25.28Q465.52 25.24 464.12 25.24Z M522.48 24.40L521.80 24.40Q520.92 24.40 520.28 24.98Q519.64 25.56 519.60 26.40L519.60 26.40L519.60 43.44Q519.60 45.76 519.88 47.84L519.88 47.84L519.96 48.56L519.60 48.56L498.80 28.84L498.80 45.52Q498.80 46.40 499.44 47Q500.08 47.60 501.00 47.60L501.00 47.60L501.68 47.60L501.68 48L494.12 48L494.12 47.60L494.80 47.60Q495.72 47.60 496.36 47Q497.00 46.40 497.00 45.52L497.00 45.52L497.00 28.40Q497.00 25.96 496.72 24.04L496.72 24.04L496.64 23.40L497.08 23.44L517.84 43L517.84 26.40Q517.76 25.56 517.12 24.98Q516.48 24.40 515.60 24.40L515.60 24.40L514.92 24.40L514.92 24L522.48 24L522.48 24.40Z M527.68 47.60L528.24 47.60Q529.20 47.60 529.86 46.98Q530.52 46.36 530.56 45.48L530.56 45.48L530.56 26.48Q530.56 25.60 529.88 25Q529.20 24.40 528.24 24.40L528.24 24.40L527.68 24.40L527.68 24L539.36 24Q541.00 24 542.24 23.76Q543.48 23.52 543.84 23.36L543.84 23.36L543.84 27.92L543.40 27.88L543.40 27.28Q543.40 26.44 542.84 25.84Q542.28 25.24 541.40 25.24L541.40 25.24L533.08 25.24L533.08 35.40L539.92 35.40Q540.72 35.40 541.14 34.92Q541.56 34.44 541.56 33.72L541.56 33.72L541.56 33.20L542.00 33.20L542.00 38.80L541.56 38.80L541.56 38.28Q541.56 37.16 540.72 36.76L540.72 36.76Q540.40 36.64 540.04 36.60L540.04 36.60L533.08 36.60L533.08 46.76L539.36 46.76Q541.20 46.76 542.46 46.12Q543.72 45.48 544.38 44.60Q545.04 43.72 545.72 42.28L545.72 42.28L546.12 42.28L543.92 48L527.68 48L527.68 47.60Z M574.40 47.60L574.40 48L564.92 48L564.92 47.60L565.40 47.60Q566.20 47.60 566.58 47.06Q566.96 46.52 566.96 46.18Q566.96 45.84 566.76 45.48L566.76 45.48L561.24 37.56L555.40 45.44Q555.12 45.80 555.12 46.16Q555.12 46.52 555.50 47.06Q555.88 47.60 556.72 47.60L556.72 47.60L557.20 47.60L557.20 48L548.48 48L548.48 47.60L549.00 47.60Q551.16 47.60 552.80 45.64L552.80 45.64L560.24 36.12L553.48 26.40Q552.88 25.56 551.82 24.98Q550.76 24.40 549.64 24.40L549.64 24.40L549.12 24.40L549.12 24L558.52 24L558.52 24.40L558.04 24.40Q557.24 24.40 556.86 24.94Q556.48 25.48 556.48 25.82Q556.48 26.16 556.72 26.52L556.72 26.52L561.80 33.80L566.64 26.52Q566.88 26.20 566.88 25.84Q566.88 25.48 566.50 24.94Q566.12 24.40 565.32 24.40L565.32 24.40L564.84 24.40L564.84 24L573.72 24L573.72 24.40L573.16 24.40Q572.04 24.40 571.02 24.98Q570.00 25.56 569.32 26.44L569.32 26.44L562.88 35.40L570.04 45.64Q570.92 46.80 572.02 47.20Q573.12 47.60 573.88 47.60L573.88 47.60L574.40 47.60Z M595.68 25.16L588.44 25.16L588.44 45.48Q588.48 46.72 589.64 47.32L589.64 47.32Q590.16 47.60 590.80 47.60L590.80 47.60L591.24 47.60L591.24 48L583.00 48L583.00 47.60L583.48 47.60Q584.44 47.60 585.12 46.96Q585.80 46.32 585.84 45.44L585.84 45.44L585.84 25.16L578.60 25.16Q577.68 25.16 577.14 25.76Q576.60 26.36 576.60 27.20L576.60 27.20L576.60 27.84L576.16 27.84L576.16 23.32Q576.96 23.64 578.42 23.80Q579.88 23.96 580.60 23.96L580.60 23.96L593.64 23.96Q596.52 23.96 598.12 23.32L598.12 23.32L598.12 27.84L597.68 27.84L597.68 27.20Q597.68 26.36 597.12 25.76Q596.56 25.16 595.68 25.16L595.68 25.16Z M631.40 47.60L631.88 47.60Q632.80 47.60 633.48 46.98Q634.16 46.36 634.20 45.48L634.20 45.48L634.20 36.76L619.44 36.76L619.44 45.48Q619.48 46.36 620.16 46.98Q620.84 47.60 621.76 47.60L621.76 47.60L622.24 47.60L622.24 48L614.08 48L614.08 47.60L614.56 47.60Q615.52 47.60 616.18 46.96Q616.84 46.32 616.88 45.44L616.88 45.44L616.88 26.56Q616.84 25.68 616.16 25.04Q615.48 24.40 614.56 24.40L614.56 24.40L614.08 24.40L614.08 24L622.24 24L622.24 24.40L621.76 24.40Q620.84 24.40 620.16 25.02Q619.48 25.64 619.44 26.52L619.44 26.52L619.44 35.56L634.20 35.56L634.20 26.56Q634.20 25.68 633.68 25.20L633.68 25.20Q632.84 24.40 631.88 24.40L631.88 24.40L631.40 24.40L631.40 24L639.56 24L639.56 24.40L639.08 24.40Q638.16 24.40 637.48 25Q636.80 25.60 636.76 26.48L636.76 26.48L636.76 45.48Q636.80 46.36 637.28 46.80L637.28 46.80Q638.16 47.60 639.08 47.60L639.08 47.60L639.56 47.60L639.56 48L631.40 48L631.40 47.60Z M645.52 47.60L646.08 47.60Q647.16 47.60 647.96 46.96Q648.76 46.32 648.76 45.44L648.76 45.44L648.76 26.56Q648.76 25.68 647.96 25.04Q647.16 24.40 646.04 24.40L646.04 24.40L645.52 24.40L645.52 24L654.56 24L654.56 24.40L654.04 24.40Q652.96 24.40 652.18 25Q651.40 25.60 651.32 26.48L651.32 26.48L651.32 45.48Q651.36 46.36 652.16 46.98Q652.96 47.60 654.04 47.60L654.04 47.60L654.56 47.60L654.60 48L645.52 48L645.52 47.60Z M668.04 25.24L668.04 25.24L665.92 25.24L665.92 45.44Q665.96 46.68 667.04 47.32L667.04 47.32Q667.56 47.60 668.20 47.60L668.20 47.60L668.72 47.60L668.76 48L660.56 48L660.56 47.60L661.12 47.60Q662.04 47.60 662.70 46.98Q663.36 46.36 663.36 45.48L663.36 45.48L663.36 26.48Q663.36 25.60 662.70 25Q662.04 24.40 661.12 24.40L661.12 24.40L660.56 24.40L660.56 24L670.60 24Q674.36 24 676.54 25.72Q678.72 27.44 678.72 30.24Q678.72 33.04 676.96 34.92Q675.20 36.80 672.48 37.08L672.48 37.08Q673.76 37.64 675.56 40.20L675.56 40.20Q675.52 40.20 676.94 41.96Q678.36 43.72 679.22 44.70Q680.08 45.68 680.64 46.20L680.64 46.20Q682.12 47.60 684.04 47.60L684.04 47.60L684.04 48L682.80 48Q679.64 48 677.84 46.76L677.84 46.76Q676.48 45.84 675.36 44.48L675.36 44.48Q675.12 44.16 673.34 41.66Q671.56 39.16 671.44 39L671.44 39Q669.28 36.32 667.40 36.32L667.40 36.32L667.40 35.92Q672.08 35.92 673.04 35.44L673.04 35.44Q674.36 34.76 674.84 34L674.84 34Q675.84 32.40 675.84 30.48L675.84 30.48Q675.84 28.04 674.40 26.72Q672.96 25.40 670.52 25.28L670.52 25.28Q669.44 25.24 668.04 25.24Z M687.24 47.60L687.80 47.60Q688.76 47.60 689.42 46.98Q690.08 46.36 690.12 45.48L690.12 45.48L690.12 26.48Q690.12 25.60 689.44 25Q688.76 24.40 687.80 24.40L687.80 24.40L687.24 24.40L687.24 24L698.92 24Q700.56 24 701.80 23.76Q703.04 23.52 703.40 23.36L703.40 23.36L703.40 27.92L702.96 27.88L702.96 27.28Q702.96 26.44 702.40 25.84Q701.84 25.24 700.96 25.24L700.96 25.24L692.64 25.24L692.64 35.40L699.48 35.40Q700.28 35.40 700.70 34.92Q701.12 34.44 701.12 33.72L701.12 33.72L701.12 33.20L701.56 33.20L701.56 38.80L701.12 38.80L701.12 38.28Q701.12 37.16 700.28 36.76L700.28 36.76Q699.96 36.64 699.60 36.60L699.60 36.60L692.64 36.60L692.64 46.76L698.92 46.76Q700.76 46.76 702.02 46.12Q703.28 45.48 703.94 44.60Q704.60 43.72 705.28 42.28L705.28 42.28L705.68 42.28L703.48 48L687.24 48L687.24 47.60Z M728.80 25.02Q731.88 23.44 735.58 23.44Q739.28 23.44 742.36 25.02Q745.44 26.60 747.26 29.48Q749.08 32.36 749.08 36Q749.08 39.64 747.26 42.52Q745.44 45.40 742.36 46.98Q739.28 48.56 736.04 48.56Q732.80 48.56 730.32 47.64Q727.84 46.72 726.02 45.08Q724.20 43.44 723.14 41.08Q722.08 38.72 722.08 35.54Q722.08 32.36 723.90 29.48Q725.72 26.60 728.80 25.02ZM728.06 44.18Q731.08 47.36 735.56 47.36Q740.04 47.36 743.08 44.18Q746.12 41 746.12 36Q746.12 31 743.08 27.82Q740.04 24.64 735.56 24.64Q731.08 24.64 728.06 27.82Q725.04 31 725.04 36Q725.04 41 728.06 44.18Z M761.72 25.24L761.72 25.24L759.60 25.24L759.60 45.44Q759.64 46.68 760.72 47.32L760.72 47.32Q761.24 47.60 761.88 47.60L761.88 47.60L762.40 47.60L762.44 48L754.24 48L754.24 47.60L754.80 47.60Q755.72 47.60 756.38 46.98Q757.04 46.36 757.04 45.48L757.04 45.48L757.04 26.48Q757.04 25.60 756.38 25Q755.72 24.40 754.80 24.40L754.80 24.40L754.24 24.40L754.24 24L764.28 24Q768.04 24 770.22 25.72Q772.40 27.44 772.40 30.24Q772.40 33.04 770.64 34.92Q768.88 36.80 766.16 37.08L766.16 37.08Q767.44 37.64 769.24 40.20L769.24 40.20Q769.20 40.20 770.62 41.96Q772.04 43.72 772.90 44.70Q773.76 45.68 774.32 46.20L774.32 46.20Q775.80 47.60 777.72 47.60L777.72 47.60L777.72 48L776.48 48Q773.32 48 771.52 46.76L771.52 46.76Q770.16 45.84 769.04 44.48L769.04 44.48Q768.80 44.16 767.02 41.66Q765.24 39.16 765.12 39L765.12 39Q762.96 36.32 761.08 36.32L761.08 36.32L761.08 35.92Q765.76 35.92 766.72 35.44L766.72 35.44Q768.04 34.76 768.52 34L768.52 34Q769.52 32.40 769.52 30.48L769.52 30.48Q769.52 28.04 768.08 26.72Q766.64 25.40 764.20 25.28L764.20 25.28Q763.12 25.24 761.72 25.24Z M805.52 48.56Q799.40 48.52 795.86 45.16Q792.32 41.80 792.32 35.98Q792.32 30.16 795.86 26.80Q799.40 23.44 805.52 23.44L805.52 23.44Q808.00 23.44 810.52 24.08Q813.04 24.72 814.88 25.84L814.88 25.84L815.76 31.52L815.40 31.52Q813.68 24.64 805.48 24.64L805.48 24.64Q800.72 24.64 797.96 27.68Q795.20 30.72 795.20 36L795.20 36Q795.20 39.44 796.44 41.98Q797.68 44.52 800.04 45.92L800.04 45.92Q802.40 47.32 805.52 47.32Q808.64 47.32 810.98 46.38Q813.32 45.44 814.86 43.28Q816.40 41.12 816.60 37.92L816.60 37.92L816.96 37.92L816.52 43.40Q814.96 45.80 812.00 47.18Q809.04 48.56 805.52 48.56L805.52 48.56Z M846.52 47.60L846.52 47.60L846.84 47.60L846.84 48L838.64 48L838.64 47.60L838.96 47.60Q839.72 47.60 840.12 47.08Q840.52 46.56 840.52 46.10Q840.52 45.64 840.36 45.20L840.36 45.20L838.16 39.88L828.04 39.88L825.84 45.08Q825.64 45.60 825.64 46.06Q825.64 46.52 826.04 47.06Q826.44 47.60 827.24 47.60L827.24 47.60L827.56 47.60L827.56 48L819.92 48L819.92 47.60L820.24 47.60Q821.08 47.60 821.94 47.02Q822.80 46.44 823.36 45.28L823.36 45.28Q832.12 26.56 832.48 25.68L832.48 25.68Q833.16 24 833.20 23.44L833.20 23.44L833.56 23.44L843.44 45.28Q844.60 47.60 846.52 47.60ZM833.20 27.72L828.56 38.68L837.68 38.68L833.20 27.72Z M857.92 25.24L857.92 25.24L855.80 25.24L855.80 45.44Q855.84 46.68 856.92 47.32L856.92 47.32Q857.44 47.60 858.08 47.60L858.08 47.60L858.60 47.60L858.64 48L850.44 48L850.44 47.60L851.00 47.60Q851.92 47.60 852.58 46.98Q853.24 46.36 853.24 45.48L853.24 45.48L853.24 26.48Q853.24 25.60 852.58 25Q851.92 24.40 851.00 24.40L851.00 24.40L850.44 24.40L850.44 24L860.48 24Q864.24 24 866.42 25.72Q868.60 27.44 868.60 30.24Q868.60 33.04 866.84 34.92Q865.08 36.80 862.36 37.08L862.36 37.08Q863.64 37.64 865.44 40.20L865.44 40.20Q865.40 40.20 866.82 41.96Q868.24 43.72 869.10 44.70Q869.96 45.68 870.52 46.20L870.52 46.20Q872.00 47.60 873.92 47.60L873.92 47.60L873.92 48L872.68 48Q869.52 48 867.72 46.76L867.72 46.76Q866.36 45.84 865.24 44.48L865.24 44.48Q865.00 44.16 863.22 41.66Q861.44 39.16 861.32 39L861.32 39Q859.16 36.32 857.28 36.32L857.28 36.32L857.28 35.92Q861.96 35.92 862.92 35.44L862.92 35.44Q864.24 34.76 864.72 34L864.72 34Q865.72 32.40 865.72 30.48L865.72 30.48Q865.72 28.04 864.28 26.72Q862.84 25.40 860.40 25.28L860.40 25.28Q859.32 25.24 857.92 25.24Z M877.12 47.60L877.68 47.60Q878.64 47.60 879.30 46.98Q879.96 46.36 880.00 45.48L880.00 45.48L880.00 26.48Q880.00 25.60 879.32 25Q878.64 24.40 877.68 24.40L877.68 24.40L877.12 24.40L877.12 24L888.80 24Q890.44 24 891.68 23.76Q892.92 23.52 893.28 23.36L893.28 23.36L893.28 27.92L892.84 27.88L892.84 27.28Q892.84 26.44 892.28 25.84Q891.72 25.24 890.84 25.24L890.84 25.24L882.52 25.24L882.52 35.40L889.36 35.40Q890.16 35.40 890.58 34.92Q891.00 34.44 891.00 33.72L891.00 33.72L891.00 33.20L891.44 33.20L891.44 38.80L891.00 38.80L891.00 38.28Q891.00 37.16 890.16 36.76L890.16 36.76Q889.84 36.64 889.48 36.60L889.48 36.60L882.52 36.60L882.52 46.76L888.80 46.76Q890.64 46.76 891.90 46.12Q893.16 45.48 893.82 44.60Q894.48 43.72 895.16 42.28L895.16 42.28L895.56 42.28L893.36 48L877.12 48L877.12 47.60Z M900.16 47.60L900.72 47.60Q901.68 47.60 902.34 46.98Q903.00 46.36 903.04 45.48L903.04 45.48L903.04 26.48Q903.04 25.60 902.36 25Q901.68 24.40 900.72 24.40L900.72 24.40L900.16 24.40L900.16 24L911.84 24Q913.48 24 914.72 23.76Q915.96 23.52 916.32 23.36L916.32 23.36L916.32 27.92L915.88 27.88L915.88 27.28Q915.88 26.44 915.32 25.84Q914.76 25.24 913.88 25.24L913.88 25.24L905.56 25.24L905.56 35.40L912.40 35.40Q913.20 35.40 913.62 34.92Q914.04 34.44 914.04 33.72L914.04 33.72L914.04 33.20L914.48 33.20L914.48 38.80L914.04 38.80L914.04 38.28Q914.04 37.16 913.20 36.76L913.20 36.76Q912.88 36.64 912.52 36.60L912.52 36.60L905.56 36.60L905.56 46.76L911.84 46.76Q913.68 46.76 914.94 46.12Q916.20 45.48 916.86 44.60Q917.52 43.72 918.20 42.28L918.20 42.28L918.60 42.28L916.40 48L900.16 48L900.16 47.60Z M930.68 25.24L930.68 25.24L928.56 25.24L928.56 45.44Q928.60 46.68 929.68 47.32L929.68 47.32Q930.20 47.60 930.84 47.60L930.84 47.60L931.36 47.60L931.40 48L923.20 48L923.20 47.60L923.76 47.60Q924.68 47.60 925.34 46.98Q926.00 46.36 926.00 45.48L926.00 45.48L926.00 26.48Q926.00 25.60 925.34 25Q924.68 24.40 923.76 24.40L923.76 24.40L923.20 24.40L923.20 24L933.24 24Q937.00 24 939.18 25.72Q941.36 27.44 941.36 30.24Q941.36 33.04 939.60 34.92Q937.84 36.80 935.12 37.08L935.12 37.08Q936.40 37.64 938.20 40.20L938.20 40.20Q938.16 40.20 939.58 41.96Q941.00 43.72 941.86 44.70Q942.72 45.68 943.28 46.20L943.28 46.20Q944.76 47.60 946.68 47.60L946.68 47.60L946.68 48L945.44 48Q942.28 48 940.48 46.76L940.48 46.76Q939.12 45.84 938.00 44.48L938.00 44.48Q937.76 44.16 935.98 41.66Q934.20 39.16 934.08 39L934.08 39Q931.92 36.32 930.04 36.32L930.04 36.32L930.04 35.92Q934.72 35.92 935.68 35.44L935.68 35.44Q937.00 34.76 937.48 34L937.48 34Q938.48 32.40 938.48 30.48L938.48 30.48Q938.48 28.04 937.04 26.72Q935.60 25.40 933.16 25.28L933.16 25.28Q932.08 25.24 930.68 25.24Z M968.00 25.02Q971.08 23.44 974.78 23.44Q978.48 23.44 981.56 25.02Q984.64 26.60 986.46 29.48Q988.28 32.36 988.28 36Q988.28 39.64 986.46 42.52Q984.64 45.40 981.56 46.98Q978.48 48.56 975.24 48.56Q972.00 48.56 969.52 47.64Q967.04 46.72 965.22 45.08Q963.40 43.44 962.34 41.08Q961.28 38.72 961.28 35.54Q961.28 32.36 963.10 29.48Q964.92 26.60 968.00 25.02ZM967.26 44.18Q970.28 47.36 974.76 47.36Q979.24 47.36 982.28 44.18Q985.32 41 985.32 36Q985.32 31 982.28 27.82Q979.24 24.64 974.76 24.64Q970.28 24.64 967.26 27.82Q964.24 31 964.24 36Q964.24 41 967.26 44.18Z M1000.40 37.04L1000.40 36.64Q1001.32 36.88 1002.08 36.88Q1002.84 36.88 1003.32 36.84Q1003.80 36.80 1004.68 36.58Q1005.56 36.36 1006.28 35.88L1006.28 35.88Q1007.96 34.84 1008.76 32.60L1008.76 32.60Q1009.04 31.80 1009.04 30.44L1009.04 30.44Q1009.04 28 1007.36 26.60Q1005.68 25.20 1002.72 25.20L1002.72 25.20L998.84 25.20L998.84 45.44Q998.88 46.72 1000.00 47.32L1000.00 47.32Q1000.52 47.60 1001.16 47.60L1001.16 47.60L1001.72 47.60L1001.72 48L993.44 48L993.44 47.60L994.00 47.60Q994.96 47.60 995.62 46.98Q996.28 46.36 996.32 45.48L996.32 45.48L996.32 26.52Q996.28 25.60 995.62 25Q994.96 24.40 994.00 24.40L994.00 24.40L993.44 24.40L993.44 24L1002.80 24Q1007.00 24 1009.46 25.84Q1011.92 27.68 1011.92 30.80L1011.92 30.80Q1011.92 33.04 1010.88 34.72L1010.88 34.72Q1008.84 38 1004.56 38L1004.56 38Q1002.44 38 1000.40 37.04L1000.40 37.04Z M1024.12 37.04L1024.12 36.64Q1025.04 36.88 1025.80 36.88Q1026.56 36.88 1027.04 36.84Q1027.52 36.80 1028.40 36.58Q1029.28 36.36 1030.00 35.88L1030.00 35.88Q1031.68 34.84 1032.48 32.60L1032.48 32.60Q1032.76 31.80 1032.76 30.44L1032.76 30.44Q1032.76 28 1031.08 26.60Q1029.40 25.20 1026.44 25.20L1026.44 25.20L1022.56 25.20L1022.56 45.44Q1022.60 46.72 1023.72 47.32L1023.72 47.32Q1024.24 47.60 1024.88 47.60L1024.88 47.60L1025.44 47.60L1025.44 48L1017.16 48L1017.16 47.60L1017.72 47.60Q1018.68 47.60 1019.34 46.98Q1020.00 46.36 1020.04 45.48L1020.04 45.48L1020.04 26.52Q1020.00 25.60 1019.34 25Q1018.68 24.40 1017.72 24.40L1017.72 24.40L1017.16 24.40L1017.16 24L1026.52 24Q1030.72 24 1033.18 25.84Q1035.64 27.68 1035.64 30.80L1035.64 30.80Q1035.64 33.04 1034.60 34.72L1034.60 34.72Q1032.56 38 1028.28 38L1028.28 38Q1026.16 38 1024.12 37.04L1024.12 37.04Z M1047.60 25.02Q1050.68 23.44 1054.38 23.44Q1058.08 23.44 1061.16 25.02Q1064.24 26.60 1066.06 29.48Q1067.88 32.36 1067.88 36Q1067.88 39.64 1066.06 42.52Q1064.24 45.40 1061.16 46.98Q1058.08 48.56 1054.84 48.56Q1051.60 48.56 1049.12 47.64Q1046.64 46.72 1044.82 45.08Q1043.00 43.44 1041.94 41.08Q1040.88 38.72 1040.88 35.54Q1040.88 32.36 1042.70 29.48Q1044.52 26.60 1047.60 25.02ZM1046.86 44.18Q1049.88 47.36 1054.36 47.36Q1058.84 47.36 1061.88 44.18Q1064.92 41 1064.92 36Q1064.92 31 1061.88 27.82Q1058.84 24.64 1054.36 24.64Q1049.88 24.64 1046.86 27.82Q1043.84 31 1043.84 36Q1043.84 41 1046.86 44.18Z M1080.52 25.24L1080.52 25.24L1078.40 25.24L1078.40 45.44Q1078.44 46.68 1079.52 47.32L1079.52 47.32Q1080.04 47.60 1080.68 47.60L1080.68 47.60L1081.20 47.60L1081.24 48L1073.04 48L1073.04 47.60L1073.60 47.60Q1074.52 47.60 1075.18 46.98Q1075.84 46.36 1075.84 45.48L1075.84 45.48L1075.84 26.48Q1075.84 25.60 1075.18 25Q1074.52 24.40 1073.60 24.40L1073.60 24.40L1073.04 24.40L1073.04 24L1083.08 24Q1086.84 24 1089.02 25.72Q1091.20 27.44 1091.20 30.24Q1091.20 33.04 1089.44 34.92Q1087.68 36.80 1084.96 37.08L1084.96 37.08Q1086.24 37.64 1088.04 40.20L1088.04 40.20Q1088.00 40.20 1089.42 41.96Q1090.84 43.72 1091.70 44.70Q1092.56 45.68 1093.12 46.20L1093.12 46.20Q1094.60 47.60 1096.52 47.60L1096.52 47.60L1096.52 48L1095.28 48Q1092.12 48 1090.32 46.76L1090.32 46.76Q1088.96 45.84 1087.84 44.48L1087.84 44.48Q1087.60 44.16 1085.82 41.66Q1084.04 39.16 1083.92 39L1083.92 39Q1081.76 36.32 1079.88 36.32L1079.88 36.32L1079.88 35.92Q1084.56 35.92 1085.52 35.44L1085.52 35.44Q1086.84 34.76 1087.32 34L1087.32 34Q1088.32 32.40 1088.32 30.48L1088.32 30.48Q1088.32 28.04 1086.88 26.72Q1085.44 25.40 1083.00 25.28L1083.00 25.28Q1081.92 25.24 1080.52 25.24Z M1116.64 25.16L1109.40 25.16L1109.40 45.48Q1109.44 46.72 1110.60 47.32L1110.60 47.32Q1111.12 47.60 1111.76 47.60L1111.76 47.60L1112.20 47.60L1112.20 48L1103.96 48L1103.96 47.60L1104.44 47.60Q1105.40 47.60 1106.08 46.96Q1106.76 46.32 1106.80 45.44L1106.80 45.44L1106.80 25.16L1099.56 25.16Q1098.64 25.16 1098.10 25.76Q1097.56 26.36 1097.56 27.20L1097.56 27.20L1097.56 27.84L1097.12 27.84L1097.12 23.32Q1097.92 23.64 1099.38 23.80Q1100.84 23.96 1101.56 23.96L1101.56 23.96L1114.60 23.96Q1117.48 23.96 1119.08 23.32L1119.08 23.32L1119.08 27.84L1118.64 27.84L1118.64 27.20Q1118.64 26.36 1118.08 25.76Q1117.52 25.16 1116.64 25.16L1116.64 25.16Z M1147.84 24L1147.84 24.40L1147.24 24.40Q1146.16 24.40 1145.60 25.24L1145.60 25.24Q1145.36 25.60 1145.32 26.08L1145.32 26.08L1145.32 39.56Q1145.32 43.72 1142.66 46.14Q1140.00 48.56 1135.36 48.56Q1130.72 48.56 1128.04 46.16Q1125.36 43.76 1125.36 39.60L1125.36 39.60L1125.36 26.12Q1125.36 25.40 1124.80 24.90Q1124.24 24.40 1123.44 24.40L1123.44 24.40L1122.84 24.40L1122.84 24L1130.44 24L1130.44 24.40L1129.84 24.40Q1129.04 24.40 1128.48 24.90Q1127.92 25.40 1127.92 26.12L1127.92 26.12L1127.92 39.12Q1127.92 43 1129.90 45.24Q1131.88 47.48 1135.50 47.48Q1139.12 47.48 1141.30 45.36Q1143.48 43.24 1143.48 39.56L1143.48 39.56L1143.48 26.12Q1143.44 25.36 1142.90 24.88Q1142.36 24.40 1141.56 24.40L1141.56 24.40L1140.96 24.40L1140.96 24L1147.84 24Z M1180.60 24.40L1179.92 24.40Q1179.04 24.40 1178.40 24.98Q1177.76 25.56 1177.72 26.40L1177.72 26.40L1177.72 43.44Q1177.72 45.76 1178.00 47.84L1178.00 47.84L1178.08 48.56L1177.72 48.56L1156.92 28.84L1156.92 45.52Q1156.92 46.40 1157.56 47Q1158.20 47.60 1159.12 47.60L1159.12 47.60L1159.80 47.60L1159.80 48L1152.24 48L1152.24 47.60L1152.92 47.60Q1153.84 47.60 1154.48 47Q1155.12 46.40 1155.12 45.52L1155.12 45.52L1155.12 28.40Q1155.12 25.96 1154.84 24.04L1154.84 24.04L1154.76 23.40L1155.20 23.44L1175.96 43L1175.96 26.40Q1175.88 25.56 1175.24 24.98Q1174.60 24.40 1173.72 24.40L1173.72 24.40L1173.04 24.40L1173.04 24L1180.60 24L1180.60 24.40Z M1185.80 47.60L1186.36 47.60Q1187.44 47.60 1188.24 46.96Q1189.04 46.32 1189.04 45.44L1189.04 45.44L1189.04 26.56Q1189.04 25.68 1188.24 25.04Q1187.44 24.40 1186.32 24.40L1186.32 24.40L1185.80 24.40L1185.80 24L1194.84 24L1194.84 24.40L1194.32 24.40Q1193.24 24.40 1192.46 25Q1191.68 25.60 1191.60 26.48L1191.60 26.48L1191.60 45.48Q1191.64 46.36 1192.44 46.98Q1193.24 47.60 1194.32 47.60L1194.32 47.60L1194.84 47.60L1194.88 48L1185.80 48L1185.80 47.60Z M1218.76 25.16L1211.52 25.16L1211.52 45.48Q1211.56 46.72 1212.72 47.32L1212.72 47.32Q1213.24 47.60 1213.88 47.60L1213.88 47.60L1214.32 47.60L1214.32 48L1206.08 48L1206.08 47.60L1206.56 47.60Q1207.52 47.60 1208.20 46.96Q1208.88 46.32 1208.92 45.44L1208.92 45.44L1208.92 25.16L1201.68 25.16Q1200.76 25.16 1200.22 25.76Q1199.68 26.36 1199.68 27.20L1199.68 27.20L1199.68 27.84L1199.24 27.84L1199.24 23.32Q1200.04 23.64 1201.50 23.80Q1202.96 23.96 1203.68 23.96L1203.68 23.96L1216.72 23.96Q1219.60 23.96 1221.20 23.32L1221.20 23.32L1221.20 27.84L1220.76 27.84L1220.76 27.20Q1220.76 26.36 1220.20 25.76Q1219.64 25.16 1218.76 25.16L1218.76 25.16Z M1249.56 24L1249.56 24.40L1249.08 24.40Q1248.00 24.40 1247.02 24.98Q1246.04 25.56 1245.40 26.44L1245.40 26.44L1237.72 38.08L1237.72 45.44Q1237.72 46.32 1238.40 46.96Q1239.08 47.60 1240.04 47.60L1240.04 47.60L1240.52 47.60L1240.52 48L1232.32 48L1232.32 47.60L1232.80 47.60Q1233.76 47.60 1234.44 46.96Q1235.12 46.32 1235.12 45.44L1235.12 45.44L1235.12 38.04L1227.72 26.40Q1226.36 24.40 1224.04 24.40L1224.04 24.40L1223.56 24.40L1223.56 24L1232.84 24L1232.84 24.40L1232.36 24.40Q1231.60 24.40 1231.26 24.88Q1230.92 25.36 1230.92 25.70Q1230.92 26.04 1231.00 26.32L1231.00 26.32L1236.84 36.68L1243.04 26.36Q1243.16 26.04 1243.16 25.70Q1243.16 25.36 1242.82 24.88Q1242.48 24.40 1241.68 24.40L1241.68 24.40L1241.20 24.40L1241.20 24L1249.56 24Z"/></g>
</svg>
</g></svg>