<svg width="1198" height="519" viewBox="0 0 1198 519" fill="none" xmlns="http://www.w3.org/2000/svg">
<rect width="1197" height="519" rx="18" fill="#E38B29"/>
<path fill-rule="evenodd" clip-rule="evenodd" d="M744.338 0H557.715C577.876 20.1208 599.256 42.4823 621.929 67.3268C695.571 148.023 769.51 197.395 843.736 221.832C918.405 246.415 988.325 244.1 1050.8 229.451C1105.73 216.574 1155.24 194.058 1197.07 172.623V19.707C1189.24 23.8584 1181.48 28.0467 1173.88 32.1458C1165.22 36.8189 1156.78 41.376 1148.69 45.6306C1106.27 67.9334 1064.06 87.6833 1019.99 98.0154C977.008 108.092 932.855 109.044 885.952 93.602C844.476 79.9474 797.024 52.2065 744.338 0ZM1197.07 271.986C1183.79 287.284 1169.68 300.074 1149.47 310.459C1099.64 336.069 994.035 356.104 742.099 300.582C635.411 277.07 546.533 279.33 471.788 302.133C396.597 325.073 340.789 367.258 298.17 415.234C268.61 448.509 245.262 484.745 226 519H387.247C391.079 514.183 395.025 509.477 399.098 504.892C428.416 471.889 463.951 445.667 511.182 431.258C558.86 416.712 623.482 412.681 713.044 432.418C959.592 486.753 1103.17 479.494 1197.07 437.314V271.986Z" fill="#FFB800" fill-opacity="0.31"/>
</svg>
