<?xml version="1.0" encoding="UTF-8"?>
<svg id="Layer_1" data-name="Layer 1" xmlns="http://www.w3.org/2000/svg" viewBox="0 0 92 93">
  <defs>
    <style>
      .cls-1 {
        fill: #f2f2f2;
      }

      .cls-2, .cls-3 {
        fill: #fff;
      }

      .cls-4 {
        fill: #e38b29;
      }

      .cls-3 {
        stroke: #e38b29;
        stroke-miterlimit: 10;
      }
    </style>
  </defs>
  <ellipse class="cls-1" cx="45.92" cy="46.26" rx="45.75" ry="45.75"/>
  <circle class="cls-2" cx="45.92" cy="46.26" r="35.58"/>
  <g>
    <g>
      <path class="cls-3" d="m30.33,30.04c1.22.49,2.38.99,3.57,1.44,1.58.59,3.21,1,4.92.96,2.4-.05,4.57-.87,6.6-2.09.46-.28.76-.25,1.22,0,2.2,1.22,4.53,2.08,7.1,2.01,1.89-.04,3.67-.6,5.4-1.29.83-.33,1.64-.67,2.54-1.03v.5c0,6.84-.03,13.69.02,20.53.02,2.51-.75,4.66-2.32,6.63-3.51,4.39-7.91,7.57-13.12,9.67-.15.06-.36.05-.51-.01-5.39-2.37-9.9-5.85-13.55-10.43-1.21-1.52-1.87-3.25-1.88-5.19-.02-7.16-.01-14.31-.01-21.47,0-.06,0-.13.02-.23Zm28.39,4.33c-.18.05-.33.08-.48.13-1.27.4-2.56.67-3.89.77-2.51.18-4.89-.37-7.15-1.39-.83-.37-1.46-.37-2.28.02-2.96,1.4-6.08,1.87-9.32,1.12-.78-.18-1.54-.4-2.33-.61,0,.1-.02.19-.02.27,0,5.61,0,11.22,0,16.83,0,1.33.4,2.54,1.24,3.59,3.08,3.87,6.84,6.92,11.32,9.08.13.06.34.07.46.02,4.39-1.97,8.09-4.8,11.01-8.61.98-1.28,1.44-2.67,1.43-4.27-.03-5.48-.01-10.96-.01-16.43v-.5h0Z"/>
      <path class="cls-3" d="m39.64,45.3c1.57,1.55,3.15,3.12,4.75,4.7,2.89-2.86,5.76-5.7,8.61-8.53.71.71,1.39,1.38,2.04,2.03-3.53,3.49-7.1,7.03-10.64,10.54-2.25-2.23-4.53-4.49-6.8-6.73.64-.63,1.33-1.31,2.03-2.01h0Z"/>
    </g>
    <polygon class="cls-2" points="38.87 45.35 39.64 44.62 39.39 44.03 38.87 43.81 38.39 44.3 38.15 44.8 38.87 45.35"/>
    <path class="cls-4" d="m58.55,33.89s.76-.09.65.51-.54.15-.54.15l-.11-.66Z"/>
  </g>
  <polygon class="cls-2" points="59.21 34.87 59.21 33.22 61.15 32.4 61.15 34.71 59.21 34.87"/>
  <polygon class="cls-2" points="62.18 34.3 62.18 32.18 63.03 31.97 63.95 32.23 63.78 33.13 62.18 34.3"/>
  <polygon class="cls-2" points="61.15 39.08 61.15 31.76 60.18 31.97 60.18 34.3 60.18 35.85 61.15 39.08"/>
</svg>