<svg width="67" height="39" viewBox="0 0 67 39" fill="none" xmlns="http://www.w3.org/2000/svg">
<mask id="mask0_36_1010" style="mask-type:luminance" maskUnits="userSpaceOnUse" x="0" y="0" width="67" height="39">
<path d="M67 0H0V39H67V0Z" fill="white"/>
</mask>
<g mask="url(#mask0_36_1010)">
<path d="M67 0H0V39H67V0Z" fill="white"/>
<path d="M44.8597 14.1021L67 1.73289V0H65.4827L40.228 14.1021H44.8597Z" fill="#BD0034"/>
<path d="M43.8215 25.6748L67 38.6217V36.0323L48.4532 25.6748H43.8215Z" fill="#BD0034"/>
<path d="M0 2.96779L19.8245 14.1021H24.4762L0 0.378418V2.96779Z" fill="#BD0034"/>
<path d="M23.4181 25.6748L0 38.7611V39.0001H4.23242L28.0498 25.6748H23.4181Z" fill="#BD0034"/>
<path d="M62.4282 0H38.9503V13.1062L62.4282 0Z" fill="#1A237B"/>
<path d="M28.6088 0H5.23065L28.6088 13.1062V0Z" fill="#1A237B"/>
<path d="M67 14.102V5.15869L51.0885 14.102H67Z" fill="#1A237B"/>
<path d="M67 34.5185V25.6748H51.0885L67 34.5185Z" fill="#1A237B"/>
<path d="M6.56824 38.9998H28.6088V26.6704L6.56824 38.9998Z" fill="#1A237B"/>
<path d="M38.9503 38.9998H61.0706L38.9503 26.6704V38.9998Z" fill="#1A237B"/>
<path d="M0 25.6748V34.9368L16.4705 25.6748H0Z" fill="#1A237B"/>
<path d="M0 14.1023H16.4705L0 4.84033V14.1023Z" fill="#1A237B"/>
<path d="M30.6651 0V16.4127H0V23.3641H30.6651V39H36.8939V23.3641H67V16.4127H36.8939V0H30.6651Z" fill="#BD0034"/>
</g>
</svg>
