<svg width="67" height="39" viewBox="0 0 67 39" fill="none" xmlns="http://www.w3.org/2000/svg">
<g clip-path="url(#clip0_35_618)">
<mask id="mask0_35_618" style="mask-type:luminance" maskUnits="userSpaceOnUse" x="0" y="0" width="67" height="39">
<path d="M67 0H0V39H67V0Z" fill="white"/>
</mask>
<g mask="url(#mask0_35_618)">
<path d="M67 35.9922H0V38.9998H67V35.9922Z" fill="#CB001C"/>
<path d="M67 33.0044H0V36.0121H67V33.0044Z" fill="white"/>
<path d="M67 29.9971H0V32.9848H67V29.9971Z" fill="#CB001C"/>
<path d="M67 27.0093H0V30.0169H67V27.0093Z" fill="white"/>
<path d="M67 24.0015H0V27.0091H67V24.0015Z" fill="#CB001C"/>
<path d="M67 20.9937H0V23.9814H67V20.9937Z" fill="white"/>
<path d="M67 18.0063H0V21.014H67V18.0063Z" fill="#CB001C"/>
<path d="M67 14.9985H0V17.9863H67V14.9985Z" fill="white"/>
<path d="M67 12.0107H0V15.0184H67V12.0107Z" fill="#CB001C"/>
<path d="M67 9.00293H0V12.0106H67V9.00293Z" fill="white"/>
<path d="M67 5.99561H0V9.00327H67V5.99561Z" fill="#CB001C"/>
<path d="M67 3.00781H0V6.01547H67V3.00781Z" fill="white"/>
<path d="M67 0H0V3.00766H67V0Z" fill="#CB001C"/>
<path d="M30.6052 0H0V20.9939H30.6052V0Z" fill="#2A3560"/>
<path d="M2.75507 2.31055L3.03457 3.10728H3.87307L3.19428 3.60524L3.43386 4.40197L2.75507 3.90401L2.09625 4.40197L2.35579 3.60524L1.677 3.10728H2.49554L2.75507 2.31055Z" fill="white"/>
<path d="M2.75507 5.81592L3.03457 6.61265H3.87307L3.19428 7.11061L3.43386 7.90734L2.75507 7.40938L2.09625 7.90734L2.35579 7.11061L1.677 6.61265H2.49554L2.75507 5.81592Z" fill="white"/>
<path d="M2.75507 9.32178L3.03457 10.1185H3.87307L3.19428 10.6165L3.43386 11.4132L2.75507 10.9152L2.09625 11.4132L2.35579 10.6165L1.677 10.1185H2.49554L2.75507 9.32178Z" fill="white"/>
<path d="M2.75507 12.8271L3.03457 13.6239H3.87307L3.19428 14.1218L3.43386 14.8986L2.75507 14.4206L2.09625 14.8986L2.35579 14.1218L1.677 13.6239H2.49554L2.75507 12.8271Z" fill="white"/>
<path d="M2.75507 16.333L3.03457 17.1297H3.87307L3.19428 17.6277L3.43386 18.4045L2.75507 17.9265L2.09625 18.4045L2.35579 17.6277L1.677 17.1297H2.49554L2.75507 16.333Z" fill="white"/>
<path d="M5.21067 4.16309L5.47021 4.95982H6.30871L5.62992 5.45777L5.88946 6.23459L5.21067 5.75655L4.53189 6.23459L4.79142 5.45777L4.11264 4.95982H4.95114L5.21067 4.16309Z" fill="white"/>
<path d="M5.21067 7.66846L5.47021 8.46519H6.30871L5.62992 8.94323L5.88946 9.73996L5.21067 9.26192L4.53189 9.73996L4.79142 8.94323L4.11264 8.46519H4.95114L5.21067 7.66846Z" fill="white"/>
<path d="M5.21067 11.1743L5.47021 11.971H6.30871L5.62992 12.4491L5.88946 13.2458L5.21067 12.7678L4.53189 13.2458L4.79142 12.4491L4.11264 11.971H4.95114L5.21067 11.1743Z" fill="white"/>
<path d="M5.21067 14.6797L5.47021 15.4764H6.30871L5.62992 15.9545L5.88946 16.7512L5.21067 16.2532L4.53189 16.7512L4.79142 15.9545L4.11264 15.4764H4.95114L5.21067 14.6797Z" fill="white"/>
<path d="M7.68623 2.31055L7.94576 3.10728H8.78426L8.10548 3.60524L8.36501 4.40197L7.68623 3.90401L7.00744 4.40197L7.26698 3.60524L6.5882 3.10728H7.42669L7.68623 2.31055Z" fill="white"/>
<path d="M7.68623 5.81592L7.94576 6.61265H8.78426L8.10548 7.11061L8.36501 7.90734L7.68623 7.40938L7.00744 7.90734L7.26698 7.11061L6.5882 6.61265H7.42669L7.68623 5.81592Z" fill="white"/>
<path d="M7.68623 9.32178L7.94576 10.1185H8.78426L8.10548 10.6165L8.36501 11.4132L7.68623 10.9152L7.00744 11.4132L7.26698 10.6165L6.5882 10.1185H7.42669L7.68623 9.32178Z" fill="white"/>
<path d="M7.68623 12.8271L7.94576 13.6239H8.78426L8.10548 14.1218L8.36501 14.8986L7.68623 14.4206L7.00744 14.8986L7.26698 14.1218L6.5882 13.6239H7.42669L7.68623 12.8271Z" fill="white"/>
<path d="M7.68623 16.333L7.94576 17.1297H8.78426L8.10548 17.6277L8.36501 18.4045L7.68623 17.9265L7.00744 18.4045L7.26698 17.6277L6.5882 17.1297H7.42669L7.68623 16.333Z" fill="white"/>
<path d="M10.1418 4.16309L10.4014 4.95982H11.2399L10.5611 5.45777L10.8206 6.23459L10.1418 5.75655L9.46306 6.23459L9.72259 5.45777L9.04381 4.95982H9.88231L10.1418 4.16309Z" fill="white"/>
<path d="M10.1418 7.66846L10.4014 8.46519H11.2399L10.5611 8.94323L10.8206 9.73996L10.1418 9.26192L9.46306 9.73996L9.72259 8.94323L9.04381 8.46519H9.88231L10.1418 7.66846Z" fill="white"/>
<path d="M10.1418 11.1743L10.4014 11.971H11.2399L10.5611 12.4491L10.8206 13.2458L10.1418 12.7678L9.46306 13.2458L9.72259 12.4491L9.04381 11.971H9.88231L10.1418 11.1743Z" fill="white"/>
<path d="M10.1418 14.6797L10.4014 15.4764H11.2399L10.5611 15.9545L10.8206 16.7512L10.1418 16.2532L9.46306 16.7512L9.72259 15.9545L9.04381 15.4764H9.88231L10.1418 14.6797Z" fill="white"/>
<path d="M12.6174 2.31055L12.8769 3.10728H13.7154L13.0366 3.60524L13.2962 4.40197L12.6174 3.90401L11.9386 4.40197L12.1981 3.60524L11.5194 3.10728H12.3579L12.6174 2.31055Z" fill="white"/>
<path d="M12.6174 5.81592L12.8769 6.61265H13.7154L13.0366 7.11061L13.2962 7.90734L12.6174 7.40938L11.9386 7.90734L12.1981 7.11061L11.5194 6.61265H12.3579L12.6174 5.81592Z" fill="white"/>
<path d="M12.6174 9.32178L12.8769 10.1185H13.7154L13.0366 10.6165L13.2962 11.4132L12.6174 10.9152L11.9386 11.4132L12.1981 10.6165L11.5194 10.1185H12.3579L12.6174 9.32178Z" fill="white"/>
<path d="M12.6174 12.8271L12.8769 13.6239H13.7154L13.0366 14.1218L13.2962 14.8986L12.6174 14.4206L11.9386 14.8986L12.1981 14.1218L11.5194 13.6239H12.3579L12.6174 12.8271Z" fill="white"/>
<path d="M12.6174 16.333L12.8769 17.1297H13.7154L13.0366 17.6277L13.2962 18.4045L12.6174 17.9265L11.9386 18.4045L12.1981 17.6277L11.5194 17.1297H12.3579L12.6174 16.333Z" fill="white"/>
<path d="M15.073 4.16309L15.3126 4.95982H16.1511L15.4723 5.45777L15.7318 6.23459L15.073 5.75655L14.3942 6.23459L14.6338 5.45777L13.975 4.95982H14.7935L15.073 4.16309Z" fill="white"/>
<path d="M15.073 7.66846L15.3126 8.46519H16.1511L15.4723 8.94323L15.7318 9.73996L15.073 9.26192L14.3942 9.73996L14.6338 8.94323L13.975 8.46519H14.7935L15.073 7.66846Z" fill="white"/>
<path d="M15.073 11.1743L15.3126 11.971H16.1511L15.4723 12.4491L15.7318 13.2458L15.073 12.7678L14.3942 13.2458L14.6338 12.4491L13.975 11.971H14.7935L15.073 11.1743Z" fill="white"/>
<path d="M15.073 14.6797L15.3126 15.4764H16.1511L15.4723 15.9545L15.7318 16.7512L15.073 16.2532L14.3942 16.7512L14.6338 15.9545L13.975 15.4764H14.7935L15.073 14.6797Z" fill="white"/>
<path d="M17.5286 2.31055L17.7881 3.10728H18.6266L17.9478 3.60524L18.2074 4.40197L17.5286 3.90401L16.8698 4.40197L17.1094 3.60524L16.4505 3.10728H17.2691L17.5286 2.31055Z" fill="white"/>
<path d="M17.5286 5.81592L17.7881 6.61265H18.6266L17.9478 7.11061L18.2074 7.90734L17.5286 7.40938L16.8698 7.90734L17.1094 7.11061L16.4505 6.61265H17.2691L17.5286 5.81592Z" fill="white"/>
<path d="M17.5286 9.32178L17.7881 10.1185H18.6266L17.9478 10.6165L18.2074 11.4132L17.5286 10.9152L16.8698 11.4132L17.1094 10.6165L16.4505 10.1185H17.2691L17.5286 9.32178Z" fill="white"/>
<path d="M17.5286 12.8271L17.7881 13.6239H18.6266L17.9478 14.1218L18.2074 14.8986L17.5286 14.4206L16.8698 14.8986L17.1094 14.1218L16.4505 13.6239H17.2691L17.5286 12.8271Z" fill="white"/>
<path d="M17.5286 16.333L17.7881 17.1297H18.6266L17.9478 17.6277L18.2074 18.4045L17.5286 17.9265L16.8698 18.4045L17.1094 17.6277L16.4505 17.1297H17.2691L17.5286 16.333Z" fill="white"/>
<path d="M19.9842 4.16309L20.2437 4.95982H21.0822L20.4035 5.45777L20.663 6.23459L19.9842 5.75655L19.3054 6.23459L19.565 5.45777L18.8862 4.95982H19.7247L19.9842 4.16309Z" fill="white"/>
<path d="M19.9842 7.66846L20.2437 8.46519H21.0822L20.4035 8.94323L20.663 9.73996L19.9842 9.26192L19.3054 9.73996L19.565 8.94323L18.8862 8.46519H19.7247L19.9842 7.66846Z" fill="white"/>
<path d="M19.9842 11.1743L20.2437 11.971H21.0822L20.4035 12.4491L20.663 13.2458L19.9842 12.7678L19.3054 13.2458L19.565 12.4491L18.8862 11.971H19.7247L19.9842 11.1743Z" fill="white"/>
<path d="M19.9842 14.6797L20.2437 15.4764H21.0822L20.4035 15.9545L20.663 16.7512L19.9842 16.2532L19.3054 16.7512L19.565 15.9545L18.8862 15.4764H19.7247L19.9842 14.6797Z" fill="white"/>
<path d="M22.4598 2.31055L22.7193 3.10728H23.5578L22.879 3.60524L23.1386 4.40197L22.4598 3.90401L21.8009 4.40197L22.0405 3.60524L21.3817 3.10728H22.2002L22.4598 2.31055Z" fill="white"/>
<path d="M22.4598 5.81592L22.7193 6.61265H23.5578L22.879 7.11061L23.1386 7.90734L22.4598 7.40938L21.8009 7.90734L22.0405 7.11061L21.3817 6.61265H22.2002L22.4598 5.81592Z" fill="white"/>
<path d="M22.4598 9.32178L22.7193 10.1185H23.5578L22.879 10.6165L23.1386 11.4132L22.4598 10.9152L21.8009 11.4132L22.0405 10.6165L21.3817 10.1185H22.2002L22.4598 9.32178Z" fill="white"/>
<path d="M22.4598 12.8271L22.7193 13.6239H23.5578L22.879 14.1218L23.1386 14.8986L22.4598 14.4206L21.8009 14.8986L22.0405 14.1218L21.3817 13.6239H22.2002L22.4598 12.8271Z" fill="white"/>
<path d="M22.4598 16.333L22.7193 17.1297H23.5578L22.879 17.6277L23.1386 18.4045L22.4598 17.9265L21.8009 18.4045L22.0405 17.6277L21.3817 17.1297H22.2002L22.4598 16.333Z" fill="white"/>
<path d="M24.9154 4.16309L25.1749 4.95982H26.0134L25.3346 5.45777L25.5742 6.23459L24.9154 5.75655L24.2366 6.23459L24.4961 5.45777L23.8173 4.95982H24.6558L24.9154 4.16309Z" fill="white"/>
<path d="M24.9154 7.66846L25.1749 8.46519H26.0134L25.3346 8.94323L25.5742 9.73996L24.9154 9.26192L24.2366 9.73996L24.4961 8.94323L23.8173 8.46519H24.6558L24.9154 7.66846Z" fill="white"/>
<path d="M24.9154 11.1743L25.1749 11.971H26.0134L25.3346 12.4491L25.5742 13.2458L24.9154 12.7678L24.2366 13.2458L24.4961 12.4491L23.8173 11.971H24.6558L24.9154 11.1743Z" fill="white"/>
<path d="M24.9154 14.6797L25.1749 15.4764H26.0134L25.3346 15.9545L25.5742 16.7512L24.9154 16.2532L24.2366 16.7512L24.4961 15.9545L23.8173 15.4764H24.6558L24.9154 14.6797Z" fill="white"/>
<path d="M27.3909 2.31055L27.6505 3.10728H28.489L27.8102 3.60524L28.0697 4.40197L27.3909 3.90401L26.7122 4.40197L26.9717 3.60524L26.2929 3.10728H27.1314L27.3909 2.31055Z" fill="white"/>
<path d="M27.3909 5.81592L27.6505 6.61265H28.489L27.8102 7.11061L28.0697 7.90734L27.3909 7.40938L26.7122 7.90734L26.9717 7.11061L26.2929 6.61265H27.1314L27.3909 5.81592Z" fill="white"/>
<path d="M27.3909 9.32178L27.6505 10.1185H28.489L27.8102 10.6165L28.0697 11.4132L27.3909 10.9152L26.7122 11.4132L26.9717 10.6165L26.2929 10.1185H27.1314L27.3909 9.32178Z" fill="white"/>
<path d="M27.3909 12.8271L27.6505 13.6239H28.489L27.8102 14.1218L28.0697 14.8986L27.3909 14.4206L26.7122 14.8986L26.9717 14.1218L26.2929 13.6239H27.1314L27.3909 12.8271Z" fill="white"/>
<path d="M27.3909 16.333L27.6505 17.1297H28.489L27.8102 17.6277L28.0697 18.4045L27.3909 17.9265L26.7122 18.4045L26.9717 17.6277L26.2929 17.1297H27.1314L27.3909 16.333Z" fill="white"/>
</g>
</g>
<defs>
<clipPath id="clip0_35_618">
<rect width="67" height="39" fill="white"/>
</clipPath>
</defs>
</svg>
