<svg xmlns="http://www.w3.org/2000/svg" width="250.453" height="53.48" viewBox="0 0 250.453 53.48">
  <g id="applied-systems-vector-logo" transform="translate(-21 -258.1)">
    <path id="Path_476" data-name="Path 476" d="M35.278,282.315l14.278,29.266H21ZM66.632,258.1H47.093l26.093,53.481H92.725Z" fill="#00b3e6"/>
    <path id="Path_477" data-name="Path 477" d="M424.6,304.4h3.549v18.829h11.94V326.4H424.6Z" transform="translate(-235.1 -26.97)" fill="#3d3d40"/>
    <rect id="Rectangle_120" data-name="Rectangle 120" width="3.549" height="22.002" transform="translate(212.42 277.43)" fill="#3d3d40"/>
    <path id="Path_478" data-name="Path 478" d="M568,304.393h8.225a23.588,23.588,0,0,1,5.386.543c5.093,1.252,8.475,4.551,8.475,10.1s-3.465,9.185-8.767,10.646a24.442,24.442,0,0,1-6.262.71H568Zm6.972,18.829a20.5,20.5,0,0,0,5.511-.626c3.674-1.044,5.928-3.465,5.928-7.557,0-4.05-2.38-6.137-5.72-7.014a19.025,19.025,0,0,0-4.885-.459h-4.3v15.656Z" transform="translate(-318.632 -26.963)" fill="#3d3d40"/>
    <path id="Path_479" data-name="Path 479" d="M245.892,316.892l3.674-7.724h.042l3.883,7.724h-5.761v3.131h7.348l3.173,6.262h3.883L250.86,304.2H248.4l-10.9,22.085h3.924Z" transform="translate(-126.113 -26.854)" fill="#3d3d40"/>
    <path id="Path_480" data-name="Path 480" d="M384.866,311.445c0,4.258-3.089,6.346-6.221,6.972a18.73,18.73,0,0,1-4.05.334h-.209v-3.173h.334a13.568,13.568,0,0,0,3.173-.251,3.735,3.735,0,0,0,3.215-3.8,3.519,3.519,0,0,0-2.755-3.674,13.275,13.275,0,0,0-3.59-.292h-2.714v18.829H368.5v-22h6.513a16.53,16.53,0,0,1,4.3.417c2.964.752,5.553,2.672,5.553,6.638" transform="translate(-202.422 -26.959)" fill="#3d3d40"/>
    <path id="Path_481" data-name="Path 481" d="M328.966,311.445c0,4.258-3.089,6.346-6.221,6.972a18.73,18.73,0,0,1-4.05.334h-.209v-3.173h.334a13.567,13.567,0,0,0,3.173-.251,3.735,3.735,0,0,0,3.215-3.8,3.519,3.519,0,0,0-2.755-3.674,13.275,13.275,0,0,0-3.59-.292h-2.714v18.829H312.6v-22h6.513a16.531,16.531,0,0,1,4.3.417c2.964.752,5.553,2.672,5.553,6.638" transform="translate(-169.859 -26.959)" fill="#3d3d40"/>
    <path id="Path_482" data-name="Path 482" d="M514.007,316.841v6.388h12.358V326.4H510.5v-22h15.656v3.173H514.007Zm2.3,0h8.6v-3.173h-8.6Z" transform="translate(-285.138 -26.97)" fill="#3d3d40"/>
  </g>
</svg>
