<svg xmlns="http://www.w3.org/2000/svg" width="194.19" height="49.324" viewBox="0 0 194.19 49.324">
  <g id="bill-com-llc-vector-logo" transform="translate(131.9 -198.6)">
    <g id="logo-orangeAsset-2" transform="translate(-131.9 198.6)">
      <rect id="Rectangle" width="9.418" height="32.43" transform="translate(36.378 15.891)" fill="#ef7e19"/>
      <rect id="Rectangle_118" data-name="Rectangle 118" width="9.418" height="47.738" transform="translate(52.884 0.615)" fill="#ef7e19"/>
      <rect id="Rectangle_119" data-name="Rectangle 119" width="9.418" height="47.738" transform="translate(69.358 0.615)" fill="#ef7e19"/>
      <path id="Path" d="M-16.568,198.6a5.636,5.636,0,0,0-5.632,5.632,5.636,5.636,0,0,0,5.632,5.632,5.636,5.636,0,0,0,5.632-5.632,5.637,5.637,0,0,0-1.683-4.013,5.664,5.664,0,0,0-3.949-1.618" transform="translate(57.704 -198.6)" fill="#ef7e19"/>
      <path id="Path_472" data-name="Path 472" d="M-95.2,213.966V201.7l12.59,9.256a13.341,13.341,0,0,1,5.114,7.865,13.2,13.2,0,0,0-9.224-4.855Z" transform="translate(107.078 -200.697)" fill="#f6b881"/>
      <path id="Shape" d="M-111.737,236.972a2.8,2.8,0,0,1-2.816,2.622h-8.027V224.156h8.027a2.8,2.8,0,0,1,2.816,2.622v10.195Zm-10.81-21.264V200.4H-131.9v47.738h19.613a10.073,10.073,0,0,0,7.088-2.913,9.96,9.96,0,0,0,2.913-7.088V225.709a9.952,9.952,0,0,0-10-9.936h-10.26Z" transform="translate(131.9 -199.817)" fill="#ef7e19"/>
      <path id="Path_473" data-name="Path 473" d="M169.375,279.174c-9.612,0-11.975-5.988-11.975-11.3V256.228c0-6.441,3.431-11.328,11.878-11.328,8.318,0,11.3,3.949,11.3,9.321v2.719h-4.887v-2.266c0-3.172-1.618-5.6-6.246-5.6-5.34,0-6.926,2.816-6.926,7.185v10.81c0,4.3,1.78,7.768,7.023,7.768,4.6,0,6.246-2.168,6.246-5.4v-2.168h4.887v2.363C180.573,275.064,177.3,279.174,169.375,279.174Z" transform="translate(-63.768 -229.915)" fill="#ccc"/>
      <path id="Path_474" data-name="Path 474" d="M255.869,279.242c-9.451,0-12.169-5.5-12.169-11.684v-10.68c0-5.7,2.913-11.878,12.59-11.878s12.266,5.988,12.266,11.587v10.907C268.556,273.125,266.161,279.242,255.869,279.242Zm.388-4.3c5.6,0,7.217-3.431,7.217-7.768V256.878c0-4.046-1.424-7.541-7.217-7.541-5.6,0-7.541,3.431-7.541,7.735v10.065C248.749,271.96,250.561,274.938,256.258,274.938Z" transform="translate(-122.137 -229.983)" fill="#ccc"/>
      <path id="Path_475" data-name="Path 475" d="M337.8,278.365V246h4.466l.162,4.5a10.278,10.278,0,0,1,9.548-5.4c5.114,0,7.735,2.622,8.8,5.7a10.732,10.732,0,0,1,9.742-5.7c7.282,0,9.451,5.211,9.451,10.26v23.011H375.02V256.68c0-4.013-1.036-7.217-5.89-7.217a7.205,7.205,0,0,0-5.34,1.942,7.338,7.338,0,0,0-2.363,5.211v21.846h-5.049V256.227c0-3.528-1.036-6.8-5.89-6.8a7.411,7.411,0,0,0-7.7,7.12V278.4H337.8Z" transform="translate(-185.782 -230.044)" fill="#ccc"/>
      <circle id="Oval" cx="3.528" cy="3.528" r="3.528" transform="translate(83.372 42.269)" fill="#ccc"/>
    </g>
  </g>
</svg>
