<svg id="Group_15" data-name="Group 15" xmlns="http://www.w3.org/2000/svg" xmlns:xlink="http://www.w3.org/1999/xlink" width="281.902" height="54.273" viewBox="0 0 281.902 54.273">
  <defs>
    <clipPath id="clip-path">
      <rect id="Rectangle_84" data-name="Rectangle 84" width="281.902" height="54.273" fill="none"/>
    </clipPath>
  </defs>
  <g id="Group_14" data-name="Group 14" clip-path="url(#clip-path)">
    <path id="Path_47" data-name="Path 47" d="M327.97,51.642c0-.535-.535-.749-1.016-.749h-.909v2.674h.481V52.5h.374l.588,1.069h.588l-.7-1.176a.7.7,0,0,0,.588-.7Zm-1.444.428v-.749h.428c.267,0,.535.053.535.374s-.321.374-.588.374Zm.428-2.139a1.664,1.664,0,1,0,.054-.054h-.054Zm0,4.278a2.032,2.032,0,1,1,2.032-2.031c0,.018,0,.035,0,.053a2.032,2.032,0,0,1-2.032,2.032Zm-152.928-3.9c-3.476,0-5.24-3.155-5.24-6.149s1.925-5.989,5.08-5.989a5.5,5.5,0,0,1,4.117,1.818l3.636-3.69A11.2,11.2,0,0,0,162.8,44.209c0,6.417,4.6,10.962,11.229,10.962,3.1,0,5.989-.909,7.7-2.781l-3.583-3.85a5.722,5.722,0,0,1-4.117,1.765m-20.586,4.278h5.775V33.889h-5.721Zm-10.427-9.357c0,2.406-1.6,5.026-4.492,5.026-2.3,0-3.529-1.6-3.529-4.973V33.943H129.27V46.776c0,4.278,2.139,8.448,7.86,8.448,2.674,0,4.919-2.139,6.042-3.743h.107v3.155h5.454V33.889h-5.721ZM118.95,36.509h-.107A8.748,8.748,0,0,0,112.32,33.3c-5.828,0-10.32,4.545-10.32,10.855,0,6.417,4.171,11.015,10.053,11.015a9.25,9.25,0,0,0,6.63-3.1h.107V64.742h5.668V33.889H119Zm-5.508,13.8c-3.529,0-5.561-3.1-5.561-6.149,0-2.941,1.818-6.042,5.561-6.042,3.369,0,5.454,3.208,5.454,6.1s-2.032,6.1-5.454,6.1m130.1-17c-6.47,0-11.229,4.545-11.229,10.855,0,6.524,4.812,11.069,11.229,11.069s11.229-4.6,11.229-11.069c0-6.31-4.706-10.855-11.229-10.855m0,17c-3.743,0-5.4-3.208-5.4-6.149s1.711-6.042,5.4-6.042,5.508,3.1,5.508,6.042-1.711,6.149-5.454,6.149Zm71.438-8.448c-2.941-.7-4.01-1.069-4.01-2.3,0-1.6,2.139-1.978,3.048-1.978a6.7,6.7,0,0,1,4.545,2.032l3.369-3.208c-1.6-1.925-4.652-3.048-7.86-3.048-4.171,0-8.5,2.085-8.5,6.684,0,4.01,3.155,5.187,6.2,5.935,3.208.749,4.385,1.283,4.385,2.62,0,1.871-2.139,2.192-2.941,2.192a7.433,7.433,0,0,1-5.187-2.46l-3.476,3.529A11.388,11.388,0,0,0,313,55.224c5.614,0,8.93-2.674,8.93-7.058C321.928,44,317.864,42.552,314.976,41.857Zm-10.855-7.967h-7.379l-7.379,8.555h-.107V22.5h-5.721V54.583h5.721V44.423h.107l7.646,10.16H304.5L295.62,43.3Zm-84.7-.535a8.984,8.984,0,0,0-6.417,2.781h-.053V22.5h-5.721V54.583h5.454V51.642h.107a7.7,7.7,0,0,0,6.47,3.476c5.882,0,10.373-4.6,10.373-10.962,0-6.31-4.385-10.855-10.213-10.855ZM218.3,50.305c-3.476,0-5.508-3.1-5.508-6.1s2.139-6.1,5.508-6.1c3.69,0,5.508,3.1,5.508,6.042,0,3.048-1.978,6.149-5.508,6.149M205.093,33.889h-7.379l-7.379,8.555h-.107V22.5h-5.721V54.583h5.721V44.423h.107l7.646,10.16h7.486L196.644,43.3Zm63.524-.535c-6.523,0-11.229,4.545-11.229,10.8,0,6.524,4.812,11.069,11.229,11.069s11.229-4.6,11.229-11.069c0-6.31-4.759-10.855-11.229-10.855Zm0,16.95c-3.743,0-5.454-3.208-5.454-6.149s1.711-6.042,5.454-6.042,5.4,3.1,5.4,6.042-1.711,6.149-5.4,6.149" transform="translate(-47.459 -10.469)"/>
    <path id="Path_48" data-name="Path 48" d="M24.062,0A24.062,24.062,0,1,1,0,24.062,24.062,24.062,0,0,1,24.062,0" transform="translate(0 0)" fill="#2ca01c"/>
    <path id="Path_49" data-name="Path 49" d="M12.5,31.274a9.357,9.357,0,0,0,9.357,9.357h1.337V37.156H21.857a5.882,5.882,0,1,1,0-11.764h3.208v18.18a3.476,3.476,0,0,0,3.476,3.476V21.917H21.857A9.357,9.357,0,0,0,12.5,31.274m25.4-9.357H36.562v3.476H37.9a5.882,5.882,0,1,1,0,11.764H34.691V18.976A3.476,3.476,0,0,0,31.215,15.5V40.632H37.9a9.357,9.357,0,1,0,0-18.715" transform="translate(-5.816 -7.212)" fill="#fff"/>
    <path id="Path_50" data-name="Path 50" d="M128.086,7.462a1.6,1.6,0,1,0-1.6-1.6,1.6,1.6,0,0,0,1.6,1.6m-9.464,1.069a3.583,3.583,0,0,0-3.208,1.978h-.107V8.8h-2.46V19.332h2.62V13.557a2.575,2.575,0,0,1,2.46-2.834c1.658,0,1.978,1.551,1.978,2.781v5.882h2.62V12.7c0-2.139-1.123-4.278-3.9-4.278ZM107.5,19.332h2.674V8.8H107.5ZM155.357,7.408a1.6,1.6,0,1,0-1.6-1.6,1.6,1.6,0,0,0,1.6,1.6M151.079,8.8v2.353h2.941v8.181h2.674V11.151h2.941V8.8Zm-4.492,10.534h2.674V8.8h-2.674Zm-22.725-8.181H126.8v8.181h2.674V11.151h2.941V8.8h-8.555Zm17.432,3.476a2.575,2.575,0,0,1-2.46,2.834c-1.658,0-1.978-1.6-1.978-2.834V8.8h-2.674v6.577c0,2.139,1.176,4.278,3.9,4.278a3.583,3.583,0,0,0,3.262-1.978h.053v1.711h2.513V8.8H141.24v5.775Z" transform="translate(-50.018 -1.954)"/>
  </g>
</svg>
